<svg xmlns="http://www.w3.org/2000/svg" width="216" height="190" fill="none"><g clip-path="url(#a)"><path fill="#1E2629" d="M90.326 159.714a.81.81 0 0 0 .317-1.139.81.81 0 0 0-.317-.299c-.72-.496-.907.093-1.798.187-.892.093-1.166-.432-1.77.223-.604.654 0 .877 0 1.755v1.755c0 .877-.043.87-.043 1.747 0 .878.05.878.05 1.755 0 .878-.072.878-.072 1.755 0 .877-.64 1.187 0 1.755.64.568.921-.094 1.842-.187.92-.094 1.122.381 1.827-.223.517-.446.632-1.072 0-1.381-.986-.511-1.31.892-2.23.273-.72-.489 0-.877 0-1.74s-.496-1.029 0-1.712.92.345 1.438-.187c.518-.532.547-.928 0-1.366-.546-.439-.906.64-1.438.151-.532-.489 0-.72 0-1.439 0-.719-.554-1.007 0-1.474.942-.698 1.366.431 2.194-.209zm24.115-1.862a2.61 2.61 0 0 0-.403-1.568 1.605 1.605 0 0 0-.68-.468 1.61 1.61 0 0 0-.823-.065 2.092 2.092 0 0 0-1.626 1.058 3.76 3.76 0 0 0-.424 1.927v.446c.719.036.935.424 1.374-.108 0-1.51.122-1.92.611-1.963.489-.043.475.266.475 1.309a5.53 5.53 0 0 1-.281 2.042 18.975 18.975 0 0 1-.82 1.913c-.33.72-.539 1.201-.719 1.568-.381.799-.518.964-.798 1.525-.094.604-.504.935.036 1.208.884.446.978-.108 1.963-.216.985-.107 1.208.439 1.985-.179.532-.432.604-1.086 0-1.367-1.129-.503-1.215.345-2.445.23.237-.46.453-.834.626-1.158.374-.719.546-1.143.575-1.201.252-.546.489-1.071.669-1.582.19-.54.344-1.093.46-1.654a8.32 8.32 0 0 0 .245-1.697zm-22.447 7.745c0 .252-.05.367-.05.59-.074.638.096 1.28.474 1.798a1.83 1.83 0 0 0 1.791.597 2.343 2.343 0 0 0 1.575-.755 2.474 2.474 0 0 0 .518-1.661 4.12 4.12 0 0 0-.266-1.511 5.878 5.878 0 0 0-.791-1.316c-.367-.503-.316-.532-.683-1.036-.978-1.359-1.065-1.481-1.065-2.157 0-.676.223-.993.619-1.029.395-.036.582.159.626.583.024.323.024.648 0 .971a1.31 1.31 0 0 0 1.438-.338c.03-.431.002-.865-.086-1.288a1.627 1.627 0 0 0-1.906-1.337c-.615.06-1.18.359-1.575.834a2.547 2.547 0 0 0-.597 1.683 3.31 3.31 0 0 0 .345 1.539c.252.471.546.919.877 1.338.36.496.338.51.72.999.719.885.927 1.273.927 1.971 0 .698-.251 1.05-.719 1.093-.59.065-.791-.251-.791-1.366 0-.216.237-.353.058-.461-.626-.359-.77.029-1.439.259zm8.731 2.158c.547-.719 0-.928 0-1.841v-5.48c0-.914-.554-1.115 0-1.856.417-.583.971.396 1.439-.13.467-.525.575-1.014 0-1.337-.95-.504-1.05.05-2.122.165-1.072.115-1.273-.388-2.158.252-.553.417-.517.928 0 1.381.518.453.957-.719 1.389-.166.575.72-.044.928-.044 1.842 0 .913.05.913.05 1.826v3.654c0 .913-.345.992 0 1.827.346.834.979.446 1.418-.151l.028.014zm4.006-.424c.511-.604.576-1.072 0-1.619-.575-.546-1.042-.402-1.524.159s-.331.899 0 1.596c.33.698 1.014.41 1.495-.151l.029.015zm24.087-2.582c.532-.719 0-.892 0-1.77v-7.005c0-.877.467-.992.043-1.754-.223-.41-.482-.058-.899.129a5.08 5.08 0 0 1-1.338 1.086c-.209.489-.295.647 0 1.064.23.302.575-.41.719-.071.353.769 0 .841 0 1.682 0 .842-.043.849-.043 1.698 0 .848.043.848.043 1.69v1.697c0 .849-.403.942 0 1.705.403.762.993.417 1.446-.166l.029.015zM118.605 166a2.353 2.353 0 0 0 1.733-1.093c.281-.489.324-.719.324-1.999 0-.856.036-.856.036-1.719 0-.863-.036-.863-.036-1.719 0-.856.036-.863.036-1.726 0-1.252-.051-1.525-.331-1.949a1.875 1.875 0 0 0-1.762-.64 2.313 2.313 0 0 0-1.748 1.028c-.287.482-.316.719-.316 1.999 0 .863-.043.863-.043 1.726 0 .864.057.864.057 1.727 0 .863-.079.863-.079 1.718 0 1.252.115 1.496.396 1.921a1.832 1.832 0 0 0 1.733.726zm-.597-8.566c0-.604.172-.841.597-.884.424-.043.575.144.575.719 0 .798.036.798.036 1.597v3.193c0 .805-.036.798-.036 1.597 0 .596-.18.906-.604.956-.424.05-.597-.23-.597-.827v-4.783c0-.798-.007-.769-.007-1.568h.036zm6.746 7.732c.532-.719 0-.885 0-1.762v-1.755c0-.878-.036-.87-.036-1.748v-3.502c0-.871.468-.993.043-1.762-.223-.403-.482-.051-.899.136a5.33 5.33 0 0 1-1.338 1.086c-.201.489-.294.648 0 1.072.231.295.583-.417.72-.086.352.769 0 .848 0 1.69 0 .841-.051.848-.051 1.69 0 .841.051.849.051 1.697v1.726c0 .849-.403.935-.036 1.698.366.762 1.057.41 1.51-.18h.036zm-22.08-35.119a1.518 1.518 0 0 0-.108-.971 1.844 1.844 0 0 0-1.625-1.079 3.597 3.597 0 0 0-1.618.36c-.506.234-.97.55-1.374.935-.403.39-.769.816-1.093 1.273a3.595 3.595 0 0 0-1.553.108 5.74 5.74 0 0 0-1.396.669 3.97 3.97 0 0 0-1.266 1.093 2.875 2.875 0 0 0-.553 1.568 1.296 1.296 0 0 0 .719 1.244 1.648 1.648 0 0 0 1.438-.065 8.54 8.54 0 0 0 1.288-.719c.166.399.194.842.079 1.259a3.07 3.07 0 0 1-.561 1.193 5.18 5.18 0 0 1-1.503 1.108 3.935 3.935 0 0 1-1.784.525 3.26 3.26 0 0 1-1.438-.432 2.728 2.728 0 0 1-1.058-1.042 3.119 3.119 0 0 1-.438-1.439 5.932 5.932 0 0 1 .144-1.539 6.38 6.38 0 0 1 .467-1.438c.24-.503.521-.984.841-1.439a5.75 5.75 0 0 1 1.072-1.273 5.027 5.027 0 0 1 1.439-.755c.503-.208 1-.417 1.546-.604.417-.122.604-.137.719-.611.043-.295.093-.518.115-.662 0-.288-.072-.46-.777-.309-.453.086-1.294.244-1.719.295a.945.945 0 0 1-1.115-.676 2.915 2.915 0 0 1 .152-1.561c.177-.508.419-.992.719-1.439a3.981 3.981 0 0 1 1.978-1.567.714.714 0 0 1 .719.51c.094.274-.216.892-.41 1.165-.352.396-.59.763-.46 1.065.129.302.424.287.719.323.334.04.671.023 1-.05a2.303 2.303 0 0 0 1.143-.669 2.875 2.875 0 0 0 .36-2.452 3.238 3.238 0 0 0-.662-1.367 2.873 2.873 0 0 0-1.316-.755 4.722 4.722 0 0 0-1.568-.187 5.613 5.613 0 0 0-1.54.352c-.495.17-.963.413-1.387.72-.442.3-.854.642-1.23 1.021a7.42 7.42 0 0 0-.942 1.287c-.27.462-.478.958-.619 1.475a5.162 5.162 0 0 0-.144 1.589 3.2 3.2 0 0 0 .454 1.582 3.17 3.17 0 0 0 1.244 1.108 13.17 13.17 0 0 0-1.475 1.151 9.68 9.68 0 0 0-1.287 1.323 7.745 7.745 0 0 0-.892 1.618 6.672 6.672 0 0 0-.482 1.784 4.833 4.833 0 0 0 .13 1.755c.147.573.39 1.118.72 1.611.318.493.72.929 1.186 1.287.422.311.89.553 1.388.719.492.203 1.01.336 1.539.396a7.24 7.24 0 0 0 1.59-.122 8.317 8.317 0 0 0 1.546-.389 8.741 8.741 0 0 0 1.668-.791 7.934 7.934 0 0 0 1.439-1.165c.439-.427.819-.91 1.129-1.438a6.074 6.074 0 0 0 .719-1.712 6.551 6.551 0 0 0 0-1.719 3.896 3.896 0 0 0-.468-1.64c.32-.534.809-.946 1.389-1.172.432-.216.93-.262 1.395-.13.414.12.764.396.978.77a1.292 1.292 0 0 0 .654-.863h.036zm112.542-11.435c-.201.287-.568.805-1.036 1.438-.316.432-.669.928-1.071 1.438-.403.511-.763.907-1.18 1.324-.415.427-.868.817-1.352 1.165a4.332 4.332 0 0 1-1.661.719c-.036-.841.309-.805.546-1.618.238-.813.187-.827.425-1.64.237-.813.251-.813.482-1.625.23-.813.266-.806.503-1.619.237-.812.216-.819.446-1.632s.23-.82.46-1.64.245-.813.475-1.633c.086-.374.546-1.589-.41-1.481-.353.043-1.158.108-1.554.158a1.71 1.71 0 0 0-1.438 1.05 17.946 17.946 0 0 0-.719 1.769c-.266.676-.245.72-.518 1.36-.273.64-.288.676-.554 1.352-.266.676-.28.676-.554 1.352-.273.676-.431 1.259-.647 1.798-.236.59-.515 1.162-.834 1.712-.396.719-.798 1.165-1.338 1.294a.715.715 0 0 1-.935-.28c-.131-.536-.08-1.1.144-1.604.137-.46.374-.964.583-1.503.208-.54.41-1 .618-1.496.209-.496.381-1.05.568-1.511.317-.776.36-.762.676-1.539.317-.776.324-.769.633-1.553.389-1.007.266-1.359-.525-1.266l-1.596.18c-.835.093-1.259.539-1.655 1.546-.287.763-.28.77-.553 1.539-.274.77-.267.77-.547 1.539-.281.77-.266.777-.547 1.539-.23.655-.539 1.439-.762 2.237-.36.504-.762 1.043-1.187 1.568a19.37 19.37 0 0 1-1.309 1.438c-.426.499-.97.885-1.582 1.122-.942.187-1.323-.661-1.086-1.611.101-.366.266-.863.489-1.438.158-.432.381-.899.597-1.402.216-.504.367-.935.597-1.439.137-.309.158-.302.302-.611.245-.525.54-1.165.798-1.762.296-.565.486-1.18.561-1.813a1.516 1.516 0 0 0-1.438-1.503 5.207 5.207 0 0 0-2.158.13c-.665.251-1.315.539-1.949.863-.309-.367-.302-.914-1.258-.806l-1.712.166c-.518.057-.669.057-1.165 1.194-.353.834-.317.848-.647 1.682-.331.835-.36.828-.72 1.662-.359.834-.338.834-.668 1.668-.331.835-.374.82-.72 1.662a11.672 11.672 0 0 1-.589 1.704c-.583.77-1.201 1.439-1.575 1.87a2.085 2.085 0 0 1-2.237.813c-.432-.165-.568-.532-.504-1.086.081-.43.194-.853.338-1.266.108-.338.266-.791.446-1.23.18-.438.324-.913.453-1.23.338-.812.403-.784.72-1.596.316-.813.316-.82.654-1.633.338-.813.338-.813.683-1.625.346-.813.353-.806.72-1.611.208-.425.071-.719-.216-.763-.475 0-1.273.065-1.949.144-1.158.13-1.345.115-2.007 1.23a3.633 3.633 0 0 0-1.654-.633 5.24 5.24 0 0 0-1.762-.057 6.482 6.482 0 0 0-1.741.604 6.625 6.625 0 0 0-1.524 1.028 7.824 7.824 0 0 0-1.252 1.345c-.352.507-.66 1.044-.92 1.604a19.273 19.273 0 0 0-.662 1.611 14.78 14.78 0 0 0-.539 1.654 11.379 11.379 0 0 0-.324 1.698c-.344.429-.719.833-1.122 1.208-.427.356-.89.667-1.381.928a1.773 1.773 0 0 1-1.604.223c.333-.532.61-1.096.827-1.683.202-.554.382-1.173.54-1.784.158-.611.316-1.244.403-1.827a8.342 8.342 0 0 0 .057-1.855 3.858 3.858 0 0 0-.309-1.259 1.633 1.633 0 0 0-.899-.913 2.603 2.603 0 0 0-1.762.064c-.719.238-1.345.633-1.683.576-.338-.058-.511-.72-.791-.72l-2.158.245c-.813.094-.978 0-1.323.784-.151.331-.295.834-.583 1.561-.288.726-.338.719-.626 1.474-.287.755-.273.719-.553 1.496-.281.777-.281.719-.569 1.489-.287.769-.316.719-.604 1.488a9.803 9.803 0 0 1-.546 1.496c-.605.72-1.187 1.439-1.568 1.842-.302.343-.631.66-.985.949a.992.992 0 0 1-1.283-.008.992.992 0 0 1-.271-.373 2.237 2.237 0 0 1 0-1.489c.107-.503.256-.996.446-1.474a12.2 12.2 0 0 1 .669-1.381c.277-.523.587-1.027.928-1.511.338-.618.676-1.294.978-1.913a4.614 4.614 0 0 0 .625-2.021c-.122-.913-1.021-1.323-1.941-1.337a3.744 3.744 0 0 0-1.439.294 5.394 5.394 0 0 0-1.266.77c-.539.432-.906.877-1.179.892-.554.065-.626-1.136-1.439-1.525a2.067 2.067 0 0 0-1.79.288 12.06 12.06 0 0 1-1.676.863c-.281 0-.288-.086-.489-.583-.094-.151-.187-.251-.583-.201-.64.079-.64.093-1.273.173-1.035.122-1.345 0-1.733 1.035-.036.094-.281.791-.662 1.769-.201.518-.431 1.122-.683 1.763-.252.64-.482 1.157-.719 1.747-.238.59-.453 1.208-.676 1.777a8.002 8.002 0 0 1-.928 1.165c-.335.37-.726.685-1.158.935a1.494 1.494 0 0 1-1.395.144c.188-.467.337-.948.446-1.439.107-.453.151-.956.23-1.489.079-.532.136-.963.187-1.481a6.934 6.934 0 0 0 .05-1.503 4.38 4.38 0 0 0-.467-1.439 3.41 3.41 0 0 0-.878-1.201 3.676 3.676 0 0 0-1.488-.669 5.174 5.174 0 0 0-1.626-.129 6.56 6.56 0 0 0-1.611.259 6.477 6.477 0 0 0-1.618.769 7.914 7.914 0 0 0-1.345 1.194c-.389.46-.735.953-1.036 1.475a13.967 13.967 0 0 0-1.46 3.272 10.107 10.107 0 0 0-.345 2.488c-.324.475-.719.957-1.108 1.439a14.88 14.88 0 0 1-1.251 1.273 9.67 9.67 0 0 1-1.374 1.122 5.144 5.144 0 0 1-1.582.805 2.558 2.558 0 0 1-1.748-.136 2.624 2.624 0 0 1-1.438-1.964 5.719 5.719 0 0 1 0-1.683c.077-.558.19-1.11.338-1.654.152-.54.334-1.07.547-1.589.185-.53.406-1.047.661-1.547.275-.491.598-.953.964-1.38.188-.268.434-.489.719-.648.389-.122.719 0 .77.302-.1.67-.252 1.331-.453 1.978-.151.54-.202 1.072.23 1.388a2.025 2.025 0 0 0 1.762.23c.446-.107.843-.36 1.129-.719a3.36 3.36 0 0 0 .626-1.201 6.11 6.11 0 0 0 .223-1.669 2.314 2.314 0 0 0-.511-1.553 3.421 3.421 0 0 0-1.251-.849 5.081 5.081 0 0 0-1.496-.259 7.132 7.132 0 0 0-1.518 0c-.565.1-1.107.305-1.596.605a6.85 6.85 0 0 0-1.36 1.042c-.402.411-.77.854-1.1 1.324-.337.459-.645.94-.921 1.438a12.778 12.778 0 0 0-.719 1.597 13.132 13.132 0 0 0-.417 1.683 9.862 9.862 0 0 0-.245 1.719 7.256 7.256 0 0 0 .159 1.726c.112.573.316 1.124.604 1.632.308.494.7.929 1.158 1.288.442.376.945.673 1.488.877a5.35 5.35 0 0 0 1.698.317 4.14 4.14 0 0 0 1.755-.317 7.964 7.964 0 0 0 1.625-.813c.488-.352.954-.734 1.395-1.143.439-.424.827-.885 1.216-1.338.388-.453.805-.928 1.136-1.388.086.712.351 1.39.77 1.971.331.415.727.774 1.172 1.064.449.271.933.479 1.438.619a4.221 4.221 0 0 0 1.568.172 6.016 6.016 0 0 0 1.77-.438 5.654 5.654 0 0 0 1.524-1.014c.45-.413.851-.877 1.194-1.381.349-.505.666-1.031.949-1.575.454.191.955.243 1.439.151.467-.11.909-.308 1.302-.583-.238.561-.489 1.086-.662 1.546-.259.72-.381 1.316-.158 1.655a1.448 1.448 0 0 0 1.028.445c.604.036.604 0 1.208.036.842 0 .914-.417 1.072-.87.252-.669.209-.64.482-1.345.18-.453.424-.928.575-1.302.209-.51.338-.999.525-1.438.187-.439.453-.928.669-1.374.216-.446.468-.884.719-1.345.335-.758.745-1.48 1.223-2.157.216-.379.504-.711.849-.978.295-.281 1.086-.187.827.489-.115.352-.302.719-.525 1.194-.144.33-.317.719-.554 1.186-.237.468-.417.928-.662 1.439-.244.51-.489.978-.719 1.438-.374.813-.309.719-.647 1.439a4.309 4.309 0 0 0-.554 1.834c.058.402.302.604.899.776.418.135.843.246 1.273.331.655.122.777-.41 1.007-.956.403-.914.41-.827.856-1.806.273-.611.582-1.273.834-1.819.302-.655.532-1.201.784-1.741.243-.588.519-1.162.827-1.719.331-.621.713-1.212 1.144-1.769.395-.568.503-.604.82-.719.187-.101.719.158.446.834-.195.446-.159.461-.367.906-.209.446-.504 1.036-.806 1.655a25.162 25.162 0 0 0-.762 1.675 10.194 10.194 0 0 0-.547 1.755 2.918 2.918 0 0 0 0 1.82c.17.359.435.665.766.885.33.221.714.347 1.111.366a4.916 4.916 0 0 0 1.849-.18 5.742 5.742 0 0 0 1.654-.855c.498-.36.959-.77 1.374-1.223a5.622 5.622 0 0 1-.583 1.668c-.316.828-.309.835-.626 1.662-.316.827-.388.805-.719 1.632-.331.828-.302.835-.618 1.662-.259.64-.432 1.143-.569 1.532-.323.956-.266 1.244.123 1.438.592.26 1.23.399 1.877.41.611 0 .784-.309 1.316-1.532.352-.827.367-.82.719-1.647.353-.827.374-.82.719-1.64.346-.819.302-.848.655-1.675l.719-1.655c.352-.827.079-1.014.719-1.632a2.764 2.764 0 0 0 2.086.971 3.2 3.2 0 0 0 1.525-.496 8.914 8.914 0 0 0 1.359-.892c.417-.351.816-.723 1.194-1.115.381-.403.719-.834 1.057-1.244a3.53 3.53 0 0 0 1.892-.187 7.66 7.66 0 0 0 1.762-.791 9.331 9.331 0 0 0 1.438-1.216c.068.843.313 1.661.719 2.402.335.526.794.961 1.338 1.266a3.29 3.29 0 0 0 1.74.525 3.126 3.126 0 0 0 1.899-.813 6.907 6.907 0 0 0 1.388-1.589c.15.521.447.989.856 1.345.438.311.977.447 1.51.381a3.077 3.077 0 0 0 1.612-.561 9.032 9.032 0 0 0 1.402-1.036c.403-.381.798-.863 1.194-1.309-.194.648-.367 1.187-.417 1.482-.094.41.287.525 1.014.518.447.004.894-.02 1.338-.072 1.114-.13 1.006-.18 1.503-1.359.28-.72.244-.597.568-1.396.172-.424.316-.927.518-1.438.201-.511.41-.971.597-1.381.28-.604.618-1.165.899-1.719.28-.554.625-1.244.891-1.712.315-.651.688-1.272 1.115-1.855.237-.224.522-.389.834-.482.274-.115 1-.122.612.482-.273.561-.317.849-.496 1.151-.216.482-.454.971-.677 1.438-.223.468-.409 1.014-.604 1.503-.194.489-.417 1.029-.568 1.518a8.179 8.179 0 0 0-.302 1.589 2.797 2.797 0 0 0 .194 1.575 2.674 2.674 0 0 0 2.086 1.374 3.14 3.14 0 0 0 1.611-.23 6.62 6.62 0 0 0 1.438-.784c.452-.314.88-.66 1.281-1.036a18.21 18.21 0 0 0 1.122-1.208c.359-.417.668-.842.992-1.273-.034.69.128 1.376.468 1.978a2.49 2.49 0 0 0 1.855 1.309c.5.022.997-.09 1.439-.324a5.162 5.162 0 0 0 1.244-.834 9.53 9.53 0 0 0 .971-1.115 9.03 9.03 0 0 1-.54 2.158c-.151.136-1.172 1.122-1.92 1.726-.417.345-.82.719-1.215 1.079-.396.359-.813.719-1.173 1.129-.359.41-.719.856-1 1.28-.324.433-.619.887-.884 1.359a7.18 7.18 0 0 0-.59 1.511 5.117 5.117 0 0 0-.216 1.589c.019.461.136.912.346 1.323a2.608 2.608 0 0 0 2.229 1.396 3.786 3.786 0 0 0 2.719-1.158 9.44 9.44 0 0 0 1.014-1.309c.298-.465.572-.945.82-1.439.266-.482.496-.978.719-1.474.223-.496.496-1.007.719-1.496.223-.489.432-1.072.597-1.539.23-.669.424-1.216.511-1.561.367-1.237.417-1.438.647-2.481a10.936 10.936 0 0 0 1.496-.719c.49-.261.952-.569 1.381-.921.438-.37.851-.769 1.237-1.194.367-.395.719-.87 1.093-1.323.374-.453.719-.914 1.072-1.359a9.84 9.84 0 0 0 .942-1.439 2.666 2.666 0 0 0-.108-1.632h.036zm-84.6 7.012a2.73 2.73 0 0 0-.497 1.395 5.673 5.673 0 0 0 .18 1.755c.13.577.374 1.123.719 1.604-.064.244-.122.388-.151.51a5.982 5.982 0 0 1-.841 1.439 3.607 3.607 0 0 1-1.252 1.086 1.523 1.523 0 0 1-1.639-.094 1.768 1.768 0 0 1-.669-1.294 7.197 7.197 0 0 1 0-1.482c.061-.614.171-1.223.331-1.819.145-.599.33-1.188.553-1.762.23-.573.514-1.122.849-1.64.327-.53.76-.986 1.273-1.338.45-.26.983-.337 1.489-.216a1.133 1.133 0 0 1 .913 1.115 2.266 2.266 0 0 0-1.294.741h.036zm30.12 3.819c-.302.237-.719.546-1.158.395a.811.811 0 0 1-.511-.884c.073-.526.21-1.041.41-1.532.166-.453.339-.971.569-1.496.23-.525.453-.971.719-1.439.266-.467.525-.978.784-1.438.256-.468.562-.907.913-1.309.204-.209.449-.373.719-.482a.805.805 0 0 1 .354-.047.803.803 0 0 1 .593.365.796.796 0 0 1 .118.337 7.784 7.784 0 0 1-.115 1.711 10.04 10.04 0 0 1-.446 1.662c-.2.542-.44 1.069-.719 1.575-.29.494-.619.963-.986 1.402a6.461 6.461 0 0 1-1.28 1.18h.036zm18.246-9.055c-.136.439-.381 1.043-.618 1.733-.187.547-.367 1.151-.604 1.741-.238.59-.497 1.143-.777 1.676a8.898 8.898 0 0 1-1.036 1.517c-.172.256-.4.469-.666.624a2.037 2.037 0 0 1-.873.268c-.546-.043-.856-.532-.863-1.582a10.13 10.13 0 0 1 .245-1.971c.151-.719.294-1.388.496-2.028.21-.666.475-1.313.791-1.935.222-.445.485-.869.784-1.266a3.263 3.263 0 0 1 1.201-.87c.777-.288 1.604-.338 2.014.209.359.438.05 1.179-.13 1.884h.036zm22.08 16.916a.721.721 0 0 1-.863-.144c-.173-.137-.352-.446-.288-1.093a4.31 4.31 0 0 1 .612-1.762c.318-.546.676-1.068 1.071-1.561.393-.502.813-.982 1.259-1.438.456-.437.936-.848 1.438-1.23-.086.331-.201.892-.402 1.553-.144.468-.374.971-.561 1.503-.187.533-.339 1.029-.54 1.518a9.892 9.892 0 0 1-.719 1.438c-.21.506-.575.931-1.043 1.216h.036zm-64.549-56.012c-.511-.633-.834.065-1.64.158l-1.618.194c-.805.094-.798.13-1.611.223l-1.611.194c-.813.094-.806.123-1.618.216-.813.094-1.165-.518-1.626.151-.46.67.288.72.533 1.439.205.459.35.942.431 1.438.065.58.065 1.167 0 1.748v3.509c0 .878-.05.87-.05 1.748s.05.878.05 1.755v1.755c0 .87-.036.87-.036 1.748 0 .877.036.877.036 1.754 0 .878-.036.878-.036 1.755v3.51a7.922 7.922 0 0 1 0 1.755 6.921 6.921 0 0 1-.474 1.568c-.245.776-1.043.928-.525 1.56.517.633.812-.136 1.618-.23.805-.093.82 0 1.625-.115.806-.115.798-.158 1.604-.252.805-.093.82 0 1.625-.122l1.626-.187c.805-.093 1.151.446 1.611-.223.46-.669-.237-.719-.482-1.438a5.791 5.791 0 0 1-.482-1.439 7.507 7.507 0 0 1-.036-1.747v-8.76c0-.878.036-.878.036-1.755V89.7c0-.877-.079-.877-.079-1.754 0-.878.05-.878.05-1.755a8.05 8.05 0 0 1-.05-1.762 2.82 2.82 0 0 1 .539-1.554c.518-.777 1.072-.95.554-1.582h.036zM76.1 115.346c.59.64.892-.079 1.755-.179l1.726-.202c.87-.101.863-.136 1.726-.237l1.733-.209c.863-.1.863-.122 1.726-.223.863-.1.87-.057 1.733-.158.864-.101.856-.151 1.727-.252.87-.1.87 0 1.733-.129.863-.13.863-.13 1.733-.223.87-.094 1.057.352 1.74-.194.684-.547.23-.813.49-1.618.258-.806.302-.784.56-1.59.26-.805.21-.813.468-1.618l.518-1.604c.259-.805 1.287-1.223.54-1.618-.943-.489-.965.467-1.935.899a10.24 10.24 0 0 1-1.942.834 6.805 6.805 0 0 1-1.712.194c-.863.101-.856.13-1.712.23l-1.726.187c-.856.101-.863.353-1.719.223-.424-.072-.517-.187-.625-.604-.238-.877-.05-.906-.05-1.819a6.7 6.7 0 0 1 .071-1.82c.058-.316.072-.431.382-.511a6.815 6.815 0 0 1 2.588-.23c.72 0 .72.151 1.389.31.669.158.877.762 1.395.273s0-.813 0-1.618v-1.626c0-.813-.036-.805-.036-1.618v-1.625c0-.813.662-1.122 0-1.597-.662-.475-.669.316-1.367.626a5.46 5.46 0 0 1-1.438.633 6.818 6.818 0 0 1-2.582.302c-.28 0-.381-.123-.424-.403a6.212 6.212 0 0 1 .036-2.575c.043-.316.1-.345.403-.439a5.751 5.751 0 0 1 1.646-.273c.828-.093.835-.043 1.669-.136.834-.094.827-.152 1.661-.245a6.472 6.472 0 0 1 1.669-.151 7.81 7.81 0 0 1 1.762.352c.885.187 1.165 1.072 1.74.374.576-.697-.251-.877-.56-1.769-.31-.892-.317-.877-.626-1.77-.31-.891-.295-.884-.604-1.776-.31-.891.136-1.237-.633-1.769-.77-.532-.842.094-1.669.187-.827.094-.827.13-1.661.23l-1.669.194c-.827.094-.834.036-1.668.137-.835.1-.828.122-1.662.216-.834.093-.834.072-1.668.165-.834.094-.834.115-1.662.209-.827.093-.834.115-1.668.208-.834.094-.827.123-1.662.216-.834.094-1.15-.496-1.64.187-.489.683.18.72.425 1.439.245.719.424.676.54 1.438a7.55 7.55 0 0 1 0 1.755v17.534a7.946 7.946 0 0 1 0 1.755 2.804 2.804 0 0 1-.46 1.575c-.432.77-1.08.942-.533 1.546h.029zm46.504-5.394c.352-.942-.511-.856-1.043-1.704a15.756 15.756 0 0 1-1.108-1.683 13.669 13.669 0 0 1-.669-1.762c-.345-.87-.338-.87-.719-1.741-.381-.87-.381-.863-.719-1.733-.338-.87-.842-.827-.719-1.755.122-.928.589-.72 1.201-1.366.611-.648.64-.655 1.244-1.33.604-.677.849-.533 1.172-1.382.324-.848.079-.899.079-1.812 0-.914-.072-.914-.072-1.82s.065-.913.065-1.827c0-.913.36-1.007 0-1.84-.359-.835-.719-.555-1.323-1.123s-.64-.575-1.28-1.15l-1.288-1.144c-.64-.568-.482-.856-1.301-1.115-.82-.259-.856.108-1.727.209-.87.1-.855.115-1.726.216l-1.726.187-1.733.194-1.726.208c-.87.101-.87.072-1.734.166-.863.093-.87.072-1.733.172l-1.733.195c-.863.1-.856.18-1.726.28-.87.1-1.223-.547-1.748.151-.525.698.295.72.54 1.439.215.456.368.94.453 1.438.064.58.064 1.167 0 1.748v1.747c0 .87-.065.878-.065 1.755v10.515c0 .877-.058.877-.058 1.755v1.755a7.946 7.946 0 0 1 0 1.755 6.73 6.73 0 0 1-.474 1.56c-.245.784-1.072.986-.482 1.554.59.568.935-.13 1.884-.245l1.892-.23c.942-.115.964 0 1.906-.144s.949-.151 1.898-.266c.95-.115 1.288.532 1.906-.201.489-.583-.223-.719-.467-1.439a5.534 5.534 0 0 1-.518-1.438 8.468 8.468 0 0 1 0-1.856v-1.862a7 7 0 0 1 0-1.863c.057-.317.151-.396.46-.482a4.858 4.858 0 0 1 2.158-.259c.46 0 .597-.036.87.338.511.719.302.827.59 1.647.288.82.266.834.554 1.661.287.828.28.828.568 1.655.287.827.323.805.611 1.632.288.827-.208 1.216.54 1.676.748.46.891-.137 1.783-.237.892-.101.892-.123 1.784-.223l1.783-.195a4.773 4.773 0 0 1 1.791-.158c1.065.13 1.539.619 1.856-.223h.029zm-9.034-16.347c-.309.956-.194 1.05-.863 1.798a2.875 2.875 0 0 1-1.697 1.05 4.606 4.606 0 0 1-1.604.215c-.805.094-.805.274-1.611.195-.28 0-.403-.101-.46-.382-.173-.834.043-.862.043-1.718s-.05-.863-.05-1.72a5.919 5.919 0 0 1 .064-1.711c.065-.316.101-.388.403-.49a5.492 5.492 0 0 1 1.611-.172c.813-.093.813-.323 1.611-.208a2.216 2.216 0 0 1 1.698.719c.683.604.503.755.891 1.59.166.395.079.395-.036.834zm-55.587 23.841c.755.475.906-.086 1.798-.187.892-.1.884-.115 1.776-.215.892-.101.892-.137 1.784-.238.892-.1 1.079.353 1.776-.215.698-.569.23-.835.482-1.662s.295-.82.554-1.654c.259-.834.209-.841.468-1.669.258-.827.316-.812.575-1.639.259-.827.23-.842.489-1.669.259-.827.259-.834.518-1.661.259-.827.23-.842.489-1.669.259-.827.302-.82.554-1.647.251-.827.215-.848.467-1.683.252-.834.259-.827.51-1.654.252-.827.288-.82.547-1.654.26-.834.216-.842.475-1.676s.295-.82.546-1.654c.252-.834.267-.827.518-1.661.131-.567.292-1.126.482-1.676.227-.543.481-1.073.763-1.59.374-.79 1.28-.877.719-1.567s-.906.071-1.827.18c-.92.107-.913.158-1.841.265-.928.108-.928 0-1.849.137-.92.137-.92.173-1.84.28-.921.109-1.238-.51-1.885.159-.518.54.1.777.209 1.51.108.734.302.72.251 1.439a5.406 5.406 0 0 1-.431 1.575c-.209.784-.216.784-.425 1.575-.208.79-.172.798-.38 1.582l-.418 1.582c-.208.784-.194.791-.403 1.575-.208.784-.215.791-.424 1.575-.209.784-.216.791-.431 1.583-.216.791-.245.776-.403 1.582-.158.805.518 1.438-.245 1.517-.762.079 0-.755-.18-1.481-.187-.863-.23-.849-.467-1.698-.237-.848-.31-.827-.547-1.668-.237-.842-.187-.863-.417-1.712-.23-.849-.295-.827-.525-1.676-.23-.848-.194-.855-.431-1.704-.238-.849-.267-.842-.497-1.69a6.24 6.24 0 0 1-.481-1.698c-.065-.77.172-.762.273-1.524.1-.763.719-1.014.194-1.547-.525-.532-.82.08-1.625.173-.806.093-.799.115-1.604.209l-1.611.187c-.806.093-.799.13-1.604.223l-1.611.186c-.806.094-1.259-.575-1.64.144-.381.72.396.72.777 1.439.273.462.513.943.72 1.438.213.537.39 1.087.531 1.647.266.827.28.827.54 1.654.259.828.28.82.54 1.647.258.828.272.828.531 1.655.26.827.187.848.446 1.675.26.827.31.82.568 1.647.26.827.245.835.504 1.662s.237.834.496 1.668c.259.835.28.82.54 1.647.258.827.273.827.539 1.654l.518 1.655c.259.834.295.819.554 1.654a6.04 6.04 0 0 1 .496 1.668c.093.928-.238 1.223.503 1.69h.022zm83.809-9.694c.568.64.863-.152 1.712-.245.849-.094.863 0 1.719-.122.856-.123.848-.166 1.697-.266.849-.101.863 0 1.719-.13l1.704-.201c.856-.094.849-.137 1.705-.23l1.712-.187 1.711-.195c.849-.093.849-.129 1.705-.23.856-.1.935.194 1.704-.194.77-.388.54-.633 1.094-1.251.553-.619.568-.619 1.129-1.245.561-.625.561-.611 1.122-1.237.561-.625.546-.625 1.107-1.251.561-.626.849-.439 1.144-1.223.295-.784 0-.884 0-1.769v-1.762c0-.877-.079-.885-.079-1.77 0-.884.057-.877.057-1.761 0-.885-.057-.885-.057-1.762 0-.878.043-.885.043-1.77V85.42c0-.885.432-.978.058-1.784-.374-.805-.72-.618-1.439-1.23-.719-.61-.719-.625-1.395-1.236-.676-.612-.719-.605-1.439-1.223-.719-.619-.51-.935-1.402-1.23-.892-.295-.849.13-1.697.23l-1.712.202c-.856.093-.856.036-1.712.136-.856.101-.856.123-1.712.223-.855.1-.848.08-1.704.173-.856.093-.856.115-1.705.216l-1.711.215c-.849.094-.849.115-1.705.216-.856.1-.856.108-1.712.209-.855.1-1.229-.561-1.74.136-.511.698.288.72.532 1.439.221.456.381.94.475 1.438a7.574 7.574 0 0 1 0 1.755v5.25c0 .878.036.878.036 1.755v10.522a8.05 8.05 0 0 1 .043 1.762 2.744 2.744 0 0 1-.54 1.554c-.467.798-1.035.992-.489 1.604h.022zm8.753-21.411c.065-.31.115-.338.417-.439.662-.237.719-.086 1.388-.165.669-.08.719-.317 1.388-.195 1.057.18 1.216 0 2.021.72.806.719.719.87 1.014 1.906.223.805-.036.841-.036 1.675 0 .834.051.842.051 1.676s-.072.834-.072 1.676v1.676c0 .841.201.863 0 1.668-.295 1.144-.18 1.273-.964 2.158-.784.884-.921.812-2.035 1.18a4.389 4.389 0 0 1-2.568.337c-.432-.036-.539-.165-.662-.575-.23-.798 0-.842 0-1.669v-9.975a4.343 4.343 0 0 1 .036-1.654h.022zm41.297.15c-.568-.66-.892.073-1.755.173l-1.733.209c-.863.1-.863.13-1.726.23-.864.1-.864.115-1.727.209-.863.093-.87.13-1.733.23-.863.1-1.366-.626-1.748.158-.381.784.475.798.907 1.604.351.503.62 1.06.798 1.647.194.72 0 .719 0 1.489v1.503c0 .748.302.812 0 1.51s-.36.849-1.1 1.165a3.28 3.28 0 0 1-2.345.317 2.153 2.153 0 0 1-1.733-.662c-.72-.611-.597-.72-.827-1.64-.23-.92-.044-.827-.044-1.668V89.62c0-.841-.036-.834-.036-1.675 0-.842-.258-.885 0-1.676a3.713 3.713 0 0 1 1.273-2.1 4.363 4.363 0 0 1 2.158-1.288 4.158 4.158 0 0 1 1.633-.244c.827-.094.834 0 1.654-.108s.82-.295 1.647-.259c.827.036.719.23 1.489.388l1.503.331c.755.166 1.043.9 1.51.288.467-.611-.259-.784-.525-1.568s-.266-.791-.539-1.575c-.274-.784-.302-.77-.568-1.553l-.547-1.576c-.266-.783.18-1.122-.539-1.539-.72-.417-.878.094-1.77.202l-1.791.194c-.899.108-.891.115-1.79.216-.899.1-.899.072-1.791.18-.892.107-.899.071-1.798.172l-1.791.201c-.899.101-.964-.122-1.777.28-.812.404-.582.584-1.136 1.202-.554.618-.518.662-1.079 1.28-.561.619-.597.59-1.15 1.216-.554.625-.54.64-1.094 1.265-.553.626-.82.46-1.107 1.245-.288.784-.065.891-.065 1.798V95.79c0 .906-.057.906-.057 1.82 0 .913-.338.978 0 1.812.338.834.625.583 1.265 1.158.64.575.655.554 1.302 1.122.647.568.655.561 1.295 1.129.64.568.474.856 1.294 1.115.82.259.813-.108 1.64-.201.827-.094.834 0 1.661-.116.828-.115.82-.143 1.655-.237.834-.093.827-.079 1.654-.172.827-.094.827-.072 1.654-.166.827-.093.827-.115 1.661-.216.835-.1.921.195 1.655-.201.733-.396.618-.683 1.229-1.374.612-.69.597-.719 1.209-1.402.611-.683.647-.669 1.258-1.36.612-.69 1.021-.474 1.223-1.373.244-1.043-.309-1.029-.424-2.093a11.8 11.8 0 0 1 0-1.899V91.23a6.214 6.214 0 0 1 0-1.906 2.238 2.238 0 0 1 .647-1.438c.784-.676 1.46-.805.949-1.395h.022zm4.588-9.104c.069.58.069 1.167 0 1.747v7.005c0 .878-.043.878-.043 1.755 0 .878.05.878.05 1.755 0 .877-.071.877-.071 1.755v5.257c.05.585.036 1.174-.044 1.755a6.691 6.691 0 0 1-.453 1.568c-.244.777-1.043.935-.496 1.546.547.612.856-.072 1.719-.172.863-.101.863-.137 1.726-.238.863-.1.87-.064 1.733-.165l1.734-.194c.863-.101.855-.137 1.726-.23.87-.094.863-.094 1.726-.195.863-.1.863-.122 1.726-.222.863-.101.87-.058 1.74-.159.871-.1.856-.15 1.727-.251.87-.101 1.078.417 1.762-.13.683-.546.201-.841.46-1.647.259-.805.324-.777.582-1.582.259-.806.252-.806.511-1.604s.216-.82.482-1.618c.266-.799 1.266-1.23.518-1.618-.942-.49-.978.424-1.942.863-.608.364-1.251.666-1.92.899a6.856 6.856 0 0 1-1.719.194c-.856.1-.856.122-1.712.216l-1.726.194c-.856.1-.863.323-1.719.187-.424-.065-.561-.158-.669-.576-.244-.884 0-.92 0-1.834a6.68 6.68 0 0 1 0-1.82c.058-.316.094-.359.41-.445a6.895 6.895 0 0 1 2.56-.374c.72 0 .72.209 1.396.367.676.158.856.719 1.373.266.518-.453 0-.784 0-1.597v-3.243c0-.813.065-.813.065-1.626s.633-1.172 0-1.64c-.633-.467-.719.31-1.438.626-.719.317-.64.482-1.388.655a6.657 6.657 0 0 1-2.575.295c-.288 0-.417-.087-.46-.374a6.108 6.108 0 0 1 0-2.582c.043-.317.165-.353.467-.446a5.566 5.566 0 0 1 1.654-.223c.834-.094.834-.072 1.669-.166.834-.093.827-.115 1.661-.208a6.936 6.936 0 0 1 1.669-.209c.599.052 1.19.172 1.762.36.884.187 1.15 1.071 1.726.374.575-.698-.245-.87-.547-1.755-.302-.885-.352-.87-.661-1.755-.31-.885-.288-.9-.597-1.784-.31-.884.172-1.265-.597-1.805-.77-.54-.849.115-1.683.209-.834.093-.827.108-1.662.208l-1.668.187c-.834.1-.827.13-1.661.23-.835.101-.835.065-1.662.159l-1.668.208c-.835.094-.835.087-1.662.187s-.834.108-1.668.209c-.835.1-.835.072-1.669.172-.834.101-1.187-.503-1.676.18-.489.683.252.72.532 1.439.275.448.468.943.569 1.46h.021zM.655 124.092c.525.719.899-.122 1.762-.223l1.74-.194 1.734-.194c.87-.094.863-.13 1.733-.231l1.74-.201c.863-.101.863-.122 1.734-.223.87-.101.87-.086 1.733-.187l1.74-.194 1.734-.209c.87-.1.877-.072 1.747-.172.87-.101.986.244 1.755-.173.77-.417.655-.719 1.302-1.438s.582-.77 1.23-1.489c.647-.719.683-.683 1.323-1.402.64-.72.892-.561 1.244-1.439.353-.877.044-.928.044-1.863v-3.761c0-.942.417-1.021.064-1.892-.309-.719-.625-.539-1.237-1.078l-1.215-1.079c-.604-.54-1.18-.245-1.23-1.057-.05-.813.532-.597 1.072-1.194.539-.597.51-.619 1.05-1.223.539-.604.805-.424 1.064-1.187.316-.913.058-.956.058-1.92v-1.927c0-.964.38-1.05 0-1.95-.288-.719-.605-.51-1.194-1.035-.59-.525-.605-.51-1.194-1.036-.59-.525-.604-.503-1.194-1.028s-.417-.806-1.172-1.029c-.756-.223-.863 0-1.726.13s-.863.15-1.734.244c-.87.094-.87.087-1.74.187s-.87.072-1.74.173c-.871.1-.864.122-1.734.216-.87.093-.863.122-1.733.215-.87.094-.863.101-1.734.202-.87.1-.863.136-1.733.237-.87.1-.87.065-1.74.173l-1.74.208c-.871.1-1.252-.546-1.727.187-.475.734.28.813.554 1.64a7.6 7.6 0 0 1 .518 1.669 7.796 7.796 0 0 1 0 1.783c0 .892.043.892.043 1.777 0 .884-.05.899-.05 1.783 0 .885.035.892.035 1.784v3.567c0 .892-.043.892-.043 1.784v1.783c0 .892.065.892.065 1.784s-.05.892-.05 1.784v1.783c0 .892.057.892.057 1.784a7.842 7.842 0 0 1 0 1.791 3.272 3.272 0 0 1-.59 1.762c-.625.849-1.215 1.036-.625 1.798zm9.242-24.28c.057-.317.143-.367.453-.46.59-.167 1.2-.252 1.812-.252a6.297 6.297 0 0 1 1.827-.173 1.56 1.56 0 0 1 1.28.496c.51.453.467.54.669 1.194a1.078 1.078 0 0 1 0 .87c-.216.719-.13.813-.633 1.374-.503.561-.59.532-1.309.762a6.16 6.16 0 0 1-1.82.259 6.475 6.475 0 0 1-1.826.137c-.28 0-.403-.051-.453-.331-.18-.949.122-.978.064-1.942a5.487 5.487 0 0 1-.093-1.956l.029.021zm.043 11.169c.064-.31.108-.345.417-.439a6.166 6.166 0 0 1 1.705-.209c.863-.093.855-.345 1.718-.23a2.394 2.394 0 0 1 1.72.655c.538.424.517.539.675 1.208.155.494.14 1.026-.043 1.51-.165.72-.08.856-.604 1.396a3.195 3.195 0 0 1-1.762.999c-.755.288-.791.123-1.597.209-.805.086-.812.316-1.61.18-.425-.072-.54-.144-.662-.554-.223-.755.05-.791.05-1.575 0-.784 0-.791-.05-1.575a4 4 0 0 1 .014-1.597l.029.022zm20.44 9.666c.582.647.884-.072 1.747-.173l1.726-.208c.87-.101.864-.13 1.727-.23l1.733-.209c.863-.101.863-.129 1.726-.23s.87-.058 1.733-.158c.863-.101.856-.144 1.726-.245s.87-.036 1.734-.137c.863-.1.863-.122 1.733-.222.87-.101 1.057.352 1.74-.195.684-.546.238-.812.49-1.611.251-.798.301-.791.56-1.596.26-.806.216-.813.475-1.619.259-.805.252-.798.51-1.603.26-.806 1.288-1.223.54-1.619-.935-.489-.964.468-1.927.899-.619.346-1.272.626-1.95.835a6.806 6.806 0 0 1-1.711.194c-.856.101-.856.129-1.712.23l-1.719.187c-.863.101-.87.36-1.726.223-.424-.065-.51-.18-.626-.597-.237-.885-.05-.906-.05-1.82a6.418 6.418 0 0 1 .08-1.819c.057-.317.064-.432.38-.511a6.782 6.782 0 0 1 2.582-.23c.72 0 .72.151 1.388.309.67.159.885.763 1.439.274s0-.813 0-1.626v-4.869c0-.813.654-1.122 0-1.596-.655-.475-.662.316-1.36.632a5.33 5.33 0 0 1-1.438.626 6.766 6.766 0 0 1-2.575.309c-.287 0-.38-.129-.424-.41a6.06 6.06 0 0 1 0-2.567c.043-.317.1-.345.41-.446a5.472 5.472 0 0 1 1.64-.266c.834-.1.841-.043 1.668-.144.827-.1.827-.144 1.662-.245a6.896 6.896 0 0 1 1.668-.143c.599.046 1.19.162 1.762.345.885.194 1.165 1.079 1.74.381.576-.698-.25-.885-.56-1.77-.31-.884-.317-.884-.619-1.769-.302-.884-.302-.891-.611-1.776-.31-.885.137-1.237-.633-1.776-.77-.54-.834.1-1.669.194-.834.093-.827.13-1.661.23l-1.661.187c-.834.1-.842.043-1.676.137-.834.093-.827.13-1.661.223-.835.093-.835.072-1.669.165-.834.093-.827.115-1.661.209-.835.093-.835.115-1.669.208-.834.094-.827.115-1.661.216-.835.1-1.151-.496-1.64.18-.49.676.18.719.424 1.438.245.72.425.676.54 1.438a7.552 7.552 0 0 1 0 1.755v17.528a7.9 7.9 0 0 1 0 1.754 2.815 2.815 0 0 1-.46 1.583c-.518.748-1.137.92-.583 1.524l.029.022zm105.6-56.882c-.935-.49-.993.417-1.956.856a10.1 10.1 0 0 1-1.928.87 7.58 7.58 0 0 1-1.848.244c-.928.108-.928.123-1.863.223-.935.101-.935.374-1.863.245-.424-.065-.518-.194-.633-.611-.23-.799-.05-.835-.05-1.669 0-.834.072-.834.072-1.676v-5.019c0-.841.043-.834.043-1.668 0-.835-.043-.842-.043-1.676v-3.39a7.287 7.287 0 0 1 0-1.683 8.473 8.473 0 0 1 .568-1.668c.273-.834 1.065-.978.54-1.683-.526-.705-.828.115-1.64.216-.813.1-.82.079-1.633.172-.813.094-.813.115-1.625.209-.813.093-.82.057-1.64.15-.82.094-.805.152-1.625.245-.82.094-1.202-.546-1.676.13-.475.676.309.72.554 1.438.209.458.354.942.431 1.439a7.45 7.45 0 0 1 0 1.74c0 .878.043.878.043 1.755v3.503c0 .877.036.877.036 1.755v10.522c.069.58.069 1.167 0 1.747a6.729 6.729 0 0 1-.496 1.554c-.245.776-.993.956-.424 1.546.568.59.877-.065 1.776-.165.899-.101.892-.159 1.798-.267.906-.107.906-.05 1.805-.158.899-.108.899-.136 1.798-.237.899-.1.907-.108 1.806-.216s.906-.043 1.805-.144l1.805-.223 1.805-.201c.906-.108 1.093.324 1.805-.237.712-.561.259-.806.518-1.604s.223-.813.482-1.611c.259-.799.252-.806.511-1.604.087-.561.279-1.1.568-1.59.367-.776 1.093-1.193.345-1.582l.029.022zM37.665 82.867c.54.72.87-.08 1.74-.18.87-.1.878-.136 1.748-.237.87-.1.885-.065 1.755-.173l1.755-.194c.878-.1.877-.137 1.755-.237.877-.101 1.33.59 1.755-.187.424-.777-.346-.92-.67-1.849a8.227 8.227 0 0 1-.603-1.87 7.85 7.85 0 0 1-.05-1.927c0-.964.079-.964.079-1.935 0-.97-.238-.985-.072-1.934.057-.317.165-.346.467-.44a6.165 6.165 0 0 1 1.712-.2c.856-.094.856-.137 1.712-.23l1.719-.195 1.718-.187c.856-.1.943.173 1.712-.23.77-.403.59-.669 1.194-1.338s.583-.683 1.187-1.352c.604-.669.604-.661 1.208-1.338.604-.676.604-.661 1.208-1.33s.856-.504 1.187-1.345c.33-.842 0-.827 0-1.661v-3.345c0-.834-.08-.834-.08-1.675 0-.842.418-.928.051-1.683-.367-.756-.719-.583-1.438-1.201-.72-.619-.67-.648-1.367-1.266-.697-.619-.719-.597-1.438-1.216-.72-.618-.51-.928-1.395-1.222-.885-.295-.842 0-1.69.129l-1.698.216-1.697.187c-.849.1-.849.122-1.697.216l-1.698.2c-.849.102-.841.138-1.69.231l-1.697.202c-.849.093-.856.035-1.705.136-.849.1-.849.13-1.697.223-.849.094-.849.072-1.698.173-.848.1-1.251-.511-1.704.215-.453.727.28.828.554 1.655.247.528.433 1.083.553 1.654a7.777 7.777 0 0 1 0 1.783c0 .892-.079.892-.079 1.784s.05.892.05 1.784V77.53a7.863 7.863 0 0 1 0 1.791 3.374 3.374 0 0 1-.56 1.777c-.396.856-.993 1.007-.425 1.747l.03.022zm9.242-23.806c.065-.316.115-.352.417-.446a6.401 6.401 0 0 1 1.82-.215c.913-.108.913-.36 1.82-.245.906.115 1.035.043 1.726.654.69.612.604.72.884 1.611a1.257 1.257 0 0 1-.043 1.08c-.28.963-.151 1.1-.82 1.848-.669.748-.805.668-1.755 1.007a5.3 5.3 0 0 1-1.82.23 6.29 6.29 0 0 1-1.82.201c-.287 0-.387-.086-.445-.367-.173-.87.043-.892.043-1.783 0-.892 0-.9-.043-1.791a4.95 4.95 0 0 1 .007-1.805l.029.021zm51.862-10.306c-.518-.633-.834.065-1.64.158l-1.618.194c-.805.094-.805.13-1.611.216-.806.086-.806.108-1.618.202-.813.093-.806.114-1.611.208-.806.094-1.173-.518-1.633.151-.46.669.295.72.54 1.438.202.46.347.944.431 1.439a7.383 7.383 0 0 1 0 1.69v3.395c0 .848-.05.848-.05 1.69 0 .841.05.849.05 1.697v1.726c0 .849-.036.849-.036 1.69 0 .842.036.85.036 1.698s-.036.848-.036 1.704c.047.565.047 1.133 0 1.698-.122 1-.669 1-.403 1.977.23.828.633.569 1.28 1.137.648.568.655.553 1.302 1.122.648.568.619.604 1.259 1.172.64.568.496.827 1.316 1.093.82.266.82 0 1.647-.115.827-.115.82-.165 1.647-.259.827-.093.834 0 1.661-.13l1.655-.186c.827-.1.82-.137 1.654-.23.834-.094.827-.087 1.654-.18.827-.094.935.216 1.669-.187.841-.468.618-.72 1.265-1.439l1.288-1.438c.647-.72.633-.72 1.273-1.438.64-.72 1.05-.482 1.294-1.439.245-.956-.309-.92-.424-1.877a9.622 9.622 0 0 1 0-1.697V60.55c0-.849-.079-.849-.079-1.69 0-.842.05-.856.05-1.697 0-.842-.05-.85-.05-1.698 0-.849.05-.849.05-1.697V52.07a7.475 7.475 0 0 1 0-1.705c.122-.806.309-.762.554-1.546.244-.784 1.043-1 .475-1.583-.568-.582-.928.087-1.834.195-.906.107-.899.129-1.805.23l-1.813.215c-.906.101-.899.137-1.805.245-.906.108-1.223-.518-1.791.194-.482.597.194.72.446 1.439.231.456.405.94.518 1.438a7.412 7.412 0 0 1 0 1.697v6.769c0 .849-.072.849-.072 1.69 0 .842.043.849.043 1.698v1.697a4.712 4.712 0 0 1 0 1.683 2.608 2.608 0 0 1-.791 1.69 2.582 2.582 0 0 1-1.539.957 2.158 2.158 0 0 1-1.503.172c-.82-.108-.95 0-1.568-.568-.619-.568-.59-.72-.799-1.518-.208-.798 0-.848 0-1.69v-6.775c0-.848-.043-.848-.043-1.69 0-.841.05-.848.05-1.697V53.61a7.908 7.908 0 0 1 0-1.698c.013-.563.19-1.111.511-1.575.453-.82 1.043-.97.525-1.604l.029.022zm-21.08 24.122a6.22 6.22 0 0 1 .525 2.302c.065.77-.115.762-.223 1.524-.108.763-.719.993-.187 1.525.532.532.806-.086 1.611-.18.806-.093.813-.115 1.626-.208.812-.094.812-.05 1.625-.151.813-.101.806-.144 1.618-.238.813-.093.82 0 1.633-.115.813-.115 1.208.482 1.604-.237.395-.72-.324-.72-.72-1.439a8.817 8.817 0 0 1-.719-1.438 11.788 11.788 0 0 1-.51-1.719c-.23-.87-.223-.87-.46-1.733-.238-.863-.224-.87-.461-1.74-.237-.87-.273-.856-.51-1.72-.238-.863-.23-.87-.468-1.74-.237-.87-.259-.863-.49-1.726-.23-.863-.23-.87-.467-1.74-.237-.87-.23-.864-.46-1.734s-.252-.863-.489-1.733c-.237-.87-.201-.878-.439-1.74-.237-.864-.201-.878-.438-1.748-.238-.87-.425-.827-.468-1.726-.015-.456.068-.91.245-1.33.158-.67.899-.907.366-1.332-.668-.546-.863.144-1.718.245-.856.1-.864.058-1.727.151-.863.094-.855.13-1.711.23l-1.72.209c-.855.093-.862 0-1.718.13-.856.129-.856.114-1.72.215l-1.74.23c-.863.1-1.402-.582-1.718.223-.482 1.201.575 1.216.64 2.503.05.877-.18.856-.396 1.712-.216.855-.216.848-.438 1.697-.223.849-.274.834-.49 1.69-.215.856-.187.856-.41 1.705-.222.848-.244.841-.46 1.69-.216.849-.201.856-.417 1.704-.216.849-.201.856-.424 1.712-.223.856-.195.849-.418 1.705-.222.855-.2.848-.424 1.704-.223.856-.288.827-.51 1.683-.224.856-.166.863-.389 1.712-.223.848-.237.848-.453 1.704a10.01 10.01 0 0 1-1.215 3.287c-.389.798-1.31.906-.763 1.597.547.69.935-.108 1.87-.216s.935-.137 1.87-.245c.935-.108.935-.086 1.87-.194.935-.108.935-.115 1.87-.223s1.208.46 1.87-.208c.518-.532-.13-.72-.237-1.439a4.517 4.517 0 0 1-.195-1.481c.037-.83.217-1.648.533-2.417.1-.31.107-.417.41-.518.798-.251.848-.05 1.675-.143.827-.094.827-.13 1.662-.23.834-.101.827-.109 1.661-.21.553-.088 1.11-.148 1.669-.179.287-.058.338.086.438.36l.03.021zm-2.05-6.005a6.637 6.637 0 0 1-1.776.187 6.251 6.251 0 0 1-1.776.208c-.288 0-.425-.057-.432-.345 0-.856.187-.834.381-1.676.194-.841.165-.841.36-1.675.194-.835.23-.835.424-1.669.194-.834.144-.849.345-1.69.202-.842.288-.813.446-1.662.158-.848-.575-1.438.194-1.531.77-.094.058.719.202 1.481.144.763.23.784.438 1.575.21.791.159.799.367 1.59.209.79.252.784.453 1.575l.418 1.582c.17.521.297 1.055.38 1.597.015.294-.143.33-.452.431l.028.022zm31.847-59.853h1.755c.582 0 1.165 0 1.747.043.583.044 1.173 0 1.748.058.576.058 1.172.065 1.748.108.575.043 1.172.072 1.747.13.576.057 1.158.165 1.741.23.583.064 1.165.1 1.74.18.576.078 1.144.237 1.726.33.583.094 1.151.158 1.727.266.575.108 1.15.223 1.718.338.569.115 1.151.209 1.72.338.568.13 1.129.302 1.697.439.568.137 1.143.237 1.704.388.561.151 1.129.302 1.69.468.561.165 1.115.36 1.669.532.554.173 1.129.31 1.683.496.554.187 1.093.403 1.647.597l1.64.604c.546.209 1.1.389 1.647.604.546.216 1.078.454 1.611.677.532.223 1.086.438 1.618.676.532.237 1.05.518 1.575.77.525.25 1.079.452 1.597.718.518.267 1.014.59 1.532.863.517.274 1.064.482 1.575.763.51.28.992.625 1.496.913.503.288 1.014.583 1.51.885.496.302 1.021.568 1.517.877l1.439.957 1.438.978c.482.33.986.64 1.439.978l1.438 1.029c.468.345.942.683 1.438 1.042.497.36.921.72 1.374 1.093.453.375.899.72 1.345 1.115.446.396.899.72 1.338 1.137.439.417.856.798 1.287 1.186.432.389.834.813 1.259 1.216l1.258 1.215c.418.417.885.77 1.295 1.187.41.417.77.877 1.172 1.302.403.424.835.82 1.223 1.251.388.432.719.9 1.129 1.345.41.446.777.863 1.158 1.316.381.453.719.892 1.108 1.352.388.46.676.95 1.035 1.439.36.489.719.913 1.065 1.388.345.474.719.942 1.021 1.438.302.496.719.942 1.014 1.439.295.496.655.963.971 1.438.317.475.662.964.971 1.438.309.475.611.993.913 1.497.302.503.54 1.035.827 1.546.288.51.597 1 .878 1.51.28.51.532 1.043.798 1.56.266.519.547 1.036.806 1.554s.517 1.05.769 1.575c.252.525.504 1.05.719 1.59.216.54.482 1.064.72 1.596.237.533.374 1.115.589 1.655.216.539.475 1.071.676 1.618.202.546.389 1.1.583 1.654.194.554.352 1.108.532 1.661.18.554.389 1.115.561 1.676.863.165.878-.108 1.762-.194l1.755-.18c.885-.093.878-.122 1.762-.216.885-.093.957.223 1.762-.15-.158-.554-.345-1.108-.518-1.662-.172-.554-.345-1.108-.525-1.661-.179-.554-.388-1.1-.582-1.647-.194-.547-.374-1.108-.576-1.655-.201-.546-.402-1.093-.618-1.632-.216-.54-.467-1.065-.719-1.604-.252-.54-.41-1.093-.64-1.625-.231-.533-.504-1.05-.72-1.583-.215-.532-.503-1.05-.755-1.575a61.096 61.096 0 0 0-.769-1.568c-.266-.517-.482-1.057-.755-1.568-.274-.51-.547-1.035-.828-1.546-.28-.51-.625-.985-.913-1.489-.288-.503-.547-1.028-.849-1.532-.302-.503-.597-1-.906-1.488-.309-.49-.669-.957-.985-1.439-.317-.482-.633-.978-.957-1.438-.323-.46-.611-.993-.949-1.438-.338-.446-.676-.95-1.021-1.439-.345-.489-.719-.928-1.065-1.388-.345-.46-.719-.913-1.086-1.374-.366-.46-.719-.92-1.079-1.373l-1.114-1.345-1.151-1.316c-.381-.432-.77-.878-1.158-1.302a64.691 64.691 0 0 0-1.201-1.273c-.403-.417-.813-.834-1.223-1.252-.41-.417-.805-.841-1.222-1.251-.418-.41-.871-.77-1.295-1.165-.424-.396-.827-.827-1.259-1.216-.431-.388-.87-.776-1.308-1.157-.439-.382-.907-.72-1.353-1.108-.446-.388-.855-.791-1.308-1.158l-1.367-1.086c-.46-.36-.913-.72-1.374-1.079-.46-.36-.971-.647-1.438-.992-.468-.346-.921-.72-1.439-1.043-.517-.324-.97-.64-1.438-.964-.467-.324-.978-.626-1.438-.942a72.4 72.4 0 0 0-1.439-.957l-1.489-.913c-.503-.295-.985-.626-1.496-.913-.51-.288-1.05-.497-1.56-.777-.511-.28-1-.604-1.518-.87-.517-.266-1.035-.54-1.553-.799s-1.065-.474-1.59-.719c-.525-.244-1.042-.525-1.575-.77-.532-.244-1.064-.46-1.603-.719-.54-.259-1.087-.417-1.626-.64-.539-.223-1.05-.496-1.597-.719-.546-.223-1.093-.396-1.639-.59l-1.647-.59c-.554-.187-1.094-.402-1.655-.582-.561-.18-1.122-.302-1.675-.475a64.56 64.56 0 0 0-1.676-.496l-1.69-.46c-.561-.144-1.122-.31-1.69-.446-.568-.137-1.122-.302-1.69-.432-.569-.13-1.144-.201-1.719-.323-.576-.123-1.137-.216-1.712-.324-.575-.108-1.136-.259-1.712-.352l-1.726-.267c-.582-.086-1.158-.143-1.733-.222-.576-.08-1.158-.166-1.734-.23-.575-.065-1.157-.137-1.74-.188-.583-.05-1.165-.036-1.748-.079-.582-.043-1.158-.108-1.74-.144-.583-.036-1.165 0-1.748-.05A23.685 23.685 0 0 0 109.27.03c-.583-.008-1.158 0-1.748 0h-1.748c-.582 0-1.165.086-1.74.107-.576.022-1.165.065-1.748.094-.583.029-1.172 0-1.748.043-.575.043-1.165.1-1.74.158-.576.058-1.158.144-1.733.209-.576.065-1.166.093-1.741.165a71.53 71.53 0 0 0-1.733.238c-.576.086-1.15.187-1.726.28-.576.094-1.144.238-1.712.345-.568.108-1.158.166-1.726.28-.568.116-1.137.253-1.705.382l-1.704.403c-.561.144-1.137.252-1.698.403-.56.15-1.121.323-1.682.481-.561.159-1.115.346-1.669.511-.554.165-1.1.381-1.654.561-.554.18-1.13.302-1.676.496-.547.195-1.1.396-1.647.597-.547.202-1.079.446-1.618.655-.54.208-1.086.424-1.625.647-.54.223-1.1.381-1.64.611-.54.23-1.057.49-1.582.72-.526.23-1.043.517-1.576.762-.532.244-1.057.489-1.575.72-.518.23-1.05.51-1.56.783-.511.273-1.043.525-1.554.806-.51.28-1 .604-1.503.891-.504.288-1.014.576-1.51.878-.497.302-.993.618-1.482.92-.49.302-1.028.554-1.525.87-.496.317-.949.67-1.438.993-.49.324-.978.633-1.439.964-.46.33-.942.72-1.438 1.028-.496.31-.95.676-1.438 1.029-.49.352-.914.719-1.367 1.086-.453.367-.906.719-1.36 1.1-.452.381-.913.72-1.358 1.1-.446.382-.87.77-1.31 1.159-.438.388-.884.719-1.316 1.143l-1.287 1.187c-.417.402-.863.784-1.28 1.194-.417.41-.834.812-1.237 1.23-.403.417-.777.87-1.18 1.287-.402.417-.805.841-1.194 1.273-.388.431-.82.834-1.208 1.266-.388.431-.72.92-1.093 1.366-.374.446-.806.842-1.172 1.295-.367.453-.72.935-1.058 1.395-.338.46-.719.928-1.057 1.388-.338.46-.719.913-1.064 1.381-.345.467-.72.92-1.058 1.395-.338.475-.675.95-1 1.439-.323.489-.61.992-.934 1.481l-.95 1.439c-.309.467-.625.985-.92 1.481-.295.496-.547 1.036-.834 1.54-.288.503-.59.999-.878 1.51-.287.51-.597 1-.87 1.517a61.5 61.5 0 0 0-.798 1.554c-.26.525-.475 1.064-.72 1.582-.244.518-.517 1.05-.719 1.575-.201.525-.482 1.064-.719 1.597-.237.532-.453 1.071-.676 1.61-.223.54-.453 1.072-.669 1.619-.216.547-.453 1.072-.654 1.618-.202.547-.374 1.1-.569 1.654-.194.554-.402 1.086-.59 1.647-.186.561-.345 1.108-.517 1.662-.173.553-.31 1.122-.475 1.683-.165.56-.345 1.114-.496 1.675-.151.561-.259 1.137-.396 1.705-.136.568-.323 1.115-.453 1.69s-.223 1.136-.345 1.712c-.122.575-.295 1.129-.41 1.697-.115.568-.165 1.15-.266 1.726-.1.576-.187 1.15-.28 1.726-.094.576-.209 1.144-.288 1.72-.08.575-.1 1.164-.165 1.747-.065.582-.166 1.15-.223 1.733-.058.583-.087 1.13-.137 1.705.863.208.87-.08 1.748-.166l1.754-.172c.878-.087.885-.044 1.762-.137.878-.094.95.165 1.762-.18.058-.575.08-1.18.144-1.748.065-.568.18-1.143.26-1.718.078-.576.15-1.144.237-1.712.086-.568.2-1.136.294-1.705.094-.568.144-1.15.252-1.719.108-.568.238-1.129.36-1.697.122-.568.237-1.13.367-1.69.129-.561.33-1.108.474-1.669.144-.56.26-1.129.41-1.683.151-.553.338-1.107.504-1.654.165-.546.309-1.114.482-1.668.172-.554.395-1.086.582-1.633.187-.547.352-1.093.554-1.64.201-.546.439-1.064.647-1.604.209-.539.396-1.086.619-1.618.223-.532.431-1.071.661-1.604.23-.532.482-1.05.72-1.575.237-.525.474-1.05.719-1.568.244-.517.51-1.035.776-1.553.267-.518.533-1.021.806-1.532.273-.51.583-.992.863-1.496.28-.503.54-1.021.834-1.525.295-.503.583-.992.885-1.488.302-.497.618-.971.928-1.439l.95-1.438c.323-.482.64-.964.97-1.439.33-.474.676-.942 1.014-1.438a37.19 37.19 0 0 1 1.014-1.402c.345-.46.67-.943 1.029-1.396.36-.453.719-.877 1.114-1.323.396-.446.684-.935 1.058-1.374.374-.438.776-.856 1.158-1.287.38-.432.79-.842 1.179-1.273.388-.432.755-.878 1.15-1.288.396-.41.806-.834 1.216-1.244.41-.41.827-.798 1.245-1.2.417-.404.87-.763 1.287-1.159a49.12 49.12 0 0 1 1.28-1.165c.432-.381.834-.798 1.273-1.172.439-.374.892-.72 1.338-1.108.446-.388.884-.719 1.337-1.093.454-.374.878-.72 1.338-1.1.46-.382.935-.684 1.403-1.022.467-.338.97-.633 1.438-.963.468-.331.92-.72 1.403-1.014.481-.295.978-.605 1.438-.921.46-.317.97-.619 1.438-.92l1.482-.9c.496-.287.971-.625 1.474-.913.504-.288 1.014-.547 1.525-.827.51-.28 1.007-.554 1.525-.82.518-.266 1.057-.468 1.575-.72.518-.25 1.021-.539 1.546-.783l1.575-.72c.525-.237 1.065-.453 1.597-.675.532-.223 1.064-.454 1.596-.662.533-.209 1.094-.374 1.64-.575.547-.202 1.065-.432 1.611-.626.547-.194 1.1-.345 1.655-.525.553-.18 1.085-.381 1.64-.554.553-.173 1.114-.302 1.668-.46.554-.159 1.1-.36 1.654-.51a57.4 57.4 0 0 1 1.683-.432c.568-.137 1.136-.195 1.697-.317.561-.122 1.13-.259 1.698-.374.568-.115 1.129-.237 1.697-.338l1.705-.295 1.711-.259c.575-.079 1.151-.136 1.72-.201.567-.065 1.15-.108 1.725-.165.576-.058 1.15-.087 1.726-.137.576-.05 1.151-.13 1.726-.166a69.511 69.511 0 0 1 1.726-.086c.576-.021 1.159 0 1.734 0l1.762.043zm0 175.983h-1.726c-.576 0-1.151 0-1.726-.05-.576-.05-1.151 0-1.726-.05-.576-.051-1.151-.058-1.727-.108-.575-.051-1.15-.065-1.726-.123-.575-.057-1.136-.158-1.711-.23-.576-.072-1.151-.086-1.72-.165-.567-.079-1.129-.23-1.697-.324-.568-.093-1.143-.158-1.711-.259-.568-.1-1.13-.215-1.698-.331-.568-.115-1.136-.201-1.697-.323-.56-.122-1.115-.302-1.668-.439-.554-.137-1.137-.223-1.69-.374-.555-.151-1.115-.295-1.67-.453-.553-.158-1.1-.352-1.646-.518-.547-.165-1.115-.302-1.662-.482-.546-.179-1.086-.395-1.625-.582l-1.625-.59c-.54-.201-1.094-.374-1.626-.59-.532-.216-1.064-.431-1.597-.654-.532-.223-1.071-.432-1.596-.662-.525-.23-1.036-.503-1.56-.719-.526-.216-1.065-.439-1.583-.719-.518-.281-1-.583-1.51-.842-.511-.259-1.058-.474-1.561-.719-.503-.245-.985-.611-1.482-.892a80.037 80.037 0 0 1-1.503-.863c-.496-.295-1.007-.554-1.496-.856l-1.438-.935c-.482-.309-.957-.633-1.439-.949-.481-.317-.97-.619-1.438-.949l-1.438-1.007c-.468-.338-.943-.669-1.403-1.014l-1.36-1.072a84.984 84.984 0 0 1-1.337-1.086c-.446-.367-.892-.719-1.33-1.108-.439-.388-.849-.776-1.28-1.158-.432-.381-.835-.798-1.26-1.186-.424-.389-.833-.791-1.25-1.187-.418-.395-.878-.719-1.288-1.158-.41-.439-.77-.856-1.172-1.266-.403-.41-.827-.805-1.223-1.222-.396-.417-.72-.885-1.122-1.316a38.14 38.14 0 0 1-1.158-1.281c-.374-.438-.72-.877-1.115-1.323-.395-.446-.676-.935-1.035-1.388-.36-.453-.72-.899-1.065-1.352-.345-.453-.719-.928-1.028-1.388-.31-.461-.72-.921-1.021-1.395l-.978-1.439c-.317-.482-.662-.942-.979-1.438-.316-.497-.618-.978-.92-1.439-.302-.46-.547-1.014-.842-1.51-.295-.496-.597-.978-.884-1.482-.288-.503-.533-1.021-.806-1.532-.273-.51-.554-1.006-.82-1.524-.266-.518-.532-1.014-.784-1.532s-.518-1.036-.755-1.554c-.237-.517-.489-1.05-.72-1.575-.23-.525-.38-1.086-.603-1.618-.223-.532-.482-1.05-.72-1.582-.237-.532-.402-1.079-.604-1.626-.877-.143-.884.08-1.769.18-.884.101-.877.122-1.762.223l-1.77.216c-.884.108-.963-.18-1.768.208.194.547.424 1.086.625 1.633.202.547.389 1.1.597 1.64.209.539.439 1.086.662 1.625.223.54.453 1.072.683 1.611.23.54.49 1.058.72 1.59.23.532.474 1.064.719 1.589.244.525.496 1.057.762 1.575s.56 1.022.834 1.539c.273.518.504 1.058.791 1.568.288.511.59 1 .885 1.511.295.51.597.999.899 1.496.302.496.597 1.006.899 1.503.302.496.583 1.007.906 1.496.324.489.633.978.964 1.438.33.46.72.928 1.043 1.438.323.511.633.979.978 1.439.345.46.72.949 1.043 1.438.323.489.719.892 1.114 1.352.396.461.72.921 1.087 1.367.366.446.719.942 1.078 1.381.36.438.756.884 1.144 1.323.388.439.791.856 1.187 1.288.395.431.805.848 1.2 1.273.396.424.792.863 1.202 1.272.41.41.82.835 1.237 1.238.417.402.841.812 1.266 1.215.424.403.841.805 1.273 1.194.431.388.87.784 1.309 1.165l1.33 1.136c.446.374.885.77 1.338 1.137.453.366.942.719 1.395 1.05.453.331.899.719 1.367 1.1.467.381.942.719 1.438 1.036.496.316.97.647 1.438.978.468.331.928.719 1.439 1.036l1.438.963c.49.317.971.648 1.439.957.467.309 1.028.554 1.532.848.503.295.985.626 1.496.914.51.288 1.028.554 1.539.827.51.273 1.035.539 1.553.813.518.273 1.021.561 1.54.82l1.574.769c.525.252 1.036.532 1.568.777.532.244 1.1.403 1.633.633.532.23 1.057.51 1.596.719l1.619.654c.546.209 1.107.374 1.654.576.546.201 1.086.424 1.64.618.553.195 1.107.36 1.661.54.554.18 1.122.316 1.683.489.561.172 1.093.403 1.654.561.561.158 1.136.288 1.697.439.561.151 1.13.287 1.698.424.568.137 1.129.309 1.697.431.568.123 1.15.202 1.719.317.568.115 1.144.237 1.719.345l1.726.302c.568.094 1.144.202 1.719.288.575.086 1.15.201 1.733.28.583.079 1.158.087 1.74.151a68.33 68.33 0 0 0 1.741.173c.583.05 1.158.151 1.741.194.582.043 1.165.072 1.747.108.583.036 1.166.036 1.755.058.59.021 1.165.064 1.748.071.582.008 1.165 0 1.748 0 .582 0 1.165-.079 1.747-.086.583-.007 1.173 0 1.748 0s1.165-.072 1.748-.101c.582-.028 1.165 0 1.747-.064.583-.065 1.165-.101 1.741-.158.575-.058 1.165-.087 1.74-.152.576-.064 1.151-.186 1.733-.266.583-.079 1.151-.172 1.727-.259.575-.086 1.165-.107 1.74-.201.575-.093 1.144-.208 1.719-.309.575-.101 1.136-.259 1.712-.374.575-.115 1.15-.202 1.719-.324l1.697-.395c.568-.137 1.136-.295 1.697-.446.561-.151 1.115-.338 1.676-.497.561-.158 1.129-.273 1.69-.445.561-.173 1.108-.36 1.661-.54.554-.18 1.108-.374 1.655-.561.546-.187 1.114-.352 1.661-.554.547-.201 1.086-.431 1.625-.64.54-.208 1.079-.446 1.619-.661.539-.216 1.064-.482 1.596-.72.533-.237 1.101-.41 1.626-.647l1.582-.719c.525-.252 1.036-.547 1.554-.806l1.56-.791c.511-.273 1.057-.489 1.568-.769.511-.281 1.007-.583 1.518-.871.51-.287.992-.611 1.488-.913.497-.302 1.014-.582 1.511-.885.496-.302.992-.611 1.481-.927.489-.317.986-.619 1.439-.942.453-.324.942-.72 1.438-1.029.496-.309.957-.669 1.439-1.014.481-.345.92-.719 1.388-1.057.467-.338.978-.64 1.438-1 .46-.36.892-.755 1.345-1.122.453-.367.92-.719 1.359-1.093.439-.374.878-.777 1.316-1.158.439-.381.885-.762 1.316-1.151.432-.388.835-.812 1.259-1.208.424-.396.841-.813 1.259-1.223.417-.41.841-.798 1.251-1.215.41-.417.798-.849 1.201-1.273.403-.425.813-.834 1.201-1.266l1.173-1.295c.388-.438.791-.863 1.165-1.309.374-.445.762-.884 1.129-1.33.367-.446.719-.942 1.05-1.438.331-.497.719-.907 1.079-1.374.359-.468.719-.906 1.086-1.374.367-.467.625-.978.964-1.438.338-.461.719-.914 1.05-1.396.33-.481.604-.992.927-1.481.324-.489.612-.993.921-1.489.309-.496.64-.971.942-1.438.302-.468.626-.978.921-1.482a68.79 68.79 0 0 0 .863-1.517c.28-.511.525-1.05.791-1.561.266-.511.554-1.028.82-1.546l.784-1.568c.251-.518.438-1.079.683-1.604.244-.525.51-1.028.719-1.561-.777-.208-.798.036-1.604.123l-1.611.158c-.798.086-.798.136-1.596.216-.799.079-.806.064-1.611.143-.806.079-.849-.107-1.611.166-.259.525-.504 1.05-.777 1.568-.274.518-.554 1.028-.834 1.539-.281.51-.59 1.007-.878 1.517-.288.511-.554 1.029-.849 1.532-.295.504-.632.986-.934 1.482a47.61 47.61 0 0 1-.936 1.481c-.323.489-.611 1-.935 1.482-.323.482-.683.949-1.021 1.438-.338.489-.647.978-.992 1.439-.346.46-.72.906-1.086 1.373-.367.468-.72.943-1.058 1.396-.338.453-.791.87-1.157 1.316-.367.446-.72.928-1.101 1.366l-1.158 1.316c-.395.432-.82.835-1.222 1.259-.403.424-.763.885-1.173 1.302-.41.417-.841.805-1.258 1.215-.417.41-.806.849-1.23 1.245-.425.395-.863.791-1.295 1.186-.431.396-.87.777-1.309 1.165-.438.389-.913.72-1.359 1.101-.446.381-.899.719-1.359 1.115-.461.395-.878.769-1.338 1.129-.46.359-.957.676-1.439 1.021-.481.345-.934.719-1.438 1.036l-1.438.992c-.482.324-.935.719-1.439 1.029l-1.474.935-1.489.927c-.503.302-1.036.547-1.546.835-.511.287-1 .604-1.51.884-.511.281-1.036.54-1.554.806s-1.028.561-1.546.82c-.518.259-1.065.482-1.597.719s-1.043.518-1.582.719c-.54.201-1.079.432-1.618.662-.54.23-1.065.474-1.611.719-.547.244-1.086.439-1.626.647-.539.209-1.1.389-1.654.583-.554.194-1.1.395-1.654.575-.554.18-1.115.36-1.676.525l-1.676.496c-.561.166-1.136.274-1.697.425-.561.151-1.129.323-1.697.46-.568.137-1.13.281-1.705.403-.575.122-1.143.23-1.712.345l-1.726.324c-.575.108-1.143.208-1.719.302-.575.093-1.157.165-1.74.244-.583.079-1.151.173-1.733.238-.583.064-1.151.172-1.734.23-.582.057-1.165.072-1.754.115-.59.043-1.158.151-1.741.187-.583.036-1.165 0-1.748.057-.582.058-1.172 0-1.754 0l-1.633-.043z"/></g><defs><clipPath id="a"><path fill="#fff" d="M.396 0h215.209v190H.396z"/></clipPath></defs></svg>