<svg xmlns="http://www.w3.org/2000/svg" width="161" height="142" fill="none"><g clip-path="url(#a)"><path fill="#1E2629" d="M65.232 97.796h-.507a.145.145 0 0 1-.142-.081.146.146 0 0 1-.014-.055v-5.735c0-.088.087-.137.175-.137s.117-.058.205 0c.184.124.354.268.507.43.244.234.234.243.478.477.244.235.215.264.458.498.244.234.264.205.508.439.243.234.233.243.477.478.244.234.264.214.508.448.243.234.204.273.448.507v-1.814c0-.302.049-.302.049-.604v-.605a.136.136 0 0 1 .156-.146h1.024c.078 0 .195.058.195.146 0 .312-.049.312-.049.634v5.013c0 .088-.107.156-.185.156h-.136a.127.127 0 0 1-.088-.049c-.244-.234-.254-.224-.498-.468-.244-.244-.253-.215-.497-.458-.244-.244-.215-.264-.459-.508l-.477-.487c-.234-.244-.264-.215-.508-.459-.243-.243-.214-.273-.448-.507-.234-.234-.264-.234-.488-.448v3.16a.166.166 0 0 1-.175.146c-.264 0-.264.03-.517.03zm3.657-46.472a3.032 3.032 0 0 0 2.175-1.092 2.79 2.79 0 0 0 1.892 2.477.469.469 0 0 0 .273.059.447.447 0 0 0 .478-.42.536.536 0 0 0-.166-.331 2.243 2.243 0 0 1-.614-1.639 4.35 4.35 0 0 1 .273-1.423 8.78 8.78 0 0 0 .585-1.834.447.447 0 0 0-.497-.478 2.215 2.215 0 0 0-1.756 1.395c-.468 1.219-1.444 2.058-2.029 2.058s-.975-.78-.975-1.59c0-1.95 1.59-4.477 3.453-4.477.556 0 1.112.225 1.112.78 0 .869-.888.674-.888 1.034 0 .361.614.468.975.468a1.649 1.649 0 0 0 1.668-1.697c0-1.111-1.112-1.638-2.468-1.638-3.179 0-5.851 3.19-5.851 5.676a4.232 4.232 0 0 1-2.01 1.385c-.194 0-.253-.166-.253-.39.005-.179.035-.356.088-.527a28.288 28.288 0 0 1 1.639-4.115 3.46 3.46 0 0 0 .39-1.278.722.722 0 0 0-.81-.75c-1.112 0-3.111 1.17-4.506 2.75l.644-1.863c.045-.136.072-.277.078-.42a.419.419 0 0 0-.468-.468c-1.365 0-2.702 1.083-2.702 1.531 0 .195.195.273.39.273h.254a.1.1 0 0 1 .08.028.099.099 0 0 1 .027.08 1.6 1.6 0 0 1-.107.39l-.887 2.594c-1.297 1.492-2.35 2.184-2.76 2.184-.166 0-.225-.107-.225-.243.196-.772.43-1.534.702-2.282a1.61 1.61 0 0 0 .078-.42c0-.302-.195-.448-.497-.448a2.164 2.164 0 0 0-1.755 1.394c-.469 1.22-1.415 2.058-1.951 2.058s-1.024-.78-1.024-1.56c0-1.717 1.443-4.506 3.443-4.506.556 0 1.112.195 1.112.75 0 .898-.859.674-.859 1.064s.605.468.975.468a1.63 1.63 0 0 0 1.678-1.668c0-1.111-1.092-1.667-2.477-1.667a6.29 6.29 0 0 0-5.852 5.851 2.439 2.439 0 0 0 2.321 2.448 2.974 2.974 0 0 0 2.205-1.121 1.2 1.2 0 0 0 1.335 1.121 4.974 4.974 0 0 0 2.926-1.55l-.234.682a1.549 1.549 0 0 0-.078.42.418.418 0 0 0 .468.448 2.166 2.166 0 0 0 1.785-1.424l.42-1.219c.526-1.531 3.052-3.842 3.696-3.842.078 0 .136.058.136.165 0 .39-.916 1.668-1.502 3.726a4.108 4.108 0 0 0-.165 1.063 1.364 1.364 0 0 0 1.472 1.531 5.13 5.13 0 0 0 2.985-1.629 2.41 2.41 0 0 0 2.155 1.63v.028zm8.222 71.137c0-.693-.283-1.229-1.034-1.229a.972.972 0 0 0-.975 1.102v.819h.75v-.79c0-.185.088-.292.234-.292.147 0 .254.087.254.292a3.63 3.63 0 0 1-.527 1.863 5.432 5.432 0 0 0-.78 2.643v.205h2.029v-.839H75.94a4.03 4.03 0 0 1 .507-1.58c.42-.645.65-1.395.664-2.165v-.029zm-13.654-15.663c.136.283.107.292.234.585a.163.163 0 0 1-.001.159.163.163 0 0 1-.136.085h-.975a.299.299 0 0 1-.193-.046.296.296 0 0 1-.12-.159c-.155-.332 0-.449-.292-.673-.292-.224-.292 0-.575 0h-1.161c-.292 0-.37-.185-.594 0-.225.185-.147.361-.303.702a.282.282 0 0 1-.302.176h-.976c-.126 0-.195-.078-.146-.195.127-.283.156-.273.293-.556l.254-.575c.136-.293.155-.283.282-.566l.273-.576c.127-.282.117-.292.244-.575s.146-.283.283-.575c.136-.293.078-.303.214-.595.137-.293.157-.273.293-.556.137-.283.156-.283.293-.566.136-.283.127-.292.263-.575 0-.049.068-.108.127-.108h.088c.087 0 .107.078.126.127.137.293.176.273.303.556l.273.576c.127.292.087.302.224.594.136.293.166.274.293.556.126.283.126.293.253.576s.117.302.254.585c.136.283.156.273.292.566.137.292.127.282.264.565.136.283.195.195.331.488h.02zm-2.273-1.951c-.165-.351-.195-.331-.36-.682-.157.351-.108.38-.264.731-.156.351-.507.341-.351.693.156.351.332-.059.654 0 .321.058.516.273.653 0 .137-.274-.195-.391-.351-.742h.02zm8.875-3.042a.176.176 0 0 0-.175-.157H68.84a.187.187 0 0 0-.185.157c0 .341.059.341.059.692 0 .351-.069.341-.069.683v2.067a1.1 1.1 0 0 1-.117.546 1.02 1.02 0 0 1-.39.4 1.09 1.09 0 0 1-.546.117 1.02 1.02 0 0 1-.527-.127.915.915 0 0 1-.37-.399 1.116 1.116 0 0 1-.127-.537v-3.442c0-.088 0-.166-.137-.166h-1.043a.184.184 0 0 0-.156.185v3.54c.01.209.046.415.107.615.052.201.13.395.234.575.1.188.225.362.37.517a2.21 2.21 0 0 0 1.083.605c.206.04.415.057.624.048.21 0 .42-.026.624-.078.204-.05.4-.125.586-.224a2.37 2.37 0 0 0 .526-.351c.143-.154.268-.324.371-.507a2.32 2.32 0 0 0 .244-.576 2.64 2.64 0 0 0 .107-.624v-2.809c0-.351-.068-.399-.068-.75h.02zm5.667 1.102a.196.196 0 0 0 .185-.176v-.926a.14.14 0 0 0-.047-.105.142.142 0 0 0-.05-.028.142.142 0 0 0-.059-.004h-1.268c-.322 0-.312-.059-.624-.059H71.97c-.098 0-.137.098-.137.186v.926a.165.165 0 0 0 .166.166h.605c.302 0 .39-.224.605 0 .214.224 0 .302 0 .644 0 .341.058.331.058.653v3.248a.167.167 0 0 0 .156.166h.975c.088 0 .137-.098.137-.186v-3.247c0-.322-.059-.332-.059-.654s-.204-.429 0-.663c.205-.234.322 0 .624 0 .303 0 .293.059.566.059h.059zm-.595-22.773v-1.638c-1.18 0-2.302-.078-3.482-.05 0-1.033.088-2.018.088-3.042v-3.082c0-1.024-.166-2.058-.166-3.082s.176-2.058.185-3.082c.01-1.024-.117-2.048-.117-3.082 1.19 0 2.312-.107 3.492-.107v-1.658h-6.457c-1.072 0-2.116.059-3.198.059 0 .614-.059 1.19-.059 1.804h3.54v3.072c0 1.024-.107 2.068-.107 3.092s.146 2.067.146 3.101v3.092c0 1.033-.136 1.95-.136 3.023-1.19 0-2.331.097-3.511.127v1.833l3.228-.097 3.248-.098c1.18-.097 2.204-.175 3.286-.185h.02zm8.173-59.336h.887v-4.876h.644v-.868H82.65v.868h.654v4.876zm-4.877-.858h-.975v-1.707h.653v-.79h-.653v-1.57h.975v-.829h-1.863v5.754h1.863v-.858zm-20.48 77.632a.322.322 0 0 1-.303.224h-.975a.166.166 0 0 1-.146-.234c.136-.293.117-.302.243-.585l.273-.576c.127-.282.157-.273.293-.555.136-.283.097-.303.234-.595.137-.293.146-.273.283-.566.137-.293.166-.263.302-.556.137-.293.108-.293.244-.575.137-.283.117-.293.254-.585l.273-.566c.136-.293.146-.283.273-.576 0-.048.078-.126.136-.126h.088a.243.243 0 0 1 .166.107c.136.283.107.302.234.585s.166.273.302.556c.137.283.117.293.254.585.136.293.107.293.244.576l.273.575c.127.283.136.283.263.575.127.293.146.273.283.566.136.293.107.293.244.576.136.282.127.292.263.585l.254.575c.058.107 0 .215-.117.215h-.976c-.146 0-.214-.059-.292-.225-.147-.331 0-.42-.322-.643-.322-.225-.273 0-.566 0h-1.16c-.283 0-.332-.137-.556 0-.224.136-.215.322-.37.663h.106zm.809-1.834c.136.293.351-.107.663 0 .312.108.507.322.644 0 .136-.322-.156-.36-.322-.712-.166-.35-.175-.341-.341-.682-.166.35-.147.35-.313.702-.165.35-.604.351-.438.692h.107zm-3.433 6.067a1.467 1.467 0 0 0-.536-.098.775.775 0 0 0-.45.185.495.495 0 0 0-.204.4.397.397 0 0 0 .253.402c.053.021.11.03.167.027a.379.379 0 0 0 .38-.478c0-.078 0-.195.117-.195a.576.576 0 0 1 .468.527.667.667 0 0 1-.293.595c-.202.11-.433.157-.663.136h-.595a5.906 5.906 0 0 0-.595 0 1.863 1.863 0 0 0-.721.098 1.421 1.421 0 0 0-.537.478 1.23 1.23 0 0 0-.214.683c-.016.268.064.534.224.751a.912.912 0 0 0 .712.263.852.852 0 0 0 .468-.088.487.487 0 0 0 .205-.429c0-.254-.156-.429-.527-.429a.39.39 0 0 0-.156.043.382.382 0 0 0-.194.415c0 .068-.06.156-.098.156a.562.562 0 0 1-.303-.468.8.8 0 0 1 .283-.575.971.971 0 0 1 .614-.166c.198-.004.394.032.576.107.188.073.35.198.468.361.112.167.17.365.166.566a1.334 1.334 0 0 1-.156.614 1.487 1.487 0 0 1-.43.468 2.094 2.094 0 0 1-.545.312 3.38 3.38 0 0 1-.624.176c-.43.042-.863.025-1.288-.049a3.143 3.143 0 0 1-.644-.136 1.785 1.785 0 0 1-.556-.313 1.299 1.299 0 0 1-.428-.497 1.512 1.512 0 0 1-.118-.644 1.62 1.62 0 0 1 .088-.575.976.976 0 0 1 .341-.478c.098-.078.127 0 .176 0 .186.129.4.213.624.244a.39.39 0 0 0 .176-.016.389.389 0 0 0 .24-.246.384.384 0 0 0 .013-.177c0-.273-.205-.332-.448-.332a2.247 2.247 0 0 0-.547.088.972.972 0 0 1-.175-.536.801.801 0 0 1 .224-.537.712.712 0 0 1 .507-.243c.361 0 .625.253.576.546v.156a.554.554 0 0 0 .439-.595.852.852 0 0 0-.244-.673 1.072 1.072 0 0 0-.702-.195 1.55 1.55 0 0 0-.663.117 1.122 1.122 0 0 0-.469.458 1.171 1.171 0 0 0-.234.625c.011.184.054.366.127.536.062.165.144.323.244.468-.211.106-.4.252-.556.429a1.952 1.952 0 0 0-.351.624 1.951 1.951 0 0 0-.098.703c-.014.232.01.466.069.692.103.206.234.396.39.566.145.175.32.323.517.438.189.13.396.232.614.303.219.078.444.137.673.175h.692c.23.02.462.02.693 0a3.38 3.38 0 0 0 .663-.185c.21-.095.406-.216.585-.361.2-.116.38-.26.537-.429.144-.187.253-.398.321-.624.055-.223.075-.454.059-.683a1.833 1.833 0 0 0-.175-.975c-.059-.088-.098-.176.097-.215.239-.035.467-.118.673-.243.215-.119.394-.295.517-.508.093-.228.132-.475.117-.721a.857.857 0 0 0-.176-.507.847.847 0 0 0-.517-.312h.137zm-11.967-2.097a2.064 2.064 0 0 0-.058-.43.546.546 0 0 0-.127-.34 1.229 1.229 0 0 0-.254-.39.819.819 0 0 0-.594-.186h-9.08a2.39 2.39 0 0 0-.38 0 1.135 1.135 0 0 0-.274 0 1.83 1.83 0 0 0-.331 0h-2.253a2.02 2.02 0 0 0-.38.049h-.917a4.061 4.061 0 0 1-.468 0h-.186c-.322 0-.321 0-.643.058h-.283a2.603 2.603 0 0 0-.37 0H25.46c-.15.008-.3.028-.448.059h-1.493c-.273 0-.546.107-.546.292 0 .186.273.293.546.293h.898c.133.01.266.01.4 0l.653.049.643.048h.654a2.5 2.5 0 0 0 .41 0h.244c.321 0 .321.069.643.088h1.941c.152.017.306.017.458 0h.439c.132.03.265.05.4.059h1.619c.11.005.221.005.332 0h.643c.322 0 .322.058.654.078.14.012.28.012.42 0h.223l.654.048h1.941c.321 0 .322.078.643.088h3.892a.79.79 0 0 0 .546-.214c.156-.145.273-.326.341-.527a.835.835 0 0 0 0-.166c.055-.147.085-.302.088-.458l-.049 1.502h.107zm-5.978-46.414c5.393 0 11.01-4.73 12.015-11.703.055-.424.08-.85.078-1.277 0-4.311-3.335-7.178-7.724-7.178-4.535 0-9.206 2.701-9.206 6.826a2.84 2.84 0 0 0 2.926 3.004c1.111 0 1.501-.302 1.501-.585 0-.722-2.028-.058-2.028-2.419 0-3.725 3.9-5.851 6.534-5.851 3.287 0 5.345 2.643 5.345 5.852 0 .391-.03.782-.088 1.17-.917 6.368-4.399 10.981-8.397 10.981-2.838 0-4.038-.829-4.038-2.087 0-1.258 1.17-1.58 1.814-1.638l-.527 1.531a.975.975 0 0 0-.087.39c0 .332.253.497.585.497a2.292 2.292 0 0 0 1.95-1.414l.108-.331c.468.38.692.692.692 1.082a.43.43 0 0 0 .449.468.973.973 0 0 0 .858-1.082 2.068 2.068 0 0 0-1.531-1.863l3.9-11.177a.888.888 0 0 0 .06-.37c0-.361-.225-.527-.586-.527a2.253 2.253 0 0 0-1.892 1.424l-3.764 10.377c-1.892.078-4.399.975-4.399 2.926 0 1.56 1.668 2.974 5.345 2.974h.107zm-9.5 30.185c0-.702-.067-1.355-.067-2.067-1.19.136-2.4.263-3.59.41V78.68c0-1.014.254-2.038.254-3.053v-3.052c0-1.015-.127-2.039-.127-3.053 0-1.014.147-2.038.147-3.053v-2.984c1.053 0 2.048-.205 3.11-.214 1.064-.01 2.185 0 3.248 0v4.876h2.555c0-1.151-.107-2.35-.107-3.492 0-1.14.117-2.36.127-3.5-1.141 0-2.35.194-3.481.194-1.132 0-2.283-.078-3.424-.078H23.11c-1.141 0-2.273.098-3.414.098h-3.413c-1.141 0-2.331-.127-3.472-.127 0 1.297.136 2.633.136 3.901v3.843c.859 0 1.59-.137 2.439-.186 0-.887.136-1.687.136-2.574v-2.585c1.063 0 2.048-.068 3.111-.078 1.063-.01 2.175-.146 3.238-.156 0 1.034-.088 2.126-.088 3.16 0 1.034.137 2.067.127 3.101-.01 1.034 0 2.068 0 3.102 0 1.033-.068 2.067-.068 3.101v6.261c-1.18.147-2.409.273-3.599.43v2.184l3.238-.458c1.082-.147 2.155-.38 3.238-.527 1.082-.146 2.038-.146 3.16-.283zm52.665-62.603a1.111 1.111 0 0 0 1.102-1.268 4.233 4.233 0 0 0-.76-1.95 2.663 2.663 0 0 1-.566-1.541.265.265 0 0 1 .273-.293c.137 0 .244.108.244.293v.722h.77v-.654c0-.76-.409-1.2-.975-1.2a1.141 1.141 0 0 0-1.15 1.298c.1.706.374 1.377.8 1.95.314.442.5.962.536 1.502 0 .225-.088.351-.283.351-.195 0-.293-.136-.293-.35v-.625h-.78v.605a1.062 1.062 0 0 0 1.082 1.16zM78.7 42.87a2.76 2.76 0 0 0 2.643-2.312c0-.477-.166-.643-.36-.643-.362 0-.615.643-1.249.643-.634 0-1.034-.448-1.034-1.892 0-1.59 1.307-4.31 3.306-4.31 1.454 0 2.37 1.219 2.37 3.033a7.15 7.15 0 0 1-.419 2.282l-3.696 10.728a1.336 1.336 0 0 0-.088.42.507.507 0 0 0 .556.506 2.137 2.137 0 0 0 1.755-1.316c1.61-3.336 6.476-10.455 7.013-10.455v.058a5.42 5.42 0 0 1-.244.78L85.8 50.399a1.302 1.302 0 0 0-.078.42.498.498 0 0 0 .556.506 2.088 2.088 0 0 0 1.746-1.316c1.14-2.634 6.144-9.002 6.515-9.002v.049a6.119 6.119 0 0 1-.244.81l-2.175 6.28c-.109.36-.165.735-.166 1.112a4.106 4.106 0 0 0 3.004 4.008c.045.01.092.01.136 0 .196 0 .342-.107.342-.253a.487.487 0 0 0-.224-.361 3.53 3.53 0 0 1-1.17-2.858 3.822 3.822 0 0 1 .194-1.316l3.501-10.143c.077-.187.126-.384.147-.585 0-.449-.341-.703-.839-.703a2.78 2.78 0 0 0-1.95 1.122c-1.278 1.55-3.833 4.691-5.5 7.168l2.925-8.485c.086-.2.135-.415.146-.634 0-.39-.283-.614-.702-.614-.696.08-1.334.43-1.775.975a84.2 84.2 0 0 0-5.852 8.007l1.668-4.876c.315-.847.487-1.74.507-2.643a3.579 3.579 0 0 0-3.589-3.901c-2.448 0-6.095 2.76-6.095 6.895-.01 2.194 1.024 2.809 1.882 2.809h-.01zM48.906 94.49c0 .312.058.312.058.624v2.507a.145.145 0 0 0 .137.156h1.014a.143.143 0 0 0 .106-.036.147.147 0 0 0 .05-.1v-1.493c0-.37-.224-.478 0-.77.224-.293.322 0 .634 0h1.22c.301 0 .39-.254.584 0 .195.253 0 .35 0 .73v1.494a.156.156 0 0 0 .166.137h1.014a.156.156 0 0 0 .156-.147v-5.637a.145.145 0 0 0-.046-.107.145.145 0 0 0-.11-.039h-1.014a.185.185 0 0 0-.185.166v1.424c0 .35.263.448 0 .721-.264.273-.312 0-.624 0h-1.21c-.312 0-.39.215-.585 0-.195-.214-.049-.331-.049-.692v-1.424a.126.126 0 0 0-.136-.146H49.07a.175.175 0 0 0-.155.175v2.458h-.01zm12.23-13.82v-1.95l-3.365.117c0-1.053-.068-2.019-.068-3.072 0-1.054-.117-2.117-.117-3.17s.214-2.106.224-3.16c.01-1.053 0-2.116 0-3.17 0-1.053-.156-2.204-.146-3.257h3.442V61.34h-6.31c-1.063 0-2.126-.117-3.189-.117v1.95h3.58c0 1.113-.098 2.186-.098 3.297v3.277c-.975 0-1.873.098-2.848.127l-2.926.068c-.975 0-1.95.147-2.925.176-.976.03-1.892 0-2.868 0 0-1.16.088-2.282.088-3.443 0-1.16-.205-2.409-.205-3.57h3.58c0-.653.058-1.199.058-1.843-1.053 0-2.117-.117-3.18-.117-1.063 0-2.126.156-3.179.156h-3.18v1.951h3.375v3.374c0 1.122-.146 2.244-.156 3.355-.01 1.112.059 2.244.049 3.365-.01 1.122 0 2.243 0 3.365 0 1.121-.059 2.175-.059 3.296-1.14.088-2.194.263-3.325.361 0 .673.049 1.239.049 1.95 1.063-.107 2.057-.165 3.12-.263 1.063-.097 2.127-.088 3.19-.175 1.063-.088 2.126-.215 3.179-.293v-2.019c-1.18.078-2.39.234-3.57.332 0-1.297-.078-2.575-.078-3.901v-3.901L46.263 72h2.926c.975 0 1.95-.244 2.925-.283l3.014-.087c0 1.238-.068 2.565-.068 3.803 0 1.239-.069 2.458-.078 3.696-1.18.059-2.312.205-3.492.283 0 .634-.049 1.23-.049 1.863 1.063-.068 2.136-.185 3.2-.244 1.062-.058 2.135 0 3.198-.049 1.063-.048 2.224-.263 3.306-.312h-.01zm63.295.859c.751-.605 1.151-1.317 1.326-3.648.078-.975.234-2.292.225-4.008 0-.663-.059-1.385-.059-2.039-.975-.058-1.999 0-2.975-.087-.975-.088-1.95 0-2.925 0-.976 0-1.892-.117-2.868-.156 0 .634-.078 1.219-.068 1.853l3.092.165c1.024.059 2.048.078 3.072.137v.653c0 1.16.049 2.058 0 2.76-.117 1.775-.488 2.195-.859 2.478-.37.282-.682.546-2.038.429-1.131-.088-2.243-.351-3.374-.43-1.131-.078-2.263-.224-3.385-.292-1.394-.097-1.843 0-2.194-.351s-.468-1.073-.595-3.823c-.048-.975-.322-2.253-.331-3.901-.01-1.648.195-2.877.234-3.901.107-2.76.361-3.336.741-3.667.38-.332.683-.332 2.068-.322 1.111 0 2.223-.069 3.335-.059 1.112.01 2.223 0 3.335 0 1.395 0 1.892.088 2.204.361.517.459.703 1.414.781 3.901.897 0 1.706.098 2.604.127a26.193 26.193 0 0 0-.225-3.014 3.965 3.965 0 0 0-1.316-2.662c-.624-.575-1.658-.654-3.667-.654-1.258 0-2.507-.146-3.755-.146-1.248 0-2.506-.068-3.755-.068-2.077 0-2.994.214-3.686.79-.693.575-.976 1.297-1.2 2.877a25.77 25.77 0 0 0-.283 3.15c0 .897-.088 1.95-.088 3.17v3.208c.04 1.07.154 2.136.342 3.19a4.348 4.348 0 0 0 1.297 2.925c.692.615 1.609.751 3.696.907 1.268.098 2.536.176 3.804.283 1.268.107 2.526.38 3.793.497 1.922.157 2.907-.058 3.697-.633zm-12.435 24.381a.238.238 0 0 0-.263 0 1.556 1.556 0 0 1-.517.312 1.842 1.842 0 0 1-.605.118 1.776 1.776 0 0 1-.653-.118 1.538 1.538 0 0 1-.527-.409 1.72 1.72 0 0 1-.38-.537 1.844 1.844 0 0 1-.107-.663 1.486 1.486 0 0 1 .975-1.599c.199-.107.418-.17.643-.185.429.016.841.174 1.171.448a.106.106 0 0 0 .088.046.104.104 0 0 0 .087-.046l.664-.692a.137.137 0 0 0 0-.215 3.222 3.222 0 0 0-.605-.439 2.497 2.497 0 0 0-.693-.273 3.64 3.64 0 0 0-.751-.078 3.136 3.136 0 0 0-.682.078 3.681 3.681 0 0 0-.654.215 2.945 2.945 0 0 0-.595.351 2.64 2.64 0 0 0-.497.488 2.806 2.806 0 0 0-.37.585 2.881 2.881 0 0 0-.283 1.355c-.003.23.02.459.068.683.063.221.151.433.263.634.087.213.199.416.332.605.144.179.304.346.478.497.193.128.399.236.614.322.206.093.422.161.644.205.222.061.452.094.682.097.188.02.378.02.566 0 .188-.042.371-.105.546-.185.181-.057.357-.129.527-.215.149-.123.289-.256.419-.4a.145.145 0 0 0 0-.204c-.312-.4-.283-.429-.614-.781h.029zm-4.554-57.053-.273 1.053a1.95 1.95 0 0 1-1.668 1.424.466.466 0 0 1-.509-.298.479.479 0 0 1-.028-.209c.008-.122.028-.243.059-.36l.224-.81a5.19 5.19 0 0 1-3.033 1.677 1.198 1.198 0 0 1-1.336-1.121 2.922 2.922 0 0 1-2.194 1.121 2.447 2.447 0 0 1-2.37-2.536c0-2.535 2.594-5.851 5.851-5.851 1.395 0 2.477.556 2.477 1.667a1.633 1.633 0 0 1-.476 1.192 1.629 1.629 0 0 1-1.191.476c-.39 0-.975-.107-.975-.468 0-.36.867-.166.867-1.063 0-.556-.555-.75-1.121-.75-1.95 0-3.443 2.788-3.443 4.505 0 .78.303 1.56.975 1.56.673 0 1.532-.838 2.01-2.058a2.134 2.134 0 0 1 1.745-1.395c.312 0 .508.147.508.45a1.368 1.368 0 0 1-.088.419c-.108.36-.693 2.028-.693 2.282 0 .253.059.244.225.244.399 0 1.433-.683 2.721-2.146l1.56-5.578c1.365-4.877 4.203-9.1 5.422-9.129.391 0 .644.42.644 1.336 0 3.813-2.565 8.26-5.208 11.323l-.136.585c2.116-2.643 3.696-3.423 4.642-3.423.78 0 1.17.468 1.17.888 0 2.223-3.228 4.174-3.228 4.174-.166.107-.224.136-.224.224.021.148.05.294.088.439.195.839.468 1.229.975 1.229.312 0 .975-.322 2.019-1.356v-.234a5.422 5.422 0 0 1 5.169-5.393c1.394 0 2.057.838 2.057 1.697 0 1.502-2.077 3.394-4.027 4.281a.697.697 0 0 1-.303.088.359.359 0 0 1-.354-.202.373.373 0 0 1-.036-.14c0-.165.107-.36.39-.575 1.746-1.394 2.331-2.643 2.331-3.394 0-.536-.253-.78-.634-.78-1.199 0-2.565 2.136-2.565 4.028a1.861 1.861 0 0 0 1.243 1.853c.252.088.52.122.786.098a5.312 5.312 0 0 0 3.686-1.951c.059-.088.127-.176.215-.283.497-.575 1.19-1.473 1.775-2.224a2.837 2.837 0 0 1-.585-1.58 3.54 3.54 0 0 1 3.091-3.062.778.778 0 0 1 .822.523c.038.11.05.229.037.345 0 .858-.917 2.078-1.58 2.926.799.975 1.882 2.165 1.882 3.453 1.482.194 2.536.8 2.536 1.833 0 .556-.498 1.746-1.034 1.746-.107 0-.185 0-.185-.195s.165-.361.165-.722c0-.693-.614-1.22-1.726-1.473a3.473 3.473 0 0 1-3.423 2.01c-.644 0-1.951-.283-1.951-1.142 0-.858 1.307-1.726 3.804-2.038a7.798 7.798 0 0 0-1.307-1.892l-1.58 1.95a2.548 2.548 0 0 1-.283.41 7.336 7.336 0 0 1-5.217 2.76 3.097 3.097 0 0 1-2.926-1.736 5.422 5.422 0 0 1-3.111 1.736c-1.551 0-2-2.038-2-2.623 0-.585.225-.693.693-1.054 1.112-.887 2.175-1.862 2.175-2.584 0-.195-.088-.332-.283-.332a.802.802 0 0 0-.302.078 9.182 9.182 0 0 0-3.463 4.067l.03.01zm17.662.302c-1.112 0-2.419.088-2.419.81 0 .331.224.526.615.526a1.872 1.872 0 0 0 1.774-1.345l.03.01zm-.976-6.115c.01.299.108.588.283.83.342-.446.588-.957.722-1.503 0-.195-.058-.302-.195-.302a1.054 1.054 0 0 0-.81.966v.01zm-15.487.586c1.551-2.341 2.663-4.877 2.663-6.76 0-.506-.078-.73-.195-.73-.439 0-1.473 2.642-2.195 6.153l-.273 1.337zm-2.555 50.5c.051.22.077.446.078.672a2.854 2.854 0 0 1-.127.653 2.724 2.724 0 0 1-.185.644 3.156 3.156 0 0 1-.351.576 3.13 3.13 0 0 1-.507.439c-.17.14-.353.265-.547.37a3.508 3.508 0 0 1-.633.234c-.217.057-.44.09-.664.098h-2.077a.182.182 0 0 1-.175-.166c0-.312.048-.312.048-.624v-3.141c0-.322-.058-.312-.058-.624v-1.248a.183.183 0 0 1 .061-.119.183.183 0 0 1 .124-.047h2.077c.223-.005.445.014.664.059.219.048.432.123.633.224.196.106.379.234.547.38.365.25.663.584.868.975.098.202.174.415.224.634v.01zm-1.385.672a1.817 1.817 0 0 0-.107-.653 1.593 1.593 0 0 0-.351-.556 1.55 1.55 0 0 0-.527-.4 1.59 1.59 0 0 0-.653-.117c-.41 0-.498-.254-.81 0-.312.253 0 .341 0 .683v2.067c0 .341-.166.39 0 .683.166.292.4 0 .81 0 .445-.034.865-.22 1.189-.527.145-.167.257-.358.332-.566.073-.2.112-.41.117-.624v.01zm.732 10.143v-3.131a.147.147 0 0 0-.033-.112.13.13 0 0 0-.046-.038.167.167 0 0 0-.058-.016h-1.024c-.088 0-.156.108-.156.196v1.248c0 .312-.059.322-.059.634s.059.312.059.624v3.092c.001.02.006.039.016.057a.14.14 0 0 0 .09.075c.019.005.04.007.06.004h.975c.088 0 .185-.058.185-.146v-1.882c0-.313-.009-.303-.009-.615v.01zm54.907-39.616v2.068a.638.638 0 0 0 0 .195c.068.271.1.55.098.829v2.058c.003.251-.016.503-.059.75a1.908 1.908 0 0 0 0 .284v1.034a1.1 1.1 0 0 0 0 .214c.055.266.081.538.078.81v2.057a4.89 4.89 0 0 1 0 .663 3.273 3.273 0 0 0 0 .371c-.007.13-.007.26 0 .39v.634c.001.307-.041.612-.126.907v1.56c.013.208.013.417 0 .625v.975a2.3 2.3 0 0 0 0 .332c.015.233.015.468 0 .702v2.058a3.273 3.273 0 0 0 0 .37 5.09 5.09 0 0 1 0 .654c.003.282-.03.564-.098.838a.638.638 0 0 0 0 .195v2.058a.638.638 0 0 0 0 .195c.067.271.1.55.098.83v1.033c.007.33-.039.66-.137.975v.117c.11.314.166.643.166.976.002.282-.03.564-.098.838a.64.64 0 0 0 0 .186 8.777 8.777 0 0 1-.058.887v.273a2.668 2.668 0 0 0 0 .283c.027.292.027.586 0 .878a9.135 9.135 0 0 1-.195.858l-.069.273a5.945 5.945 0 0 1-.253.78l-.117.303-.088.322c-.07.267-.154.531-.254.79a6.535 6.535 0 0 1-.38.731l-.166.292c0 .088-.078.186-.126.283a4.519 4.519 0 0 1-.371.771c-.195.322-.419.643-.644.975a8.315 8.315 0 0 1-.546.653l-.4.469c-.175.225-.364.44-.565.643-.211.2-.44.379-.683.537a1.282 1.282 0 0 0-.234.165l-.224.196c-.215.185-.429.37-.654.546l-.156.087c-.429.244-.478.264-.829.439l-.137.069-.214.136c-.208.154-.43.288-.663.4a2.922 2.922 0 0 1-.81.293.365.365 0 0 0-.156.058 2.05 2.05 0 0 0-.253.146 4.384 4.384 0 0 1-.634.381c-.273.136-.41.195-.546.253-.131.051-.258.11-.381.176a1.448 1.448 0 0 0-.273.156c-.194.137-.4.258-.614.361a2.808 2.808 0 0 1-.868.292l-.771-1.277.654 1.316-.517.244-.41.195-.195.127a3.413 3.413 0 0 1-.673.419 1.564 1.564 0 0 0-.253.156 4.366 4.366 0 0 1-.624.371 3.273 3.273 0 0 1-.849.293l-.127.048c-.13.061-.257.129-.38.205l-.527.273a4.676 4.676 0 0 1-.644.273 2.218 2.218 0 0 0-.302.137 1.27 1.27 0 0 0-.253.146 4.099 4.099 0 0 1-.625.371c-.127.06-.251.128-.37.205l-.536.282c-.211.109-.429.2-.654.273-.1.036-.198.078-.292.127-.112.051-.219.11-.322.176a6.442 6.442 0 0 1-.566.322 2.637 2.637 0 0 0-.322.175c-.146.088-.283.176-.575.322l-.361.195-.536.302a3.296 3.296 0 0 1-.83.283.372.372 0 0 0-.146.059c-.2.098-.405.186-.614.263l-.322.146c-.24.257-.524.469-.839.625a4.546 4.546 0 0 1-.712.282 2.047 2.047 0 0 0-.517.254 5.309 5.309 0 0 1-.614.361c-.14.064-.277.136-.41.214l-.497.254a2.934 2.934 0 0 1-.975.293 2.12 2.12 0 0 0-.361.185 5.877 5.877 0 0 1-.576.331.371.371 0 0 0-.136.088c-.218.192-.46.353-.722.478l-.975.449-.41.214-.497.254a4.923 4.923 0 0 1-.634.273 2.344 2.344 0 0 0-.312.127c-.261.137-.54.235-.829.292l-.137.049a1.34 1.34 0 0 0-.263.156c-.2.137-.408.261-.624.371a4.194 4.194 0 0 1-.683.273l-.273.107-.4.215-.507.263-.41.214-.497.254c-.082.042-.16.091-.234.146a4.13 4.13 0 0 1-.644.381l-.409.214-.498.264a3.307 3.307 0 0 1-.702.273l-.244.107a3.319 3.319 0 0 0-.409.215c-.127.058-.244.136-.498.253-.253.117-.224.127-.292.166-.191.13-.389.247-.595.351l-.975.449-.322.185c-.18.119-.37.223-.566.312-.19.099-.385.187-.585.263l-.351.156-.381.205-.526.273a4.327 4.327 0 0 1-.634.273l-.302.127-.917.468-.312.176c-.147.088-.283.175-.576.322a5.041 5.041 0 0 1-.643.273 2.06 2.06 0 0 0-.303.136.836.836 0 0 0-.205.127 4.846 4.846 0 0 1-.663.41l-.917.458a5.385 5.385 0 0 1-.585.263l-.351.156c-.211.106-.43.197-.653.273a2.39 2.39 0 0 0-.293.118l-.546.253c-.13.051-.257.109-.38.176l-.527.243-.4.186-.351.195a9.19 9.19 0 0 1-.546.292l-.917.468a6.2 6.2 0 0 1-.565.254l-.361.166a.479.479 0 0 0-.166.107 3.057 3.057 0 0 1-.702.449l-.41.214-.497.264-.488.234-.43.214-.496.234-.43.205c-.263.137-.4.195-.536.254l-.39.185a1.548 1.548 0 0 0-.224.137c-.207.15-.426.283-.654.399a3.416 3.416 0 0 1-.868.293h-.107l-.39.205c-.167.1-.34.191-.517.273l-.293.175c-.192.122-.39.233-.594.332l-.41.215-.498.263a8.341 8.341 0 0 1-.575.254l-.36.165a4.302 4.302 0 0 1-.635.273 1.93 1.93 0 0 0-.302.127l-.468.215c-.098 0-.176.078-.332.165-.156.088-.566.371-.848.547l-.273.165a7.063 7.063 0 0 1-.751.439l-.264.156a4.57 4.57 0 0 1-.74.41l-.245.107c-.273.117-.546.225-.829.322a3.879 3.879 0 0 1-.887.156 2.146 2.146 0 0 0-.254 0c-.302.074-.608.13-.916.166h-.215c-.107 0-.205 0-.312.058a7.33 7.33 0 0 1-.82.137h-1.141a5.018 5.018 0 0 1-.838-.078 1.697 1.697 0 0 0-.302 0H79.1a4.637 4.637 0 0 1-.897 0c-.283 0-.576-.117-.858-.185l-.264-.069c-.37-.087-.75-.175-1.111-.292a3.71 3.71 0 0 1-.84-.42 2.344 2.344 0 0 0-.194-.117l-.166-.068c-.302-.127-.595-.244-.878-.39l-.283-.136a6.826 6.826 0 0 1-.741-.381 9.173 9.173 0 0 1-.75-.517l-.157-.088a3.603 3.603 0 0 1-.8-.282l-.37-.166a5.753 5.753 0 0 1-.576-.263 6.525 6.525 0 0 1-.536-.293 2.925 2.925 0 0 0-.36-.195l-.42-.205-.507-.244a3.695 3.695 0 0 1-.644-.39 1.326 1.326 0 0 0-.234-.136 3.63 3.63 0 0 1-.634-.39 1.525 1.525 0 0 0-.244-.137.55.55 0 0 0-.195-.078 3.524 3.524 0 0 1-.77-.283 5.957 5.957 0 0 1-.605-.361 2.97 2.97 0 0 0-.283-.156.386.386 0 0 0-.146-.058 3.468 3.468 0 0 1-.83-.283 7.794 7.794 0 0 1-.545-.302 2.965 2.965 0 0 0-.352-.195 3.09 3.09 0 0 1-.74-.498.42.42 0 0 0-.118-.078 2.653 2.653 0 0 1-.975-.293l-.917-.458a3.292 3.292 0 0 1-.78-.536.56.56 0 0 0-.244-.117 3.302 3.302 0 0 1-.8-.293 5.484 5.484 0 0 1-.594-.341 1.549 1.549 0 0 0-.283-.166 3.91 3.91 0 0 1-.634-.38 2.056 2.056 0 0 0-.254-.147 3.653 3.653 0 0 1-.975-.322 3.854 3.854 0 0 1-.683-.429.896.896 0 0 0-.185-.117l-1.843-.897a.685.685 0 0 0-.205-.078 4.03 4.03 0 0 1-.751-.283 3.046 3.046 0 0 1-.78-.546 1.383 1.383 0 0 0-.312-.146 4.05 4.05 0 0 1-.712-.283l-.498-.254c-.107-.058-.204-.117-.419-.214a4.153 4.153 0 0 1-.673-.429 1.234 1.234 0 0 0-.195-.117l-.322-.147a4.72 4.72 0 0 1-.614-.263l-.303-.127a4.718 4.718 0 0 1-.643-.273 3.585 3.585 0 0 1-.693-.439 1.192 1.192 0 0 0-.175-.117l-.488-.244-.429-.224a2.65 2.65 0 0 1-.975-.292l-.917-.449a3.823 3.823 0 0 1-.644-.38 2.16 2.16 0 0 0-.234-.147l-.917-.458a2.656 2.656 0 0 0-.331-.137 4.774 4.774 0 0 1-.615-.273l-.477-.244-.43-.214-.39-.185c-.136-.059-.273-.117-.536-.254a2.922 2.922 0 0 1-.81-.585 2.087 2.087 0 0 0-.302-.137 4.797 4.797 0 0 1-.673-.273l-.351-.156a5.455 5.455 0 0 1-.585-.263l-.42-.195-.507-.244c-.194-.097-.292-.136-.39-.176l-.536-.253a4.445 4.445 0 0 1-.634-.38l-.244-.147-.37-.166a6.379 6.379 0 0 1-.566-.253 3.32 3.32 0 0 1-.751-.517l-.098-.068-.312-.137a4.87 4.87 0 0 1-.634-.273l-.907-.458a1.071 1.071 0 0 0-.204-.078 3.681 3.681 0 0 1-.761-.283 3.32 3.32 0 0 1-.76-.527l.565-1.385-.654 1.327-.36-.166c-.147-.059-.293-.117-.576-.254l-.166-.068a3.158 3.158 0 0 1-.8-.283 3.1 3.1 0 0 1-.76-.526l-.195-.098a2.806 2.806 0 0 1-.868-.292l-.517-.264-.39-.214a3.477 3.477 0 0 1-.654-.4 1.17 1.17 0 0 0-.224-.137l-.4-.185-.526-.244a1.776 1.776 0 0 0-.313-.136 6.382 6.382 0 0 1-.624-.264 2.888 2.888 0 0 1-.721-.478.442.442 0 0 0-.147-.087 1.258 1.258 0 0 0-.244-.098 4.45 4.45 0 0 1-.711-.283l-.322-.146a6.486 6.486 0 0 1-.615-.263 5.301 5.301 0 0 1-.565-.322 2.633 2.633 0 0 0-.322-.176l-.254-.107a3.28 3.28 0 0 1-.702-.273 4.921 4.921 0 0 1-.663-.41l-.215-.136a2.695 2.695 0 0 0-.322-.137 4.31 4.31 0 0 1-.614-.273 3.248 3.248 0 0 1-.731-.478l-.127-.088c-.176-.087-.263-.117-.351-.156a4.662 4.662 0 0 1-.585-.263l-.42-.205a5.37 5.37 0 0 1-.507-.234 4.576 4.576 0 0 1-.575-.331l-.312-.176-.147-.049a3.05 3.05 0 0 1-.829-.292 2.916 2.916 0 0 1-.8-.576 3.169 3.169 0 0 1-1.092-.351l-.146-.097a11.331 11.331 0 0 1-.975-.732 7.488 7.488 0 0 1-.634-.614l-.195-.195a14.66 14.66 0 0 1-.741-.819c-.234-.274-.547-.634-.77-.976a6.588 6.588 0 0 1-.44-.712c-.058-.087-.107-.185-.166-.283l-.175-.253a4.549 4.549 0 0 1-.459-.712 7.688 7.688 0 0 1-.36-.82l-.108-.243a14.65 14.65 0 0 1-.4-1.092 3.813 3.813 0 0 1-.165-.868 2.3 2.3 0 0 0 0-.273 13.744 13.744 0 0 1-.205-1.083c-.059-.36-.108-.81-.137-1.2-.03-.39-.058-.79-.058-1.15a.351.351 0 0 0 0-.166 3.54 3.54 0 0 1-.098-.868c.008-.13.008-.26 0-.39v-.644a3.17 3.17 0 0 1 .127-.907v-2.185a.79.79 0 0 0 0-.146 3.063 3.063 0 0 1-.117-.878 4.116 4.116 0 0 1 .059-.75 1.95 1.95 0 0 0 0-.283v-1.034a3.82 3.82 0 0 1 0-.693 2.38 2.38 0 0 0 0-.331 1.106 1.106 0 0 0 0-.244 4.876 4.876 0 0 1-.069-.79 4.066 4.066 0 0 0 0-.43v-.604a5.041 5.041 0 0 1 0-.644 3.297 3.297 0 0 0 0-.38 5.296 5.296 0 0 1 0-.663 2.926 2.926 0 0 0 0-.37v-.615a3.774 3.774 0 0 0 0-.41v-1.911a1.19 1.19 0 0 0 0-.312 5.266 5.266 0 0 1 0-.722 4.691 4.691 0 0 1 0-.624v-.537a3.219 3.219 0 0 1-.117-.897 3.54 3.54 0 0 1 .107-.878.293.293 0 0 0 0-.156 5.588 5.588 0 0 1 0-.673 2.73 2.73 0 0 0 0-.35 3.843 3.843 0 0 1-.155-1.034V70.45a5.218 5.218 0 0 1 0-.683 2.73 2.73 0 0 0 0-.351 4.292 4.292 0 0 1 .058-.751.975.975 0 0 0 0-.283.653.653 0 0 0 0-.224 3.843 3.843 0 0 1-.078-.8c-.004-.33.042-.659.136-.975v-.137a2.926 2.926 0 0 1-.156-.975v-1.034c0-.3.036-.597.108-.887a.331.331 0 0 0 0-.137v-1.034a3.101 3.101 0 0 0 0-.37 4.819 4.819 0 0 1 0-.654v-1.034c.007-.12.007-.24 0-.36a5.296 5.296 0 0 1 0-.664 3.51 3.51 0 0 1 .097-.858.8.8 0 0 0 0-.351 3.483 3.483 0 0 1-.097-.849 5.16 5.16 0 0 1 0-.692 2.671 2.671 0 0 0 0-.341v-.634c.007-.13.007-.26 0-.39a3.345 3.345 0 0 1-.156-1.034 2.75 2.75 0 0 1 .146-.975v-.108a2.79 2.79 0 0 1-.166-.975 5.295 5.295 0 0 1 0-.663 2.79 2.79 0 0 0 0-.361v-3.092a5.94 5.94 0 0 1 .068-.829c.01-.107.01-.214 0-.321 0-.39.088-.78.147-1.161.061-.381.143-.759.243-1.131v-.127c.078-.332.157-.673.264-.975a4.32 4.32 0 0 1 .4-.82l.127-.224v-.156a3.53 3.53 0 0 1 .292-.975c.176-.342.37-.683.575-.975a6.48 6.48 0 0 1 .488-.673c.068-.088.147-.176.205-.264.172-.223.36-.431.566-.624.076-.07.148-.145.214-.224l.205-.254c.169-.225.35-.44.546-.643a4.73 4.73 0 0 1 .673-.537c.085-.05.167-.105.244-.166l.195-.166c.224-.195.449-.39.692-.565l.147-.098a.4.4 0 0 0 .136-.097c.228-.212.488-.387.77-.517.304-.16.635-.26.976-.293.16-.07.316-.148.468-.234l.498-.253.087-.059a3.187 3.187 0 0 1 1.629-.829h.117a1.69 1.69 0 0 0 .263-.156c.195-.137.4-.258.615-.36l.341-.186c.18-.113.366-.217.556-.312.288-.145.598-.244.917-.293a1.08 1.08 0 0 0 .283-.146c.205-.163.427-.304.663-.42a2.66 2.66 0 0 0 .322-.175c.146-.088.282-.175.575-.322.216-.112.441-.207.673-.283.097-.028.192-.064.283-.107l.907-.458.205-.127c.21-.16.435-.301.672-.42l.908-.458a4.51 4.51 0 0 1 .663-.283c.1-.029.199-.068.292-.117l.332-.185c.182-.115.371-.219.566-.312.204-.106.416-.197.633-.273a1.26 1.26 0 0 0 .303-.127c.196-.1.398-.188.605-.263.115-.036.226-.086.331-.146a.331.331 0 0 0 .146-.088 2.97 2.97 0 0 1 .722-.478c.253-.132.521-.23.8-.293a.479.479 0 0 0 .166-.058.274.274 0 0 0 .126-.088 3.6 3.6 0 0 1 .732-.488l.917-.448c.284-.147.59-.245.907-.293a.684.684 0 0 0 .234-.127c.217-.181.456-.335.712-.458a6.63 6.63 0 0 1 .556-.254l.37-.175c.212-.105.43-.197.653-.273.102-.032.2-.075.293-.127.248-.247.535-.451.849-.605a3.31 3.31 0 0 1 .721-.283l.234-.087.917-.449.42-.224.487-.244.361-.195c.176-.112.358-.213.546-.302l.39-.205.507-.273.41-.205.497-.263c.208-.107.423-.198.644-.274l.302-.126c.2-.099.406-.187.615-.264l.322-.146c.146-.067.29-.142.429-.224l.488-.244c.085-.04.167-.09.243-.146.2-.147.411-.274.634-.38.193-.1.392-.188.595-.264.088 0 .175-.068.341-.156l.917-.449.546-.253c.13-.051.258-.11.38-.176.11-.05.213-.109.313-.175.187-.125.382-.235.585-.332l.341-.185c.18-.113.366-.218.556-.312.202-.101.411-.19.624-.264l.313-.136c.228-.115.466-.21.711-.283.085-.024.167-.056.244-.097l.341-.186c.137-.078.274-.166.556-.302.283-.137.42-.195.566-.254l.36-.165a.828.828 0 0 0 .196-.127c.21-.167.44-.307.683-.42.187-.098.379-.186.575-.263a3.645 3.645 0 0 0 .702-.351l.556-.303a5.63 5.63 0 0 1 .595-.263l.341-.146c.197-.1.398-.188.605-.263l.332-.147.487-.234.43-.214c.114-.054.225-.116.331-.186.137-.078.273-.165.566-.312.096-.042.188-.094.273-.156.195-.133.4-.25.614-.35.246-.132.509-.23.78-.293a.685.685 0 0 0 .186-.059c.233-.26.514-.472.829-.624.229-.114.467-.21.712-.283a1.53 1.53 0 0 0 .243-.097l.917-.459c.192-.101.391-.19.595-.263l.332-.146c.205-.098.292-.157.39-.205.167-.1.34-.192.517-.273.08-.04.156-.089.224-.147.206-.15.424-.28.654-.39.226-.118.465-.213.712-.283a1.534 1.534 0 0 0 .468-.234c.204-.153.423-.287.653-.4.217-.107.442-.199.673-.273a1.42 1.42 0 0 0 .273-.107c.077-.036.15-.082.215-.136a4.04 4.04 0 0 1 .663-.41c.306-.152.636-.25.975-.293.11-.038.212-.094.302-.165a4.394 4.394 0 0 1 1.415-.673.429.429 0 0 0 .185-.069l.41-.204.497-.264.341-.185c.18-.113.366-.217.556-.312l.283-.166c.117-.078.244-.166.468-.293.206-.138.42-.262.644-.37l.273-.137.263-.175c.234-.146.468-.303.722-.43.253-.126.566-.253.849-.37l.204-.078c.281-.115.567-.216.858-.302l.225-.078.302-.098c.257-.102.521-.187.79-.253.279-.064.563-.1.848-.108h.293c.1-.013.198-.036.293-.068.273-.08.554-.133.838-.156a5.2 5.2 0 0 1 .868 0c.201.02.404.02.605 0 .273-.015.546-.015.82 0 .38 0 .76.088 1.14.146.101.006.202.006.303 0 .282.007.563.043.838.108.268.07.531.155.79.253l.303.107c.261.084.516.189.76.313l.293.126c.088.035.18.061.273.078.282.075.556.176.82.303.27.144.522.32.75.526l.186.156c.282.166.555.361.828.547.314.065.618.166.907.302.277.139.534.316.761.526l.098.069c.066.03.135.057.205.078.263.064.519.159.76.283.083.046.172.082.264.107.235.075.463.17.682.283l.917.448c.24.114.466.254.673.42l.205.126c.224.11.44.237.644.38.071.06.15.108.234.147.34.043.67.145.975.302.194.093.383.198.566.313l.331.185c.1.05.205.092.312.127.218.076.43.167.634.273l.917.458c.21.103.412.22.605.351l.282.166.4.185.527.244c.225.11.441.241.644.39a1.7 1.7 0 0 0 .234.147.876.876 0 0 0 .224.078c.256.073.504.171.741.292.203.097.398.207.585.332.097.064.198.123.303.175.235.113.457.25.663.41a.844.844 0 0 0 .205.127c.34.043.67.145.975.302.307.147.584.349.819.595a.514.514 0 0 0 .156.068c.293.057.575.155.839.293l.546.292.361.195.292.127a4.8 4.8 0 0 1 .654.273c.202.099.397.21.585.332.096.067.197.125.302.175l.917.449c.273.137.41.215.537.293l.361.195.916.458.283.107c.232.074.458.169.673.283.283.137.419.225.556.303.11.069.224.13.341.185.241.125.469.272.683.439a.858.858 0 0 0 .185.117l.508.263.399.215.341.146.595.263a.825.825 0 0 0 .205.078c.26.072.512.17.751.293l.488.244.429.224c.192.09.378.195.556.312l.332.185c.232.109.451.243.653.4.071.052.146.097.224.137a.88.88 0 0 0 .225.078c.255.073.504.171.741.292l.4.186.516.244c.217.108.426.231.625.37.084.059.172.11.263.156l.4.185.527.244.916.459c.062.034.127.06.195.078.267.063.526.158.771.282.286.137.547.322.77.547l.976.507.234.087c.25.069.491.164.721.283l.429.205.498.234.917.459c.268.131.517.298.741.497a.271.271 0 0 0 .107.078c.341.026.673.122.975.283.325.152.615.372.849.643a.643.643 0 0 0 .166.059 3.5 3.5 0 0 1 .78.283c.223.115.438.246.644.39a.87.87 0 0 0 .234.146l.916.449c.081.041.166.074.254.097.241.076.476.17.702.283l.907.459c.201.096.396.203.585.322.098.068.203.127.312.175l.352.166c.146.058.292.117.575.253.205.102.404.216.595.342l.302.166.488.253c.107.059.205.117.419.215h.107c.303.053.595.152.868.292.202.099.397.21.585.332.099.068.203.127.313.175.258.123.497.28.712.469a.475.475 0 0 0 .146.097c.091.045.186.085.283.117.23.067.452.159.663.273a.568.568 0 0 0 .166.059c.278.062.547.16.799.292.25.12.486.267.703.44a.718.718 0 0 0 .165.116l.917.449c.21.102.412.22.605.35.088.066.183.122.283.167.061.034.127.06.195.078a3.469 3.469 0 0 1 1.492.77l.136.088c.341.026.674.122.976.283l.487.253.43.215c.217.103.426.224.624.36l.312.186.361.244c.25.169.491.35.721.546.225.189.425.405.595.644.059.068.117.146.185.214l.244.225c.21.18.405.375.586.585.224.253.419.517.614.78l.088.136c.167.228.32.466.458.712l.156.273c.166.274.312.547.458.83l.088.175a.805.805 0 0 0 .117.146c.218.25.396.534.527.84.156.36.283.73.4 1.091.083.266.151.536.205.81 0 .107 0 .214.068.322.063.294.092.596.088.897a1.16 1.16 0 0 0 0 .263c0 .108 0 .215.058.322.062.27.105.544.127.82.02.275.02.552 0 .828v.322c.133.328.2.68.195 1.034a4.64 4.64 0 0 1 0 .624v1.024c-.008.14-.008.28 0 .42.005.241-.011.483-.049.721a2.18 2.18 0 0 0 0 .303c.015.22.015.442 0 .663v.37a.518.518 0 0 0 0 .176c.068.28.101.57.098.858a1.908 1.908 0 0 0 0 .283c.046.244.069.492.068.741.003.283-.029.565-.097.839a.638.638 0 0 0 0 .195c-.008.09-.008.182 0 .273.046.25.069.506.068.76a2.99 2.99 0 0 1-.147.976c-.013.13-.013.26 0 .39.017.24.017.482 0 .722.007.255-.016.51-.068.76a1.79 1.79 0 0 0 0 .274v1.024c.117.332.177.681.176 1.033a3.33 3.33 0 0 1-.088.82.703.703 0 0 0 0 .205v1.598c0 .146.302.224.302.449v.01zm-2.925-9.265a3.304 3.304 0 0 1 .087-.829.703.703 0 0 0 0-.205c.008-.09.008-.182 0-.273a4.294 4.294 0 0 1-.058-.75.518.518 0 0 0 0-.176 3.494 3.494 0 0 1-.098-.858 5.241 5.241 0 0 1 0-.664 2.864 2.864 0 0 0 0-.37 5.432 5.432 0 0 1 0-.722c.008-.1.008-.202 0-.302V50.3a3.66 3.66 0 0 0 0-.419v-.614c.008-.14.008-.28 0-.42-.134-.328-.2-.68-.195-1.034v-.497c.01-.14.01-.28 0-.42a3.249 3.249 0 0 0-.078-.448l-.088-.458c0-.225 0-.449-.048-.673a1.287 1.287 0 0 0 0-.264c0-.146-.069-.292-.098-.448a3.79 3.79 0 0 0-.107-.459 9.468 9.468 0 0 0-.312-.877.356.356 0 0 1-.098-.108 3.238 3.238 0 0 1-.458-.653l-.088-.185a7.573 7.573 0 0 0-.341-.634 3.593 3.593 0 0 1-.195-.332 3.572 3.572 0 0 0-.283-.449l-.098-.136c-.156-.205-.302-.41-.468-.605a3.093 3.093 0 0 0-.312-.302l-.361-.332c-.146-.146-.273-.302-.409-.468a1.483 1.483 0 0 0-.196-.234c-.156-.136-.331-.253-.507-.38l-.165-.117c-.195-.108-.312-.186-.42-.254a2.163 2.163 0 0 0-.341-.195l-.478-.244-.429-.214a2.651 2.651 0 0 1-.975-.293 3.318 3.318 0 0 1-.732-.487l-.136-.088a.795.795 0 0 0-.195-.069 3.402 3.402 0 0 1-.761-.292 6.04 6.04 0 0 1-.615-.351 2.527 2.527 0 0 0-.273-.166l-.916-.449a3.551 3.551 0 0 1-.693-.448 1.088 1.088 0 0 0-.175-.108.567.567 0 0 0-.166-.058 3.297 3.297 0 0 1-.8-.293 2.901 2.901 0 0 0-.283-.117 4.852 4.852 0 0 1-.663-.273 3.29 3.29 0 0 1-.722-.468.467.467 0 0 0-.146-.097 5.21 5.21 0 0 1-.575-.332 3.297 3.297 0 0 0-.312-.175h-.108a3.44 3.44 0 0 1-.868-.293l-.497-.254-.419-.224a4.155 4.155 0 0 1-.585-.332 2.094 2.094 0 0 0-.303-.175l-.351-.156c-.146-.059-.302-.117-.585-.254-.283-.136-.429-.244-.576-.331a2.28 2.28 0 0 0-.312-.176l-.916-.458a1.269 1.269 0 0 0-.254-.098 4.466 4.466 0 0 1-.692-.283l-.917-.448a3.077 3.077 0 0 1-.644-.39l-.234-.137a.474.474 0 0 0-.185-.068 3.688 3.688 0 0 1-.781-.293 2.542 2.542 0 0 1-.848-.643 2.303 2.303 0 0 1-.975-.274 3.063 3.063 0 0 1-.741-.497l-.118-.078-.906-.458-.43-.195-.497-.244a.974.974 0 0 0-.224-.088 4.164 4.164 0 0 1-.732-.283l-.917-.458a3 3 0 0 1-.77-.537.743.743 0 0 0-.273-.126 3.483 3.483 0 0 1-.77-.283l-.907-.468-.4-.186-.527-.243a5.172 5.172 0 0 1-.624-.361 1.329 1.329 0 0 0-.264-.156l-.409-.195-.517-.244a.81.81 0 0 0-.215-.088 3.999 3.999 0 0 1-.741-.283 4.014 4.014 0 0 1-.653-.4 1.19 1.19 0 0 0-.225-.136 6.931 6.931 0 0 1-.565-.312 3.429 3.429 0 0 0-.332-.186l-.487-.253-.42-.215a.729.729 0 0 0-.214-.078 3.873 3.873 0 0 1-.741-.292l-.352-.147-.585-.263c-.263-.127-.38-.195-.507-.263l-.4-.215a3.172 3.172 0 0 1-.692-.439.783.783 0 0 0-.176-.107c-.292-.146-.429-.234-.566-.312l-.341-.185a1.302 1.302 0 0 0-.273-.117 4.8 4.8 0 0 1-.673-.273l-.917-.459a6.468 6.468 0 0 1-.536-.292l-.361-.196-.917-.448a4.805 4.805 0 0 1-.595-.341 2.244 2.244 0 0 0-.302-.166 2.333 2.333 0 0 0-.292-.127 4.8 4.8 0 0 1-.654-.273c-.273-.137-.4-.215-.536-.293-.137-.078-.176-.107-.361-.195l-.137-.049a3.181 3.181 0 0 1-.838-.292 2.812 2.812 0 0 1-.82-.595 3.4 3.4 0 0 1-.975-.322 3.677 3.677 0 0 1-.663-.41.847.847 0 0 0-.205-.126 5.616 5.616 0 0 1-.595-.342l-.292-.165-.225-.088a3.387 3.387 0 0 1-.741-.283 4.476 4.476 0 0 1-.644-.39 1.341 1.341 0 0 0-.234-.137c-.195-.107-.302-.146-.4-.195l-.526-.243a6.476 6.476 0 0 1-.595-.342l-.293-.175-.916-.459-.303-.127a4.868 4.868 0 0 1-.643-.273 9.183 9.183 0 0 1-.566-.312 3.408 3.408 0 0 0-.332-.185 2.79 2.79 0 0 1-.975-.302 4.633 4.633 0 0 1-.644-.38.887.887 0 0 0-.234-.147 4.168 4.168 0 0 1-.673-.42l-.204-.126-.917-.449a1.162 1.162 0 0 0-.273-.107 4.467 4.467 0 0 1-.683-.283 1.554 1.554 0 0 0-.205-.078 3.46 3.46 0 0 1-.76-.283 3.57 3.57 0 0 1-.751-.517l.555-1.394-.653 1.326h-.098a3.043 3.043 0 0 1-.975-.341l-.146-.098a21.17 21.17 0 0 0-.77-.517 4.555 4.555 0 0 1-.566-.429l-.176-.146-.263-.078a4.368 4.368 0 0 1-.605-.195c-.136 0-.263-.117-.4-.176a4.219 4.219 0 0 0-.439-.185l-.419-.146a3.591 3.591 0 0 0-.458-.147 1.95 1.95 0 0 0-.342 0 5.751 5.751 0 0 1-.575-.058 14.115 14.115 0 0 0-.897-.117 4.064 4.064 0 0 0-.488 0 6.38 6.38 0 0 1-1.053 0h-.283a1.56 1.56 0 0 0-.322.068 5.852 5.852 0 0 1-.595.137c-.195.01-.39.01-.585 0a2.04 2.04 0 0 0-.332 0c-.156 0-.302.097-.458.146l-.4.146-.253.078c-.205.069-.42.127-.625.215l-.224.088c-.205.087-.42.165-.614.273-.195.107-.303.175-.449.263l-.331.215c-.158.097-.32.185-.488.263-.11.053-.218.111-.322.175l-.146.098a2.12 2.12 0 0 0-.283.176 3.897 3.897 0 0 1-.653.38l-.332.185c-.18.119-.37.223-.566.312l-.4.215-.497.263a3.58 3.58 0 0 1-.79.283.545.545 0 0 0-.175.068l-.244.147c-.204.143-.42.27-.644.38a2.594 2.594 0 0 1-.917.292 1.02 1.02 0 0 0-.273.157 4.54 4.54 0 0 1-.673.41 4.907 4.907 0 0 1-.673.272 1.57 1.57 0 0 0-.273.117 1.14 1.14 0 0 0-.224.137 4.18 4.18 0 0 1-.653.39 3.706 3.706 0 0 1-.712.283 1.536 1.536 0 0 0-.469.234 4.332 4.332 0 0 1-.643.4 4.1 4.1 0 0 0-.39.204c-.127.069-.254.147-.517.274a6.447 6.447 0 0 1-.595.263l-.342.146-.916.459a3.12 3.12 0 0 1-.702.282l-.254.098a2.827 2.827 0 0 1-.829.624 3.772 3.772 0 0 1-.79.283l-.176.068c-.1.045-.194.1-.282.166a4.868 4.868 0 0 1-.605.351 2.116 2.116 0 0 0-.332.185c-.136.078-.273.166-.565.312l-.488.234-.43.205a5.41 5.41 0 0 1-.604.264l-.331.146c-.196.1-.398.188-.605.263l-.331.146c-.176.088-.264.147-.352.196-.087.048-.263.165-.546.302l-.585.263a2.666 2.666 0 0 0-.546.273c-.21.165-.435.309-.673.43l-.566.253-.37.166-.342.185c-.18.113-.365.217-.556.312a4.04 4.04 0 0 1-.712.283.827.827 0 0 0-.243.088c-.201.107-.41.198-.625.273l-.312.136-.34.186c-.137.078-.274.166-.557.302a2.61 2.61 0 0 0-.302.176 5.62 5.62 0 0 1-.585.331l-.547.254-.39.175-.916.459c-.283.136-.44.195-.586.253-.146.059-.175.069-.35.156a1.25 1.25 0 0 0-.235.147 4.89 4.89 0 0 1-.643.38l-.43.224-.477.244c-.2.099-.405.187-.615.263l-.322.147a4.874 4.874 0 0 1-.643.273l-.303.127c-.204.097-.302.156-.41.214l-.497.263-.4.205-.507.264-.36.195-.537.302-.429.215-.488.253-.916.449c-.235.117-.48.212-.732.283a.973.973 0 0 0-.224.087 3.053 3.053 0 0 1-.839.605c-.212.105-.43.196-.653.273l-.293.127c-.273.136-.42.195-.556.253-.13.051-.257.11-.38.176a.479.479 0 0 0-.147.098 3.419 3.419 0 0 1-.711.468 2.937 2.937 0 0 1-.907.292l-.976.478a.412.412 0 0 0-.117.078 3.112 3.112 0 0 1-.741.488c-.253.131-.521.23-.8.292a.479.479 0 0 0-.166.059.59.59 0 0 0-.136.097 3.83 3.83 0 0 1-.722.468c-.196.1-.398.188-.604.264a2.937 2.937 0 0 0-.332.156 3.552 3.552 0 0 1-.644.263l-.302.127a3.418 3.418 0 0 0-.341.195c-.137.078-.274.166-.556.302a4.823 4.823 0 0 1-.663.274l-.283.126-.917.459-.205.126a3.61 3.61 0 0 1-.663.42l-.917.458a4.158 4.158 0 0 1-.683.273c-.068 0-.136 0-.273.117-.11.051-.218.11-.322.176-.181.119-.37.226-.565.322l-.205.126a4.17 4.17 0 0 1-.673.42 3.082 3.082 0 0 1-.917.292 2.909 2.909 0 0 0-.41.205 4.524 4.524 0 0 1-.555.312 2.18 2.18 0 0 0-.264.156 4.957 4.957 0 0 1-.623.37 3.44 3.44 0 0 1-.869.294l-.195.087a3.179 3.179 0 0 1-.77.537 4.54 4.54 0 0 0-.41.214l-.497.254a2.713 2.713 0 0 1-.975.292l-.118.059c-.192.18-.405.337-.633.468l-.42.351-.224.195a3.584 3.584 0 0 1-.497.361 2.446 2.446 0 0 0-.254.185 5.049 5.049 0 0 0-.273.342l-.312.38c-.12.146-.25.283-.39.41-.089.08-.17.168-.244.263l-.283.36a3.613 3.613 0 0 0-.283.381 9.526 9.526 0 0 0-.458.81v.126c-.039.27-.107.536-.205.79a5.27 5.27 0 0 1-.322.615 1.55 1.55 0 0 0-.126.214c-.078.254-.137.508-.205.77v.128c-.069.292-.147.604-.195.907-.05.302-.088.614-.117.916-.01.17-.03.34-.059.508-.01.14-.01.28 0 .419v3.745a3.104 3.104 0 0 0 0 .37c.112.334.168.683.166 1.034a3.08 3.08 0 0 1-.146.976v.117c.104.314.157.644.156.975v.634c-.008.13-.008.26 0 .39.014.23.014.462 0 .692a2.545 2.545 0 0 0 0 .342.565.565 0 0 0 0 .175c.067.278.1.563.097.849a3.51 3.51 0 0 1-.097.858.507.507 0 0 0 0 .176 2.728 2.728 0 0 0 0 .35v1.707a2.79 2.79 0 0 0 0 .361 4.89 4.89 0 0 1 0 .663v1.034c.005.3-.031.598-.108.888a.332.332 0 0 0 0 .136v1.034c.096.317.148.645.156.975.01.33-.036.66-.136.976a.703.703 0 0 0 0 .322c.054.263.08.53.078.8.003.25-.016.502-.059.75a1.561 1.561 0 0 0 0 .283c.016.224.016.449 0 .673v1.385c.104.335.157.683.156 1.034v.673a2.728 2.728 0 0 0 0 .35c.004.297-.035.593-.117.878a.429.429 0 0 0 0 .156v.137c.081.292.12.594.117.897v.624a3.431 3.431 0 0 0 0 .4 1.95 1.95 0 0 0 0 .303c.042.241.062.486.059.731v2.058a4.69 4.69 0 0 1 0 .624v1.063a3.1 3.1 0 0 0 0 .37v.654a2.926 2.926 0 0 0 0 .37v1.034a1.259 1.259 0 0 0 0 .244c.055.26.08.525.078.79 0 .232-.016.463-.049.693a2.38 2.38 0 0 0 0 .331v1.034c.004.252-.016.503-.058.751a1.707 1.707 0 0 0 0 .283.4.4 0 0 0 0 .146c.08.286.12.581.117.878v2.067a3.17 3.17 0 0 1-.127.907v.118a3.431 3.431 0 0 0 0 .4v.633a.507.507 0 0 0 0 .166c.072.284.108.576.107.868v.839c0 .273.068.692.107.975.04.283.108.624.166.907.052.212.088.427.108.644-.01.09-.01.182 0 .273.097.293.204.585.321.868l.117.293c.078.185.156.38.244.565.088.185.146.205.215.312.068.108.214.293.312.449l.234.4c.068.144.15.281.244.409.175.244.38.478.585.712.205.234.41.488.614.693l.234.234c.147.146.283.292.43.419l.594.478a2.984 2.984 0 0 1 1.736.858c.06.036.127.063.196.078.284.064.559.162.819.293.203.095.399.206.585.331.098.069.203.128.312.176l.42.195.497.244c.113.06.23.112.35.156.202.074.397.162.586.263.263.123.506.284.722.478a.37.37 0 0 0 .136.088l.332.146c.206.076.409.164.604.264.235.112.458.249.664.409.067.05.139.092.214.127.08.046.165.082.254.107.243.07.478.165.702.283.195.091.384.196.566.312l.322.185.331.147a6 6 0 0 1 .614.263c.078.041.16.074.244.098.248.065.487.16.712.282.258.123.498.28.712.469a.33.33 0 0 0 .146.087c.1.054.205.1.313.137.216.077.428.169.634.273l.39.185.526.244a4 4 0 0 1 .654.4c.07.051.146.097.224.136.263.127.39.205.517.274l.39.204h.098c.304.058.6.157.877.293.279.136.535.314.76.527l-.565 1.384.654-1.316.166.058c.277.058.547.154.8.283l.36.166c.146.058.293.117.576.254a3.1 3.1 0 0 1 .76.526l.088.059a.683.683 0 0 0 .205.078c.264.068.519.166.76.292l.917.459c.1.055.204.101.313.136.214.077.422.168.623.273.279.133.535.307.761.517l-.566 1.385.654-1.326.37.175c.147.059.293.117.566.254.218.106.427.23.624.37.08.061.164.113.254.156.195.098.293.137.39.176.098.039.273.117.536.254l.41.195.517.243c.114.06.23.112.351.157.146.058.293.117.585.263l.273.107c.231.074.456.165.673.273.303.15.576.352.81.595l.42.205.536.244.487.253.43.215.321.146c.21.077.415.165.615.263l.916.459c.222.109.434.236.634.38a.94.94 0 0 0 .244.146l.917.449c.34.04.67.139.975.293l.488.253.42.215c.244.123.476.27.691.439a.815.815 0 0 0 .176.117l.302.127c.221.075.437.166.644.273.104.052.212.098.322.136.21.077.415.165.614.263.242.12.471.263.683.43a.835.835 0 0 0 .195.126l.488.244.42.224a.712.712 0 0 0 .243.088c.245.074.483.168.712.283.284.14.544.324.77.546a.87.87 0 0 0 .283.127c.262.075.517.172.76.293l1.347.653.488.244c.246.117.478.261.692.429a.774.774 0 0 0 .175.117c.34.06.668.169.976.322.223.102.435.226.634.37.078.059.163.108.253.147.206.104.405.221.595.351.068 0 .137.088.293.166a.544.544 0 0 0 .175.058c.273.069.538.167.79.293.288.139.551.324.78.546l.976.507c.34.034.672.133.975.293.27.129.52.296.741.497l.117.078c.192.088.378.189.556.302l.342.186a.26.26 0 0 0 .146 0c.288.061.566.159.829.292.212.107.418.228.614.361.069 0 .137.088.273.156a.808.808 0 0 0 .195.078c.267.064.526.159.77.283.228.108.444.239.644.39.076.055.158.101.244.137a4.3 4.3 0 0 1 .644.4c.072.055.15.101.234.136l.43.205.487.244c.283.136.41.214.546.292.115.075.236.14.36.195l.362.166c.146.059.292.117.575.254a.3.3 0 0 0 .146.058c.31.06.606.173.878.332l.37.253c.176.127.352.264.537.371.141.084.288.159.44.224l.38.186c.214.107.428.195.653.282l.185.078c.221.095.433.209.634.342.063.042.128.081.195.117.273.088.566.156.868.234l.302.068c.196.049.4.107.595.137h.927l.546.078c.323.046.652.046.975 0h.342a3.14 3.14 0 0 0 .429-.069l.468-.097h.234c.224 0 .448-.068.673-.127.224-.058.439-.068.663-.097.084.01.17.01.254 0 .195-.065.387-.14.575-.225l.283-.117c.098-.048.193-.103.283-.166.163-.11.332-.211.507-.302.174-.091.344-.192.507-.302l.273-.166c.293-.176.536-.332.78-.507l.147-.088c.203-.119.415-.223.633-.312l.342-.166c.208-.106.423-.197.644-.273l.302-.127.566-.263a2.66 2.66 0 0 0 .37-.156l.41-.215.497-.263c.1-.049.198-.105.293-.166.19-.125.39-.239.595-.341l.39-.205c.127-.068.253-.146.517-.273.273-.14.565-.239.867-.293l.771 1.288-.663-1.327c.08-.037.155-.082.224-.136.207-.15.426-.284.653-.4l.537-.244.39-.185.488-.234.439-.215.487-.234.43-.205.409-.214.497-.263.156-.098c.218-.181.457-.335.712-.458l.566-.264c.124-.043.245-.095.361-.156l.917-.468.351-.195c.136-.078.263-.156.546-.292l.526-.244.4-.186.546-.253c.131-.051.258-.11.381-.176.214-.107.436-.198.663-.273.096-.034.191-.073.283-.117.19-.099.385-.187.585-.263.088 0 .176-.068.351-.156l.907-.459.205-.126c.211-.161.436-.302.673-.42a4.09 4.09 0 0 1 .634-.263c.104-.038.205-.083.302-.137.111-.051.219-.109.322-.175.185-.119.377-.226.575-.322l.908-.468a4.79 4.79 0 0 1 .643-.273 1.28 1.28 0 0 0 .303-.127l.39-.205c.126-.068.253-.146.516-.273.187-.098.379-.186.576-.263.122-.04.24-.092.351-.156.115-.05.226-.108.332-.176.181-.119.37-.226.565-.322l.917-.448c.1-.045.195-.101.283-.166.193-.131.395-.249.604-.351l.4-.205.507-.263c.224-.118.459-.213.703-.283.087-.023.172-.056.253-.098l.41-.214.497-.264c.083-.037.161-.083.234-.136a3.77 3.77 0 0 1 .644-.39l.41-.215.497-.263.41-.205.497-.263c.22-.117.452-.209.692-.273l.264-.108c.089-.044.173-.097.253-.156a4.05 4.05 0 0 1 .624-.37c.265-.136.548-.235.839-.293l.137-.049c.205-.104.417-.195.634-.273l.312-.126.419-.225.488-.243.975-.449.127-.088c.223-.192.468-.356.731-.488.107-.052.212-.111.312-.175.186-.119.378-.226.576-.322.304-.158.634-.257.975-.293l.449-.224.497-.263c.097-.042.188-.095.273-.156.197-.134.402-.254.615-.361.228-.114.467-.209.712-.283.084-.019.166-.049.243-.088.229-.265.512-.477.829-.624a4.96 4.96 0 0 1 .615-.273l.331-.136a3.1 3.1 0 0 1 .82-.293.372.372 0 0 0 .146-.059c.125-.055.246-.12.361-.195a9.19 9.19 0 0 1 .546-.292c.111-.051.219-.11.322-.176.181-.119.37-.226.565-.322l.322-.185c.147-.088.283-.175.576-.322.208-.11.427-.199.653-.263l.293-.127c.185-.097.282-.146.37-.205l.527-.282c.092-.044.18-.097.263-.156.198-.14.407-.264.624-.371.206-.101.418-.189.634-.263a2.8 2.8 0 0 0 .313-.137l.37-.195c.137-.078.263-.156.527-.283.264-.136.546-.234.838-.292l.137-.049c.088-.043.173-.092.254-.146.2-.145.412-.272.633-.381l.195-.117c.207-.169.433-.313.673-.429l.508-.244c.107-.049.214-.088.419-.195.273-.14.566-.239.868-.292h.117c.092-.044.18-.097.263-.156.195-.138.4-.258.615-.361.273-.137.419-.195.556-.254l.38-.175c.089-.044.174-.096.253-.157.198-.14.407-.264.625-.37a3.35 3.35 0 0 1 .819-.293.44.44 0 0 0 .156-.058c.074-.038.146-.08.215-.127.205-.161.427-.298.663-.41l.136-.068c.283-.146.342-.166.634-.331l.351-.303.283-.244c.161-.134.33-.258.507-.37.078-.059.166-.108.244-.176.122-.126.236-.26.341-.4.078-.107.166-.204.254-.312l.254-.292a4.76 4.76 0 0 0 .351-.4c.185-.254.36-.507.516-.771.064-.113.119-.23.166-.351.069-.166.137-.331.225-.497.068-.145.146-.285.234-.42.068-.136.146-.263.205-.4.055-.139.101-.282.136-.428 0-.147.078-.303.127-.45.049-.145.107-.301.166-.448a3.81 3.81 0 0 0 .146-.429l.078-.302c.049-.205.098-.4.137-.595.039-.195 0-.215 0-.322a4.069 4.069 0 0 1 0-.605v-.926a3.292 3.292 0 0 1 .097-.839.64.64 0 0 0 0-.185 3.302 3.302 0 0 1-.166-1.034c-.004-.33.045-.66.146-.975V90.11a.638.638 0 0 0 0-.195 3.98 3.98 0 0 1-.087-.829V86.94c0-.282.029-.563.087-.838a.58.58 0 0 0 0-.195 2.866 2.866 0 0 0 0-.371 5.478 5.478 0 0 1 0-.654v-2.057a2.3 2.3 0 0 0 0-.332 5.484 5.484 0 0 1 0-.702v-.975a3.333 3.333 0 0 0 0-.4v-1.658a3.236 3.236 0 0 1 .127-.907v-.127c.008-.13.008-.26 0-.39V76.7a4.893 4.893 0 0 1 0-.663 2.864 2.864 0 0 0 0-.37v-2.059a1.2 1.2 0 0 0 0-.224 3.837 3.837 0 0 1-.078-.8v-1.033a4.293 4.293 0 0 1 .059-.751 1.67 1.67 0 0 0 0-.283V68.46a.637.637 0 0 0 0-.195 3.451 3.451 0 0 1-.088-.83V63.31a3.28 3.28 0 0 1 .088-.819 1.4 1.4 0 0 0 0-.205 3.164 3.164 0 0 1-.176-1.033v-1.024a3.557 3.557 0 0 1 .068-.77 1.288 1.288 0 0 0 0-.264 2.031 2.031 0 0 0 0-.312 4.151 4.151 0 0 1-.048-.722 3.04 3.04 0 0 1 .136-.975.865.865 0 0 0 0-.351 4.241 4.241 0 0 1-.165-.78v.01zm-9.841 17.34a5.85 5.85 0 0 0-3.54-1.472c-1.19-.195-2.399-.254-3.589-.439s-2.36-.468-3.56-.644c-1.2-.175-1.775-.273-2.116-.634-.488-.478-.712-.975-.722-2.925-.01-1.95.166-2.926.644-3.316.478-.39.917-.42 2.028-.4 1.112.02 2.097-.137 3.141-.117 1.043.02 2.096.273 3.14.292 1.044.02 1.638-.048 1.951.332.312.38.478 1.17.546 4.233l2.789.126c0-1.375-.098-2.447-.185-3.247a4.136 4.136 0 0 0-1.2-2.926c-.731-.76-1.756-1.092-3.56-1.092-1.18 0-2.36.136-3.54.136-1.18 0-2.36-.146-3.55-.146a4.875 4.875 0 0 0-3.491 1.082 3.898 3.898 0 0 0-1.278 2.292 14.14 14.14 0 0 0-.156 2.673 20.312 20.312 0 0 0 0 2.516 3.46 3.46 0 0 0 1.131 2.233c.663.663 1.668 1.102 3.579 1.385 1.19.195 2.41.185 3.599.38 1.19.195 2.36.566 3.541.77 1.18.206 1.892.294 2.243.703.517.517.585 1.18.585 3.404 0 2.223-.186 3.218-.634 3.599-.449.38-.907.243-2.048.087s-2.341-.253-3.501-.4c-1.161-.146-2.341-.185-3.511-.321-1.171-.137-1.619-.273-1.951-.664-.332-.39-.478-1.053-.527-4.164l-2.925-.254c.052 1.048.18 2.091.38 3.121a4.028 4.028 0 0 0 1.092 2.75c.732.771 1.746 1.044 3.511 1.268 1.307.166 2.594.43 3.901.605 1.307.176 2.595.449 3.901.644 1.834.263 2.877 0 3.57-.546a3.79 3.79 0 0 0 1.083-2.595c.143-.949.211-1.907.204-2.867a26.1 26.1 0 0 0-.088-2.838 4.421 4.421 0 0 0-.887-2.633v.01zm-45.467 28.283h-3.774c-.098 0-.166.049-.166.137v.927c0 .087 0 .185.146.185h.605c.302 0 .4-.224.604 0 .205.224.078.312 0 .643-.078.332 0 .332 0 .654v1.297c0 .322-.049.322-.049.653v1.298a.134.134 0 0 0 .04.106.14.14 0 0 0 .107.04h1.024c.02 0 .04-.004.058-.012a.154.154 0 0 0 .049-.034.149.149 0 0 0 .039-.11c0-.322.049-.322.049-.654v-3.247c0-.322-.254-.429 0-.663.254-.234.322 0 .624 0s.303-.049.605-.049c.097 0 .146-.049.146-.137v-.926a.176.176 0 0 0-.107-.156v.048zm10.465-5.12h-1.775c-.293 0-.391.215-.596 0-.204-.214 0-.302 0-.585s-.253-.41 0-.595c.254-.185.342 0 .664 0h1.297a.186.186 0 0 0 .166-.185v-.927c0-.087-.098-.136-.176-.136h-1.297c-.322 0-.41.185-.654 0-.243-.185 0-.273 0-.546s-.175-.332 0-.507c.176-.176.283 0 .576 0h1.775a.205.205 0 0 0 .176-.186v-.926a.165.165 0 0 0-.016-.058.141.141 0 0 0-.038-.047.136.136 0 0 0-.053-.028.141.141 0 0 0-.059-.004h-3.531a.183.183 0 0 0-.121.054.18.18 0 0 0-.054.122v5.637a.175.175 0 0 0 .165.175h2.819c.351 0 .351.05.712.05.088 0 .136-.098.136-.176v-.927a.185.185 0 0 0 0-.153.187.187 0 0 0-.116-.1v.048zm26.02 3.19a.216.216 0 0 1-.195.233c-.12.039-.245.056-.371.049-.322 0-.322 0-.653.049h-.644c-.322 0-.322 0-.644.059h-1.95l-.644.048h-.653l-.644.049h-2.155c-.137 0-.205 0-.439.059h-3.882c-.322 0-.322.058-.644.078-.321.019-.331 0-.575 0h-2.672c-.322 0-.322 0-.644.058a3.323 3.323 0 0 1-.468 0h-.351c-.158.03-.317.049-.478.059-.331 0-.332 0-.653.048h-.137a.97.97 0 0 1-.429-.204 1.26 1.26 0 0 1-.185-.215 1.065 1.065 0 0 1-.186-.302 1.751 1.751 0 0 1 .03-1.239c.071-.2.192-.377.351-.517a.796.796 0 0 1 .565-.234h.303a1.76 1.76 0 0 1 .351 0h1.287l.654.049h.643l.654.049c.107-.006.214-.006.322 0h.321l.42.048h3.208c.088-.01.176-.01.264 0h1.297c.322 0 .322.059.644.079h2.886c.117.009.234.009.351 0h.654l.653.048h.644c.322 0 .322.049.653.069.332.019.322 0 .644 0h.653c.322 0 .322 0 .644.058h.293a1.96 1.96 0 0 1 .361 0c.253 1.17.546 1.287.546 1.473v.048zm-60.838-3.629c-.092.203-.21.393-.35.566a2.234 2.234 0 0 1-1.025.839c-.206.09-.422.155-.644.195a2.86 2.86 0 0 1-.653.097h-.692c-.342 0-.352.05-.693.05h-.692c-.088 0-.127-.079-.127-.157 0-.312-.058-.312-.058-.624s.058-.322.058-.634v-4.379a.176.176 0 0 1 .156-.175h2.077c.22-.026.443-.026.664 0 .216.059.425.14.624.243.2.1.39.22.565.361.184.129.351.28.498.449.128.183.236.379.321.585.1.198.175.408.225.624.124.43.124.887 0 1.317a3.469 3.469 0 0 1-.254.595v.048zm-1.112-1.336a1.86 1.86 0 0 0-.117-.663 1.356 1.356 0 0 0-.916-.917 1.715 1.715 0 0 0-.644-.126c-.41 0-.498-.264-.81 0-.312.263 0 .331 0 .672v2.068c0 .341-.175.4 0 .693.176.292.41 0 .82 0 .222-.01.44-.064.643-.157.212-.074.405-.194.566-.35a1.734 1.734 0 0 0 .458-1.22zm6.135 10.728v-3.755a.176.176 0 0 0-.175-.156h-1.015a.176.176 0 0 0-.166.176v1.424c0 .351.254.449 0 .722-.253.273-.312 0-.614 0h-.605c-.302 0-.302-.049-.614-.049s-.38.234-.585 0c-.205-.234 0-.341 0-.702v-1.424a.197.197 0 0 0-.06-.123.196.196 0 0 0-.126-.053h-1.014a.167.167 0 0 0-.156.166v5.637a.13.13 0 0 0 .003.055.134.134 0 0 0 .026.048.118.118 0 0 0 .044.032.11.11 0 0 0 .054.011h1.014a.196.196 0 0 0 .185-.175v-1.444c0-.38-.253-.468 0-.76.254-.293.313 0 .615 0h1.219c.312 0 .41-.205.595 0 .185.204 0 .361 0 .741v1.492a.126.126 0 0 0 .037.1.12.12 0 0 0 .045.029.125.125 0 0 0 .054.008c.254 0 .254.048.508.048.253 0 .253-.048.507-.048.087 0 .175 0 .175-.137v-1.258c0-.312.078-.215.078-.566l-.03-.039zm-.858 16.131v5.384h.838v-5.754h-.478a.33.33 0 0 1-.331.409l-.03-.039zm-1.512.683v3.648a1.05 1.05 0 0 1-1.053 1.053 1.052 1.052 0 0 1-1.054-1.053v-3.648a1.055 1.055 0 0 1 1.054-1.053 1.055 1.055 0 0 1 1.053 1.053zm-.829-.059a.215.215 0 0 0-.224-.224.236.236 0 0 0-.088.014.221.221 0 0 0-.122.123.215.215 0 0 0-.015.087v3.765a.217.217 0 0 0 .063.162.219.219 0 0 0 .162.062c.03.003.06 0 .089-.011a.196.196 0 0 0 .076-.048.202.202 0 0 0 .059-.165v-3.765zm6.203-.156c.283 0 .448-.234.468-.838h-1.804l-.117 2.867.75.078a.206.206 0 0 1 .112-.229.208.208 0 0 1 .177 0 .206.206 0 0 1 .111.229v1.785a.208.208 0 0 1-.055.161.21.21 0 0 1-.073.049.196.196 0 0 1-.086.014.23.23 0 0 1-.093-.019.226.226 0 0 1-.131-.234v-.566h-.761v.634a.975.975 0 0 0 .975 1.092 1.03 1.03 0 0 0 1.043-1.112v-1.95c0-.449-.243-.771-.623-.771a.748.748 0 0 0-.585.264l.058-1.454h.634zm4.76-25.835-.118-.643c0-.312 0-.322-.068-.634s-.078-.322-.137-.634c-.058-.312-.068-.312-.117-.634s-.068-.312-.117-.634 0-.332-.058-.644l-.098-.633c0-.079-.117-.137-.185-.137h-.137a.185.185 0 0 0-.146.078c-.156.312-.166.302-.332.614-.165.313-.146.312-.312.624l-.341.605c-.166.312-.176.303-.341.605l-.332.614c-.166.303-.136.322-.312.624-.176-.312-.185-.302-.351-.614-.166-.312-.156-.312-.322-.614-.166-.303-.146-.312-.312-.624-.166-.313-.205-.283-.37-.586-.167-.302-.118-.331-.283-.643-.166-.313-.176-.293-.342-.605 0-.049-.117-.059-.156-.059h-.136a.166.166 0 0 0-.156.137c-.059.322-.05.322-.108.644-.058.322-.068.312-.126.634-.059.321 0 .321-.06.643-.058.322-.087.312-.136.624-.048.313-.048.322-.107.634-.058.312 0 .322-.078.644s-.078.312-.136.634c-.059.322-.078.312-.137.624-.058.312 0 .332-.058.644a.145.145 0 0 0 .026.13.145.145 0 0 0 .12.055h.507c.254 0 .244.049.497.049a.195.195 0 0 0 .186-.156l.097-.663c0-.332 0-.332.088-.654s0-.341.068-.663 0-.332.098-.663c.156.273.107.302.253.575.147.273.137.273.283.556l.293.546c.136.283.175.264.322.537.146.273.097.292.243.575a.243.243 0 0 0 .166.098h.156a.186.186 0 0 0 .147-.098l.282-.546c.147-.283.127-.293.273-.566l.283-.556c.137-.273.176-.253.312-.536l.293-.536c.049.312 0 .322.068.643.068.322.107.322.156.654.049.331 0 .331.059.663.058.331.058.331.107.653a.166.166 0 0 0 .156.137h.975c.108 0 .205-.068.186-.176-.05-.322-.078-.322-.127-.634s.03-.36-.02-.672l-.029-.04zm5.792 7.393c0-.322-.058-.322-.058-.644v-.634c0-.321.048-.321.048-.634 0-.087-.097-.146-.175-.146h-1.024c-.098 0-.137.107-.137.195v2.419c0 .302 0 .302-.048.605l-.478-.469c-.244-.234-.215-.253-.459-.487l-.497-.459c-.244-.234-.263-.214-.507-.448s-.215-.263-.459-.498l-.477-.468a2.458 2.458 0 0 0-.527-.419c-.088-.059-.088 0-.195 0-.107 0-.156 0-.156.117v5.735a.195.195 0 0 0 .185.175h1.014c.098 0 .176 0 .176-.136v-3.18l.488.488c.243.234.204.273.448.517l.488.478.487.468.478.487c.234.244.264.215.508.459.243.244.243.234.487.478a.186.186 0 0 0 .088 0h.136a.157.157 0 0 0 .166-.137v-3.179c0-.312.03-.332.03-.644l-.03-.039zm-7.431 2.624h-1.766c-.292 0-.38.234-.595 0-.214-.235 0-.293 0-.586 0-.292-.185-.37 0-.565.186-.195.313 0 .634 0h1.297a.13.13 0 0 0 .055-.012.135.135 0 0 0 .082-.135v-.975a.146.146 0 0 0-.146-.136h-1.297c-.322 0-.41.214-.663 0-.254-.215 0-.273 0-.537 0-.263-.225-.38 0-.556.224-.175.311 0 .604 0h1.765a.206.206 0 0 0 .195-.175v-.927a.183.183 0 0 0-.054-.121.181.181 0 0 0-.121-.054H85.42a.13.13 0 0 0-.061.009.138.138 0 0 0-.053.033.15.15 0 0 0-.042.114v3.755c0 .312.058.312.058.624v1.258a.117.117 0 0 0 .137.136c.351 0 .351.049.702.049h2.819c.098 0 .157 0 .157-.127v-.926a.204.204 0 0 0-.205-.107l-.03-.039zm5.032-29.317c.546.897 1.102 1.775 1.648 2.682.38.614.595.712 1.463.741 1.024 0 2.048.156 3.072.205 0-1.17 0-2.34-.058-3.511-.059-1.17.107-2.34.107-3.511 0-1.17-.176-2.34-.176-3.511v-3.501c0-1.17.137-2.282.127-3.453 1.112 0 2.126-.127 3.238-.117 0-.624.059-1.21.059-1.833-1.044 0-2.097.117-3.141.117h-3.11c-1.044 0-2.078-.059-3.122-.059 0 .615.059 1.122.069 1.736 1.18 0 2.33.078 3.52.088 0 1.219-.087 2.477-.087 3.696 0 1.22.185 2.438.185 3.667 0 1.23-.225 2.438-.215 3.667.01 1.23.195 2.448.195 3.667h-.604c-.537-.878-1.025-1.794-1.56-2.662-.537-.868-1.122-1.717-1.659-2.594-.536-.878-.907-1.844-1.443-2.721-.537-.878-1.063-1.756-1.6-2.624-.536-.868-1.111-1.726-1.648-2.594-.536-.868-1.043-1.765-1.58-2.643a1.492 1.492 0 0 0-1.56-.79c-1.112 0-2.224.068-3.336.068h-3.355v1.863h3.424c0 .975.087 2.058.087 3.082s-.185 2.048-.185 3.072.137 2.038.137 3.062v6.184c-1.141 0-2.263 0-3.404.048v1.668c1.053 0 2.068-.059 3.12-.059 1.054 0 2.098.195 3.141.205l3.209.069c0-.605-.108-1.21-.108-1.815-1.19 0-2.243-.234-3.423-.243 0-.976-.214-1.873-.214-2.868v-5.851c0-.976.058-1.95.058-2.926 0-.975.147-1.95.147-2.926.146 0 .282-.068.438-.068.546.887 1.024 1.843 1.57 2.73.547.888 1.151 1.756 1.707 2.653.556.898.976 1.853 1.522 2.75.546.898 1.043 1.815 1.59 2.712.546.897 1.238 1.59 1.784 2.487l-.029-.04zm4.408 20.744h-.975c-.156 0-.205 0-.283-.195-.156-.341 0-.43-.331-.654-.332-.224-.283 0-.566 0h-1.161c-.292 0-.36-.175-.595 0-.234.176-.107.371-.263.712a.36.36 0 0 1-.332.205h-.975c-.136 0-.175-.117-.127-.224.127-.293.088-.312.225-.595.136-.283.166-.273.302-.556.137-.283.127-.293.264-.575.136-.283.146-.283.282-.566.137-.283.117-.293.244-.585.127-.293.098-.303.234-.585.137-.283.166-.273.293-.556.126-.283.156-.283.292-.566.137-.283.127-.293.264-.575l.273-.576c0-.049.058-.136.117-.136h.088a.136.136 0 0 1 .126.087l.273.576c.137.283.147.283.283.566.137.282.098.302.234.585.137.282.146.282.273.565.127.283.176.273.312.556.137.283.117.293.244.585.127.293.108.303.234.586.127.282.156.282.283.565.127.283.147.283.283.576.137.292.146.273.283.565a.155.155 0 0 1 .035.146.156.156 0 0 1-.103.108l-.03-.04zm-2.38-2.74c-.155-.342-.165-.352-.321-.683-.156.341-.176.341-.342.692-.166.351-.458.341-.302.692.156.352.332-.097.644 0 .312.098.478.303.614 0 .137-.302-.107-.311-.263-.663l-.03-.039z"/></g><defs><clipPath id="a"><path fill="#fff" d="M.834.707h159.652v140.586H.834z"/></clipPath></defs></svg>