<svg xmlns="http://www.w3.org/2000/svg" width="246" height="224" fill="none"><g clip-path="url(#a)"><path fill="#AFA360" d="M98.165 193.686c.04-.301.06-.605.06-.91 0-2.51-1.6-4.57-4.16-4.57-2.06 0-5.1 1.67-5.1 4.57 0 1.85 1.59 1.32 1.59 1.89 0 .22-.31.45-1.18.45a2.214 2.214 0 0 1-1.65-.67 2.206 2.206 0 0 1-.62-1.67c0-3.19 3.64-5.29 7.18-5.29 3.54 0 6 2.23 6 5.6a8.556 8.556 0 0 1-.07 1c-.78 5.4-5.16 9.09-9.37 9.09-2.86 0-4.16-1.11-4.16-2.32 0-1.54 2-2.23 3.42-2.3l2.8-8.07a1.774 1.774 0 0 1 1.48-1.1c.28 0 .45.13.45.41a.733.733 0 0 1 0 .28l-3 8.72a1.622 1.622 0 0 1 1.17 1.47.781.781 0 0 1-.68.85.327.327 0 0 1-.34-.37c0-.3-.18-.54-.54-.85l-.09.26a1.78 1.78 0 0 1-1.5 1.11c-.26 0-.45-.13-.45-.39a.84.84 0 0 1 .06-.3l.41-1.2c-.5.05-1.41.42-1.41 1.28 0 .86.94 1.63 3.15 1.63 3.12-.02 5.83-3.63 6.55-8.6zm7.61 3.67a3.938 3.938 0 0 1-.73 2.23c.113.01.227.01.34 0a2.005 2.005 0 0 0 1.54-.76.482.482 0 0 1 .37-.17.228.228 0 0 1 .169.057c.022.021.04.046.053.074a.228.228 0 0 1 .018.089 1.056 1.056 0 0 1-.3.6 2.848 2.848 0 0 1-.973.791 2.842 2.842 0 0 1-1.217.299 2.683 2.683 0 0 1-.74-.11 3.997 3.997 0 0 1-2.62 1.15 1.997 1.997 0 0 1-2.06-2.21 4.441 4.441 0 0 1 1.08-2.78 2.999 2.999 0 0 1 1.19-1 .343.343 0 0 1 .31.36.332.332 0 0 1-.09.22 3.79 3.79 0 0 0-.95 2.5c0 1.08.52 1.93 1.28 1.93.431-.03.832-.228 1.12-.55a2.995 2.995 0 0 1-1.49-2.6c0-1 .58-2.41 1.88-2.41.434.008.848.188 1.15.5a2.359 2.359 0 0 1 .67 1.79zm-2.94-.15a2.567 2.567 0 0 0 1.32 2.06c.168-.444.257-.915.26-1.39 0-.83-.26-1.69-.85-1.69s-.73.52-.73 1.02z"/><path fill="#AFA360" d="M109.935 200.266c-.78 1-1.35 1.41-2 1.41a.715.715 0 0 1-.59-.2 6.46 6.46 0 0 1-.52-3 6.993 6.993 0 0 1 .26-2.21 1.74 1.74 0 0 1 1.37-1.11.367.367 0 0 1 .37.236.35.35 0 0 1 .02.154.755.755 0 0 1-.07.31 8.638 8.638 0 0 0-.47 2.75c0 .48.08 1.87.32 1.87.535-.49.947-1.1 1.2-1.78v-.28a6.409 6.409 0 0 1 .26-2.15 1.668 1.668 0 0 1 1.36-1.11.367.367 0 0 1 .37.236.35.35 0 0 1 .02.154.938.938 0 0 1-.06.31 8.396 8.396 0 0 0-.48 2.75c0 .48.09 1.87.33 1.87a5.734 5.734 0 0 0 1.43-1.48 5.525 5.525 0 0 1-.7-2.71c0-1.71 1-2.49 1.95-2.49a1.393 1.393 0 0 1 1.41 1.52 6.546 6.546 0 0 1-1.38 3.38 1.378 1.378 0 0 0 1 .58.988.988 0 0 0 .73-.39.454.454 0 0 1 .37-.17.228.228 0 0 1 .169.057c.022.021.04.046.053.074a.228.228 0 0 1 .018.089 1.066 1.066 0 0 1-.3.6 2.004 2.004 0 0 1-1.48.85 1.89 1.89 0 0 1-1.37-.69c-1.19 1.36-2.12 2-2.75 2a.467.467 0 0 1-.45-.2 3.055 3.055 0 0 1-.39-1.23zm3.34-4.38a4.59 4.59 0 0 0 .49 2 4.605 4.605 0 0 0 .61-2.08c0-.78-.28-1.1-.54-1.1-.48-.08-.56.72-.56 1.13v.05z"/><path fill="#AFA360" d="M120.715 200.326c0 .17 0 .3.19.3.35 0 1.17-.56 2.21-1.78.098-.1.23-.16.37-.17.15 0 .26.07.26.24a1.155 1.155 0 0 1-.32.58c-1.2 1.41-2.39 2.13-3.15 2.13a1.06 1.06 0 0 1-1.15-1.19c.009-.281.053-.559.13-.83.46-1.6 1.17-2.6 1.17-2.9 0-.09 0-.13-.11-.13-.49 0-2.47 1.8-2.88 3l-.33.95a1.652 1.652 0 0 1-1.38 1.11.34.34 0 0 1-.268-.087.33.33 0 0 1-.102-.263c.005-.109.025-.216.06-.32l1.39-4.06c.039-.097.069-.197.09-.3a.088.088 0 0 0-.003-.036.079.079 0 0 0-.02-.031.07.07 0 0 0-.031-.019.087.087 0 0 0-.036-.004h-.19c-.16 0-.31-.06-.31-.21 0-.35 1-1.2 2.11-1.2a.331.331 0 0 1 .36.37 1.152 1.152 0 0 1-.06.33l-.5 1.45a6.072 6.072 0 0 1 3.51-2.15.57.57 0 0 1 .454.147.554.554 0 0 1 .176.443 2.58 2.58 0 0 1-.3 1 22.887 22.887 0 0 0-1.28 3.21 1.658 1.658 0 0 0-.06.42z"/><path fill="#AFA360" d="M130.605 192.626c0 .28-.44.67-.91.67h-2.43a23.256 23.256 0 0 1-2.73 5.45c.06 1.27.32 1.73.65 1.73s1.23-.69 2-1.63a.653.653 0 0 1 .37-.17c.16 0 .26.07.26.22a.997.997 0 0 1-.32.6c-1.3 1.54-2.28 2.13-3 2.13-1 0-1.51-1.28-1.51-2.73a17.174 17.174 0 0 1 1.06-5.6h-1.41c-.24 0-.35-.08-.35-.21 0-.29.44-.68.93-.68h1.18c1.12-2.82 2.68-4.9 3.44-4.9.31 0 .5.31.5 1a13.505 13.505 0 0 1-.78 3.88h2.69c.27.02.36.11.36.24zm-6.07 4.92a19.743 19.743 0 0 0 1.62-4.25h-.93a18.837 18.837 0 0 0-.69 4.25zm2.1-7.7c-.24 0-.72 1.11-1.15 2.56h.89c.176-.677.306-1.365.39-2.06 0-.34-.04-.5-.13-.5z"/><path fill="#AFA360" d="M132.835 197.356a4.002 4.002 0 0 1-.74 2.23c.116.01.234.01.35 0a2.005 2.005 0 0 0 1.54-.76.454.454 0 0 1 .37-.17.23.23 0 0 1 .169.057c.022.021.04.046.053.074a.228.228 0 0 1 .018.089 1 1 0 0 1-.31.6 2.848 2.848 0 0 1-.973.791 2.842 2.842 0 0 1-1.217.299 2.547 2.547 0 0 1-.73-.11 3.993 3.993 0 0 1-2.63 1.15 1.997 1.997 0 0 1-2.06-2.21 4.449 4.449 0 0 1 1.09-2.78 2.999 2.999 0 0 1 1.19-1 .34.34 0 0 1 .3.36.321.321 0 0 1-.08.22 3.804 3.804 0 0 0-1 2.5c0 1.08.52 1.93 1.28 1.93.434-.03.839-.227 1.13-.55a3.001 3.001 0 0 1-1.5-2.6c0-1 .59-2.41 1.89-2.41.434.01.847.19 1.15.5a2.404 2.404 0 0 1 .71 1.79zm-2.95-.15c.034.426.172.836.403 1.195.23.36.545.657.917.865.174-.442.262-.914.26-1.39 0-.83-.26-1.69-.84-1.69s-.74.52-.74 1.02z"/><path fill="#AFA360" d="M137.005 200.266c-.78 1-1.34 1.41-2 1.41a.709.709 0 0 1-.58-.2 6.343 6.343 0 0 1-.52-3 6.71 6.71 0 0 1 .26-2.21 1.712 1.712 0 0 1 1.36-1.11.376.376 0 0 1 .289.104.374.374 0 0 1 .111.286.998.998 0 0 1-.07.31 8.396 8.396 0 0 0-.48 2.75c0 .48.09 1.87.33 1.87a4.483 4.483 0 0 0 1.19-1.78v-.28a6.678 6.678 0 0 1 .26-2.15 1.683 1.683 0 0 1 1.37-1.11.379.379 0 0 1 .366.238c.019.048.027.1.024.152a.755.755 0 0 1-.07.31 8.638 8.638 0 0 0-.47 2.75c0 .48.08 1.87.32 1.87a5.734 5.734 0 0 0 1.43-1.48 5.628 5.628 0 0 1-.69-2.71c0-1.71 1-2.49 1.95-2.49a1.393 1.393 0 0 1 1.41 1.52 6.56 6.56 0 0 1-1.39 3.38 1.398 1.398 0 0 0 1 .58.999.999 0 0 0 .74-.39.454.454 0 0 1 .37-.17.228.228 0 0 1 .169.057c.022.021.04.046.053.074a.228.228 0 0 1 .018.089 1.09 1.09 0 0 1-.31.6 2.003 2.003 0 0 1-1.47.85 1.882 1.882 0 0 1-1.37-.69c-1.19 1.36-2.12 2-2.75 2a.503.503 0 0 1-.46-.2 3.419 3.419 0 0 1-.39-1.23zm3.34-4.38c.013.696.184 1.38.5 2a4.605 4.605 0 0 0 .61-2.08c0-.78-.28-1.1-.55-1.1-.49-.08-.58.72-.58 1.13l.02.05z"/><path fill="#AFA360" d="M147.765 200.326c0 .17 0 .3.2.3.34 0 1.17-.56 2.21-1.78.098-.1.23-.16.37-.17.15 0 .26.07.26.24a1.122 1.122 0 0 1-.33.58c-1.19 1.41-2.38 2.13-3.14 2.13a1.06 1.06 0 0 1-1.15-1.19c.004-.281.048-.56.13-.83.45-1.6 1.17-2.6 1.17-2.9 0-.09 0-.13-.11-.13-.5 0-2.47 1.8-2.88 3l-.33.95a1.662 1.662 0 0 1-1.39 1.11.34.34 0 0 1-.268-.087.33.33 0 0 1-.102-.263c.009-.109.033-.217.07-.32l1.39-4.06c.037-.097.064-.197.08-.3a.093.093 0 0 0-.003-.033.075.075 0 0 0-.017-.03.08.08 0 0 0-.06-.027h-.2c-.15 0-.3-.06-.3-.21 0-.35 1-1.2 2.1-1.2a.324.324 0 0 1 .355.221.328.328 0 0 1 .015.149 1.152 1.152 0 0 1-.06.33l-.5 1.45a6.004 6.004 0 0 1 3.51-2.15.57.57 0 0 1 .454.147.554.554 0 0 1 .176.443 2.646 2.646 0 0 1-.31 1 21.664 21.664 0 0 0-1.27 3.21 1.37 1.37 0 0 0-.07.42zm-54.99 16.03c0 .26-.46.67-.94.67h-2.49l-.93 2.75c-1 3-2.84 3.86-4.17 3.86-.21 0-.43 0-.43-.23 0-.48 1.71-.37 2.36-2.24l1.43-4.14h-1c-.24 0-.35-.09-.35-.22s.45-.67.93-.67h.74c.89-2.58 1.78-5.18 1.78-5.18a1.74 1.74 0 0 1 1.28-1.06 8.014 8.014 0 0 0-3.6-1.13 3.005 3.005 0 0 0-3.06 1.852 3 3 0 0 0-.22 1.248 2.6 2.6 0 0 0 2.39 2.73c.28 0 .47.15.47.35 0 .2-.43.65-1.56.65-1.6 0-2.69-1.17-2.69-3.08 0-1.71 1.37-4.55 5.34-4.55 3.97 0 5.79 2 6.59 2 .144-.016.288-.039.43-.07.16 0 .33.09.33.24s-.61 1.26-1.39 1.26a6.893 6.893 0 0 1-2.38-1.11c.006.1-.01.199-.05.29 0 0-1 2.82-1.93 5.59h2.78c.23-.03.34.1.34.19zm9.05.63c.54.073 1.085.11 1.63.11a.603.603 0 0 1 .56.62.579.579 0 0 1-.19.44c-.31.3-1.54 1.47-1.54 2.38 0 .35.15.5.39.5a4.48 4.48 0 0 0 2.43-1.71.555.555 0 0 1 .36-.17c.16 0 .26.06.26.21a.997.997 0 0 1-.32.61c-1.35 1.58-2.43 2.12-3.21 2.12a1.37 1.37 0 0 1-.995-.393 1.368 1.368 0 0 1-.415-.987 3 3 0 0 1 1.24-2.11 4.656 4.656 0 0 1-1.11-.26 5.25 5.25 0 0 1-3.38 2l-.13.18a4.134 4.134 0 0 1-3 1.53 1.996 1.996 0 0 1-2.06-2.21 4.332 4.332 0 0 1 1.11-2.77c.29-.342.627-.641 1-.89a.757.757 0 0 1 .22-.09.34.34 0 0 1 .3.37.35.35 0 0 1-.08.22 3.813 3.813 0 0 0-1 2.49c0 1.11.52 1.93 1.31 1.93a1.888 1.888 0 0 0 1.38-.87 2.327 2.327 0 0 1-1.82-2.25 2.193 2.193 0 0 1 1.114-2.169 2.2 2.2 0 0 1 .816-.261 2.083 2.083 0 0 1 1.82 2.25 3.45 3.45 0 0 1-.3 1.44 3.625 3.625 0 0 0 2.08-1.22 1.719 1.719 0 0 1-1-1.56 2.298 2.298 0 0 1 2-2.28.932.932 0 0 1 1 1 4.064 4.064 0 0 1-.47 1.8zm-6.25.56a1.84 1.84 0 0 0 1.48 1.61 6.1 6.1 0 0 0 .09-.81c0-.82-.26-1.69-.85-1.69s-.72.37-.72.89zm5.56-.87c.129-.345.194-.711.19-1.08 0-.41-.13-.57-.26-.57s-.45.31-.45.68a1.352 1.352 0 0 0 .52.97z"/><path fill="#AFA360" d="M112.645 213.096c0 .29-.44.68-.91.68h-2.43a22.586 22.586 0 0 1-2.74 5.44c.07 1.28.33 1.74.65 1.74.48 0 1.24-.7 2-1.63.098-.1.23-.16.37-.17.15 0 .26.06.26.21a.997.997 0 0 1-.32.61c-1.3 1.54-2.28 2.12-3 2.12-1 0-1.52-1.27-1.52-2.73.043-1.91.404-3.799 1.07-5.59h-1.41c-.24 0-.35-.09-.35-.22 0-.28.43-.67.93-.67h1.17c1.13-2.82 2.69-4.9 3.45-4.9.31 0 .5.3.5 1a13.505 13.505 0 0 1-.78 3.88h2.69c.28.02.37.11.37.23zm-6.08 4.93a19.528 19.528 0 0 0 1.63-4.25h-.93a18.721 18.721 0 0 0-.7 4.25zm2.11-7.7c-.24 0-.72 1.11-1.15 2.56h.89c.175-.677.305-1.365.39-2.06 0-.35-.05-.5-.13-.5zm14.26 9.65a11.517 11.517 0 0 1-2.84 2.45 7.554 7.554 0 0 1-3.81 1.21 4.12 4.12 0 0 1-2.87-1.25 4.8 4.8 0 0 1-1.12-3.26c0-3.62 2.79-8.37 6.48-10.45a5.317 5.317 0 0 1 2.56-.71 2.771 2.771 0 0 1 2.073.685 2.774 2.774 0 0 1 .927 1.975 4.859 4.859 0 0 1-4.75 4.32c-.85 0-1.15-.22-1.15-.41 0-.19.15-.26.34-.31a4.417 4.417 0 0 0 3.67-4.16c0-1-.48-1.35-1.08-1.35-2.61 0-7 5.82-7 10.05 0 1.64.78 3.55 2.86 3.55a5.173 5.173 0 0 0 2.15-.52 8.44 8.44 0 0 0 3.27-2.47c.13-.15.26-.33.41-.5a.42.42 0 0 1 .35-.19.262.262 0 0 1 .182.087.252.252 0 0 1 .058.193.87.87 0 0 1-.24.52c-.16.17-.31.37-.47.54z"/><path fill="#AFA360" d="M128.765 217.826a3.997 3.997 0 0 1-.73 2.24 1.995 1.995 0 0 0 1.88-.74.443.443 0 0 1 .37-.17c.13 0 .24.06.24.21a1.078 1.078 0 0 1-.3.61 2.852 2.852 0 0 1-2.19 1.08 3.082 3.082 0 0 1-.74-.1 3.995 3.995 0 0 1-2.62 1.14 1.997 1.997 0 0 1-2.06-2.21c.027-1.021.409-2 1.08-2.77a2.999 2.999 0 0 1 1.19-1 .338.338 0 0 1 .296.238.348.348 0 0 1 .014.132.322.322 0 0 1-.09.22 3.776 3.776 0 0 0-1 2.49c0 1.09.52 1.93 1.28 1.93a1.64 1.64 0 0 0 1.12-.54 3.063 3.063 0 0 1-1.49-2.6c0-1 .58-2.41 1.88-2.41a1.61 1.61 0 0 1 1.15.5 2.31 2.31 0 0 1 .72 1.75zm-2.94-.15a2.558 2.558 0 0 0 1.32 2.06c.171-.443.259-.914.26-1.39 0-.82-.26-1.69-.85-1.69s-.73.52-.73 1.02z"/><path fill="#AFA360" d="M131.265 219.266c.06 1.28.32 1.74.65 1.74.5 0 1.23-.7 2-1.63a.539.539 0 0 1 .37-.17c.15 0 .26.06.26.23a1.137 1.137 0 0 1-.33.59c-1.3 1.54-2.26 2.12-3 2.12-1.06 0-1.54-1.27-1.54-2.73 0-5.29 3.55-11.4 4.86-11.4.3 0 .5.32.5 1 .05 2.63-1.95 7.75-3.77 10.25zm0-1.19a23.723 23.723 0 0 0 2.23-7.2c0-.35 0-.5-.13-.5-.41 0-1.52 3.32-1.95 6.05a11.293 11.293 0 0 0-.15 1.6v.05z"/><path fill="#AFA360" d="M135.315 219.266c.07 1.28.33 1.74.65 1.74.5 0 1.24-.7 2-1.63a.538.538 0 0 1 .37-.17c.15 0 .26.06.26.23a1.137 1.137 0 0 1-.33.59c-1.3 1.54-2.25 2.12-3 2.12-1.06 0-1.54-1.27-1.54-2.73 0-5.29 3.56-11.4 4.86-11.4.3 0 .5.32.5 1 .05 2.63-1.95 7.75-3.77 10.25zm0-1.19a23.834 23.834 0 0 0 2.24-7.2c0-.35-.05-.5-.13-.5-.42 0-1.52 3.32-2 6.05a12.98 12.98 0 0 0-.11 1.6v.05z"/><path fill="#AFA360" d="M139.205 220.386c-.05.142-.08.29-.09.44 0 .17.06.28.22.28.32 0 1.17-.57 2.21-1.78a.454.454 0 0 1 .37-.17c.15 0 .26.06.26.21a1 1 0 0 1-.33.61c-1.19 1.41-2.38 2.12-3.14 2.12a1.062 1.062 0 0 1-.879-.32 1.065 1.065 0 0 1-.291-.89c.002-.271.046-.541.13-.8.287-.92.655-1.814 1.1-2.67a.919.919 0 0 0 .11-.3c0-.07 0-.09-.11-.09h-.19c-.15 0-.31-.06-.31-.21 0-.44 1.15-1.24 2.26-1.24.3 0 .43.13.43.32a4.365 4.365 0 0 1-.47 1.26 22.326 22.326 0 0 0-1.28 3.23zm2.58-7.26a1.36 1.36 0 0 1-1.32 1.23.836.836 0 0 1-.615-.21.838.838 0 0 1-.275-.59 1.379 1.379 0 0 1 1.34-1.24.787.787 0 0 1 .33.041.799.799 0 0 1 .54.769z"/><path fill="#AFA360" d="M146.175 220.796c0 .18.05.31.2.31.34 0 1.17-.57 2.21-1.78a.538.538 0 0 1 .37-.17c.15 0 .26.06.26.23a1.137 1.137 0 0 1-.33.59c-1.19 1.41-2.38 2.12-3.14 2.12a1.06 1.06 0 0 1-1.15-1.19 2.89 2.89 0 0 1 .13-.82c.45-1.61 1.17-2.6 1.17-2.91 0-.08 0-.13-.11-.13-.5 0-2.47 1.8-2.88 3l-.33 1a1.66 1.66 0 0 1-1.38 1.1c-.22 0-.37-.1-.37-.34.004-.112.024-.223.06-.33l1.39-4.05c.041-.1.071-.204.09-.31a.078.078 0 0 0-.027-.06.077.077 0 0 0-.063-.02h-.2c-.15 0-.3-.07-.3-.22 0-.35 1-1.19 2.1-1.19a.324.324 0 0 1 .355.221.328.328 0 0 1 .015.149 1.16 1.16 0 0 1-.06.32l-.5 1.46a6.004 6.004 0 0 1 3.51-2.15.57.57 0 0 1 .454.147.554.554 0 0 1 .176.443 2.806 2.806 0 0 1-.3 1 22.599 22.599 0 0 0-1.28 3.21 1.872 1.872 0 0 0-.07.37z"/><path fill="#AFA360" d="M149.865 217.586a2.208 2.208 0 0 1-.44-1.23 2.719 2.719 0 0 1 2.39-2.39.62.62 0 0 1 .495.176.608.608 0 0 1 .175.494 4.808 4.808 0 0 1-1.22 2.26 4.854 4.854 0 0 1 1.46 2.71 2.228 2.228 0 0 1-.07.54 1.793 1.793 0 0 0 1.46-.82.463.463 0 0 1 .36-.17c.13 0 .24.06.24.21a1.003 1.003 0 0 1-.3.61 2.613 2.613 0 0 1-2 1.19h-.19a2.995 2.995 0 0 1-2.35.95c-.78 0-1.49-.43-1.49-1 0-.57.8-1.13 2.27-1.13h.76a3.7 3.7 0 0 0-1.1-1.88l-1.5 1.82a.447.447 0 0 1-.35.17c-.15 0-.26-.06-.26-.23.033-.226.142-.434.31-.59.35-.41.89-1.1 1.35-1.69zm1.25 3.3a3.997 3.997 0 0 0-1-.17c-.39 0-.54.17-.54.32s.2.39.54.39c.391-.042.75-.235 1-.54zm-.3-4.6c.276-.34.468-.741.56-1.17 0-.15 0-.24-.15-.24a.828.828 0 0 0-.61.76c.006.225.075.443.2.63v.02z"/><path fill="#D04F33" fill-rule="evenodd" d="M71.315 127.645v51.73l16-9.1 6.69 3.69-4.1 2.34a.468.468 0 0 0-.17.63.472.472 0 0 0 .63.17l22.81-13 22.3 12.16-4.82 2.79a.47.47 0 0 0-.17.63.473.473 0 0 0 .63.17l19.05-11 16.72 9v-50.21h-95.57zm54.08 15.12a1.168 1.168 0 0 1 .906.293 1.186 1.186 0 0 1 .394.867 2.002 2.002 0 0 1-2 1.81 1.192 1.192 0 0 1-.883-.316 1.2 1.2 0 0 1-.387-.854 1.997 1.997 0 0 1 1.97-1.8zm-38.94 16.14c0-.245.313-.382.76-.579.815-.359 2.076-.914 2.69-2.671l2.08-6h-1.48c-.35 0-.51-.12-.51-.31 0-.38.67-1 1.36-1h1.08l2.57-7.58a2.573 2.573 0 0 1 1.86-1.54 11.51 11.51 0 0 0-5.24-1.65c-2.5 0-4.77 1.3-4.77 4.52a3.78 3.78 0 0 0 3.47 4c.41 0 .7.22.7.51 0 .29-.64.95-2.28.95-2.34 0-3.92-1.71-3.92-4.49 0-2.5 2-6.64 7.78-6.64 3.986 0 6.484 1.369 8.034 2.22.697.382 1.203.66 1.566.66.212-.023.422-.056.63-.1.23 0 .48.13.48.35 0 .22-.89 1.83-2 1.83-.715 0-1.854-.664-3.219-1.458l-.261-.152a1 1 0 0 1-.06.41s-1.42 4.11-2.81 8.16h4c.35 0 .51.12.51.31 0 .38-.67 1-1.36 1h-3.64l-1.36 4c-1.41 4.31-4.11 5.61-6.02 5.61-.32 0-.64-.07-.64-.36zm62.26-3.57c.73 0 1.8-1 3-2.37a.775.775 0 0 1 .54-.25c.22 0 .38.09.38.35a1.656 1.656 0 0 1-.48.85c-1.89 2.24-3.29 3.1-4.36 3.1-1.07 0-1.85-1.06-2.11-2.49-1.55 1.65-3 2.49-4 2.49-.183.02-.369.003-.546-.05a1.346 1.346 0 0 1-.822-.691 1.357 1.357 0 0 1-.142-.529 3.398 3.398 0 0 1-2.5 1.27 2.715 2.715 0 0 1-2.59-2.16 2.147 2.147 0 0 1-1 .29 2.677 2.677 0 0 1-2-1c-1.74 2.06-3.19 2.88-4 2.88a.73.73 0 0 1-.375-.054.73.73 0 0 1-.295-.236 6.54 6.54 0 0 1-.65-2.69c-1.7 2-3.39 3-4.47 3a1.577 1.577 0 0 1-1.619-.955 1.566 1.566 0 0 1-.121-.655 4.885 4.885 0 0 1-3 1.61c-1.18 0-1.86-1.09-2.12-2.55a3.367 3.367 0 0 1-2.47 1.19h-.28a4.348 4.348 0 0 1-3.41 1.39c-1.14 0-2.18-.63-2.18-1.42 0-.79 1.16-1.65 3.31-1.65.371.002.742.025 1.11.07a5.383 5.383 0 0 0-1.61-2.75l-1.54 1.87a1.762 1.762 0 0 1-.43.78 8.35 8.35 0 0 1-5.94 3.1 3.356 3.356 0 0 1-3.323-2.008 3.353 3.353 0 0 1-.277-1.342c0-2.88 2.37-6.13 5.87-6.13 1.58 0 2.34.94 2.34 1.92 0 1.71-2.37 3.86-4.58 4.87a.898.898 0 0 1-.35.1.418.418 0 0 1-.161-.017.386.386 0 0 1-.141-.079.384.384 0 0 1-.098-.128.388.388 0 0 1-.04-.156c0-.19.13-.41.44-.67 2-1.58 2.66-3 2.66-3.85 0-.6-.29-.89-.73-.89-1.36 0-2.91 2.44-2.91 4.59a2.113 2.113 0 0 0 1.409 2.131c.289.101.596.138.901.109a5.832 5.832 0 0 0 3.88-1.85 2.06 2.06 0 0 1 .39-.65c.57-.66 1.36-1.67 2-2.53a3.212 3.212 0 0 1-.63-1.8 3.941 3.941 0 0 1 3.47-3.47.869.869 0 0 1 .752.248.881.881 0 0 1 .248.752c0 1-1 2.37-1.77 3.28l.241.296.002.003c.875 1.071 1.877 2.298 1.877 3.651a3.4 3.4 0 0 1-.1.79c.378-.007.75-.101 1.086-.275a2.46 2.46 0 0 0 .854-.725v-.13a24.994 24.994 0 0 1 1.55-8.16h-2.06c-.34 0-.5-.12-.5-.31 0-.41.63-1 1.36-1h1.7c1.65-4.11 3.92-7.18 5-7.18.44 0 .72.48.72 1.52a20.02 20.02 0 0 1-1.13 5.66h.63c.35 0 .5.12.5.31 0 .38-.66 1-1.35 1h-.23a32.406 32.406 0 0 1-4 7.93c.1 1.87.48 2.53.95 2.53a4.466 4.466 0 0 0 2.34-1.64c.353-1.119.859-2.168 1.215-2.907.249-.517.425-.882.425-1.013a.148.148 0 0 0-.097-.151.136.136 0 0 0-.063-.009 2.886 2.886 0 0 1-.38.07.34.34 0 0 1-.228-.111.332.332 0 0 1-.082-.239c0-.63 1.71-1.8 3.25-1.8.45 0 .64.19.64.47a5.457 5.457 0 0 1-.7 1.83 30.431 30.431 0 0 0-1.83 4.68 2.242 2.242 0 0 0-.13.6c0 .25.1.44.32.44.47 0 1.7-.82 3.22-2.59a.812.812 0 0 1 .26-.19v-.47a9.797 9.797 0 0 1 .35-3.16 2.477 2.477 0 0 1 2-1.61c.35 0 .57.15.57.53a1.643 1.643 0 0 1-.09.48 12.33 12.33 0 0 0-.7 4c.019.83.116 1.657.29 2.47 0 .15.12.25.19.25a7.437 7.437 0 0 0 2.08-2.15 8.237 8.237 0 0 1-1-3.95c0-2.5 1.49-3.63 2.84-3.63.292-.006.581.05.849.165a2.055 2.055 0 0 1 1.241 2.105 9.428 9.428 0 0 1-2 4.9 2.004 2.004 0 0 0 1.42.82 1.17 1.17 0 0 0 .38-.06c.39-2.75 3.16-5.94 6.61-5.94 1.58 0 2.81.63 2.81 1.89a1.845 1.845 0 0 1-1.89 1.9c-.44 0-1.14-.13-1.14-.54 0-.16.151-.224.336-.303.291-.123.664-.281.664-.897 0-.63-.63-.85-1.26-.85-2.28 0-3.92 3.16-3.92 5.12 0 .88.34 1.77 1.17 1.77.66 0 1.74-.95 2.27-2.34a2.453 2.453 0 0 1 2-1.58c.35 0 .57.16.57.5a1.643 1.643 0 0 1-.09.48c-.028.088-.081.245-.146.441h-.001c-.237.71-.643 1.921-.643 2.149 0 .28.056.28.232.28h.018c.45 0 1.58-.75 3-2.33v-.19c0-7.72 5.18-16.63 7.08-16.63.44 0 .72.48.72 1.52 0 3.86-2.9 11.31-5.56 14.88.01 1.8.38 2.46.86 2.46zm-27.96-14.76c0-.5-.07-.72-.19-.72-.35 0-1.05 1.61-1.68 3.73h1.3c.255-.99.445-1.995.57-3.01zm-3.04 8.09c.191-1.277.455-2.543.79-3.79h1.36a28.118 28.118 0 0 1-2.37 6.23c.03-.73.1-1.55.22-2.44zm14.73-1.86c-.69 0-.82 1.17-.82 1.77a6.61 6.61 0 0 0 .73 2.88c.54-.911.842-1.942.88-3 0-1.14-.41-1.65-.79-1.65zm15.54 1.86c.63-3.98 2.25-8.81 2.85-8.81.162 0 .17.2.187.65l.003.07a34.817 34.817 0 0 1-3.26 10.5c.021-.807.094-1.612.22-2.41zm-36.75-2.179a1.207 1.207 0 0 0-.89 1.11c.002.339.103.669.29.95a4.147 4.147 0 0 0 .82-1.71c0-.22-.06-.35-.22-.35zm-1.64 9.55c-.51 0-.8-.29-.8-.57 0-.2.21-.48.8-.48.502.025.999.112 1.48.26a2.193 2.193 0 0 1-1.48.79zM71.415.355v64.33h95.59V.356h-95.59zm48.59 54.75a22.59 22.59 0 1 1 20.92-31.08l-11 3.93a10.919 10.919 0 0 0-20.839 4.852 10.92 10.92 0 0 0 21.069 3.728l10.85 4.43a22.604 22.604 0 0 1-21 14.14zm7.67-22.59a7.657 7.657 0 0 1-4.729 7.077 7.657 7.657 0 0 1-8.347-1.66 7.659 7.659 0 0 1 5.416-13.077 7.652 7.652 0 0 1 5.429 2.237 7.649 7.649 0 0 1 2.251 5.424h-.02z" clip-rule="evenodd"/><path fill="#AFA360" d="M.385 83.015c0-6.51 5.92-9.06 12.89-9 2.359 0 4.71.286 7 .85.42-.23 1.74-.66 5.19-.51v7.32h-6.08v-3a10.75 10.75 0 0 0-5.61-1.28c-4.07 0-6.28 2.06-6.28 5.66s2.29 5.61 7.13 5.61c.413.021.827.021 1.24 0 2.74-.15 4.91-1.35 5.73-4.64l4.29 2.32c-.07.46-.85 5.69-12.58 5.73-6.92-.04-12.92-3.02-12.92-9.06zm41.92 9.25c-7.82 0-14.48-3.1-14.48-9.21 0-6.11 6.66-9.18 14.48-9.18s14.44 3.33 14.44 9.18c0 6.27-6.66 9.21-14.44 9.21zm0-14.94c-4 0-7.24 2.13-7.24 5.8 0 3.45 3.25 5.81 7.24 5.81s7.24-2.13 7.24-5.81c-.04-3.56-3.25-5.86-7.28-5.86l.04.06z"/><path fill="#AFA360" d="M56.535 91.645v-3.91h3.72v-9.47h-3.72v-3.92h13.59v3.92h-3.71v9.48h8v-3.38h6.08v7.28h-23.96zm40.3.62c-7.82 0-14.48-3.1-14.48-9.21 0-6.11 6.66-9.18 14.48-9.18s14.44 3.33 14.44 9.18c0 6.27-6.66 9.21-14.44 9.21zm0-14.94c-4 0-7.24 2.13-7.24 5.8 0 3.45 3.25 5.81 7.24 5.81s7.24-2.13 7.24-5.81c-.07-3.56-3.25-5.86-7.28-5.86l.04.06zm34.37 14.32-4.73-6.23h-5v2.32h3.71v3.91h-13.61v-3.91h3.71v-9.47h-3.71v-3.92h17.65c4.37 0 9.53.9 9.53 5.5 0 3.22-2.48 4.49-4.88 5l2.32 2.9h2.81v3.91l-7.8-.01zm-9.72-9.95h5.73c1.62 0 3.87 0 3.87-1.7 0-1.47-1.86-1.74-3.95-1.74h-5.65v3.44zm38.67 6.08h4.49l-1.12-1.74h-10.73l-1.2 1.74h3.76v3.91h-12.08v-3.91h3.6l6.31-9.56h-2.24v-3.88h17v3.92h-2.24l6.35 9.56h3.68v3.87h-15.58v-3.91zm-5.15-5.19h6.2l-3.06-4.64-3.14 4.64zm23.07 9.06v-3.91h3.72v-9.47h-3.72v-3.92h16.18c5.08 0 11.58 1.32 11.58 9 0 5.77-5.54 8.36-12 8.36l-15.76-.06zm9.91-3.91h5c2.95 0 6-1.28 6-4.76 0-3.48-2.52-4.76-5.73-4.76l-5.25.05-.02 9.47zm36.31 4.53c-7.83 0-14.48-3.1-14.48-9.21 0-6.11 6.65-9.18 14.48-9.18s14.44 3.33 14.44 9.18c0 6.27-6.66 9.21-14.44 9.21zm0-14.94c-4 0-7.24 2.13-7.24 5.8 0 3.45 3.25 5.81 7.24 5.81s7.24-2.13 7.24-5.81c-.04-3.56-3.26-5.86-7.28-5.86l.04.06zm-195.52 36.27a5.003 5.003 0 0 1-.3 1.75 3.796 3.796 0 0 1-.9 1.39 4.43 4.43 0 0 1-1.57.95 6.88 6.88 0 0 1-2.3.34H.355v-3.09h5.52v-9.67H.355v-3.1h22.7a7.493 7.493 0 0 1 2.42.35 4.989 4.989 0 0 1 1.64.9 3.558 3.558 0 0 1 1.24 2.67 4.006 4.006 0 0 1-.27 1.52c-.16.403-.391.776-.68 1.1a3.347 3.347 0 0 1-.86.69c-.232.146-.49.248-.76.3v.12a5.27 5.27 0 0 1 1 .41c.37.193.707.442 1 .74.313.329.564.711.74 1.13.178.479.263.988.25 1.5zm-4.38-6.95a1.128 1.128 0 0 0-.63-1 4.748 4.748 0 0 0-2.19-.36H9.365v3.24h12.28a3.32 3.32 0 0 0 2.14-.52 1.667 1.667 0 0 0 .61-1.36zm.52 6.38a1.564 1.564 0 0 0-.62-1.29c-.6-.365-1.3-.53-2-.47H9.365v3.67h12.64c.484.01.968-.04 1.44-.15.321-.076.624-.215.89-.41a1.42 1.42 0 0 0 .45-.61 2.2 2.2 0 0 0 .13-.74zm39.01.94a4.141 4.141 0 0 1-1.71 3.49 8.355 8.355 0 0 1-5.09 1.29 8.596 8.596 0 0 1-3.27-.53 6.768 6.768 0 0 1-2.09-1.33 7.786 7.786 0 0 1-1.39-1.72c-.37-.62-.75-1.19-1.13-1.72a5.624 5.624 0 0 0-1.3-1.32 3.108 3.108 0 0 0-1.91-.53h-6.81v3.34h5.59v3.09h-14.38v-3.09h5.25v-9.76h-5.25v-3h22.2a8.967 8.967 0 0 1 2.39.3c.68.176 1.321.477 1.89.89a4.5 4.5 0 0 1 1.22 1.46c.309.621.463 1.307.45 2a5.112 5.112 0 0 1-.48 2.36 3.624 3.624 0 0 1-1.27 1.46 5.152 5.152 0 0 1-1.89.75 12.54 12.54 0 0 1-2.36.21h-1.06c.341.204.654.453.93.74.272.282.53.579.77.89.24.31.48.62.74.93a4.372 4.372 0 0 0 2.08 1.4 5.261 5.261 0 0 0 1.64.22 5.994 5.994 0 0 0 1.55-.17 3 3 0 0 0 1-.45c.213-.16.38-.374.48-.62.086-.22.13-.454.13-.69l3.08.11zm-9-7a1.504 1.504 0 0 0-.69-1.33 4.71 4.71 0 0 0-2.43-.46h-12.58v3.57h12.7a4.857 4.857 0 0 0 2.26-.43 1.443 1.443 0 0 0 .82-1.35h-.08zm38.61 11.06h-27.9v-3.09h5.59v-9.83h-5.59v-3h27.9v6.44h-3.15v-3.49h-15.59v3.37h8.07v-2.4h2.75v7.64h-2.75v-2.4h-8.07v3.62h15.59v-4.19h3.15v7.33zm52.73-12.82h-5.67l-9.36 12.82h-3.12l-7.45-10.54-7.77 10.54h-3.2l-9.06-12.82h-5.39v-3.05h14.82v3.05h-5l6.54 9.23 6.81-9.23h-5.23v-3.05h15v3.05h-4.95l6.53 9.23 6.79-9.23h-5.13v-3.05h14.81l.03 3.05zm29.6 12.82h-27.86v-3.09h5.6v-9.83h-5.6v-3h27.9v6.44h-3.14v-3.49h-15.6v3.37h8.07v-2.4h2.75v7.64h-2.75v-2.4h-8.07v3.62h15.6v-4.19h3.14l-.04 7.33zm35.67-4.06a4.158 4.158 0 0 1-1.7 3.49 8.415 8.415 0 0 1-5.1 1.29 8.596 8.596 0 0 1-3.27-.53 6.878 6.878 0 0 1-2.09-1.33 7.793 7.793 0 0 1-1.37-1.72c-.37-.62-.75-1.19-1.13-1.72a5.618 5.618 0 0 0-1.3-1.32 3.109 3.109 0 0 0-1.91-.53h-6.81v3.34h5.59v3.09h-14.44v-3.09h5.25v-9.76h-5.25v-3h22.21a8.974 8.974 0 0 1 2.38.3 5.515 5.515 0 0 1 1.89.89 4.4 4.4 0 0 1 1.22 1.46c.309.621.463 1.307.45 2a5.244 5.244 0 0 1-.47 2.36 3.728 3.728 0 0 1-1.28 1.46 5.076 5.076 0 0 1-1.89.75c-.775.144-1.562.214-2.35.21h-1.07c.341.204.654.453.93.74.272.282.53.579.77.89l.74.93c.262.308.561.583.89.82.368.246.769.441 1.19.58.535.16 1.092.234 1.65.22a6.004 6.004 0 0 0 1.54-.17 2.86 2.86 0 0 0 1-.45c.213-.16.379-.374.48-.62.089-.219.137-.453.14-.69l3.11.11zm-9-7a1.5 1.5 0 0 0-.69-1.33 4.693 4.693 0 0 0-2.42-.46h-12.59v3.57h12.7a4.856 4.856 0 0 0 2.26-.43 1.438 1.438 0 0 0 .78-1.35h-.04zm35.24 6.85a3.313 3.313 0 0 1-.64 2c-.5.662-1.147 1.2-1.89 1.57-.969.482-2.003.819-3.07 1a21.132 21.132 0 0 1-4.2.37 25.76 25.76 0 0 1-4.73-.38 23.584 23.584 0 0 1-3.48-.89 12.478 12.478 0 0 1-2.24-1 4.606 4.606 0 0 1-1-.75l-.12 2.4h-3v-7h2.6a6.868 6.868 0 0 0 1.31 1.73 9.022 9.022 0 0 0 2.28 1.58c1.096.521 2.251.907 3.44 1.15a23.3 23.3 0 0 0 4.83.44 11.024 11.024 0 0 0 4.43-.69c1-.46 1.48-1 1.48-1.64a1.265 1.265 0 0 0-.88-1.18 7.984 7.984 0 0 0-2.32-.58 30.488 30.488 0 0 0-3.28-.24c-1.22 0-2.48-.08-3.77-.14-1.29-.06-2.54-.16-3.76-.31a14.526 14.526 0 0 1-3.28-.74 6.006 6.006 0 0 1-2.32-1.43 3.288 3.288 0 0 1-.88-2.38c0-1.5.853-2.71 2.56-3.63 1.707-.92 4.22-1.377 7.54-1.37a28.108 28.108 0 0 1 4.13.27c1.061.152 2.11.375 3.14.67.762.211 1.503.496 2.21.85.451.229.88.5 1.28.81l.05-2.16h2.81v6.49h-2.5a3.154 3.154 0 0 0-1-1.39 8.277 8.277 0 0 0-2.2-1.43 16.456 16.456 0 0 0-3.38-1.13 20.379 20.379 0 0 0-4.5-.46 16.241 16.241 0 0 0-4.94.56c-1.08.37-1.62.84-1.62 1.4 0 .56.3.83.9 1.06a9.401 9.401 0 0 0 2.36.52c1 .12 2.09.2 3.35.24 1.26.04 2.53.11 3.84.21 1.31.1 2.6.24 3.85.43 1.151.159 2.277.465 3.35.91.9.358 1.707.915 2.36 1.63.62.732.942 1.671.9 2.63zm7.88-12.75c0 .586-.112 1.166-.33 1.71a4.864 4.864 0 0 1-.91 1.47 4.34 4.34 0 0 1-1.36 1 3.704 3.704 0 0 1-1.68.38v-.72c.371.001.738-.084 1.07-.25.336-.167.64-.39.9-.66.25-.266.456-.57.61-.9a2.47 2.47 0 0 0 .23-1 1.66 1.66 0 0 1-1.07.32 2.459 2.459 0 0 1-1.56-.48 1.504 1.504 0 0 1-.61-1.27 1.555 1.555 0 0 1 .65-1.24 2.57 2.57 0 0 1 1.66-.52 2.433 2.433 0 0 1 1.77.59 2.004 2.004 0 0 1 .63 1.57z"/></g><defs><clipPath id="a"><path fill="#fff" d="M.355.355h245.29v223.29H.355z"/></clipPath></defs></svg>