<svg xmlns="http://www.w3.org/2000/svg" width="188" height="154" fill="none"><g fill="#1E1C0F" clip-path="url(#a)"><path d="m43.64 54.547 50.75-50.75 54.612 54.612a1.396 1.396 0 0 0 1.519.305 1.397 1.397 0 0 0 .863-1.291 1.397 1.397 0 0 0-.409-.987L95.374.842a1.436 1.436 0 0 0-1.973 0L41.647 52.609a1.392 1.392 0 0 0 1.004 2.375 1.395 1.395 0 0 0 .99-.437zm114.006 32.36L94.37 150.204l-45.152-45.207a1.386 1.386 0 0 0-.987-.409 1.397 1.397 0 0 0-1.289 1.929c.07.169.173.323.303.453l46.163 46.169a1.393 1.393 0 0 0 .99.411 1.39 1.39 0 0 0 .983-.411l64.231-64.28a1.388 1.388 0 0 0 .303-1.52 1.388 1.388 0 0 0-.303-.453 1.394 1.394 0 0 0-1.966.02z"/><path d="M93.589 114.507c0-1.074-.976-1.897-2.698-1.91a3.97 3.97 0 0 0-2.92 1.087l1.059 1.088a2.705 2.705 0 0 1 1.666-.698c.495 0 .739.21.739.558 0 .885-3.597 1.624-3.597 3.702v.613c1.919-.032 3.836-.053 5.75-.063v-1.47h-3.213c1.074-.983 3.214-1.367 3.214-2.907zm3.96-1.903c-1.757 0-3.026.941-3.026 2.475v1.471c0 1.52 1.269 2.454 3.026 2.468 1.756.014 3.018-.907 3.018-2.454v-1.499c0-1.554-1.255-2.503-3.018-2.461zm.885 4.016a.786.786 0 0 1-.885.871.783.783 0 0 1-.846-.519.786.786 0 0 1-.04-.352v-1.618a.772.772 0 0 1 .886-.864.765.765 0 0 1 .655.209.775.775 0 0 1 .23.648v1.625zm3.395-3.047v5.353l2.203.056v-6.344h-1.185a.93.93 0 0 1-.633.894.947.947 0 0 1-.385.041zm8.651 5.625v-1.394h.802v-1.499h-.802v-3.904l-2.091.084a138.74 138.74 0 0 1-3.235 3.904v1.29l3.2.062v1.36l2.126.097zm-3.486-2.9 1.339-1.631v1.638l-1.339-.007zm-27.104-3.039v-.836l-2.09-.091v5.068l2.09-.042v-.864h-1.087v-1.304h.697v-.774h-.697v-1.192l1.088.035zm.6 2.579v.425a1.06 1.06 0 0 0 1.2 1.137 1.165 1.165 0 0 0 .866-.352 1.184 1.184 0 0 0 .332-.875 2.658 2.658 0 0 0-.837-1.597c-.355-.446-.599-.655-.599-1.122a.261.261 0 0 1 .08-.202.258.258 0 0 1 .206-.07c.035 0 .07.007.103.022a.25.25 0 0 1 .148.257v.481h.843v-.418a1.092 1.092 0 0 0-1.094-1.157 1.112 1.112 0 0 0-1.16.718c-.057.153-.08.317-.067.481a2.68 2.68 0 0 0 .843 1.617c.342.411.586.697.586 1.094 0 .21-.098.321-.293.328a.306.306 0 0 1-.127-.018.294.294 0 0 1-.186-.31v-.453l-.844.014zm5.242-3.276-2.377-.069v.836h.697v3.904h.97v-3.869h.697l.013-.802zm-7.932 6.825c2.634-.125 5.272-.218 7.912-.279v-.697c-2.64.047-5.278.121-7.913.223v.753zm33.342-57.569a3.167 3.167 0 0 0-2.712 2.788 1.855 1.855 0 0 0 .542 1.54 1.85 1.85 0 0 0 1.55.51 3.152 3.152 0 0 0 2.677-2.789 1.751 1.751 0 0 0-.487-1.568 1.75 1.75 0 0 0-1.57-.481zM46.555 92.715c2.328-5.34 4.677-10.673 6.97-16.034 1.911-4.426 3.737-8.888 6.407-13.022a11.384 11.384 0 0 1 3.765-3.813c2.007-1.17 4.022-1.568 6.009-.774 1.673.698 2.154 2.266 1.255 4.03a3.702 3.702 0 0 1-2.517 1.945c-1.046.285-1.59 1.024-1.47 1.833.139.948.787 1.339 1.888 1.053a7.534 7.534 0 0 0 1.639-.62 7.494 7.494 0 0 0 3.96-6.435 4.642 4.642 0 0 0-3.905-4.768 10.729 10.729 0 0 0-9.522 2.579 23.235 23.235 0 0 0-5.758 7.57c-1.813 3.695-3.486 7.446-5.152 11.154-1.164 2.608-1.171 2.65-3.897 2.991-4.134.516-8.267 1.067-12.394 1.59-.51.062-1.018 0-1.66.048.175-.55.272-.983.447-1.394 1.185-2.663 2.32-5.354 3.604-7.975.864-1.764 1.945-3.437 2.934-5.145a1.094 1.094 0 0 1 1.304-.697c.668.134 1.348.19 2.029.168a9.397 9.397 0 0 0 4.991-1.032c1.729-1.004 2.621-2.503 2.447-4.183-.14-1.394-1.485-2.46-3.228-2.523a7.738 7.738 0 0 0-5.228 1.735c-.941.746-1.813 1.583-2.712 2.378-1.13-.14-2.259-.293-3.395-.405-3.945-.397-7.905-.509-11.983.697A25.603 25.603 0 0 0 7.677 76.214C5.112 80.83 3.585 85.563 4.498 90.52c.967 5.27 3.95 8.705 8.951 10.303.458.109.936.109 1.394 0a1.552 1.552 0 0 0 1.241-1.31 1.095 1.095 0 0 0-.585-1.394 10.841 10.841 0 0 0-1.025-.412c-5.229-1.93-7.829-6.413-6.971-12.276 1.143-7.933 5.577-13.865 13.07-17.476a22.698 22.698 0 0 1 12.437-2.057l3.388.377a3.116 3.116 0 0 1-.16.516c-2.838 4.42-4.671 9.222-6.672 13.942-.53 1.248-1.157 1.993-2.523 2.091a2.745 2.745 0 0 0-2.029.983c-.795.969-.53 1.938.593 2.091.439.063.892.084 1.526.14-.467 1.164-.878 2.203-1.317 3.234-1.45 3.486-2.921 6.888-5.284 9.934-3.618 4.643-8.177 6.783-13.566 6.525a3.26 3.26 0 0 1-2.977-1.68c-.808-1.534-1.77-1.534-3.109-.063v1.311c1.192 2.363 3.34 3.346 5.946 3.555a16.412 16.412 0 0 0 6.344-.871c4.573-1.464 8.01-4.469 10.617-8.568a68.614 68.614 0 0 0 5.87-12.067c.627-1.61 1.596-2.363 3.165-2.46.125 0 .258 0 .39-.05l12.388-1.54c.585-.07 1.164-.07 1.868-.105-.078.401-.18.797-.307 1.186-1.017 2.433-2.091 4.844-3.067 7.291a37.172 37.172 0 0 0-1.569 4.727 3.675 3.675 0 0 0 1.053 3.485c.138.15.3.275.481.37a1.397 1.397 0 0 0 1.694-.223 1.222 1.222 0 0 0 .377-1.652c-.886-1.478-.614-3.096 0-4.769.104-.23.3-.564.425-.892zm-1.123-30.38c.572-.049 1.248-.272 1.583.627-1.457 1.088-2.858.9-4.503.955a4.064 4.064 0 0 1 2.92-1.547v-.035zm73.553 31.92c1.234-.426 1.819-1.172 1.638-2.092-.153-.801-.788-1.038-2.091-.76-3.772.81-6.463 5.354-5.264 8.854a3.911 3.911 0 0 0 2.573 2.788c.976.286 2 .46 3.004.697l1.827-.244c.141-.107.296-.196.46-.265a13.333 13.333 0 0 0 6.88-4.252 26.901 26.901 0 0 0 4.622-7.187c3.486-7.912 6.929-15.846 10.373-23.779.216-.49.348-1.013.391-1.547.055-.983-.642-1.339-1.541-.809-.441.29-.864.604-1.269.941a3.88 3.88 0 0 0-3.911-.948 8.114 8.114 0 0 0-4.942 3.486c-.646.95-1.22 1.947-1.715 2.983-1.589 3.486-3.088 6.971-4.692 10.457a19.282 19.282 0 0 1-1.847 3.053 3.266 3.266 0 0 1-2.537 1.394c-1.046.05-1.457-.257-1.318-1.303a9.207 9.207 0 0 1 .697-2.3c1.248-2.928 2.545-5.85 3.82-8.77a7.3 7.3 0 0 0 .697-4.002 3.299 3.299 0 0 0-2.742-2.982 3.301 3.301 0 0 0-1.44.075 18.038 18.038 0 0 0-3.13 1.353c-.816-.92-1.841-.76-2.635.585a8.216 8.216 0 0 0-.405.872c-1.624 3.806-3.199 7.633-4.879 11.412a55.256 55.256 0 0 1-2.893 5.45 3.77 3.77 0 0 1-2.747 1.876c-1.115.16-1.645-.237-1.548-1.394a6.66 6.66 0 0 1 .558-2.091c1.736-4.058 3.52-8.1 5.27-12.151.361-.78.666-1.583.913-2.405a1.112 1.112 0 0 0-.801-1.478 1.5 1.5 0 0 0-1.757.62 6.322 6.322 0 0 0-.697 1.325c-1.882 4.392-3.723 8.797-5.64 13.175a38.532 38.532 0 0 1-1.959 3.611 3.57 3.57 0 0 1-2.725 1.855 1.59 1.59 0 0 0-1.485 1.75c.035.94.613 1.533 1.575 1.296a9.967 9.967 0 0 0 2.433-1.094c.611-.4 1.194-.844 1.743-1.325a3.868 3.868 0 0 0 2.677 1.297c2.286.223 4.183-.774 5.856-2.489 1.673-1.715 2.718-4.03 3.68-6.274 1.206-2.788 2.329-5.619 3.597-8.365.935-2.029 2.155-3.876 4.56-4.406 1.143-.251 1.847.39 1.575 1.506a12.002 12.002 0 0 1-.655 1.917c-1.164 2.67-2.37 5.326-3.486 8.01a19.13 19.13 0 0 0-1.032 3.067c-.515 2.175.203 3.939 1.806 4.475a4.796 4.796 0 0 0 3.785-.055c1.116-.544 2.168-1.276 3.068-1.813a13.64 13.64 0 0 0 2.934.948 14.396 14.396 0 0 0 3.082-.362 31.37 31.37 0 0 1-4.587 7.717 13.245 13.245 0 0 1-3.967 3.422 6.096 6.096 0 0 1-5.382.335 1.767 1.767 0 0 1-1.15-1.603c-.188-2.001.711-3.353 2.775-4.057zm9.662-8.526a1.176 1.176 0 0 1-.621-.927c.035-.72.195-1.428.474-2.092a1275.36 1275.36 0 0 1 4.225-9.62 24.797 24.797 0 0 1 1.666-3.004 3.129 3.129 0 0 1 2.217-1.555c1.673-.167 2.279.425 2.091 1.757a8.072 8.072 0 0 1-.607 1.924c-1.443 3.297-2.879 6.595-4.405 9.857a14.198 14.198 0 0 1-1.799 2.788 2.89 2.89 0 0 1-3.241.872zm58.417-12.659a1.81 1.81 0 0 0-1.965 1.025c-.314.557-.572 1.143-.893 1.7-1.011 1.778-2.224 3.284-4.447 3.388 2.9-3.806 3.388-7.668 1.798-11.565a28.134 28.134 0 0 1-.871-3.011 6.862 6.862 0 0 1 .376-4.74 4.586 4.586 0 0 0 .433-1.534 1.213 1.213 0 0 0-.637-1.166 1.208 1.208 0 0 0-1.322.127c-.41.3-.752.682-1.004 1.123-.35.64-.66 1.3-.927 1.98-1.91 4.482-3.793 8.964-5.738 13.433-.989 2.28-1.945 4.587-3.952 6.336-.586.51-1.952.97-2.566.698-.613-.272-.752-.984-.481-1.939.192-.607.425-1.201.698-1.777 1.352-3.228 2.788-6.441 4.05-9.69.352-.95.52-1.957.495-2.97 0-2.091-1.311-3.388-3.005-4.182-.983-.46-1.115-1.116-.899-2.133.2-.853.227-1.737.079-2.6a6.542 6.542 0 0 0-.937-2.427c-1.394-2.182-3.485-2.488-5.904-1.394a4.113 4.113 0 0 0-2.238 2.663 4.657 4.657 0 0 0 1.903 5.528c1.109.697 2.336 1.164 3.549 1.764a54.762 54.762 0 0 1-4.051 10.317 32.523 32.523 0 0 1-6.071 8.72 8.528 8.528 0 0 1-5.096 2.643c-1.903.202-2.991-.927-2.642-2.837.178-.88.425-1.745.739-2.587.348-1.017.606-1.143 1.666-1.136 2.091 0 4.182-.341 5.939-2.007a12.763 12.763 0 0 0 3.953-8.045 2.888 2.888 0 0 0-2.322-3.353 5.857 5.857 0 0 0-5.688 1.945 14.217 14.217 0 0 0-2.426 3.346c-1.652 3.485-3.081 7.09-4.671 10.617a33.891 33.891 0 0 1-2.091 3.862 3.432 3.432 0 0 1-2.189 1.54c-1.269.321-2.056 1.36-1.813 2.287.244.927 1.13 1.018 2.392.537a11.554 11.554 0 0 0 3.959-2.977c.734.9 1.76 1.514 2.9 1.736a8.643 8.643 0 0 0 5.96-1.136 21.133 21.133 0 0 0 6.588-6.47 56.044 56.044 0 0 0 6.915-13.942c.196-.585.447-1.164.698-1.715h.362c1.443.85 1.799 2.092 1.039 3.974-.906 2.23-1.91 4.433-2.789 6.664a48.221 48.221 0 0 0-1.986 5.333c-.851 3.081.794 5.124 3.862 4.88a8.793 8.793 0 0 0 2.788-.85 1.532 1.532 0 0 1 1.304-.16 6.968 6.968 0 0 0 5.444-.384c.244-.112.481-.244.697-.377 4.357.788 6.832-.976 6.832-.976a10.856 10.856 0 0 0 3.179-3.193 17.637 17.637 0 0 0 1.701-2.983c.362-.906.027-1.666-.677-1.91zm-38.919-.906c.697-1.625 1.185-3.36 2.523-4.671a4.97 4.97 0 0 1 1.687-1.108c.913-.342 1.597.167 1.457 1.1a8.248 8.248 0 0 1-2.684 5.222 9.13 9.13 0 0 1-1.882.997c-1.262.007-1.589-.376-1.101-1.54zm14.904-13.678c-.885-.557-1.687-1.018-2.44-1.547a1.776 1.776 0 0 1-.544-.774 1.502 1.502 0 0 1 .377-1.694 1.441 1.441 0 0 1 1.784-.105c.997.663 1.443 2.503.823 4.12zm8.714 21.506c2.67-3.897 3.66-8.365 6.037-12.653 1.694 2.907 2.321 5.689.606 8.951-1.066 2.022-3.555 4.162-6.643 3.702z"/><path d="M100.107 77.783c.405-1.04.674-2.127.802-3.235a3.253 3.253 0 0 0-2.789-3.639 6.546 6.546 0 0 0-3.792.85c.104-.299.146-.452.209-.599 1.276-2.732 2.558-5.458 3.827-8.198.453-.99.906-1.986 1.29-3.004.383-1.018-.32-1.945-1.436-1.534a3.486 3.486 0 0 0-1.395 1.046 6.073 6.073 0 0 0-.843 1.568 7963.307 7963.307 0 0 0-8.233 19.192c-1.22 2.844-2.412 5.695-3.709 8.511a7.125 7.125 0 0 1-3.116 3.584c-1.533.787-2.593.188-2.328-1.395a11 11 0 0 1 .858-2.551c1.213-2.788 2.495-5.577 3.722-8.365a8.811 8.811 0 0 0 .934-4.141 2.433 2.433 0 0 0-1.603-2.287c-.537-.209-1.115-.313-1.666-.495-.97-.327-1.15-.697-.906-1.742.055-.217.174-.426.209-.642.104-.697.202-1.352-.551-1.624a1.742 1.742 0 0 0-2.043.864 15.31 15.31 0 0 0-.766 1.604c-2.58 5.835-5.138 11.676-7.752 17.497a30.103 30.103 0 0 1-2.133 3.848 3.436 3.436 0 0 1-3.18 1.743c-.696-.042-1.142-.341-1.031-1.101a8.83 8.83 0 0 1 .509-2.05c1.987-4.643 4.015-9.271 6.002-13.942.474-1.102.349-1.84-.188-2.091-.537-.251-1.394 0-2.203.843-.056.056-.147.07-.09.042a9.89 9.89 0 0 0-2.092-.844c-2.412-.369-4.517.698-6.093 2.72a29.274 29.274 0 0 0-3.088 5.046c-1.338 2.747-2.433 5.577-3.688 8.366a8.268 8.268 0 0 0-.815 4.126c.111 1.45.773 2.531 2.091 2.893a6.072 6.072 0 0 0 6.114-1.582c.25-.244.515-.48.766-.697 1.395 1.47 3.137 1.617 5.103 1.06 1.966-.558 3.2-1.883 4.364-3.43 1.778-2.37 2.789-5.04 3.96-7.669 1.59-3.68 3.158-7.36 4.726-11 .367.259.76.478 1.171.655 1.924.614 2.008.774 1.213 2.845-.076.209-.167.418-.258.627-1.268 2.92-2.551 5.842-3.792 8.777a11.32 11.32 0 0 0-.822 2.426c-.46 2.53.07 4.357 2.293 4.88a5.933 5.933 0 0 0 5.326-1.395l1.255-1.06c1.687 2.182 5.94 1.583 7.87-.48a16.966 16.966 0 0 0 3.277-4.63c1.554-3.443 3.116-6.782 4.51-10.191zM59.675 91.927a18.209 18.209 0 0 1-2.406 3.36 1.938 1.938 0 0 1-2.181.572c-.767-.23-1.046-.85-1.165-1.694.327-1.17.761-2.306 1.297-3.395 1.492-2.51 2.266-5.235 3.43-7.835a8.365 8.365 0 0 1 2.593-3.681 4.629 4.629 0 0 1 1.945-.795c1.101-.146 1.729.607 1.555 1.715a5.843 5.843 0 0 1-.46 1.54c-1.458 3.416-2.922 6.846-4.553 10.213h-.055zm31.92-2.53a3.759 3.759 0 0 1-2.328 1.798c-1.75.23-2.412-.446-2.133-1.826a10.93 10.93 0 0 1 .697-2.043c1.101-2.642 2.147-5.305 3.38-7.898a21.37 21.37 0 0 1 2.566-4.057 5.172 5.172 0 0 1 2.154-1.346c1.136-.432 1.89.147 1.799 1.304a6.004 6.004 0 0 1-.46 1.799c-1.15 2.788-2.3 5.535-3.535 8.274a35.14 35.14 0 0 1-2.084 3.995h-.056zm-17.358-39.43c.147.119.244 0 .356-.048l.209.076.083-.174c.134.03.265.071.39.125.105.077.217-.132.3 0l.405-.07c.342.154.648-.041.99-.16 0-.125-.056-.25-.09-.376l.257-.153c-.104-.21.23-.419 0-.593l.328-.349-.098-.111.328-.746c-.105-.077-.119-.153 0-.23l-.077-.098h.14c.041-.153.07-.292.118-.425.049-.132.146-.258.153-.383.008-.126.133-.258 0-.384.195-.224.312-.505.335-.801l.07-.056-.056.063c-.153-.056-.07-.14-.049-.21h.126v-.25c.112-.187.179-.397.195-.614a.307.307 0 0 1-.049-.146h.056a.822.822 0 0 1 0 .125.754.754 0 0 0 .16-.111c-.035-.244-.439-.084-.411-.377h.132l.098.21.279-.3v-.321l.146-.126c0-.055-.083-.125-.063-.153.112-.153 0-.349.14-.502a.182.182 0 0 0 0-.167c-.16-.147-.049-.279 0-.44l-.174-.11c.062-.168.111-.3.167-.44h-.174v-.14l.202.119-.042.035c.16.125.23.258.146.37l.05.16c.09-.154.069-.342.166-.412.098-.07.091-.272.196-.334 0-.133-.056-.244-.077-.32l-.3-.19c0 .154 0 .294-.279.28 0-.077.056-.133.056-.147 0-.014-.063-.118-.09-.18a.836.836 0 0 1-.558.09l-.39-.181a.433.433 0 0 1-.502 0c-.146.01-.29.033-.433.07a1.867 1.867 0 0 0-.355.215 1.688 1.688 0 0 0 0 .189.484.484 0 0 0 .063.139h-.14l.09.14-.285.18.112.203-.07.07.063.216-.335.237.16.125h.16v.133h-.16v-.154l-.237.154c-.042.278-.083.53-.111.697-.028.167-.23.516-.321.76 0 0 .042.083.07.125a.516.516 0 0 0-.147.697h-.146c-.098.3-.202.6-.293.885h-.279l-.237-.285v-.293l-.118-.098-.251-.983-.098-.097a3.87 3.87 0 0 0-.118-.447 6.708 6.708 0 0 0-.328-.697 2.565 2.565 0 0 0-.418-1.178 1.959 1.959 0 0 0-.44-1.17c-.257-.064-.501-.238-.752-.057l-.174-.104c-.056 0-.126.07-.14.063-.014-.007-.181-.07-.293 0a1.71 1.71 0 0 1-.32 0c-.077 0-.105-.147-.203-.035-.097.111-.16 0-.237 0a.613.613 0 0 0-.487.474 2.36 2.36 0 0 1-.16.488c-.064.167-.106.348-.161.523-.056.174-.105.3-.154.453-.237.07-.076.3-.195.439-.095.187-.157.39-.181.6-.056.194-.105.397-.153.592l.07.084-.161.041a.99.99 0 0 1-.237.656c-.049.041 0 .174 0 .265-.251.25-.202.697-.495.878a.39.39 0 0 1-.356-.37c0-.132-.16-.25-.048-.404-.126-.14-.07-.32-.09-.46-.336-.279-.14-.697-.433-.997.111-.341-.188-.627-.153-1.018l-.217-.216c.098-.111 0-.258.05-.39l-.168-.063c0-.125-.049-.25.056-.328a4.286 4.286 0 0 1-.335-1.17c-.056-.05-.118-.077-.146-.126a.425.425 0 0 0-.495-.265c-.23.07-.481 0-.697.126l-.335-.189c-.01.091-.023.182-.042.272l-.097-.202-.091.07c-.112-.133-.244-.091-.37-.084v.286l-.202-.307h-.258l-.195.377v.348l.244.153c-.076.084-.202.147-.16.307l.37.481c.034-.14.055-.216.076-.306h.125a.696.696 0 0 1-.097.55l-.167.056.285.195c-.062.154-.111.293-.16.425l.146.035v.453c.119.147.223.293.321.419l-.195.292h.216a.529.529 0 0 1 .056-.076.274.274 0 0 1-.07.055c0 .077-.035.147-.056.224a4 4 0 0 0 .398 1.094v.272c0 .07.125.14 0 .21.137.222.216.476.23.738.03.164.081.324.153.474.118.262.186.543.202.83l.16.09c0 .28-.055.53.091.746a.997.997 0 0 1 .167.55c.105.314.182.524.245.74.062.216.132.46.202.697h.035l.132.209c.32-.049.593.195.864-.049a.767.767 0 0 0 .62 0 .39.39 0 0 1 .266 0 .831.831 0 0 0 .474 0 1.41 1.41 0 0 1 .397-.07s.035-.034.049-.041l-.098-.119h.181l.056.063-.062-.049.16-.125v-.356l.132-.09c.035-.14.063-.23.077-.314 0-.195.188-.328.265-.502v-.154c.169-.366.313-.743.432-1.129.049-.223.265-.467.042-.697a.432.432 0 0 0 .223-.188c.076-.154.134-.315.174-.481.106-.26.192-.529.258-.802.195-.063.216-.272.39-.348l.238.216.23.774h.146c0 .048-.063.09-.049.118.112.307.168.627.307.92.067.155.125.313.174.474.042.126.077.251.126.384l.132.041-.09.091c.07.181.132.363.202.55l.153.05c0 .055-.056.111-.09.167.236.23.111.634.425.836v.238l.16.118-.084.09c.18-.022.361 0 .53.063zm4.134-7.11c.063 0 .09-.042.105 0 .014.042.223.09.104.293-.083-.154-.153-.216-.209-.3v.007zm.265.474h-.042v-.126h.077l-.035.126zm.39-1.631-.272-.035a.433.433 0 0 1 .272.035zm-.348-.05h-.195v-.139l.202.119h-.042l.035.02zm-.049-1.15v.293l-.174-.146.174-.146zm0 .551a.48.48 0 0 1 .181.537l-.3-.272c-.07-.118-.013-.202.098-.265h.021zm.125.614c.182.049.154.056.098.063-.056.006 0 .188-.035.285h-.111l-.077-.153-.09.07-.126-.21c.109-.003.217-.022.32-.055h.021zm-.083.495h.111c-.041.188-.076.348-.111.523l-.286-.133c.112-.111.146-.272.265-.397l.02.007zm-14.172-1.673c0-.182 0-.182.104-.342 0 .056.035.105.056.188.02.084-.105.126-.181.154h.02zm.746-.112h.18l-.104.119.119.209h-.189l-.007-.328zm0 .404.153.168-.147.174-.118-.119.112-.223zm-.265.342c.18-.042.292.174.488.188a2.94 2.94 0 0 1-.237.697l.132-.055a.773.773 0 0 0 0 .125l-.195.063.181.097c0 .307 0 .307-.125.447-.056-.251-.126-.51-.168-.76-.042-.251-.042-.516-.076-.802zm.383 2.154h-.042c0-.049 0-.097-.035-.14h.077v.14zm.063-.237h-.175l-.23-.286.042-.049.398.286-.035.05zm.188-2.189.195-.153v-.328l.147.154v.474l-.342-.147zm.188.593.21.202-.036.035.168.202c0 .111-.07.216-.09.328a3.012 3.012 0 0 0 0 .355h-.105l-.251-.474c.153-.195.083-.446.104-.634v-.014zm.056 2.14.146.153c0 .175-.041.181-.07.188-.055-.139-.104-.237-.146-.341h.07zm.16-.286v.258h-.111a.153.153 0 0 1-.056-.098.693.693 0 0 1 0-.237c.044-.204.117-.401.216-.585v.55l-.049.112zm-.055 1.582v.286a3.135 3.135 0 0 1-.224-.286h.224zm-.126-.216c-.153-.258.084-.411.084-.606a.936.936 0 0 0 0 .195c0 .07.048.14.09.244l-.174.167zm.237-1.526c0-.237 0-.147.063 0h-.063zm.697-1.137a.118.118 0 0 1 .084.042l-.056-.07a.14.14 0 0 1-.084-.048l.056.076zm-.056-1.122-.237.174c0-.076-.048-.125-.076-.188l.313.014zm-.348.21h.104c.014 0 .14.132.196.18v.46h-.098l-.16-.32c-.035-.126-.05-.174-.056-.216a.436.436 0 0 1 .063-.105h-.05zm.279 6.622-.265-.189h.306c.035.056.028.105.008.21l-.05-.021zm-.189-.774h.119v.223l-.125.035c.062-.09.062-.16.055-.258h-.049zm.224-1.157c0 .063 0 .125-.05.237a.51.51 0 0 1 .043.188c0 .056-.077.104-.119.153l-.14-.132v-.697s.042 0 .07-.063l-.153-.049v-.07a.384.384 0 0 0 0-.501l.293-.196-.16-.055c0-.091-.063-.189-.084-.28a1.137 1.137 0 0 0-.049-.961l.105-.112-.147-.056a.523.523 0 0 0 0-.515l.063-.07v-.126l.146.084v-.167h-.244v-.28l.265-.152-.097-.112.104-.035.244.46-.09.042.076.14c-.056 0-.09.07 0 .139.09.07.042.132-.063.132-.104 0 0 .126-.041.217-.042.09 0 .292.041.453.042.16-.146.202 0 .3-.097.097 0 .201 0 .3-.01.102-.034.202-.07.299.063.178.115.36.154.544a.32.32 0 0 1-.153.341l-.063-.063.07.056.083.412h.23l-.264.195zm.23-2.21h-.042V43.4h.042v.167zm.432.641h-.307v-.07h.307v.07zm-.07-1.101c-.063.083-.125.16-.202.272-.007-.3-.007-.3.272-.272h-.07zm-.258.383h.32v.37c-.043.047-.09.091-.139.132-.062-.049-.16-.09-.174-.146.004-.12.018-.239.042-.356h-.049zm.265 2.287c-.042.111-.077.209-.132.334l-.119-.327.251-.007zm-.181-.23h.07v.132h-.042c.041-.042.028-.084.02-.132H67.1zm.007 1.185c-.244-.084-.154-.251-.181-.405.292.112.209.272.23.426l-.05-.021zm-.154 1.025.07-.112c0-.049-.056-.105-.098-.167.182-.223 0-.593.405-.74-.049.12 0 .238-.049.356-.049.119 0 .272-.077.419-.076.146 0 .278.05.432l-.3-.188zm.258 1.261v-.07h.147v.042l-.147.028zm0-.327v-.16h.042v.167l-.042-.007zm-.146-.377c0-.063-.049-.09-.042-.104.007-.014.098-.216.328-.112l-.286.216zm.112-2.942-.091-.083h.25v.049l-.16.034zm-.07-.188h-.07a.216.216 0 0 1-.097-.279c.055-.118 0-.209 0-.3a.996.996 0 0 1 .118-.285h.279c.056.146 0 .272-.056.404-.056.133.056.244.084.363l-.258.097zm2.168.481c0 .09.084.188.132.314l-.327.314v-.251c0-.091-.05-.175-.07-.258l.265-.119zm-.976 1.08c.056-.236.118-.431.153-.627 0-.07-.049-.14-.076-.216-.028-.076.07-.146.125-.265l.07.154h.056v.55l.07.05h-.07a2.522 2.522 0 0 1-.091.243c.153.09.237.181.125.328a.161.161 0 0 0-.013.226.162.162 0 0 0 .07.046s-.064.041-.064.055c0 .28 0 .558-.041.85l-.175.133s-.07-.055-.063-.07c0-.209-.055-.418.05-.62 0-.056 0-.16-.056-.237l-.084-.244a.781.781 0 0 0 .258-.495c-.06.06-.124.115-.195.16l-.05-.02zm.209 2.21c-.077 0-.188.056-.09-.18a.876.876 0 0 1 .139.201l-.049-.02zm-.788-4.008c.154-.049.16.09.32.16l-.243.091c0 .077.202.167-.056.237l-.104-.195.083-.293zm.244 1.227-.125.126c-.181-.168-.181-.196-.077-.412a1.546 1.546 0 0 0-.077-.14l.237-.23.105.133a6.54 6.54 0 0 0-.14.39l.077.133zm-.32 1.046.055.063a.422.422 0 0 1-.076-.042l.02-.021zm.39-.098c-.056.112-.153.21 0 .356s0 .174 0 .348a.243.243 0 0 1-.056.349l.105.14c-.16.222-.05.494-.147.752 0-.097 0-.188-.035-.293l-.167-.048.07-.189c-.056-.055-.119-.14 0-.209 0-.104 0-.195-.063-.334l.14.104.132-.125-.411-.182.25-.14c-.034-.118-.062-.236-.097-.355h.042a.785.785 0 0 0-.042-.662c.047-.077.098-.152.153-.223l.217.258-.196.09c.063.098.21.14.168.287h.153v.055l-.216.021zm.48 2.398c-.201-.077-.097-.313-.299-.432l.181-.042a.453.453 0 0 1 .168.495l-.05-.02zm.05-.697v-.105c.063.035.076.063.076.091l-.076.014zm0-.202c-.195-.09-.168-.154-.112-.21l.16.063.182-.076c0 .063 0 .097.042.167a.418.418 0 0 0-.251.056h-.021zm.509-.509.237-.098c-.14.168.055.46-.258.558-.168-.146.118-.307.042-.46h-.021zm0-.14v-.118h.146v.035l-.146.084zm.146 1.541h-.14v-.467h.14v.467zm.077-.564a2.99 2.99 0 0 1-.3-.154l.098-.167.097.09.084-.16.104.195-.083.196zm0-1.032v-.16c-.14 0-.272 0-.342-.16l.084-.12-.09-.083.173-.397c-.139-.119-.048-.272-.083-.405l.216-.14c.118.217-.049.468.132.65a1.139 1.139 0 0 0-.16.334c.006.111.034.22.084.32h.146v.133l-.16.028zm.697-3.709-.16.063v-.244a.41.41 0 0 1 .202.216l-.042-.035zm-.16 1.952h.118c.035.342.035.342-.049.509 0 0 .063.056.077.09.014.035 0 .05 0 .091h-.3l.154-.69zm0-.404c.111.056.118.167.125.286l-.132.041a.328.328 0 0 1 .076-.327h-.07zm.139 1.248c-.056.216.077.404-.154.578l-.132-.313c.167-.098.244-.16.356-.238l-.07-.027zm-.14.697.133.111-.181.077-.084-.077.133-.111zm-.097 1.394.181.098c-.14-.028-.14-.028-.111-.154l-.07.056zm0-.78.25.166c-.118-.055-.118-.055-.187-.223l-.063.056zm.174-2.657c-.104 0-.111-.07-.125-.16h.216l-.09.16zm.14-.697h-.175v-.042h.175v.042zm.543-.746-.111-.167c.167-.042.272-.063.174.146l-.063.021zm-.209-.439v-.042h.167l-.167.042zm.16-1.582c.008.078.008.158 0 .237-.09 0-.167-.056-.16-.182l.16-.055zm-.104.64a.189.189 0 0 0 .035-.125h.049l.062.154h-.118c.029.046.062.09.097.132-.07.126-.139.265-.216.411l-.111-.202.202-.37zm-.133 2.267.168.097h-.168v-.097zm.147.697-.132-.237h.132v.237zm.084.53a.848.848 0 0 1 0-.126h.07l-.07.125zm0-.949h-.168v-.041h.168v.041zm-.05-.697c0-.118 0-.118.182-.097l-.181.097zm.754-3.96c-.056.091-.091.161-.119.21l-.216-.223.335.014zm-.175.328a.427.427 0 0 1-.188 0c.188-.083.21-.097.265-.062l-.077.062zm-.097 1.053v-.195c.25.132.167.132.076.132l-.076.063zm.153.523c.16.055.251.146.112.306l-.28-.223.168-.083zm0-.175v.126a.453.453 0 0 1-.16-.105l.202-.188.14.126-.182.041zm-.32 1.011.18-.167.126.133-.306.034zm.278 1.408v-.07h.14a.09.09 0 0 1 0 .043l-.14.027zm.056-.237h-.063v-.209h.175l-.112.21zm0-.327v-.133h.042v.133h-.042zm.07-1.039a5.337 5.337 0 0 1-.279-.265c-.077-.077 0-.16.132-.049.083.071.171.134.265.189l-.118.125zm0-1.394c-.09-.21.035-.251.181-.3.084.098-.035.154-.111.223l-.07.077zm-.21-.446a1.182 1.182 0 0 1-.034-.126l.174-.07v-.125c.115.046.22.115.307.202l-.446.119zm.572-.753h.147v.035l-.175.07.028-.105zm.16 3.743a.24.24 0 0 0 0-.07h.147v.043l-.146.027zm0-.773h.14v.034h-.14a.258.258 0 0 0 .084-.132l-.083.098zm0-.983s.07.055.077.09c.008.088.008.177 0 .265l-.279-.418c.119-.084.168-.223.321-.21h.042l-.16.273zm-.125-.51.181-.215.216.202-.397.014zm.056-.334-.112-.111.384-.21c.042.14.076.23.111.335l-.383-.014zm.341-.341-.467-.398c.07-.153.217-.223.377-.397l-.07.383.279.21-.118.202zm.3-.698v.133h-.042v-.133h.042zm.147.119.07.195c0 .084.118.237 0 .342l.097.097c-.026.045-.05.092-.07.14.042.083.133.195 0 .3l.174.188a.217.217 0 0 1-.264.16l.041-.063c0-.076-.055-.14-.083-.202h-.049c.03-.139.066-.276.112-.411l-.182-.063c.098-.32.16-.516.23-.76l-.076.077zm0 1.631c.033-.058.07-.114.111-.167.07.111.07.111-.056.09l-.055.077zm-.119-.209c-.076-.126-.076-.132 0-.21.02.044.039.089.056.133l-.056.077zm-.07.495h.14v.07h-.14v-.07zm.05 1.143.076-.258.188.244-.265.014zm.222-.864a.979.979 0 0 0 .112-.147v.154l-.112-.007zm.398-1.903h.041a.93.93 0 0 0 .035.125h-.076v-.125zm.14 1.673h-.14v-.3h.062a.196.196 0 0 1 .14.223l-.063.077zm-.057-.335v-.376h.147v.202c0 .063-.007.028-.084.098l-.063.076zm2.635 5.082h.147l-.16.147a.222.222 0 0 1 .076-.224l-.063.077zm.698-.802.236-.104-.111-.126.153-.062-.25-.147.11-.111-.173-.203c0-.146.062-.285.104-.487l.244-.189a9.1 9.1 0 0 0-.104.412l-.07.055.063-.062h.146c.042.195-.14.195-.258.279l.279.041-.077.084a.871.871 0 0 1 .042.593l-.23.209-.105-.182zm.313-3.15.09.16-.32.035.23-.196zm-.202-.405h.244c0 .049 0 .084.035.147h-.251c.063-.133.056-.16.042-.224l-.07.077zm.774 1.848v-.084a.167.167 0 0 1-.181.097v-.467c0-.048.062-.104.062-.153s-.07-.104-.062-.153a.693.693 0 0 1 .076-.195h-.083l-.084-.084c.272.056.341 0 .418 0 .112.167-.076.195-.125.279a.92.92 0 0 1 .049.683l-.07.077zm-.202 1.268.188-.265-.174-.104.111-.112-.07-.14c0-.069.112-.146 0-.264-.111-.119-.041-.174-.062-.307l.174.09a1.43 1.43 0 0 1 0-.146c.063 0 .09.084.14.189l-.133.508s.07.05.07.091c.007.11.007.219 0 .328l-.147.132h-.097zm-.453-1.394h.097c.042.063.077.133.126.202l-.224.133v-.335zm0-.523v-.272l.195.237-.195.035zm-.154-.578c.07.034.126.09.16.16l-.153.042a.167.167 0 0 1 .056-.28l-.063.078zm-.244 3.952v.147h-.042v-.244l.042.097zm-.076-.118-.307.397a.355.355 0 0 0-.119-.25l.175-.168.062.063-.062-.05.188-.173a.326.326 0 0 1 0 .132s.125-.056.146-.028l-.084.077zm-.356.557s0-.062-.056-.125h.328v.25l-.258.217c-.042 0-.09 0-.084-.049.007-.049.035-.279.154-.37l-.084.077zm-1.22.753c.126-.16.119-.132.105-.09l-.105.09zm-.07 0a.189.189 0 0 1-.118.084l.097-.084h.021zm0 .398-.167-.23h.286c.049-.028.02.041-.028.146l-.09.084zm.649.279v-.126h.041v.126h-.041zm-.084-.698c.077.154.223.293.14.481-.147-.111-.147-.111-.182-.334l-.146-.042c.111-.237.111-.237.306-.356l.175.182-.293.07zm0-.495.111-.097c0 .063-.062.132-.111.223a.754.754 0 0 0 .098-.265l-.098.14zm.892 1.123h-.048a1.229 1.229 0 0 0 0-.168.757.757 0 0 0-.091-.132h.16l-.02.3zm-.048-.51a.305.305 0 0 0 0 .126h-.14v-.14h.174l-.188-.243c.14-.112.21 0 .251.049a.147.147 0 0 1 0 .07l-.097.139zm.167-.11h.14v.062l-.14-.063zm.432.188-.21-.44.14-.104c.056.111.112.209.181.334l-.111.21zm.098-.558c-.05-.09-.077-.174 0-.251l-.154-.181c.112-.21-.195-.426 0-.697h-.132a.202.202 0 0 1 0-.14l.341-.314a.25.25 0 0 0 0 .16c.101.273.101.572 0 .844 0 .063.05.147.056.223.007.077.035.126-.076.133.033.064.07.127.111.188l-.146.035zm.627-.62c-.16-.063-.188-.16-.14-.286h.14v.285zm0-.537-.153-.091c0-.077 0-.132.055-.188l.084-.154h.126l-.112.433zm.049-.697c0-.042-.181-.077-.049-.21l.237.126-.188.084zm.641-2.022-.216-.084.216-.035v.119zm-.035-.174-.041-.342.048-.084-.209-.09h.272l.126.23-.196.286zm.042-2.475h-.25a.614.614 0 0 1 .25-.39v.39zm.042.07c.132.139 0 .174-.126.202.054-.117.122-.227.203-.328l-.077.126zm-.181 1.575h.104l.119.202-.223.133v-.335zm.083-.307a39.57 39.57 0 0 1-.111-.557l.293-.237-.182.264.126.05c0 .209.049.348.07.487l-.196-.007zm.007-2.502.23.104-.118.098h-.272c.007-.202.02-.216.237-.328l-.077.126zm-.056.418.091-.063v.112l-.25.104-.154-.25.313.097zm-.64-.739h.146v.035l-.182.063.035-.098zm0 .885c0 .05 0 .098.034.147h.056a1.046 1.046 0 0 1 0-.14h-.07l.112-.146c.16.39.16.397 0 .739h.146v.272l-.167.097.202.39-.181.12a.24.24 0 0 1 0-.098c-.077-.077-.216.167-.265-.07l.195-.098-.098-.153.168-.09-.272-.37a.308.308 0 0 0 0-.474l.14-.126zm.041 2.092-.195-.084.07-.077-.098-.118.097-.105a1.68 1.68 0 0 1-.09-.146l.042-.042.097.063c.07-.063.112-.063.14 0 .09.202.049.25 0 .293v.167l.146.049c.063.153-.049.23-.16.306l.09.091c-.16.098-.216-.105-.418-.042l.279-.355zm-.349-.51-.243.154c-.05-.397.236-.258.306-.306l-.063.153zm-.118-.508v.349c-.133-.182-.133-.182.063-.502l-.063.153zm-.934 2.168v.125h-.042v-.125h.042zm.084.739v.272l-.196-.244.196-.028zm-.175.99c.035-.038.067-.078.098-.119l-.056-.056c0-.076.042-.139.063-.209h-.084v-.46h.126c0 .098 0 .202.034.3h.224l-.154.418c.147 0 .153.147.244.21l-.153.278s.077 0 .077.056a1.618 1.618 0 0 0 0 .37l-.265.243c0-.07.062-.139.118-.278l-.16.125-.042-.056c0-.202.167-.32.258-.474-.244 0-.237-.16-.342-.279l.265-.041-.25-.028zm-.502-.446v.132h-.035l-.055-.153.09.02zm0 .697a1.093 1.093 0 0 0 0 .125l.042.049h.07s.035 0 .09.084c-.258-.07-.292-.042-.355 0v-.23l.153-.028zm-.258 1.394h.105a.698.698 0 0 0-.119-.377l.237-.07-.139-.194.195-.216c.013.287-.01.575-.07.857a.132.132 0 0 1 .07.09l-.153.14-.16.146.139-.244-.105-.132zm-.655.739v-.126h.251l-.25.126zm.188-1.304v.112h-.146a.832.832 0 0 1 0-.14l.146.028zm-.418.928h.167v.034h-.167v-.035zm-.126-3.068c-.195-.056-.25-.153-.18-.355l.278.23-.097.125z"/><path fill-rule="evenodd" d="M80.748 47.168a.711.711 0 0 0 .007.241c0 .05 0 .105-.056.14.027.063.048.128.063.195v1.24c0 .161 0 .322.049.503l.314.265.153-.084c.309.095.64.095.948 0a.649.649 0 0 0 .6 0c.018 0 .036.017.054.034.015.015.03.029.043.029.37.04.746.016 1.109-.07a.503.503 0 0 1 .223 0c.294.055.598.038.885-.049.622.101 1.26.056 1.861-.132l.038.08c.011.026.02.047.032.066h.202c0-.118 0-.244.188-.279a5.326 5.326 0 0 0-.197-.213l-.095-.1a.968.968 0 0 1 .223 0l-.056-.182c0-.111.02-.237.063-.376h.118a.697.697 0 0 1 0 .446.693.693 0 0 1-.104.146l.16.112a.28.28 0 0 0 0 .111c0 .023.02.043.05.07a.71.71 0 0 1 .047.049h-.188l.126.279h1.234l.348-.258-.104-.174.223-.098c-.123-.089-.108-.169-.093-.247a.626.626 0 0 0 .01-.06 2.146 2.146 0 0 0-.05-.292c0-.034.015-.067.029-.1.028-.063.054-.124-.029-.18l.09-.11a.858.858 0 0 1-.076-.266.452.452 0 0 0-.153-.397c-.014 0-.03-.002-.047-.004-.06-.008-.126-.016-.12.06.057.04.106.089.146.146h-.16v-.14a.928.928 0 0 1-.244-.104c-.23 0-.419 0-.6.063-.123.02-.244.048-.362.084v.23l-.272.146.174.063v.3l-.126.104a2.418 2.418 0 0 0-.077-.164c-.087-.174-.171-.341-.097-.533l.063.042h.042v-.272l-.09.077-.003-.001c-.152-.056-.284-.104-.43 0-.127.09-.128.051-.13-.015l-.002-.021.013-.005.056-.056-.07.049.001.012a1.206 1.206 0 0 0-.052.022c-.093.04-.184.08-.297-.027-.089-.085-.124-.062-.166-.034-.025.016-.051.034-.092.034.028.06.05.102.071.144l.034.065a.301.301 0 0 1-.162-.043c.057.058.11.118.162.182l-.196.034v-.24c-.023-.018-.044-.038-.064-.057a.38.38 0 0 0-.089-.071l-.272.07a2.14 2.14 0 0 0 .168-.182c-.056.014-.107.03-.156.047-.172.056-.307.1-.437-.047l-.09.07a2.787 2.787 0 0 0-1.2 0l-.3-.404c0-.128.033-.269.064-.407.015-.065.03-.13.041-.193l.356-.307c.266.05.538.067.808.049a1.4 1.4 0 0 0 .056-.153l.188.16.342-.056.39.056.195-.153a.885.885 0 0 0 .697.132l.16-.14.175.14c.126 0 .251 0 .356.07.073.049.078.029.081.013.002-.007.003-.013.01-.013.012 0-.01-.043-.037-.096a1.531 1.531 0 0 1-.047-.1h.16a.33.33 0 0 1 .049.112h.209l.056-.146h.202l.181-.662-.167-.063v-.084l.174-.063c-.106-.067-.117-.158-.127-.248a.39.39 0 0 0-.047-.17c.117-.117.102-.242.087-.365-.009-.075-.018-.15.003-.22a1.429 1.429 0 0 0-.348-.056.583.583 0 0 1-.136-.021c-.087-.02-.17-.039-.234.02-.053.05-.161.046-.28.04-.096-.004-.2-.009-.284.017-.177-.103-.35-.069-.524-.035a1.384 1.384 0 0 1-.264.035l-.09-.07c-.126.125-.252.083-.377.042a.61.61 0 0 0-.188-.042 4.385 4.385 0 0 1-.697 0 .926.926 0 0 0-.187.025c-.12.025-.237.049-.357-.025l-.244.104-.39-.32c.023-.129.014-.26.005-.388-.014-.214-.029-.425.106-.616l.418-.167a.832.832 0 0 1 .133.076l.474-.14c.075.05.147.104.216.161a2.97 2.97 0 0 1 .095-.023c.146-.035.276-.065.316-.186a.515.515 0 0 1-.146-.153h.16a.791.791 0 0 0 0 .14.949.949 0 0 1 .188.152s.063.035.105.056l.202-.146.579.14.125-.077.188.09.126-.07.314.063c.113.007.227.007.341 0h.697c.038 0 .08.005.123.01.085.009.168.018.205-.01.037-.027.098-.019.161-.01.033.005.066.01.097.01a.697.697 0 0 1 .293-.042c.025-.05.046-.098.067-.145a1.86 1.86 0 0 1 .1-.203c.063-.105 0-.258-.056-.384a.784.784 0 0 1 0-.18c0-.078 0-.161-.063-.224a.14.14 0 0 1 0-.132c.025-.063.053-.124.08-.185.028-.061.056-.122.08-.185-.081-.056-.076-.126-.07-.2.006-.064.011-.132-.04-.197l-.44-.202a.656.656 0 0 1-.418.049.781.781 0 0 0-.746.048 1.958 1.958 0 0 0-.62-.063l-.175.224c-.139-.038-.11-.084-.08-.132.021-.032.042-.065.017-.098a7.572 7.572 0 0 0-1.394.048.642.642 0 0 0-.697-.083c-.08.042-.167.01-.255-.024a.57.57 0 0 0-.17-.046c-.053-.002-.102.017-.149.035-.084.033-.163.063-.248-.035a2.629 2.629 0 0 0-.74 0 .424.424 0 0 1-.453-.049s-.041.049-.062.049h-.942a.501.501 0 0 0-.057.088c-.046.083-.088.159-.263.128.024-.065.052-.127.084-.188h-.314c-.04.048-.073.096-.112.151a6.572 6.572 0 0 1-.076.107c.028.045.02.1.012.158-.011.085-.024.177.071.26a.16.16 0 0 1 0 .174c-.105.179-.09.366-.075.553.007.097.015.195.006.29 0 .045.023.089.047.133l.03.056c-.099.137-.093.281-.086.437.005.098.01.2-.012.309l.146.07c-.06.133-.102.274-.125.418v1.318c0 .028.017.054.035.08.033.049.066.097-.035.157a1.45 1.45 0 0 0 .048.76.544.544 0 0 1-.04.172c-.017.045-.029.079-.015.085.012.006.013.035.015.071.003.047.006.106.033.145.034.048.005.121-.022.194a.694.694 0 0 0-.033.1c-.012.051-.072.066-.121.077-.043.01-.077.018-.06.048.06.104.05.213.041.323zm6.665-6.48c0 .07 0 .105.034.154h-.258l.224-.154zm.648.237v-.118h-.035c.035.035.035.077.035.118zm.571-.111v.118a.752.752 0 0 1-.034-.118h.034zm-1.873 3.475c.009.01.015.019.012.024-.007.014-.097.182-.327.084l.285-.174c0 .029.018.05.03.066zm-.155.561v.23l.16-.076-.16-.154zm.78.579c-.041-.09-.041-.174-.041-.293l-.23.153.03.04c.058.08.104.142.242.1zm.754 2.544-.126-.341h-.105c.01.035.023.07.035.103.029.081.056.16.056.238h.14zm.571-.341c.035.062 0 .097-.174.049l.174-.05zm.119.843h-.175v-.216l.175.216zm-1.018-.432.25.111-.09.084.307.286-.265.042-.202-.174v-.349zm.07.767.202-.175-.314.008.112.167zm-1.192.585v-.202l.16.126-.16.076zm.125-1.484v-.14l-.32.126c-.015.146.041.25.222.25v-.097a.827.827 0 0 0-.07-.098l.168-.041zm-.181.397a.885.885 0 0 1 .181.843 1.685 1.685 0 0 0-.046-.034c-.045-.032-.083-.06-.093-.091a.237.237 0 0 1-.008-.052c-.006-.065-.016-.167-.083-.234a.452.452 0 0 1-.105-.17.521.521 0 0 0-.034-.074l.188-.188zm-.809-.363.286.119a.537.537 0 0 1 0 .613l.21.133-.19.153v.349l-.153-.119a.714.714 0 0 0-.01-.103c-.011-.072-.022-.145.01-.197.05-.076.056-.195.056-.306h-.237v-.16l.272-.154-.279-.146.035-.182zm-1.373 1.06.047.056c.031.037.062.074.1.111l.125-.111c-.017-.012-.031-.026-.046-.04-.054-.053-.105-.104-.226-.016zm-.07-.376.133-.077.195.167a.258.258 0 0 1-.314-.07l-.014-.02zm.858.118v.098l.146-.098h-.146zm.264-.16h.042v.14h-.041v-.14zm-.223-.195h-.125v.146c.188.007.188-.056.125-.146zm-.195-.44h.042v.147h-.042v-.147zm.063.656h-.167v.035h.167v-.035zm-.593-.934.21.25-.293.05.083.104h-.118c-.107-.089-.04-.13.034-.177.066-.041.138-.086.098-.172l-.014-.056zm2.789-2.175v.146h-.398l.398-.147zm-1.297-.99.056.055.063.021a.222.222 0 0 0-.119-.076zm-.042-.126v.133a.132.132 0 0 1-.083-.126l.083-.007zm.168.774-.09-.077-.203.377v.37a2.11 2.11 0 0 1 .23-.133.957.957 0 0 0 .003-.2c-.006-.117-.012-.23.06-.337zm-.913.084.153.146-.307-.105v-.341l.195-.098c.13.158.088.264.049.36-.011.027-.022.053-.028.08l-.063-.042zm-.028-.941h-.126v.146c.188.007.188-.056.126-.146zm2.83-3.026-.181-.098c.23-.007.23-.007.209.105l-.028-.007zm-.795.725.181-.056a.336.336 0 0 1-.07-.083 1.502 1.502 0 0 1-.076-.182h.14v-.097h-.175v.418zm-.55-.174v-.154l-.258.154h.257zm-.949.634.258-.16c0 .07 0 .111.05.167l-.308-.007zm.063-.488a.704.704 0 0 1 .126-.063l.028.007c.029-.006.058-.008.082-.01.028-.002.05-.003.057-.01l-.098-.286c-.258.062-.237.202-.195.362zm.007-.613.286.076-.126.16-.216-.202.056-.034zm.153.885-.048-.244-.216.167v.077h.264zm-.745.07h.139v.063l-.14-.063zm.244-1.478h-.251v.111l.25-.111zm-1.506 1.045h.042v.147h-.042v-.147zm.042.572V42.3l-.126.028v.125h.126zm-.21-1.004h.042v.216h-.041v-.216zm-2.753 3.967c.01.022.022.04.034.059.022.033.043.063.043.108l.237-.167h-.314zm.279-2.489a1.523 1.523 0 0 0 0 .251c.033.076.072.148.118.216-.285.05-.285.05-.285-.14v-.32l.167-.007zm.056-.272h-.056l.14.084-.084-.084zm-.056 2.092a.75.75 0 0 0 0-.133h.049l.062.147h-.125a1.843 1.843 0 0 0 0 .202h-.14v-.21l.154-.006zm.076-.502c-.104.028-.118.042-.167.14l.063.187c.033-.116.058-.188.084-.266l.02-.061zm.014-.558v.397c-.153.063-.195 0-.257-.132l.097-.119-.118-.292.278.146zm-.341 1.52.306-.042-.306-.147v.189zm3.534-.781.042.146.084-.048c0 .033-.025.066-.051.101a.362.362 0 0 0-.047.073.337.337 0 0 0 0 .118.232.232 0 0 1-.084-.174.908.908 0 0 0-.055-.118l.111-.098zm.028.404.049.05.028-.008a.16.16 0 0 0-.077-.042zm-1.171.565-.098.077.09-.084.008.007zm-.153.516c.074-.088.033-.156-.008-.224-.024-.04-.048-.08-.048-.125l-.223.196c.028.07.07.134.125.188-.123.118-.06.212.002.307.037.055.075.112.075.174.097-.028.097-.056.097-.09 0-.036-.062-.105-.062-.105.086-.051.063-.098.036-.15-.024-.05-.052-.104.005-.171zm.013.857h-.139v-.035h.14v.035zm-.585-.495c.016-.039-.006-.076-.028-.114-.018-.028-.035-.057-.035-.088l-.14.119c.06.044.13.073.203.083zm-.76.182a.565.565 0 0 0-.251.258l.251-.224v-.033a.86.86 0 0 1 .022-.01l.027-.012a.584.584 0 0 0-.027.011l-.022.01z" clip-rule="evenodd"/><path d="m93.512 48.538-.16.126v.285c-.265.133-.272.196-.112.649h1.52c.196-.003.39-.043.572-.119h.055v.063c.077.098.23 0 .251.118h.084c0-.097.042-.153.119-.202.076-.048.146 0 .167-.076.146-.286.446-.53.39-.879l.16-.125v-.363c.058.05.11.106.154.168 0 .055-.042.153.125.153l.224-.342h.236c0 .056-.055.098-.083.147a.556.556 0 0 0 .523.09c-.05-.139.076-.3-.09-.418.118-.063.062-.167.083-.25.02-.084.07-.161.14-.315l-.196-.048c0-.077.042-.126.063-.175l-.314-.07.572-.062c0 .105-.05.223-.077.362l.077.098-.084.105.07.083c0 .105-.112.23-.07.265.042.035.035.244.098.398l.257.09.147-.244-.098-.14a.314.314 0 0 0 .063-.132 1.528 1.528 0 0 1-.035-.397l.112-.23c.027.077.064.15.111.216.045.05.097.095.154.133-.133.083-.258.16-.37.243l.356-.07a.515.515 0 0 1-.07.426v.16l.307-.076c0-.119.049-.21.076-.356l.237.279c.251.167.321.153.419-.084a.493.493 0 0 1 .09-.118l.21.07-.126.139.397.167c.202-.083.202-.083.697.126.079.151.149.307.21.467.074.181.175.35.299.502a.459.459 0 0 0 .426.202c.216 0 .446.077.641-.049.077.133.258-.111.321.07.174 0 .362.077.515-.056a.297.297 0 0 0 .335.063c.16-.126.272 0 .397 0l.328-.188v-.182h-.216c0-.16.056-.313.077-.418a3.236 3.236 0 0 1-.698-1.352l-.153-.042.077-.077-.251-.153.195-.056-.537-.809v-.174l-.146-.084.104-.146-.146-.111-.167.083c.062-.14.097-.223.132-.314l-.174-.167v-.237l-.146-.035.097-.118a2.143 2.143 0 0 1-.188-.258 1.338 1.338 0 0 1-.084-.23l-.111-.28-.161-.048v-.307h-.125a.984.984 0 0 0-.077-.41.923.923 0 0 1-.216-.35c-.056-.132-.132-.257-.181-.397a3.79 3.79 0 0 0-.377-.753c-.153-.25-.146-.564-.411-.773-.035 0 0-.084-.035-.126a.815.815 0 0 0-.502-.6c-.132-.048-.25.056-.313 0-.063-.055-.293 0-.481-.062l.237.265-.335.16c.063-.126.084-.181.105-.23l-.105-.167h-.3l-.132.18a1.096 1.096 0 0 0-.042-.146 1.563 1.563 0 0 0-.32-.097 1.395 1.395 0 0 0-.377 0 1.52 1.52 0 0 0-.404.125c-.063.035-.07.14-.098.196l-.237.132.118.105-.209.104.182.147-.328.104v.223l-.237.307c.07.146 0 .216-.167.432l.174.063-.14.104-.111-.076c0 .272-.279.453-.335.697-.045.23-.145.445-.293.627-.174.21-.139.467-.355.656l.21.083-.294.112c-.07.153-.125.286-.188.418-.063.133-.132.202 0 .349v.041c-.23.098-.286.286-.453.426v.355l-.14.042v.14l.182.146-.174.07.202.264a1.389 1.389 0 0 1-.3-.048.13.13 0 0 1-.084-.067.13.13 0 0 1-.007-.108h-.07c0 .23-.209.377-.25.586l.076.084-.104.16.097.118-.146.238-.167-.077-.098.188.181.049c-.418.188-.411.418-.453.627zm10.52.523-.098.105.167.083v.307a.117.117 0 0 1-.097-.063l-.195-.453.223.021zm-.816-1.171h.153l-.104.188a2.4 2.4 0 0 0 .139.237l-.313-.125.125-.3zm-.697.341h-.042c0-.034 0-.076-.035-.111h.077a.713.713 0 0 0-.028.111h.028zm.328.928v.216l-.182-.188.182-.028zm-.168.244h.161c0 .048 0 .083.055.202l-.216-.202zm.168-1.018h-.042v-.14h.042v.14zm-.279-.446.167-.307.112.181-.279.126zm.048-1.276v-.035h.168v.035h-.168zm.063.09v.14h-.042v-.146l.042.007zm.049-.487c0 .09.056.174.091.272a.204.204 0 0 1-.211-.097.195.195 0 0 1-.026-.078l.146-.097zm-.174.697.181.188h-.181v-.188zm.139 1.659v.097h-.146l.146-.097zm-.188-2.294c.042.098.056.168-.167.091l.167-.09zm-.53 1.276-.181-.125h.209v.111l-.028.014zm0 .126v.146h-.042v-.146h.042zm-.153.495v-.189l.286-.097c0 .041 0 .062.034.083l-.32.203zm.209-1.562-.209-.09v-.238c.237-.041.104.14.174.21l.105-.07c.153.111-.042.132-.049.195l-.021-.007zm-.237-.55h.244c.014.045.026.092.035.139h-.251l-.028-.14zm.118-1.29h.042v.139h-.042v-.14zm.168.739c-.161.146.125.341-.168.46l-.062-.133c0-.167-.056-.335-.091-.523.195 0 .202.182.342.203l-.021-.008zm-6.902 3.06-.132-.112.195-.265c.146.182-.014.251-.014.384l-.049-.007zm.063.244c-.105 0-.105 0-.084-.154l.084.154zm-.105.37v-.293l.217.083c-.077.181-.077.181-.196.216l-.02-.007zm.349-1.695-.111-.09.132-.098.14.112-.161.076zm.112.74h.313l-.083.153-.23-.154zm.16.961L95.7 49.2l.147-.153c0 .09 0 .133.041.181l-.132.014zm.153-.37.056.056-.125.105-.182-.174.203-.042a1.136 1.136 0 0 0-.077-.195l.25-.16a1.705 1.705 0 0 1-.11.418l-.015-.007zm-.209-.85.14-.111.202.272c-.181.048-.189-.126-.32-.154l-.022-.007zm0-.46h.154v.105c-.056.063-.126.063-.119-.098l-.035-.007zm.607.635v-.349l.174.32-.174.029zm.766-.307v-.049l.077-.105c.025-.057.053-.112.084-.167h.083c0 .056.042.112.063.154l-.306.167zm1.227-.697h-.125v-.126h.153l-.028.126zm-.188-.607c-.035-.07-.063-.118-.084-.167l-.048.035v-.105h.3l-.168.237zm.572.697a.945.945 0 0 0 0-.132.14.14 0 0 1 .076.125l-.076.007zm0-.237v.084l-.23-.077a.857.857 0 0 1-.063-.641l.3.244a.112.112 0 0 1 .049-.063l-.07.049c.111.146.181.279.042.39l-.028.014zm.042-.697.202-.125v.286l-.202-.16zm.139.244.244-.174h.146v.098c0 .027-.076.167-.125.264l-.265-.188zm.167.948v-.327l.105.188h.153l-.125-.258h-.154v-.21c.07 0 .126 0 .14.05.014.048.104.195.181.334v.258l-.3-.035zm.265.223c0-.041 0-.083-.049-.202.105.084.147.126.217.175l-.168.027zm.168-.983v-.216l.18.182-.18.035zm.557.251-.153.119c.111.181.111.258 0 .467l.111.195h-.39l.174-.237c-.111-.077.077-.153 0-.209l-.063-.181v.056c0-.105.05-.21.077-.314h.119a.121.121 0 0 0 0-.049c-.126-.153-.21-.307-.063-.488.035-.042 0-.14-.056-.223.342 0 .133.342.398.355-.189.182-.07.37-.14.544l-.014-.035zm.516.844s0-.077.049-.202l.286.32-.335-.118zm.851-1.485v.237h-.314l.209-.174-.188-.175.216-.104-.195-.056.132-.334.133.111v.21l.174.153-.167.132zm.111.92-.181.098c-.007-.056-.035-.14.181-.063v-.035zm-.216-2.802v.105a.669.669 0 0 1-.112-.091l.112-.014zm0 .174c.035.084.063.133.084.181h.062c0 .07-.048.14-.076.224l.09.097h.203l-.231.14c.022.04.048.077.077.111l-.077.07.182.153c-.23.07-.223-.132-.37-.14l.091-.076-.07-.105h.147a.328.328 0 0 0 0-.139 3.602 3.602 0 0 1-.37.09c.091-.215.16-.348.244-.571l.014-.035zm-.251 2.008.237.244-.049.049a2.922 2.922 0 0 0-.244-.175l.056-.118zm.16.516-.076-.133c.097-.042.111.049.062.168l.014-.035zm-.048.25v.168c.118.073.23.157.334.25v.147l-.223.09-.091-.076a.976.976 0 0 0 0-.202 1.359 1.359 0 0 0-.076-.265c-.035.084-.105.112-.251.174.081-.1.18-.186.293-.25l.014-.035zm-.412-2.09-.062-.056h-.175v-.133l.202.105-.041.041.076.042zm-.167.543h.077v.119h-.042l-.035-.119zm.125.467s-.007-.007-.013 0h.013zm-.167.286c.039-.065.074-.133.105-.202l.16.209c-.035.14-.049.237-.07.335-.272-.042-.292-.084-.153-.3l-.042-.042zm.181-.404c-.083-.105-.083-.126-.069-.154.139 0 .216.063.216.251a.88.88 0 0 0-.161-.097h.014zm0-.433h-.139c0-.062.056-.118.077-.174a.688.688 0 0 0-.07-.07l.216-.111c.091.167-.07.237-.105.355h.021zm-.118-2.983c0-.09-.042-.175.181-.09l-.181.09zm.139-.844v.063h-.139l.139-.063zm-.097.349.111.125-.118.098-.126-.105.133-.118zm0 1.854c0 .09.042.174-.182.098l.182-.098zm0 .858-.168-.05.091-.139c0-.048-.049-.104-.091-.195.223.098.189.223.154.384h.014zm.181 2.042v.55h-.16l.09-.118-.272-.035.084-.188a1.184 1.184 0 0 1-.167-.083c.097-.16.244-.147.418-.126h.007zm-.593.872.126-.189c.118.126-.028.16-.14.189h.014zm-.083-3.13v.195c-.168.02-.216-.063-.293-.196h.293zm-.147.467h-.16v-.147h.126s.007.098.02.147h.014zm-.097-.823v-.167l-.189-.16.412-.175v.314l-.223.188zm-.126-1.255c.09 0 .09 0 .077.174a1.176 1.176 0 0 0-.07-.174h-.007zm.147-.94c.055.062.188.083.09.215-.048-.063-.174-.084-.083-.216h-.007zm.076 1.463v-.39h.042a.457.457 0 0 0 0 .09l.07.07-.112.23zm-.153-2.712a.083.083 0 0 1 .056 0c0 .035.076.07.083.105.007.116.007.232 0 .348h-.07l-.167-.306c.021-.035.05-.091.084-.147h.014zm.3.732-.398.126v-.258l.398.132zm-.872-.774.112.426-.077-.063a1.37 1.37 0 0 1-.118.146h-.063c0-.125 0-.25-.049-.383l.195-.126zm0 2.872-.139.077c0-.077-.042-.181-.07-.306l.189-.16c0 .04.034.069 0 .097-.035.028-.056.146-.084.223l.104.07zm-.041-.55.111-.077c.021.098.021.098-.097.077h-.014zm-.558-2.091v.111h-.042a.937.937 0 0 0 0-.119l.042.008zm-.09-.265-.126.111-.119-.105.119-.111.125.105zm-.252-.224h.168v.035h-.168v-.035zm.063.858.307.25c-.154.057-.154.057-.237 0l-.168.07-.041-.034c.07-.05.104-.126.174-.258l-.035-.028zm.042 1.673v-.133l.237-.048-.237.181zm.132.404-.132-.202h.132v.202zm-.09-.913h-.042v-.209h.042v.21zm.041.188c-.083 0-.083 0-.07-.174a.986.986 0 0 1 .105.202l-.035-.028zm.042-.516c.091 0 .09 0 .077.168a1.53 1.53 0 0 0-.042-.14l-.035-.028zm-.697 1.395-.14-.105.07-.146c0-.05-.139-.119.05-.188l.146.223-.126.216zm0 .202h-.14V44h.14v.035zm-.07-1.43c.14.029.105.022.063.015l-.063-.014zm-.055-1.017c.14.077.181.16.111.272-.07-.042-.111-.126-.048-.258l-.063-.014zm.042 1.687h-.056v-.537l.258.175a1.07 1.07 0 0 1-.14.376l-.062-.014zm.041-.823a.613.613 0 0 1-.09-.362h.209c.028.132-.014.25-.056.376l-.063-.014zm.07-1.24-.174.048c.014-.055.084-.076.237-.035l-.063-.013zm-.146 2.913h.146l-.063.182v.042a.408.408 0 0 1 0 .097h-.09l-.175-.049.182-.271zm0 .468v.257l-.188-.202.188-.056zm-.084.39-.063.188.14-.07c0 .042 0 .084.063.154l.216-.265c0-.098-.063-.188-.105-.3h.244v-.104a1.941 1.941 0 0 0-.09-.251l.167.048a.46.46 0 0 0 .09-.174c0-.056-.049-.118-.076-.174l.46-.21c.118.161.341.28.3.517.223.09.118.306.244.446.1.126.188.262.264.404l-.07.077.217.167.056-.049.18.23c0-.063.043-.104.07-.18l.161.25-.265.174v.133l.153.056v.048l-.306-.07-.356.293-.125-.097-.342.09.132-.125h-.062a1.253 1.253 0 0 0-.46 0c-.119.049-.244 0-.293 0-.049 0-.251 0-.37.035v.3l.21.23a.608.608 0 0 1-.147 0 2.76 2.76 0 0 1-.314-.105c.02-.192.11-.37.251-.502 0-.125-.18-.16-.25-.279-.07-.118 0-.181.048-.293l.133-.041-.203-.077.293-.153-.272-.035v-.126l-.125.056-.133-.056c0 .049-.076.09-.111.133l-.098-.042a.413.413 0 0 1 0-.174.797.797 0 0 0 0-.126l-.285.112c.074-.108.166-.202.271-.28v.161c0 .042.063.077.084.126.02.034.046.065.077.09l.07-.195-.063-.056c.202.05.258.05.48.105l-.09-.014zm-1.213-.133c-.167-.139-.146-.195-.111-.25l-.084-.098.118-.105.37.098-.216.132.216.077v.16a.328.328 0 0 1-.202 0l-.09-.014zm-.105-.83v-.313h.133l.126.411-.258-.097zm.628 1.158.098.07a.905.905 0 0 1-.39.07l.292-.14zm.132-2.44c.122.17.174.38.147.586a.546.546 0 0 1-.168 0c-.048-.809-.104-1.08.272-.99l-.25.404zm.23-1.018v.154h-.007s0-.077-.034-.126l.041-.028zm-.125.293h.14v.21l-.217-.07-.09.076v-.3l.167.084zm-.21 1.346c0 .048 0 .048-.055.055-.056.007 0-.034 0-.048l.056-.007zm0 .543a.182.182 0 0 0-.055-.23c0-.062.077-.118.132-.209 0 .09 0 .154.042.251l.216-.181v.132c-.202.426-.202.433-.055.781.025.05.046.1.062.154a.378.378 0 0 1 0 .125l-.432.07a.972.972 0 0 1-.07-.189c0-.139.05-.3-.111-.425l.272-.279zm-.431-.676c0 .119.07.244.111.39h-.265a4.93 4.93 0 0 0 .105-.306l-.14.104-.132-.104.32-.084zm-.523 2.621c0 .14-.056.307-.09.488a.63.63 0 0 0 .397.098.404.404 0 0 1 .306.063l.105-.063-.328-.258-.049.126h-.07a1.256 1.256 0 0 1-.167-.084l.084-.126-.09-.111.16-.042c-.05-.084-.105-.16-.154-.237l.168-.14-.154-.041c.033-.098.075-.203.126-.314l-.077-.077c.153 0 .146-.125.181-.209a.517.517 0 0 1 .195.425c0 .098.112.175 0 .293-.111.119.063.16.112.272l.202-.118a.942.942 0 0 0-.083-.084l.174-.14v-.25a.791.791 0 0 1 .14 0c.065.035.127.075.188.118v-.132h.139v.132h-.174c.034.119-.091.167-.147.223.026.063.047.129.063.195l.258.07-.258.32c.146.203.07.419.09.614l-.216.21.21.076-.077.077.077.07c-.196.132-.196.125-.412 0v-.238h.119c.125-.16 0-.278-.084-.411l-.097.07-.07-.16-.133.083c.154.035.105.133.063.188a1.066 1.066 0 0 0-.23.656v.146l.14.23-.272-.09c-.05-.161-.084-.293-.133-.447l.202-.181-.209-.118.16-.05-.257-.418a.383.383 0 0 1-.39.154c.132.14.069.306.09.46.02.153.077 0 .125-.035.063.055.122.116.175.181h-.328l-.223-.167.09-.153-.209-.07.175-.049c-.168-.195.041-.446-.147-.697l.168-.042c0-.104.041-.237 0-.328-.042-.09 0-.223 0-.327a.97.97 0 0 1 .09-.307h.23l-.174.3.3.376zm0 1.227h-.14v-.063l.14.063zm-.307-3.102h.195l-.195.216v-.216zm.063.342v.07h-.147v-.035l.147-.035zm-.084.697-.077-.084.154-.056-.056-.09.049-.042.188.111v.21l-.307.174-.111-.09.16-.133zm-.397.9.216.083h-.216v-.084zm0-.37v.118h-.042v-.118h.042zm-.098.223-.111.076c.055-.09.055-.09.18-.07l-.069-.006zm-.16.418h.132c.08.054.157.112.23.174h-.258c.056.16.258 0 .356.126l-.188.202v.202l-.168.049v.118h.16c0 .154 0 .328-.09.44-.09.111-.035.292 0 .432l-.14.097h-.041v-.3c0-.097-.035-.174 0-.216.035-.041-.09-.174-.056-.278a1.274 1.274 0 0 0 0-.328l.167-.049c0-.07 0-.153-.048-.25h.041a2.457 2.457 0 0 0-.188-.182h.195l-.104-.237zm-.732 2.168h.14v.056h-.14v-.056zm.25.697-.222-.195.362-.09c.154.132.063.208-.07.299l-.07-.014zm.14-1.596h-.209v-.112l.056-.042.153.154zm-.195-.523.056.056a.188.188 0 0 1-.084-.035l.028-.021zm.063.077a.132.132 0 0 1 .083.062l-.139.133-.126-.105.182-.09zm.049.892a.355.355 0 0 1-.189.153 1.07 1.07 0 0 1-.07-.132l.259-.021zm-.767.815.111-.076c.056.111.056.111-.07.09l-.041-.014zm0-.592h.25l-.25.111v-.111zm22.28-1.164c.104.196 0 .398.048.6a.269.269 0 0 1-.055.146c.027.07.046.142.055.217v1.317c0 .167 0 .335.049.53l.314.307.153-.07c.312.12.655.135.976.042a.503.503 0 0 0 .579 0s.063.07.09.07c.367.07.743.07 1.109 0 .056 0 .146 0 .223.048.29.08.595.08.885 0a3.489 3.489 0 0 0 1.855 0l.069.181h.209c0-.132 0-.278.189-.313l-.3-.39a.424.424 0 0 1 .23 0c0-.098-.042-.16-.056-.238-.014-.076 0-.271.056-.439h.125a.961.961 0 0 1 0 .516.481.481 0 0 1-.097.188s.062.042.125.098.056.167.098.293h-.154c.035.111.077.216.119.334l1.213.07.369-.279c-.034-.063-.055-.118-.104-.223l.223-.097c-.153-.147-.091-.258-.091-.377a1.934 1.934 0 0 0-.042-.355c0-.119.126-.23 0-.335l.084-.126a1.598 1.598 0 0 1-.07-.32.594.594 0 0 0-.16-.481.568.568 0 0 0-.153 0v.042c.061.052.11.116.146.188h-.16v-.168a.83.83 0 0 1-.244-.139c-.23 0-.418 0-.6.056a2.785 2.785 0 0 0-.362.09v.265l-.272.16.181.077v.356l-.132.111c-.098-.278-.265-.53-.175-.836l.07.049h.049c.049 0 0-.196 0-.321l-.091.084c-.153-.07-.279-.126-.425 0-.146.125-.132 0-.139-.07-.119.049-.23.146-.37 0-.139-.146-.146 0-.258 0 .049.105.07.167.105.25-.195 0-.251-.187-.349-.243l-.265.063.168-.196c-.251.063-.426.203-.6 0a.487.487 0 0 1-.09.077 2.388 2.388 0 0 0-1.193-.063l-.299-.467c0-.209.069-.446.097-.655l.363-.335c.265.057.537.08.808.07l.049-.174.195.181.335-.056.397.07.189-.174a.879.879 0 0 0 .697.16l.146-.146.174.16c.126 0 .258 0 .356.084.098.083.07 0 .098 0l-.091-.237c.091 0 .146 0 .16.035a.42.42 0 0 1 .049.132h.209l.056-.167h.202c.063-.272.119-.523.181-.788l-.16-.077v-.09l.167-.077c-.174-.133-.09-.342-.174-.495.188-.223 0-.467.091-.697a1.03 1.03 0 0 0-.342-.07c-.139 0-.279-.104-.376 0-.098.105-.377.042-.565.084-.258-.174-.523 0-.788 0l-.069-.063c-.293.181-.558-.07-.837 0-.279.07-.6-.049-.857.098l-.091-.063-.251.126-.404-.342c.069-.383-.098-.78.118-1.122l.418-.203a.82.82 0 0 0 .133.077l.474-.174.209.174c.188-.056.363-.084.418-.25a.494.494 0 0 1-.153-.161h.16v.16c.069.049.13.108.182.174l.104.056.202-.181.579.146.125-.097.189.097.132-.09c.101.029.203.052.307.07h1.018c.111 0 .271.034.327 0 .056-.035.167 0 .258-.05.091-.048.202-.048.293-.062.056-.154.104-.293.167-.425.063-.133 0-.307-.063-.46-.062-.154 0-.14 0-.21 0-.07 0-.195-.062-.264a.201.201 0 0 1 0-.16c.049-.147.104-.294.16-.447-.153-.118 0-.314-.111-.474l-.44-.21c-.139.078-.327.14-.418.091a.696.696 0 0 0-.746.112 1.567 1.567 0 0 0-.62 0l-.175.265c-.23-.056 0-.167-.055-.251l-.697.042a1.447 1.447 0 0 0-.698.111 1.11 1.11 0 0 0-.32-.132.567.567 0 0 0-.398.084c-.125.09-.278-.042-.418-.042-.139 0-.265.188-.404 0a2.383 2.383 0 0 0-.697.076c-.154.056-.321.105-.419 0-.35.053-.704.084-1.059.09-.07.099-.07.266-.3.231 0-.07.049-.132.084-.21h-.321c-.056.092-.104.182-.174.287.042.125-.084.306.076.446a.195.195 0 0 1 0 .188c-.16.3-.041.6-.069.9 0 .069.049.132.076.195-.16.244-.048.502-.104.83h.16a1.704 1.704 0 0 0-.132.452v1.394c0 .091.153.16 0 .258-.052.267-.035.543.049.802 0 .125-.084.258-.056.279.028.02-.035.16.049.237.083.077 0 .202-.056.3-.056.097-.174.209-.174.279zm8.163 2.064-.223.167v-.181l.223.014zm-.175-.934v.132h-.244l.244-.132zm-.697 0c.042.125.091.25.14.39l-.14.049c0-.14-.055-.272-.09-.425l.09-.014zm-.195.467.251.153-.084.09.3.356h-.265l-.202-.209v-.39zm.349.697-.237.223-.168-.244.405.021zm-1.464.802v-.265l.153.181-.153.084zm.139-1.896c0 .062 0 .111.042.16l-.16.049.083.209c-.244-.049-.244-.049-.272-.286l.307-.132zm-.174.62a1.195 1.195 0 0 1 .181.99c-.056-.07-.146-.126-.139-.154.063-.264-.23-.41-.209-.648l.167-.188zm-.621-.746.21.286h-.21v-.286zm-.181.481v-.084c.398.05.377.349.398.614 0 .056-.056.111-.098.209l.223.167-.195.182v.41c-.077-.09-.105-.132-.174-.222-.07-.09.062-.398.104-.635h-.251v-.195l.279-.174-.286-.272zm-1.241 1.143c-.048-.083-.09-.153-.174-.313l.321.153-.147.16zm.649-.362c0-.084 0-.112.174-.056l-.174.056zm.32-.244v.132h-.041a.811.811 0 0 1 0-.14l.041.008zm-.083-.697v.216h-.049a1.947 1.947 0 0 0 0-.216h.049zm-.321.439h.126c.069.111.062.181-.126.167v-.167zm0-.488v.132h-.042v-.139l.042.007zm0 .697a.271.271 0 0 1 0 .07h-.139l.139-.07zm-.606.14-.133-.126.14-.118c.015.05.034.098.055.146l.237.084-.299.014zm.097-1.116.154.223h-.293l.076.126h-.146v-.182l.209-.167zm-.627-.105h.042v.16h-.042v-.16zm-.195.886c.041-.126.076-.258.125-.411h.098c.125.139-.056.23-.056.348l.09.09c-.041.12-.076.23-.125.35h-.077c-.216-.022.077-.175-.09-.293l.035-.084zm3.583-3.702h.049c0 .042-.049.084-.042.126a.55.55 0 0 0 .069.16l-.083.049-.23-.188.237-.147zm0 .419.062.132c-.111.084-.23.035-.432.035l.37-.168zm-.683-.468c0-.097 0-.167-.049-.313l.188.174-.139.14zm.244-.94-.286.208c0-.055-.049-.083-.042-.104.007-.021.042-.133.272-.021l.056-.084zm-.865.11a.982.982 0 0 1 0 .154.18.18 0 0 1-.061-.062.189.189 0 0 1-.023-.084l.084-.007zm-.125 1.22.202-.39.076.063c0 .202-.041.404-.062.642l-.216.125v-.44zm-.621-.264.119.244-.265-.16v-.37l.251-.14c-.084.273.007.419-.161.51l.056-.084zm0-1.039v.244l-.174-.209.174-.035zm-.697 1.631c0-.048 0-.097-.049-.23l.216.203-.167.027zm0-1.547.042.195.091-.056a.965.965 0 0 0-.098.196.465.465 0 0 0 0 .139.344.344 0 0 1-.084-.202.764.764 0 0 0-.062-.16l.111-.112zm.077.892v.293l-.147.132c-.048-.104-.083-.202-.125-.292l.272-.133zm-.781.488-.202-.188.202-.112v.3zm.105-.37h-.182v-.118h.154c-.001.075.006.15.021.223l.007-.104zm-.196-.697h-.139c-.07-.202.174-.118.244-.209 0 .077-.056.154-.091.237h.154v.377c-.133.09-.133.09-.356.063l.188-.175v-.292zm4.817-4.628v.14h-.034a.732.732 0 0 1 0-.133l.034-.007zm-.599.035v.139h-.042v-.14h.042zm0 .543-.181-.097c.188.076.188.076.167.202l.014-.105zm-.802.9v-.314c.077.132.112.195.154.279l-.154.035zm.154-1.506v.146h-.126c-.084.035-.077-.035.112-.042l.014-.104zm-.168.362h.175v.035h-.175v-.035zm.168.788h-.147a.588.588 0 0 0 0-.118c.07.041.147.041.133.223l.014-.105zm-.67.063v.118l-.153.035a1.192 1.192 0 0 0 0-.146l.153-.007zm-.697.885h-.293l.293-.216v.216zm-.23-1.269a.776.776 0 0 0 .133.063.69.69 0 0 0 .16 0c0 .056-.07.112-.125.188l.132.349-.3.09v-.271l.042.041c0-.055.042-.125.084-.236l-.168-.175.042-.049zm.112.746c0 .119.035.188.049.28h-.265v-.084l.216-.196zm-.697.405v-.07h.139v.042l-.139.028zm.111-1.687-.097.209c0-.112 0-.147-.042-.202l.139-.007zm-1.324 1.254v.133h-.042v-.126l.042-.007zm0 .468v.146h-.126c-.07.028-.063-.042.126-.042v-.105zm-.182-.942v.216h-.041v-.202l.041-.014zm-.739 7.494h.154a.16.16 0 0 1-.147.07l-.007-.07zm.119.697-.091-.18c.077.16.189.09.091.313v-.133zm.042-.334h.139v.042h-.139c.013.028.02.059.021.09l-.021-.132zm0-.404a.166.166 0 0 1 0-.077v.077zm.223 1.526v.042h-.14v-.07l.14.028zm-.453-1.826.23-.237c.07.14.111.244.195.418l-.425-.181zm.139-1.346h.14a.204.204 0 0 0 0 .07h-.147l.007-.07zm.147-2.412h-.14v-.223h.161l-.021.223zm.09.154h-.056v-.154a.182.182 0 0 1 .105.286l-.049-.132zm-.223-4.434h.119c0 .042 0 .084.035.14l-.154.034v-.174zm.126.697a.204.204 0 0 0 0 .07h-.147v-.042l.147-.028zm-.084.802v.063h-.139v-.042l.139-.021zm-.091 2.022v.236c-.055-.07-.09-.104-.139-.174l.139-.063zm.14 1.136a.54.54 0 0 1 0 .474l.181.083-.209.175c-.049.14.174.237.049.39-.126.154.132.251 0 .356 0 0 .062.076.062.118 0 .042-.041.07-.097.098 0-.181-.272-.328-.077-.53a.521.521 0 0 1-.139-.516h.146a1.008 1.008 0 0 0-.167-.132c0-.126.118-.3.069-.433a1.989 1.989 0 0 1-.076-.453c.188.286.174.293.279.51l-.021-.14zm-2.252.585h.314l-.237.175c-.014.07-.028.028-.056-.035l-.021-.14zm.279-1.108a.91.91 0 0 0 0 .195l-.153-.146.097-.203h.133a1.537 1.537 0 0 0-.056.293l-.021-.14zm.118.37h-.125a1.822 1.822 0 0 0 0 .209h-.139v-.223h.139a.976.976 0 0 0 0-.133h.049c.056.188.076.244.097.286l-.021-.14zm-.048-.656-.272-.153.118-.168c-.035-.07-.062-.146-.125-.292l.279.118v.495zm0 1.108-.307.042.035-.195.272.154zm.446 3.075c0-.049 0-.09-.035-.133h.07l-.035.133zm.125.439c0-.077 0-.112-.035-.167h.258l-.223.167zm0-1.102c.189.084.195.091.209.203-.048.041-.299.09-.223-.063l.014-.14zm-.09-.334a.203.203 0 0 1 0 .035.204.204 0 0 1 0 .07l-.091.076.049-.14v-.048a.709.709 0 0 0 .042-.237c.188-.056.285 0 .355.202l-.355.042zm.174-.697a.182.182 0 0 1 .036.108.183.183 0 0 1-.036.108c-.049.056-.153.07-.279.118.028-.028.14-.097.265-.188l.014-.146zm.613.85.133.37-.216-.265.083-.105zm.077 1.485h-.167c0-.049 0-.09-.049-.23.054.131.119.257.195.377l.021-.147zm0-.39h-.139l.104-.195a1.394 1.394 0 0 0 0 .341l.035-.146zm-.265-1.29.147-.118c0 .083 0 .153.041.292l-.188-.174zm0 1.394h.14a.098.098 0 0 1 0 .042h-.133s-.021.126-.028.105l.021-.147zm.286.99c-.098-.077-.153-.125-.272-.209h.321l-.049.21zm.195-4.615v.133h-.042v-.133h.042zm-.195 1.883-.119-.112v-.174l.224.174-.105.111zm-.035-3.11-.063.042c0-.056-.048-.111-.069-.174l-.042.042v-.244l-.16-.042v-.307l.355.202a.87.87 0 0 0-.077.126c0 .3.021.39.035.502l.021-.147zm-.132-.955-.042.042h-.174v-.153l.216.111zm-.133-.453h.174v.042l-.174-.042zm.181.495-.069.063v-.063h.083v-.279l.21.244-.224.035zm.126-1.15c0 .077 0 .118.042.181h-.3l.258-.181zm-.07-.202c-.167 0-.216-.063-.258-.237l.286.125s-.042.23-.049.23l.021-.118zm-.32-.516h.174v.042h-.174v-.042zm0 2.942v-.154l.292.126.119.425h-.154c.182.126.001.363.161.481l-.154.14v.055c.048.11.09.221.126.335 0 .056 0 .14-.077.14l.091.146c-.091.09 0 .244-.063.32-.063.077.091.258.049.384a.36.36 0 0 1-.328-.342v-.634l.189-.077-.168-.056c-.049-.111 0-.25-.097-.355 0 0-.063-.16.076-.174l.063.062-.07-.055v-.537s-.034 0-.069-.07l.202-.146-.188-.014zm-.265-1.54v.153h-.098a.184.184 0 0 1 .07-.008l.028-.146zm-.196.173c0 .258-.069.189-.181.112.07.063.119.028.161.035l.02-.147zm.091.468c.042.139.077.278.119.425l-.098.041a.43.43 0 0 1-.14-.212.433.433 0 0 1 .001-.255h.118zm.084-.098c0-.09-.035-.16-.042-.216l.091.181-.049.035zm-.119-2.405h.035a.876.876 0 0 1 0 .125h-.07l.035-.125zm.161 1.269-.14.139c-.125 0-.223-.07-.195-.25l.335.11zm-.203.216c.063.125 0 .223-.111.3l-.098-.091.209-.21zm-.237 2.928a.896.896 0 0 0 .091-.628 1.438 1.438 0 0 1 .174-.697.172.172 0 0 1 .077-.063h.077c0 .272.244.53 0 .809l.083.084a1.535 1.535 0 0 0-.146.376c0 .219-.028.437-.084.648l-.09.084c.23.077.216.307.376.467l-.23.133c.16.139 0 .25 0 .362a1.197 1.197 0 0 1-.251 0c0-.098 0-.181.035-.32l-.133-.084c0-.154.182-.244.042-.412-.139-.167 0-.271-.042-.41l.168-.057-.202-.146.216-.098-.161-.048zm.46.111a.976.976 0 0 1 0-.132h.07v.132h-.07zm-.871 1.61c.063-.167.063-.167.251-.174l-.251.174zm-.104-3.318v-.537c.244 0 .132.14.16.224l.125.306-.285.007zm.285-.767-.146-.07h.056l.09.07zm-.16-1.721.146.132-.153.181-.118-.209.125-.104zm0 1.17v.12c-.112.062-.181.062-.174-.112l.174-.007zm-.091.203c0 .076 0 .153.035.25a1.035 1.035 0 0 1-.223-.16l.188-.09zm-.376 4.88h.042v.153h-.042v-.153z"/><path fill-rule="evenodd" d="M111.248 40.297a5.297 5.297 0 0 1-.671-.047c-.143 0-.257.063-.373.127a1.292 1.292 0 0 1-.198.096l-.349-.125a.432.432 0 0 0-.113.02c-.075.02-.151.04-.249-.02-.101-.063-.182-.016-.259.028-.035.02-.069.04-.104.049-.048.012-.083-.024-.121-.063-.05-.05-.104-.107-.199-.063l.09.118a1.142 1.142 0 0 0-.801 0 1.214 1.214 0 0 0-.495-.076c-.114.055-.213.023-.312-.008-.077-.025-.154-.05-.239-.034a4.206 4.206 0 0 1-.409.047l-.177.016c-.115-.103-.23-.058-.35-.01-.083.032-.168.066-.256.052l-.029.1c-.044.154-.083.292-.118.402 0 .155.031.296.059.43a3.3 3.3 0 0 1 .039.204l-.105.035c0 .167 0 .3.056.432.023.053.017.106.012.157-.008.077-.016.15.072.212-.103.084-.092.18-.082.277.005.04.009.081.005.12a1.952 1.952 0 0 0-.003.266l.003.132.003.078c.007.112.014.23-.093.32a.482.482 0 0 1-.084.592l.146.125a.106.106 0 0 0-.048.05c-.046.082-.039.172-.031.264.01.117.021.236-.081.342.1.051.094.132.088.215-.005.073-.011.147.058.203a.162.162 0 0 1 0 .16c-.08.062-.074.132-.068.202a.357.357 0 0 1-.001.098 3.29 3.29 0 0 0-.042.383.206.206 0 0 0 .049.168c.03.037 0 .065-.028.093-.036.034-.07.066.028.109a1.14 1.14 0 0 1 0 .586c-.038.074-.025.17-.013.266a.965.965 0 0 1 .013.138.66.66 0 0 0 .041.237c0 .028-.018.053-.036.078-.035.048-.069.094.036.159.106.064.072.11.037.159-.018.024-.037.05-.037.078a.254.254 0 0 1-.01.059c-.011.04-.022.08.01.108.088.234.114.486.077.732a.627.627 0 0 0 .119.44l.114.023v-.293l-.146-.31.307.115a.247.247 0 0 1-.037.067c-.037.055-.078.115-.019.185.067.081.089.175-.007.254.438.079.883.112 1.328.098 0 0 .035-.098.063-.168l.188.168.788-.084.098-.084c-.016-.073-.01-.149-.004-.225.011-.132.022-.264-.08-.388a.984.984 0 0 0 .077-.23v-.44a1.01 1.01 0 0 0 0-.431c-.036-.075-.019-.14-.002-.202.016-.06.032-.117.002-.182-.04-.083-.046-.108-.054-.14-.005-.019-.01-.04-.023-.076l.216.077.16-.133h.349l.063-.146c.06.071.137.066.212.06.064-.004.126-.008.171.038.044.043.107.048.168.052.074.005.144.01.167.087.019.066.086.07.156.073l.016.001v-.113l.137.152a.104.104 0 0 1 .021.024l.024.026h-.01a.046.046 0 0 1 .004.011v.272h.251v.147c.108.132.201.27.296.41a9.2 9.2 0 0 0 .199.287 5.7 5.7 0 0 0 .27.323c.161.184.34.388.462.583a.816.816 0 0 0 .76.383c.28 0 .557.015.835.03.186.01.372.02.559.026.091 0 .188 0 .272-.035a.175.175 0 0 1 .153 0c.134.094.282.093.429.093.06 0 .119-.001.178.005a.07.07 0 0 0 .042 0l.09-.272a20.2 20.2 0 0 0-.578-.802c-.024-.03-.068-.055-.11-.079-.056-.032-.109-.062-.113-.102-.028-.171-.135-.302-.242-.43a1.106 1.106 0 0 1-.211-.323.383.383 0 0 0-.412-.237 2.574 2.574 0 0 0-.334-.774v-.062a.827.827 0 0 0 .292-.136v.01l.001-.007-.001-.003.014-.01a.164.164 0 0 0-.007-.023c.028-.086.148-.09.286-.095l.042-.001c.073-.125.165-.238.272-.335a.906.906 0 0 0 .307-.3.746.746 0 0 1 .265-.306l-.07-.077.328-.3a.563.563 0 0 1 0-.153c.054-.118.1-.239.139-.363 0-.06.029-.117.058-.172.04-.079.08-.157.039-.246-.046-.103-.03-.177-.015-.25a.513.513 0 0 0 .015-.113c.107-.097.072-.191.036-.286-.017-.048-.036-.097-.036-.146a4.719 4.719 0 0 0-.125-1.038l-.23-.3c.072-.293-.11-.472-.31-.669a3.974 3.974 0 0 1-.157-.16l-.077.327a.561.561 0 0 0-.075-.162c-.051-.085-.094-.156-.022-.25l.118-.041-.23-.21h-.16v-.201l-.384-.217-.041.042-.698-.334a1.194 1.194 0 0 1-.746-.112l-.097.084c-.024 0-.049-.018-.075-.037-.028-.02-.057-.04-.085-.04a5.338 5.338 0 0 1-.229.005v.083h-.042v-.083zm-4.108.054h-.217l.217.086v-.086zm.014.497-.224-.086.189-.18.146.137-.111.13zm-.601-.115a.177.177 0 0 1 0-.065l-.14.036.14.029zm-.587.77c.034-.08.064-.151.091-.222.023-.062.015-.06.008-.06-.004.002-.008.002-.008-.005h-.105l-.119.296v.057l.098.015.035-.082zm1.635-.172h.035c.015.04.026.081.035.123h-.07v-.123zm-.383.449a.12.12 0 0 1 .02.07l-.077.008v-.123a.114.114 0 0 1 .057.045zm-.127.59h.14v-.065h-.14v.065zm.133.54v-.15h-.042v.15h.042zm.097 3.736c-.265.137-.314.216-.3.454l.196.08.056-.285.048-.249zm.021-1.486v.152h-.104l.104-.151zm-.132-.396-.182-.094c.21-.014.209-.014.182.094zm-.042-1.565h.049l.069.137h-.118V43.2zm-.168.93v.065l.14-.036-.14-.029zm.901 3.072v.152h-.042V47.2h.042zm-.049-3.158v.13h.035a.563.563 0 0 0 .063.318c.016.028-.006.071-.031.118a.297.297 0 0 0-.044.122c.033.057.057.12.082.183.077.197.155.398.496.433a.078.078 0 0 0 .018-.016c.016-.015.038-.037.065-.037.271-.06.553-.06.825 0 .044.04.123.022.199.005.064-.015.127-.03.161-.005.075.053.18.053.233.053.22-.082.458-.106.69-.068.415.004.816-.152 1.119-.435.124-.12.24-.247.357-.378l.093-.103v-.075a1.303 1.303 0 0 0-.098-.12c.01-.027.024-.055.037-.082a.395.395 0 0 0 .053-.165c.01-.026.017-.05.025-.075.017-.055.032-.104.058-.135a1.8 1.8 0 0 1-.143-.248.985.985 0 0 0-.352-.548 2.65 2.65 0 0 1-.293-.255l-.623-.105a1.435 1.435 0 0 0-.24-.068h-.953c-.045 0-.135.068-.135.068l-.135-.075-.181.09a1.095 1.095 0 0 0-.803 0l-.06-.045-.42.262c0 .046.014.089.027.132.027.083.053.164-.027.259-.067.08-.033.164-.005.235.023.056.041.103.005.132-.061.05-.031.183-.012.27.007.03.012.055.012.068v.15a.257.257 0 0 0-.028.04v-.023l-.07-.007zm-.209 1.875.139-.058.21.382a.223.223 0 0 1-.037.1c-.039.073-.082.151.037.24l-.14.237.07.072-.126.116a5.439 5.439 0 0 0-.139-.347l.195-.122-.097-.101.076-.065-.062-.08.083-.115-.209-.26zm-1.712 1.081-.175-.1c-.028.115-.028.115.175.1zm1.244 2.733h.07v-.13h-.042l-.028.13zm.761-3.829v-.122l.07-.008a.937.937 0 0 1 0 .13h-.07zm-.782-2.53h-.168v.05c.06.006.12-.012.168-.05zm.81-1.068-.23-.108c.149-.112.193.007.227.1l.003.008zm-1.998.98h-.168l.168.094v-.093zm.547-1.714c.025.035.047.066.068.1-.102.09-.153.044-.205-.002-.024-.02-.047-.04-.075-.05l.154-.129c.02.03.04.057.058.081zm-.002.518c-.024-.05-.045-.1-.063-.152-.049.137-.021.195.063.152zm-.552.288c.049-.086 0-.123-.084-.173h-.042v.065l.126.173v-.065zm1.027 4.074h.238c.048.113-.014.139-.089.17-.055.023-.117.048-.149.111v-.28zm-1.111-1.824v-.123h-.077v.123h.077zm-.07 1.017v-.065l.077-.072-.077.137zm.147-.253v-.158h-.154v.13l.154.028zm1.39-2.408c.003.048.003.096 0 .144h-.104l.104-.144zm-.125 2.798-.21.079v.36h.279a2.26 2.26 0 0 1-.139-.216l.195-.093-.125-.13zm-.077-4.615-.126.108c-.003-.041-.008-.078-.013-.115a1.944 1.944 0 0 1-.015-.13h.056l.098.137zm-.734 1.593v-.194l.238.086v.108h-.238zm.259-1.507-.042-.158-.217.158h.259zm1.18 5.798h.14a.157.157 0 0 1 0 .043h-.14v-.043zm4.821-2.236.063.18.056-.035a.326.326 0 0 0-.07-.188l-.049.043zm.168-1.99h-.405c.07-.115.125-.238-.042-.353l.209-.144-.09-.152c.021-.113.013-.225.007-.325-.012-.198-.021-.345.202-.345v.1c0 .042.013.08.025.116.025.072.049.142-.025.238-.083.107-.042.183.007.274a.845.845 0 0 1 .049.1l-.196.102.049.086c.21.022.21.145.21.303zm-.161 1.767a.29.29 0 0 0 0 .072h.007a.434.434 0 0 1 0-.072v-.017c.011-.02.036-.061.07-.178l-.07.152v.026c-.004.008-.007.013-.007.017zm-.244-3.31h.042a.95.95 0 0 1 .028.13h-.07v-.13zm.035.974h-.042a.088.088 0 0 0 .042 0zm-.035.865.216-.195.084.08c.042.072-.091.115-.3.115zm-.447-1.543c0-.145 0-.267-.119-.26a.275.275 0 0 0-.042.148c0 .052.014.104.042.148l.119-.036zm.663 2.653h-.042v-.151h.042v.151zm.028-3.13v-.143h-.16v.137a.676.676 0 0 0 .16.007zm.063 2.56-.105.102-.111-.231a.256.256 0 0 1 .021-.033c.044-.06.096-.133-.126-.205h.321v.368zm1.125-1.29c.078.052.054.104.028.16a.222.222 0 0 0-.028.092h.098c.014-.02.03-.039.046-.06.078-.098.162-.204.087-.3-.041-.052-.045-.112-.05-.169-.005-.07-.01-.137-.083-.177-.078-.043-.065-.075-.051-.106.009-.022.018-.044-.005-.068a.58.58 0 0 0-.042.347c.008.034.025.063.04.089.035.062.063.11-.04.192zm-.447.577-.336-.072c.028-.101.049-.21.063-.325l.273-.245v.642zm-.203-1.37c0 .114-.023.222-.049.342-.012.053-.024.11-.035.17l.098.086h.238c0-.08-.03-.152-.06-.225a1.233 1.233 0 0 1-.038-.1l.105-.15-.259-.123zm-.538-.455c.14.065.217.145.14.282-.115.053-.159-.01-.206-.08a.794.794 0 0 0-.032-.043l.098-.159zm1.845 2.214v-.13h-.07v.13h.07zm-1.174-1.853a.835.835 0 0 0 0-.123.136.136 0 0 1 .056.123h-.056zm.053-.386c-.056-.075-.113-.153-.179-.227-.054-.06-.067-.043-.083-.023-.009.011-.018.023-.036.023v.274a.893.893 0 0 0 .252.151l.091-.137-.045-.06zm-3.518.184h-.042c.16.108.209.022.042 0zm.013.534h.154v-.137h-.126l-.028.137zm.126.057v.123l-.216-.123h.216zm.615 0a1.261 1.261 0 0 0 0 .123h.035l.035-.123h-.07zm-.07-.375.077-.036.231.253h-.308v-.217zm-.608 3.98c-.146 0-.265 0-.335.138.147.021.266.021.335-.137zm.524.087h.14v.065h-.14v-.065zm.685.368c.07 0 .112 0 .084-.166l-.063-.065-.042.044.021.187zm.224-.296s-.056 0-.049.058h.056l-.007-.058zm-.161.008v.065s.007-.037 0-.065zm-.014-.318v.152l.105-.152h-.105zm.154-3.209-.266-.173.301-.007-.035.18zm-.615 3.96-.147-.383a1.336 1.336 0 0 0-.133.123l.084.108c0 .036-.021.066-.043.096-.013.018-.026.036-.034.055h.273zm.475-4.789v-.093c.007.11.007.22 0 .331-.055-.05-.023-.156-.008-.208a.127.127 0 0 0 .008-.03zm-.084.34h-.084v.05s.056.007.084-.05zm.252-.6a.896.896 0 0 0 .084.505c.034.072.006.16-.056.238a1.263 1.263 0 0 0-.126-.137l-.056-.05c.049-.599.077-.642.098-.599.021.044.056.044.056.044zm.675 4.476c.003.04.006.088.03.169.034.128-.015.186-.065.244-.022.027-.045.053-.06.087.055.195.097.332.146.49a.248.248 0 0 1-.307.073.85.85 0 0 0 0-.101l.161-.05a4.113 4.113 0 0 1-.088-.227 5.787 5.787 0 0 0-.045-.12 15.904 15.904 0 0 1 .174-.721c.048.07.051.105.054.156zm.603 2.072h.105c-.036-.041-.067-.082-.106-.133l-.104-.134c-.118.174 0 .224.105.267zm-.664 1.168v-.151h.042v.151h-.042zm.413 0s.056 0 .084-.065h-.091a.13.13 0 0 1 .007.065zm-.468-2.098.125.1-.076.08c.129.514.15 1.05.062 1.572h-.202c-.057-.034-.031-.07-.002-.11.032-.044.067-.093.002-.15a.204.204 0 0 1-.035-.077.208.208 0 0 1 .03-.166.206.206 0 0 1 .061-.06c-.098-.095-.082-.259-.074-.346l.004-.043c0-.028.015-.054.03-.081.016-.029.033-.058.033-.092l-.133-.122c.063-.166.119-.332.175-.505zm.663.656.154-.353h-.307c.049.144.09.238.153.353zm-.042 1.363v.065a.234.234 0 0 1 0-.065zm-.51-6.699c0-.044-.028-.084-.064-.135-.017-.024-.036-.05-.054-.081l-.231.043a.252.252 0 0 0 .133.175.24.24 0 0 0 .216-.002zm.685 5.776a.297.297 0 0 1-.056.101.536.536 0 0 1-.035.598.52.52 0 0 1 .07.505 1.166 1.166 0 0 1-.147-.504c-.045-.26-.079-.26-.118-.26v-.425l.286-.109v.094zm-.72-5.487h.14c0-.058 0-.087-.042-.202-.049.13-.077.202-.098.202zm-.216-1.111h-.161c0 .05.07.087.161 0zm-1.041 5.704v-.18a.302.302 0 0 1-.149-.075.049.049 0 0 0 .002-.012.156.156 0 0 0-.168 0c.08.068.146.117.165.019l.15.248zm-.28.173.056.065.063.202c-.026.035-.051.081-.074.122a1.03 1.03 0 0 1-.038.065c-.02.032.018.154.052.26l.032.108h.147c-.046-.141 0-.274.056-.44a1.91 1.91 0 0 0 .119-.505l-.098.08a.218.218 0 0 0 0 .072v.036h-.259l.021-.015a.289.289 0 0 1-.077-.05zm.091-5.682v.072h.266a15.377 15.377 0 0 0-.175-.49l.189-.087-.168-.166-.307.188.223.274c.021.032.03.071.025.11a.158.158 0 0 1-.053.099zm.007 5.054c.021-.025.042-.05.042-.079l-.161-.057h.168a.525.525 0 0 1 0 .079h.147c.042.144-.042.223-.154.223l-.07-.13c.007-.012.018-.024.028-.036zm.769-5.48.119-.108-.077-.08.209-.107h-.363a.201.201 0 0 0 .033.253.19.19 0 0 0 .079.042zm.049 5.091v.368l.209.05-.384.05.265.152v.28c-.121.116-.061.306-.02.362.041.058.041.173.041.173-.136.109-.087.217-.04.322.016.035.032.07.04.104l-.167.302.174.13-.188.13h-.189l.022-.051c.038-.09.07-.164.111-.273l-.182.086v-.202l.119-.1c-.033-.227-.065-.466-.098-.705l-.049-.356h.175a1.37 1.37 0 0 0-.033-.184c-.043-.191-.087-.385.124-.537l-.091-.1h.161zm.09.9a.198.198 0 0 0 .014-.013l.063.065a.41.41 0 0 0-.077-.043v-.01zm-.195 1.58v.034a.38.38 0 0 0-.028-.033h.028zm0 .034v.19h.056a.31.31 0 0 0-.056-.19zm1.97-2.267v-.023l-.011.007a.302.302 0 0 0-.045-.05l-.084.144.129-.094.011.016zm0 0v.179a.123.123 0 0 1 .049 0 .326.326 0 0 0-.049-.179zm-.196 2.37v.066h.14l-.14-.065zm.937-4.744-.119.108-.14-.13a1.06 1.06 0 0 1 .047-.142c.037-.097.076-.2.044-.233l-.047-.05c-.042-.045-.095-.102-.17-.173.091-.05.175-.05.175-.05.074.074.144.154.21.237v.433zm-.608-.692-.301-.065v.44l.126-.21.189.087c.056-.1.112-.195.167-.281l-.125-.108-.056.137zm-.196 5.56h.112v.108l-.112-.109zm-.07-.368c-.016 0-.017.02-.019.052a.3.3 0 0 1-.03.135l.35-.144-.154-.382a6.944 6.944 0 0 1-.012.067c-.019.115-.035.211-.135.272zm.734-2.416v-.166l.154.029v.137h-.154zm-1.041.151h-.252v.34a.192.192 0 0 1-.089.031c-.062.012-.115.022-.064.127l.286.108v-.159l.091-.108c0-.048-.032-.087-.061-.123-.014-.017-.028-.033-.037-.05l.126-.166zm.95-.836v-.447h.168a.809.809 0 0 0-.147-.23h.231c0 .02.005.04.01.06.011.042.023.087-.01.155-.049.101-.049.202-.049.296a.453.453 0 0 1-.14.267v-.144l-.063.043zm.692-1.58.153.145v-.245l-.153.1zm-.566.643-.133-.145.287-.079c.03.027.022.09.012.174-.006.05-.012.106-.012.165h-.196c-.043-.04-.017-.058.009-.077.017-.01.033-.022.033-.038zm-.035-1.234.279-.238-.279-.18v.418zm-.489 6.23-.259.166c-.049-.035-.049-.115-.042-.165h.301zm-.21-4.636s-.049 0-.112.043l.217.26c.119-.21 0-.26-.105-.303zm-.503.375v.151c.133.101.063.238 0 .346l.238.037-.21.223h-.188l.097-.1-.181-.203.181-.454h.063zm.629.404-.105.115a.547.547 0 0 0 .105.397c.049-.13.091-.26.133-.39l-.133-.122zm-.126-.34h.161l-.014.232h-.147v-.231zm.259-1.297v.613h-.273c.073-.067.059-.14.045-.212-.013-.067-.025-.133.032-.192-.041-.075-.021-.147 0-.22.021-.074.042-.15 0-.234l.02.006c.176.051.176.051.176.239zm-7.343 4.536h-.084c-.126-.087-.189-.094-.259-.036.012.046.026.092.042.137.084-.044.147-.072.426 0-.125-.072-.125-.101-.125-.101zm.244-3.072v-.375l.161.029-.161.346zm.301-.808h-.154c0 .166.063.166.175.108l-.021-.108zm-.084 1.486v.065h-.14a.054.054 0 0 1 0-.065h.14zm.014-1.14v-.036h-.168v.036h.168zm-.164 3.721c-.015-.137-.027-.26.185-.339a3.595 3.595 0 0 0-.062.134c-.021.047-.042.095-.071.155l.168.173-.217-.087-.003-.036zm.108-.714-.133.332.231-.245-.098-.087zm-.014-2.488v-.223l.133.223h-.133zm-.063 1.53v.453l.07.065.133-.122c0-.044-.02-.092-.04-.141-.027-.063-.053-.127-.037-.184.006-.022.015-.045.024-.07.033-.088.072-.194.018-.312h-.259c.208.143.132.25.1.297a.112.112 0 0 0-.009.013zm-.692-4.335h.042v.145h-.042v-.145zm.049 5.35v-.122h-.077v.123h.077zm.622-.129v-.281a.583.583 0 0 1 .063.022l.189.26h-.252zm.168-3.836.091-.159-.161-.108c.024-.097.04-.196.049-.296-.111.03-.132.104-.153.177-.015.055-.03.11-.085.14l.154.253-.161.043h.343l-.077-.05zm-.912.794a.097.097 0 0 1 .038.028l-.021.029-.062-.065a.1.1 0 0 1 .045.008zm1.017-2.554h-.427l.266.109a1.23 1.23 0 0 0 .161-.109zm-.908 6.545c-.029-.039-.029-.098-.029-.22.21.057.252.158.21.31-.102-.036-.154-.054-.181-.09zm3.248-7.915h.168v.044h-.168v-.044zm.776 5.704c.118 0 .125 0 .209-.194-.123-.044-.138.024-.152.092-.01.044-.019.088-.057.102zm-1.754 2.228h-.196V48.5l.196.245zm.377-1.968v.23l.161-.064c-.015-.04-.023-.062-.037-.08a.408.408 0 0 0-.124-.086zm-.496-5.17v-.037l.14-.028a.235.235 0 0 1 0 .065h-.14zm.678.165h-.308l.273.173a1.71 1.71 0 0 1 .035-.173zm.049 4.161a.186.186 0 0 1 0 .058l-.013.029c-.022.047-.048.103-.008.115.154.195.063.36-.049.526h-.189v-.288h.168l-.21-.649h.168v.21h.133zm1.229-.195-.083-.065-.231.195.196.123c.011-.03.026-.056.042-.086.024-.044.052-.094.076-.167zm-.628.217h-.14l.14-.065v.065zm.118-4.73v.122h.077v-.123h-.077zm-2.962 5.14v-.208c.121-.04.146.01.178.072.025.05.053.108.136.137h-.314zm.776-4.672-.154-.216-.147.144a.961.961 0 0 0 .294.08l.007-.008zm-.54 1.436c-.037-.028-.077-.059-.145-.102l.237-.036a.741.741 0 0 1 0 .115l-.055.05a.85.85 0 0 1-.037-.027zm-.061.237h.167v-.05c0-.051-.139-.008-.167.05zm1.181 4.723v-.245l.174.166-.174.08zm-.518-4.247c-.138-.068-.178-.02-.235.05a.713.713 0 0 1-.03.037c.119.063.161.017.209-.034a.314.314 0 0 1 .056-.053zm.336 3.605v.044h.168v-.044h-.168zm-.43.348a.222.222 0 0 0-.038.1.4.4 0 0 0 .042.238h-.14c0-.116.042-.289.049-.318.007-.029-.021-.1-.056-.1l.077-.073-.084-.087.238-.137c.005.104.005.207 0 .31h-.056c-.008.023-.021.045-.032.067z" clip-rule="evenodd"/></g><defs><clipPath id="a"><path fill="#fff" d="M.866.451h187v153.1h-187z"/></clipPath></defs></svg>