<svg xmlns="http://www.w3.org/2000/svg" width="624" height="384" fill="none"><path fill="#231F20" d="M114.69 167.67v48.03l2.61-.7c7.22-1.94 7.22-6.15 7.22-11.98v-15.7l15.78-4.24c.38-.51.82-1.02 1.38-1.51v-16.72l-.24.06v-.3l-.24.06v-.3l-.24.06v-.3l-.24.06v-.3l-.24.06v-.3l-.24.06v-.3l-.24.06v-.3l-.24.06v-.3l-.24.06v-.3l-.24.06v-.3l-.24.06v-.3l-.24.06v-.3l-.24.06v-.3l-.24.06v-.3l-.24.06v-.3l-.24.06v-.3l-.24.06v-.3l-.24.06v-.3l-.24.06v-.3l-.24.06v-.3l-.24.06v-.3l-.24.06v-.3l-.24.06v-.3l-.24.06v-.3l-.24.06v-.3l-.24.06v-.3l-.24.06v-.3l-.24.06v-.3l-.24.06v-.3l-.24.06v-.3l-.24.06v-.3l-.24.06v-.3l-.24.06v-.3l-.24.06v-.3l-.24.06v-.3l-.24.06v-.3l-.24.06v-.3l-.24.06v-.3l-.24.06v-.3l-.24.06v-.3l-.24.06v-.3l-.24.06v-.3l-.24.06v-.3l-.24.06v-.3l-.24.06v-.3l-.24.06v-.3l-.24.06v-.3l-.24.06v-.3l-.24.06v-.3l-.24.06v-.3l-.24.06v-.3l-.24.06v-.3l-.24.06v-.3l-.24.06v-.3l-.24.06v-.3l-.24.06v-.3l-.24.06v-.3l-.24.06v-.3l-.24.06v-.3l-.24.06v-.3l-.24.06v-.3l-.24.06v-.3l-.24.06v-.3l-.24.06v-.3l-.24.06v-.3l-.24.06v-.3l-.24.06v-.3l-.24.06v-.3l-.24.06v-.3l-.24.06v-.3l-.24.06v-.3l-.24.06v-.3l-.24.06v-.3l-.24.06v-.3l-.24.06v-.3l-.24.06v-.3l-.24.06v-.3l-.24.06v-.3l-.24.06v-.3l-.24.06v-.3l-.24.06v-.3l-.24.06v-.3l-.24.06v-.3l-.24.06v-.3l-.24.06v-.3l-.24.06v-.3l-.24.06v-.3l-.24.06v-.3l-.24.06v-.3l-.24.06v-.3l-.24.06v-.3l-.24.06v-.3l-.24.06v-.3l-.24.06v-.3l-.24.06v-.3l-.24.06v-.3l-.24.06v-.3l-.24.06v-.3l-.24.06v-.3l-.24.06v-.3h-.04v16.57l-.07.06c-3.17 2.83-3.15 5.88-3.13 9.11v.83l.25.25zm41.74 90.92c.05-2.23-.38-3.79-1.32-4.76-.89-.91-2.25-1.35-4.16-1.35-1.21 0-2.68.18-4.37.55l-3.5.74-.32 15.31 3.4-.55c7.25-1.17 10.14-3.96 10.28-9.95l-.01.01zm29.81-85.08 9.2-2.47-4.71-25.93-4.49 28.4zM493.57 65.88v-.84c.02-1.61.03-3.18-.36-4.48h-.02l-.12-.27-.12.03-.12-.27-.12.03-.12-.27-.12.03-.12-.27-.12.03-.12-.27-.12.03-.12-.27-.12.03-.12-.27-.12.03-.12-.27-.12.03-.12-.27-.12.03-.12-.27-.12.03-.12-.27-.12.03-.12-.27-.12.03-.12-.27-.12.03-.12-.27-.12.03-.12-.27-.12.03-.12-.27-.12.03-.12-.27-.12.03-.12-.27-.12.03-.12-.27-.12.03-.12-.27-.12.03-.12-.27-.12.03-.12-.27-.12.03-.12-.27-.12.03-.12-.27-.12.03-.12-.27-.12.03-.12-.27-.12.03-.12-.27-.12.03-.12-.27-.12.03-.12-.27-.12.03-.12-.27-.12.03-.12-.27-.12.03-.12-.27-.12.03-.12-.27-.12.03-.12-.27-.12.03-.12-.27-.12.03-.12-.27-.12.03-.12-.27-.12.03-.12-.27-.12.03-.12-.27-.12.03-.12-.27-.12.03-.12-.27-.12.03-.12-.27-.12.03-.12-.27-.12.03-.12-.27-.12.03-.12-.27-.12.03-.12-.27-.12.03-.12-.27-.12.03-.12-.27-.12.03-.12-.27-.12.03-.12-.27-.12.03-.12-.27-.12.03-.12-.27-.12.03-.12-.27-.12.03-.12-.27-.12.03-.12-.27-.12.03-.12-.27-.12.03-.12-.27-.12.03-.12-.27-.12.03-.12-.27-.12.03-.12-.27-.12.03-.12-.27-.12.03-.12-.27-.12.03-.12-.27-.12.03-.12-.27-.12.03-.12-.27-.12.03-.12-.27h-.05l15.98 37.24V65.72l.17.16zM44.44 188.51c0-4.44-1.5-6.42-4.86-6.42-1.23 0-2.72.25-4.68.77l-1.83.49v16.53l1.73-.46c6.25-1.68 9.64-3.91 9.64-10.9v-.01zM297.28 49.98v4.8l12.45-3.34v-5.33c.02-.87.03-1.68-.51-2.24-.51-.52-1.47-.77-2.95-.78h-.2v-1.57l-.12.03v-.3l-.24.06v-.3l-.24.06v-.3l-.24.06v-.3l-.24.06v-.3l-.24.06v-.3l-.24.06v-.3l-.24.06v-.3l-.24.06v-.3l-.24.06v-.3l-.24.06v-.3l-.24.06v-.3l-.24.06v-.3l-.24.06v-.3l-.24.06v-.3l-.24.06v-.3l-.24.06v-.3l-.24.06v-.3l-.24.06v-.3l-.24.06v-.3l-.24.06v-.3l-.24.06v-.3h-.04v8.24l-.11.06c-3.61 1.95-3.58 3.43-3.55 5v.42l.07.05zM44.88 224.69c0-5.67-1.53-7.98-5.29-7.98-1.14 0-2.5.21-4.14.66l-2.38.64v20.05l2.28-.61c6.95-1.87 9.53-5.32 9.53-12.74v-.02zm295.71-13.54c0-1.96-.46-3.42-1.39-4.35-.73-.73-1.74-1.1-3-1.1-.76 0-1.62.13-2.56.4-6.4 1.79-6.96 6.97-6.91 9.11l.38 43.85c-.02 2.49.74 3.78 1.38 4.42.7.71 1.67 1.07 2.88 1.07.81 0 1.74-.16 2.77-.48 6.49-2.05 7.05-7.3 6.99-9.46l-.54-43.46z"/><path fill="#231F20" d="M623.04 68.45V44.69c-.08-.04-.16-.07-.24-.11v-.13c-.08-.04-.16-.07-.24-.11v-.13c-.08-.04-.16-.07-.24-.11v-.13c-.08-.04-.16-.07-.24-.11v-.13c-.08-.04-.16-.07-.24-.11v-.13c-.08-.04-.16-.07-.24-.11v-.13c-.08-.04-.16-.07-.24-.11v-.13c-.08-.04-.16-.07-.24-.11v-.13c-.08-.04-.16-.07-.24-.11v-.13c-.08-.04-.16-.07-.24-.11v-.13c-.08-.04-.16-.07-.24-.11v-.13c-.08-.04-.16-.07-.24-.11v-.13c-.08-.04-.16-.07-.24-.11v-.13c-.08-.04-.16-.07-.24-.11v-.13c-.08-.04-.16-.07-.24-.11v-.13c-.08-.04-.16-.07-.24-.11v-.13c-.08-.04-.16-.07-.24-.11v-.13c-.08-.04-.16-.07-.24-.11v-.13c-.08-.04-.16-.07-.24-.11v-.13c-.08-.04-.16-.07-.24-.11v-.13c-.08-.04-.16-.07-.24-.11v-.13c-.08-.04-.16-.07-.24-.11v-.13c-.08-.04-.16-.07-.24-.11v-.13c-.08-.04-.16-.07-.24-.11v-.13c-.08-.04-.16-.07-.24-.11v-.13c-.08-.04-.16-.07-.24-.11v-.13c-.08-.04-.16-.07-.24-.11v-.13c-.08-.04-.16-.07-.24-.11v-.13c-.08-.04-.16-.07-.24-.11v-.13c-.08-.04-.16-.07-.24-.11v-.13c-.08-.04-.16-.07-.24-.11v-.13c-.08-.04-.16-.07-.24-.11v-.13c-.08-.04-.16-.07-.24-.11v-.13c-.08-.04-.16-.07-.24-.11v-.13c-.08-.04-.16-.07-.24-.11v-.13c-.08-.04-.16-.07-.24-.11v-.13c-.08-.04-.16-.07-.24-.11v-.13c-.08-.04-.16-.07-.24-.11v-.13c-.08-.04-.16-.07-.24-.11v-.13c-.08-.04-.16-.07-.24-.11v-.13c-.08-.04-.16-.07-.24-.11v-.13c-.08-.04-.16-.07-.24-.11v-.13c-.08-.04-.16-.07-.24-.11v-.13c-.08-.04-.16-.07-.24-.11v-.13c-.08-.04-.16-.07-.24-.11v-.13c-.08-.04-.16-.07-.24-.11v-.13c-.08-.04-.16-.07-.24-.11v-.13c-.08-.04-.16-.07-.24-.11v-.13c-.08-.04-.16-.07-.24-.11v-.13c-.08-.04-.16-.07-.24-.11v-.13c-.08-.04-.16-.07-.24-.11v-.13c-.08-.04-.16-.07-.24-.11v-.13c-.08-.04-.16-.07-.24-.11v-.13c-.08-.04-.16-.07-.24-.11v-.13c-.08-.04-.16-.07-.24-.11v-.13c-.08-.04-.16-.07-.24-.11v-.13c-.08-.04-.16-.07-.24-.11v-.13c-.08-.04-.16-.07-.24-.11v-.13c-.08-.04-.16-.07-.24-.11v-.13c-.08-.04-.16-.07-.24-.11v-.13c-.08-.04-.16-.07-.24-.11v-.13c-.08-.04-.16-.07-.24-.11v-.13c-.08-.04-.16-.07-.24-.11v-.13c-.08-.04-.16-.07-.24-.11v-.13c-.08-.04-.16-.07-.24-.11v-.13c-.08-.04-.16-.07-.24-.11v-.13c-.08-.04-.16-.07-.24-.11v-.13c-.08-.04-.16-.07-.24-.11v-.13c-.08-.04-.16-.07-.24-.11v-.13c-.08-.04-.16-.07-.24-.11v-.13c-.08-.04-.16-.07-.24-.11v-.13c-.08-.04-.16-.07-.24-.11v-.13c-.08-.04-.16-.07-.24-.11v-.13c-.08-.04-.16-.07-.24-.11v-.13c-.08-.04-.16-.07-.24-.11v-.13c-.08-.04-.16-.07-.24-.11v-.13c-.08-.04-.16-.07-.24-.11v-.13c-.08-.04-.16-.07-.24-.11v-.13c-.08-.04-.16-.07-.24-.11v-.13c-.08-.04-.16-.07-.24-.11v-.13c-.08-.04-.16-.07-.24-.11v-.13c-.08-.04-.16-.07-.24-.11v-.13c-.08-.04-.16-.07-.24-.11v-.13c-.08-.04-.16-.07-.24-.11v-.13c-.08-.04-.16-.07-.24-.11v-.13c-.08-.04-.16-.07-.24-.11v-.13c-.08-.04-.16-.07-.24-.11v-.13c-.08-.04-.16-.07-.24-.11v-.13c-.08-.04-.16-.07-.24-.11v-.13c-.08-.04-.16-.07-.24-.11v-.13c-.08-.04-.16-.07-.24-.11v-.13c-.08-.04-.16-.07-.24-.11v-.13c-.08-.04-.16-.07-.24-.11v-.13c-.08-.04-.16-.07-.24-.11v-.13c-.08-.04-.16-.07-.24-.11v-.13c-.08-.04-.16-.07-.24-.11v-.13c-.08-.04-.16-.07-.24-.11v-.13c-.08-.04-.16-.07-.24-.11v-.13c-.08-.04-.16-.07-.24-.11v-.13c-.08-.04-.16-.07-.24-.11v-.13s-.03-.01-.04-.02v23.69l-28.67 7.69V49.7c0-.42 0-.88.02-1.37.05-2.86.13-6.78-1.55-8.49-.58-.59-1.32-.88-2.25-.88-.47 0-1.01.08-1.58.23-5.1 1.37-5.79 6.15-5.79 10.64v41.91c0 .19.04 4.63 3.89 4.63.54 0 1.15-.09 1.79-.26 5.68-1.53 5.56-7.97 5.48-12.23 0-.5-.02-.96-.02-1.4v-3.92l-5.06 1.36V61.14l33.73-9.05v45.32l-.05.06c-7.64 8.96-19.18 15.41-35.3 19.74-4.73 1.27-10.27 2.57-15.43 2.57-3.86 0-6.99-.71-9.58-2.19-8.57-4.97-9.23-13.09-9.23-24.01V57.72c0-4.72.32-9.58 1.92-14.32l-.15.04v-.3l-.24.06v-.3l-.24.06v-.3l-.24.06v-.3l-.24.06v-.3l-.24.06v-.3l-.24.06v-.3l-.24.06v-.3l-.24.06v-.3l-.24.06v-.3l-.24.06v-.3l-.24.06v-.3l-.24.06v-.3l-.24.06v-.3l-.24.06v-.3l-.24.06v-.3l-.24.06v-.3l-.24.06v-.3l-.24.06v-.3l-.24.06v-.3l-.24.06v-.3l-.24.06v-.3l-.24.06v-.3l-.24.06v-.3l-.24.06v-.3l-.24.06v-.3l-.24.06v-.3l-.24.06v-.3l-.24.06v-.3l-.24.06v-.3l-.24.06v-.3l-.24.06v-.3l-.24.06v-.3l-.24.06v-.3l-.24.06v-.3l-.24.06v-.3l-.24.06v-.3l-.24.06v-.3l-.24.06v-.3l-.24.06v-.3l-.24.06v-.3l-.24.06v-.3l-.24.06v-.3l-.24.06v-.3l-.24.06v-.3h-.04v16.57l-.07.06c-3.17 2.83-3.15 5.88-3.13 9.11v69.29l-28.8 7.73-17.4-37.46v16.85c-.03 3.21-.05 6.25 3.06 7.36l.13.05v17.01l-29.66 7.96v-17.07l.07-.06c3.17-2.84 3.15-5.88 3.13-9.11V76.85c.03-3.21.05-6.25-3.06-7.36l-.13-.05V52.43l7.03-1.89v-.09l-.24.06v-.3l-.24.06v-.3l-.24.06v-.3l-.24.06v-.3l-.24.06v-.3l-.24.06v-.3l-.24.06v-.3l-.24.06v-.3l-.24.06v-.3l-.24.06v-.3l-.24.06v-.3l-.24.06v-.3l-.24.06v-.3l-.24.06v-.3l-.24.06v-.3l-.24.06v-.3l-.24.06v-.3l-.24.06v-.3l-.24.06v-.3l-.24.06v-.3l-.24.06v-.3l-.24.06v-.3l-.24.06v-.3l-.24.06v-.3l-.24.06v-.3l-.24.06v-.3l-.24.06v-.3l-.24.06v-.3l-.24.06v-.3l-.24.06v-.27l11.17-3V24.33l-.24.06v-.3l-.24.06v-.3l-.24.06v-.3l-.24.06v-.3l-.24.06v-.3l-.24.06v-.3l-.24.06v-.3l-.24.06v-.3l-.24.06v-.3l-.24.06v-.3l-.24.06v-.3l-.24.06v-.3l-.24.06v-.3l-.24.06v-.3l-.24.06v-.3l-.24.06v-.3l-.24.06v-.3l-.24.06v-.3l-.24.06v-.3l-.24.06v-.3l-.24.06v-.3l-.24.06v-.3l-.24.06v-.3l-.24.06v-.3l-.24.06v-.3l-.24.06v-.3l-.24.06v-.3l-.24.06v-.3l-.24.06v-.3l-.24.06v-.3l-.24.06v-.3l-.24.06v-.3l-.24.06v-.3l-.24.06v-.3l-.24.06v-.3l-.24.06v-.3l-.24.06v-.3l-.24.06v-.3l-.24.06v-.3l-.24.06v-.3l-.24.06v-.3l-.24.06v-.3l-.24.06v-.3l-.24.06v-.3l-.24.06v-.3l-.24.06v-.3l-.24.06v-.3l-.24.06v-.3l-.24.06v-.3l-.24.06v-.3l-.24.06v-.3l-.24.06v-.3l-.24.06v-.3l-.24.06v-.3l-.24.06v-.3l-.24.06v-.3l-.24.06v-.3l-.24.06v-.3l-.24.06v-.3l-.24.06v-.3l-.24.06v-.3l-.24.06v-.3l-.24.06v-.3l-.24.06v-.3l-.24.06v-.3l-.24.06v-.3l-.24.06v-.3l-.24.06v-.3l-.24.06v-.3l-.24.06v-.3l-.24.06v-.3l-.24.06v-.3l-.24.06v-.3l-.24.06v-.3l-.24.06v-.3l-.24.06v-.3l-.24.06v-.3l-.24.06v-.3l-.24.06v-.3l-.24.06v-.3l-.24.06v-.3l-.24.06v-.3l-.24.06v-.3l-.24.06v-.3l-.24.06v-.3l-.24.06v-.3l-.24.06v-.3l-.24.06v-.3l-.24.06v-.3l-.24.06v-.3l-.24.06v-.3l-.24.06v-.3l-.24.06v-.3l-.24.06v-.3l-.24.06v-.3l-.24.06v-.3l-.24.06v-.3l-.24.06v-.3l-.24.06v.37l-.24.06V1h-.04v15.87l-31.4 8.43v-1.69c0-2-.4-2.94-2.68-2.94-1.49 0-3.76.42-7.15 1.33l-1.87.5v8l21.29-5.71v9.6l-21.29 5.71v9.1l1.76-.47c9.76-2.62 9.81-4.14 9.93-7.82v-1.89l31.4-8.43v17.46l-81.29 21.82v-8.74l.11-.06c3.6-1.95 3.58-3.43 3.55-5V34.06c.02-.87.03-1.68-.51-2.24-.51-.52-1.47-.77-2.95-.78h-.2v-3.68l-.24.06v-.3l-.24.06v-.3l-.24.06v-.3l-.24.06v-.3l-.24.06v-.3l-.24.06v-.3l-.24.06v-.3l-.24.06v-.3l-.24.06v-.3l-.24.06v-.3l-.24.06v-.3l-.24.06v-.3l-.24.06v-.3l-.24.06V24l-.24.06v-.3h-.04V32l-.1.06c-3.61 1.95-3.58 3.44-3.55 5v22.02c-.02.87-.03 1.68.51 2.24.51.52 1.47.77 2.95.78h.2v8.71l-41.35 11.1v-8.74l.1-.06c3.61-1.95 3.58-3.44 3.55-5.01v-7.09l-12.45 3.34v7.2c-.02.87-.03 1.68.51 2.24.51.52 1.47.77 2.95.78h.2v8.71l-41.35 11.1v-8.74l.11-.06c3.6-1.95 3.58-3.43 3.55-5V58.57c.02-.87.03-1.68-.51-2.24-.48-.49-1.39-.74-2.74-.77v12.87l-24.21 6.5v-8.18c0-1.28-.38-2.13-2.21-2.13-.83 0-1.91.17-3.31.52v24.41c-.02.87-.03 1.68.51 2.24.51.52 1.47.77 2.95.78h.2v8.71l-41.35 11.1v-8.74l.11-.06c3.61-1.95 3.58-3.44 3.55-5.01v-24.3c-4.61 1.33-5.52 2.73-5.52 4.68v8.07l-23.78 6.38v.09l.24-.06v.3l.24-.06v.3l.24-.06v.3l.24-.06v.3l.24-.06v.3l.24-.06v.3l.24-.06v.3l.24-.06v.3l.24-.06v.3l.24-.06v.3l.24-.06v.3l.24-.06v.3l.24-.06v.3l.24-.06v.3l.24-.06v.3l.24-.06v.3l.24-.06v.3l.24-.06v.3l.24-.06v.3l.24-.06v.3l.24-.06v.3l.24-.06v.3l.24-.06v.3l.24-.06v.3l.24-.06v.3l.24-.06v.3l.24-.06v.3l.24-.06v.3l.24-.06v.3l.24-.06v.3l.24-.06v.3l.24-.06v.3l.24-.06v.3l.24-.06v.3l.24-.06v.3l.24-.06v.3l.24-.06v.3l.24-.06v.3l.24-.06v.3l.24-.06v.3l.24-.06v.3l.24-.06v.3l.24-.06v.3l.24-.06v.3l.24-.06v.3l.24-.06v.3l.24-.06v.3l.24-.06v.3l.24-.06v.3l.24-.06v.3l.24-.06v.3l.24-.06v.3l.24-.06v.3l.24-.06v.3l.24-.06v.3l.24-.06v.3l.24-.06v.3l.24-.06v.3l.24-.06v.3l.24-.06v.3l.24-.06v.3l.24-.06v.3l.24-.06v.3l.24-.06v.3l.24-.06v.3l.24-.06v.3l.24-.06v.3l.24-.06v.3l.24-.06v.3l.24-.06v.3l.24-.06v.3l.24-.06v.3l.24-.06v.3l.24-.06v.3l.24-.06v.3l.24-.06v.3l.24-.06v.3l.24-.06v.3l.24-.06v.3l.24-.06v.3l.24-.06v.3l.24-.06v.3l.24-.06v.3l.24-.06v.3l.24-.06v.3l.24-.06v.3l.24-.06v.3l.24-.06v.3l.24-.06v.3l.24-.06v.3l.24-.06v.3l.24-.06v.3l.24-.06v.3l.24-.06v.3l.24-.06v.3l.24-.06v.3l.24-.06v.3l.24-.06v.3l.24-.06v.3l.24-.06v.3l5.88-1.58v.23l.24-.06v.3l.24-.06v.3l.24-.06v.3l.24-.06v.3l.24-.06v.3l.24-.06v.3l.24-.06v.3l.24-.06v.3l.24-.06v.3l.24-.06v.3l.24-.06v.3l.24-.06v.22l14.45-3.88 13.79 64.83c.45 2.29 1.49 7.65 4.76 7.75h.19v17.07l-37.47 10.06v-17.09l.09-.06c2.2-1.43 3.32-3.42 3.32-5.92 0-.89-.19-1.65-.38-2.39l-13.88 3.73c-.22.93-.41 1.89-.41 2.71 0 2.58 1.25 3.94 3.6 3.94h.2l.05.2v16.87l-32.85 8.82v-17.07l.06-.06c2.54-2.43 3.25-6.16 3.88-9.45.15-.79.3-1.57.47-2.3l1.04-5.89h-.01v-.3l-.24.06v-.3l-.24.06v-.3l-.24.06v-.3l-.24.06v-.3l-.24.06v-.3l-.24.06v-.3l-.24.06v-.3l-.24.06v-.3l-.24.06v-.3l-.24.06v-.3l-.24.06v-.3l-.24.06v-.3l-.24.06v-.3l-.24.06v-.3l-.24.06v-.3l-.24.06v-.3l-.24.06v-.3l-.24.06v-.3l-.24.06v-.3l-.24.06v-.3l-.24.06v-.3l-.24.06v-.3l-.24.06v-.3l-.24.06v-.3l-.24.06v-.3l-.24.06v-.3l-.24.06v-.3l-.24.06v-.3l-.24.06v-.3l-.24.06v-.3l-.24.06v-.3l-.24.06v-.3l-.24.06v-.3l-.24.06v-.3l-.24.06v-.3l-.24.06v-.3l-.24.06v-.3l-.24.06v-.3l-.24.06v-.3l-.24.06v-.3h-.04v45.68l-69.04 18.53v-17.07l.07-.06c3.17-2.83 3.15-5.88 3.13-9.11v-41.04c-.06-.06-.12-.13-.19-.19l-.24-.24-.24-.24-.24-.24-.24-.24-.24-.24-.24-.24-.24-.24-.24-.24-.24-.24-.24-.24-.24-.24-.24-.24-.24-.24-.24-.24-.24-.24-.24-.24-.24-.24-.24-.24-.24-.24-.24-.24-.24-.24-.24-.24-.24-.24-.24-.24-.24-.24-.24-.24-.24-.24-.24-.24-.24-.24-.24-.24-.24-.24-.24-.24-.24-.24-.24-.24-.24-.24-.24-.24-.24-.24-.24-.24-.24-.24-.24-.24-.24-.24-.24-.24-.24-.24-.24-.24-.24-.24-.24-.24-.24-.24-.24-.24-.24-.24-.24-.24-.24-.24-.24-.24-.24-.24-.24-.24-.24-.24-.24-.24-.24-.24-.24-.24-.24-.24-.03-.03c2.61 3.75 3.31 8.77 3.31 13.04 0 11.33-4.76 19.53-14.56 25.06.85-.1 1.67-.15 2.45-.15 8.73 0 13.53 6.49 13.53 18.27 0 6.82-1.38 16.43-7.97 23.49-6.88 7.49-15.78 9.88-23.63 11.99L0 266.91v.09l.24-.06v.3l.24-.06v.3l.24-.06v.3l.24-.06v.3l.24-.06v.3l.24-.06v.3l.24-.06v.3l.24-.06v.3l.24-.06v.3l.24-.06v.3l.24-.06v.3l.24-.06v.3l.24-.06v.3l.24-.06v.3l.24-.06v.3l.24-.06v.3l.24-.06v.3l.24-.06v.3l.24-.06v.3l.24-.06v.3l.24-.06v.3l.24-.06v.3l.24-.06v.3l.24-.06v.3l.24-.06v.3l.24-.06v.3l.24-.06v.3l.24-.06v.3l.24-.06v.3l.24-.06v.3l.24-.06v.3l.24-.06v.3l.24-.06v.3l.24-.06v.3l.24-.06v.3l.24-.06v.3l.24-.06v.3l.24-.06v.3l.24-.06v.3l.24-.06v.3l.24-.06v.3l.24-.06v.3l.24-.06v.3l.24-.06v.3l.24-.06v.3l.24-.06v.3l.24-.06v.3l.24-.06v.3l.24-.06v.3l.24-.06v.3l.24-.06v.3l.24-.06v.3l.24-.06v.3l.24-.06v.3l.24-.06v.3l.24-.06v.3l.24-.06v.3l.24-.06v.3l.24-.06v.3l.24-.06v.3l.24-.06v.3l.24-.06v.3l.24-.06v.3l.24-.06v.3l.24-.06v.3l.24-.06v.3l.24-.06v.3l.24-.06v.3l.24-.06v.3l.24-.06v.3l.24-.06v.3l.24-.06v.3l.24-.06v.3l.24-.06v.3l.24-.06v.3l.24-.06v.3l.24-.06v.3l.24-.06v.3l.24-.06v.3l.24-.06v.3l.24-.06v.3l.24-.06v.3l.24-.06v.3l.24-.06v.3l.24-.06v.3l.24-.06v.3l.24-.06v.3l.24-.06v.3l.24-.06v.3l.24-.06v.3l.24-.06v.3l.24-.06v.3l.24-.06v.3l.24-.06v.3l.24-.06v.3l.24-.06v.3l.24-.06v.3l.24-.06v.3l.24-.06v.3l.24-.06v.3l44-11.81c8.25-2.21 16.83-4.63 23.54-11.93 2.26-2.42 3.92-5.17 5.12-8.06v.24l.24-.06v.3l.24-.06v.3l.24-.06v.3l.24-.06v.3l.24-.06v.3l.24-.06v.3l.24-.06v.3l.24-.06v.3l.24-.06v.3l.24-.06v.3l.24-.06v.3l.24-.06v.3l.24-.06v.3l.24-.06v.3l.24-.06v.3l.24-.06v.3l.24-.06v.3l.24-.06v.3l.24-.06v.3l.24-.06v.3l.24-.06v.3l.24-.06v.3l.24-.06v.3l.24-.06v.3l.24-.06v.3l.24-.06v.3l.24-.06v.3l.24-.06v.3l.24-.06v.3l.24-.06v.3l.24-.06v.3l.24-.06v.3l.24-.06v.3l.24-.06v.3l.24-.06v.3l.24-.06v.3l.24-.06v.3l.24-.06v.3l.24-.06v.3l.24-.06v.3l.73-.19v-2.93l.02-.6c.04-2.24.07-4.35-3.72-4.91l-.17-.03v-11.91l.15-.04c16.8-4.41 33.61-8.83 50.43-13.26l1.32-.35c7.26-1.91 15.49-4.07 22.38-4.07 1.63 0 3.13.12 4.46.37 8.38 1.45 12.69 7.19 12.45 16.59-.29 11.74-6.02 19.46-17.52 23.59 6.13.1 9.83 1.14 11.96 3.34 1.8 1.86 2.59 4.67 2.48 8.85l-.13 4.94c-.08 3.05-.18 7.13 4.11 7.88l.17.03-.4 16-.18.02c-13.03 1.25-26.08 2.1-38.78 2.52h-.15l-.05-.14c-1.41-4.52-2.21-8.21-1.5-21.47.08-3.28-.13-5.44-1.45-6.79-1.08-1.1-2.89-1.62-5.72-1.62-.92 0-1.96.06-3.12.17l-1.29.14-.18 8.62-.02.69c-.08 2.6-.16 5.05 3.59 6.44l.13.05-.31 14.15h-.19a528.875 528.875 0 0 1-42.21-1v.02c.08 0 .16 0 .24.01v.22c.08 0 .16 0 .24.01v.22c.08 0 .16 0 .24.01v.22c.08 0 .16 0 .24.01v.22c.08 0 .16 0 .24.01v.22c.08 0 .16 0 .24.01v.22c.08 0 .16 0 .24.01v.22c.08 0 .16 0 .24.01v.22c.08 0 .16 0 .24.01v.22c.08 0 .16 0 .24.01v.22c.08 0 .16 0 .24.01v.22c.08 0 .16 0 .24.01v.22c.08 0 .16 0 .24.01v.22c.08 0 .16 0 .24.01v.22c.08 0 .16 0 .24.01v.22c.08 0 .16 0 .24.01v.22c.08 0 .16 0 .24.01v.22c.08 0 .16 0 .24.01v.22c.08 0 .16 0 .24.01v.22c.08 0 .16 0 .24.01v.22c.08 0 .16 0 .24.01v.22c.08 0 .16 0 .24.01v.22c.08 0 .16 0 .24.01v.22c.08 0 .16 0 .24.01v.22c.08 0 .16 0 .24.01v.22c.08 0 .16 0 .24.01v.22c.08 0 .16 0 .24.01v.22c.08 0 .16 0 .24.01v.22c.08 0 .16 0 .24.01v.22c.08 0 .16 0 .24.01v.22c.08 0 .16 0 .24.01v.22c.08 0 .16 0 .24.01v.22c.08 0 .16 0 .24.01v.22c.08 0 .16 0 .24.01v.22c.08 0 .16 0 .24.01v.22c.08 0 .16 0 .24.01v.22c.08 0 .16 0 .24.01v.22c.08 0 .16 0 .24.01v.22c.08 0 .16 0 .24.01v.22c.08 0 .16 0 .24.01v.22c.08 0 .16 0 .24.01v.22c.08 0 .16 0 .24.01v.22c.08 0 .16 0 .24.01v.22c.08 0 .16 0 .24.01v.22c.08 0 .16 0 .24.01v.22c.08 0 .16 0 .24.01v.22c.08 0 .16 0 .24.01v.22c.08 0 .16 0 .24.01v.22c.08 0 .16 0 .24.01v.22c.08 0 .16 0 .24.01v.22c.08 0 .16 0 .24.01v.22c.08 0 .16 0 .24.01v.22c.08 0 .16 0 .24.01v.22c.08 0 .16 0 .24.01v.22c.08 0 .16 0 .24.01v.22c.08 0 .16 0 .24.01v.22c.08 0 .16 0 .24.01v.22c.08 0 .16 0 .24.01v.22c.08 0 .16 0 .24.01v.22c.08 0 .16 0 .24.01v.22c.08 0 .16 0 .24.01v.22c.08 0 .16 0 .24.01v.22c.08 0 .16 0 .24.01v.22c.08 0 .16 0 .24.01v.22c.08 0 .16 0 .24.01v.22c.08 0 .16 0 .24.01v.22c.08 0 .16 0 .24.01v.22c.08 0 .16 0 .24.01v.22c.08 0 .16 0 .24.01v.22c.08 0 .16 0 .24.01v.22c.08 0 .16 0 .24.01v.22c.08 0 .16 0 .24.01v.22c.08 0 .16 0 .24.01v.22c.08 0 .16 0 .24.01v.22c.08 0 .16 0 .24.01v.22c.08 0 .16 0 .24.01v.22c.08 0 .16 0 .24.01v.22c.08 0 .16 0 .24.01v.22c.08 0 .16 0 .24.01v.22c.08 0 .16 0 .24.01v.22c.08 0 .16 0 .24.01v.22c.08 0 .16 0 .24.01v.22c.08 0 .16 0 .24.01v.22c.08 0 .16 0 .24.01v.22c.08 0 .16 0 .24.01v.22c.08 0 .16 0 .24.01v.22c.08 0 .16 0 .24.01v.22c.08 0 .16 0 .24.01v.22c.08 0 .16 0 .24.01v.22c.08 0 .16 0 .24.01v.22c.08 0 .16 0 .24.01v.22c.08 0 .16 0 .24.01v.22c.08 0 .16 0 .24.01v.22c.08 0 .16 0 .24.01v.22c.08 0 .16 0 .24.01v.22c.08 0 .16 0 .24.01v.22c.08 0 .16 0 .24.01v.22c.08 0 .16 0 .24.01v.22c.08 0 .16 0 .24.01v.22c.08 0 .16 0 .24.01v.22c13.9.9 28.07 1.23 42.45 1.02.08-3.46.15-6.91.23-10.37.01.05.03.09.04.14h.16c.03.08.05.16.08.24h.16c.02.08.05.16.08.24h.16c.03.08.05.16.08.24h.16c.03.08.05.16.08.24h.16c.03.08.05.16.08.24h.16c.03.08.05.16.08.24h.16c.03.08.05.16.08.24h.16c.03.08.05.16.08.24h.16c.02.08.05.16.08.24h.16c.03.08.05.16.08.24h.16c.03.08.05.16.08.24h.16c.02.08.05.16.08.24h.16c.03.08.05.16.08.24h.16c.03.08.05.16.08.24h.16c.02.08.05.16.08.24h.16c.03.08.05.16.08.24h.16c.03.08.05.16.08.24h.16c.02.08.05.16.08.24h.16c.03.08.05.16.08.24h.16c.03.08.05.16.08.24h.16c.03.08.05.16.08.24h.16c.02.08.05.16.08.24h.16c.03.08.05.16.08.24h.16c.03.08.05.16.08.24h.16c.02.08.05.16.08.24h.16c.03.08.05.16.08.24h.16c.02.08.05.16.08.24h.16c.02.08.05.16.08.24h.16c.03.08.05.16.08.24h.16c.03.08.05.16.08.24h.16c.03.08.05.16.08.24h.16c.03.08.05.16.08.24h.16c.03.08.05.16.08.24h.16c.03.08.05.16.08.24h.16c.02.08.05.16.08.24h.16c.03.08.05.16.08.24h.16c.03.08.05.16.08.24h.16c.02.08.05.16.08.24h.16c.03.08.05.16.08.24h.16c.02.08.05.16.08.24h.16c.02.08.05.16.08.24h.16c.03.08.05.16.08.24 12.78-.42 25.72-1.26 38.76-2.52l.39-15.65c-.09-.02-.16-.04-.24-.06v-.18c-.08-.02-.15-.04-.24-.06v-.18c-.09-.02-.16-.04-.24-.06v-.18c-.09-.02-.16-.04-.24-.06v-.18c-.08-.02-.15-.04-.24-.06v-.18c-.09-.02-.16-.04-.24-.06v-.18c-.09-.02-.16-.04-.24-.06v-.18c-.09-.02-.16-.04-.24-.06v-.18c-.09-.02-.16-.04-.24-.06v-.18c-.09-.02-.16-.04-.24-.06v-.18c-.09-.02-.16-.04-.24-.06v-.18c-.09-.02-.16-.04-.24-.06v-.18c-.09-.02-.16-.04-.24-.06v-.18c-.09-.02-.16-.04-.24-.06v-.18c-.08-.02-.15-.04-.24-.06v-.18c-.09-.02-.16-.04-.24-.06V316c-.08-.01-.15-.04-.22-.05 0-.03-.01-.06-.02-.08v-.1h-.02a8.68 8.68 0 0 1-.14-.89c.03.03.06.05.09.08l.24.24.24.24.24.24.24.24.24.24.24.24.24.24.24.24.24.24.24.24.24.24.24.24.24.24.24.24.24.24.24.24.24.24.24.24.24.24.24.24.24.24.24.24.24.24.24.24.24.24.24.24.24.24.24.24.24.24.24.24.24.24.24.24.24.24.24.24.24.24.24.24.24.24.24.24.24.24.24.24.24.24.24.24.24.24.24.24.24.24.24.24.24.24.24.24.24.24.24.24.24.24c7.07 7.17 20.65 7.91 38 4.9 24.17-4.27 41.55-13.71 44.26-33.86.07.07.14.13.21.2l.24.24.24.24.24.24.24.24.24.24.24.24.24.24.24.24.24.24.24.24.24.24.24.24.24.24.24.24.24.24.24.24.24.24.24.24.24.24.24.24.24.24.24.24.24.24.24.24.24.24.24.24.24.24.24.24.24.24.24.24.24.24.24.24.24.24.24.24.24.24.24.24.24.24.24.24.24.24.24.24c7.12 7.73 21.43 6.66 39.6.77 19.53-6.4 34.36-15.23 40.56-28.52.05-.02.1-.04.14-.06v.33c.08-.03.15-.06.23-.1v.33c.08-.03.15-.06.23-.1v.33c.08-.03.15-.06.23-.1v.33c.08-.03.15-.06.23-.1v.33c.08-.03.15-.06.23-.1v.33c.08-.03.15-.06.23-.1v.33c.08-.03.15-.06.23-.1v.33c.08-.03.15-.06.23-.1v.33c.08-.03.15-.06.23-.1v.33c.08-.03.15-.06.23-.1v.33c.08-.03.15-.06.23-.1v.33c.08-.03.15-.06.23-.1v.33c.08-.03.15-.06.23-.1v.33c.08-.03.15-.06.23-.1v.33c.08-.03.15-.06.23-.1v.33c.08-.03.15-.06.23-.1v.33c.08-.03.15-.06.23-.1v.33c.08-.03.15-.06.23-.1v.33c.08-.03.15-.06.23-.1v.33c.08-.03.15-.06.23-.1v.33c.08-.03.15-.06.23-.1v.33c.08-.03.15-.06.23-.1v.33c.08-.03.15-.06.23-.1v.33c.08-.03.15-.06.23-.1v.33c.08-.03.15-.06.23-.1v.33c.08-.03.15-.06.23-.1v.33c.08-.03.15-.06.23-.1v.33c.08-.03.15-.06.23-.1v.33c.08-.03.15-.06.23-.1v.33c.08-.03.15-.06.23-.1v.33c.08-.03.15-.06.23-.1v.33c.08-.03.15-.06.23-.1v.33c.08-.03.15-.06.23-.1v.33a823.247 823.247 0 0 0 36.05-15.69l-.39-14.97c-.08 0-.15-.01-.23-.02v-.22c-.09 0-.16-.01-.24-.02v-.22c-.08 0-.15-.01-.23-.02v-.22c-.08 0-.15-.01-.23-.02v-.22c-.09 0-.16-.01-.24-.02v-.22c-.08 0-.15-.01-.23-.02v-.22c-.08 0-.15-.01-.23-.02v-.22c-.09 0-.16-.01-.24-.02v-.22c-.08 0-.15-.01-.23-.02v-.22c-.08 0-.15-.01-.23-.02v-.22c-.09 0-.16-.01-.24-.02v-.22c-.08 0-.15-.01-.23-.02v-.22c-.08 0-.15-.01-.23-.02v-.22c-.09 0-.16-.01-.24-.02v-.22c-.08 0-.15-.01-.23-.02v-.22c-.09 0-.16-.01-.24-.02v-.22c-.09 0-.16-.01-.24-.02v-.22h-.03c-.07-.84-.07-1.74-.09-2.62-.02-.65-.03-1.29-.05-1.94.02.05.05.1.07.14.03-.02.07-.03.1-.05.05.1.09.19.14.29.03-.02.07-.03.1-.05.05.1.09.19.14.29.03-.02.07-.03.1-.05.05.1.09.19.14.29.03-.02.07-.03.1-.05.05.1.09.19.14.29.03-.02.07-.03.1-.05.05.1.09.19.14.29.03-.02.07-.03.1-.05.05.1.09.19.14.29.03-.02.07-.03.1-.05.05.1.09.19.14.29.03-.02.07-.03.1-.05.05.1.09.19.14.29.03-.02.07-.03.1-.05.05.1.09.19.14.29.03-.02.07-.03.1-.05.05.1.09.19.14.29.03-.02.07-.03.1-.05.05.1.09.19.14.29.03-.02.07-.03.1-.05.05.1.09.19.14.29.03-.02.07-.03.1-.05.05.1.09.19.14.29.03-.02.07-.03.1-.05.05.1.09.19.14.29.03-.02.07-.03.1-.05.05.1.09.19.14.29.03-.02.07-.03.1-.05.05.1.09.19.14.29.03-.02.07-.03.1-.05.05.1.09.19.14.29.03-.02.07-.03.1-.05.05.1.09.19.14.29.03-.02.07-.03.1-.05.05.1.09.19.14.29.03-.02.07-.03.1-.05.05.1.09.19.14.29.03-.02.07-.03.1-.05.05.1.09.19.14.29.03-.02.07-.03.1-.05.05.1.09.19.14.29.03-.02.07-.03.1-.05.05.1.09.19.14.29.03-.02.07-.03.1-.05.05.1.09.19.14.29.03-.02.07-.03.1-.05.05.1.09.19.14.29.03-.02.07-.03.1-.05.05.1.09.19.14.29.03-.02.07-.03.1-.05.05.1.09.19.14.29.03-.02.07-.03.1-.05.05.1.09.19.14.29.03-.02.07-.03.1-.05.05.1.09.19.14.29.03-.02.07-.03.1-.05.05.1.09.19.14.29.03-.02.07-.03.1-.05.05.1.09.19.14.29.03-.02.07-.03.1-.05.05.1.09.19.14.29.03-.02.07-.03.1-.05.05.1.09.19.14.29.03-.02.07-.03.1-.05.05.1.09.19.14.29.03-.02.07-.03.1-.05.05.1.09.19.14.29.03-.02.07-.03.1-.05.05.1.09.19.14.29.03-.02.07-.03.1-.05.05.1.09.19.14.29.03-.02.07-.03.1-.05.05.1.09.19.14.29.03-.02.07-.03.1-.05.05.1.09.19.14.29.03-.02.07-.03.1-.05.05.1.09.19.14.29.03-.02.07-.03.1-.05.05.1.09.19.14.29.03-.02.07-.03.1-.05.05.1.09.19.14.29.03-.02.07-.03.1-.05.05.1.09.19.14.29.03-.02.07-.03.1-.05.05.1.09.19.14.29.03-.02.07-.03.1-.05.05.1.09.19.14.29.03-.02.07-.03.1-.05.05.1.09.19.14.29.03-.02.07-.03.1-.05.05.1.09.19.14.29.03-.02.07-.03.1-.05.05.1.09.19.14.29.03-.02.07-.03.1-.05.05.1.09.19.14.29.03-.02.07-.03.1-.05.05.1.09.19.14.29.03-.02.07-.03.1-.05.05.1.09.19.14.29.03-.02.07-.03.1-.05.05.1.09.19.14.29.03-.02.07-.03.1-.05.05.1.09.19.14.29.03-.02.07-.03.1-.05.05.1.09.19.14.29.03-.02.07-.03.1-.05.05.1.09.19.14.29.03-.02.07-.03.1-.05.05.1.09.19.14.29.03-.02.07-.03.1-.05.05.1.09.19.14.29.03-.02.07-.03.1-.05.05.1.09.19.14.29.03-.02.07-.03.1-.05.05.1.09.19.14.29.03-.02.07-.03.1-.05.05.1.09.19.14.29.03-.02.07-.03.1-.05.05.1.09.19.14.29.03-.02.07-.03.1-.05.05.1.09.19.14.29.03-.02.07-.03.1-.05.05.1.09.19.14.29.03-.02.07-.03.1-.05.05.1.09.19.14.29.03-.02.07-.03.1-.05.05.1.09.19.14.29.03-.02.07-.03.1-.05.05.1.09.19.14.29.03-.02.07-.03.1-.05.05.1.09.19.14.29.03-.02.07-.03.1-.05.05.1.09.19.14.29.03-.02.07-.03.1-.05.05.1.09.19.14.29.03-.02.07-.03.1-.05.05.1.09.19.14.29.03-.02.07-.03.1-.05.05.1.09.19.14.29.03-.02.07-.03.1-.05.05.1.09.19.14.29.03-.02.07-.03.1-.05.05.1.09.19.14.29 3.77-1.83 7.52-3.68 11.26-5.57 1.33-4.7 2.67-9.36 4-13.97v.03c.08-.04.15-.08.23-.12v.36c.08-.04.15-.08.23-.12v.36c.08-.04.15-.08.23-.12v.36c.08-.04.15-.08.23-.12v.36c.08-.04.15-.08.23-.12v.36c.08-.04.15-.08.23-.12v.36c.08-.04.15-.08.23-.12v.36c.08-.04.15-.08.23-.12v.36c.08-.04.15-.08.23-.12v.36c.08-.04.15-.08.23-.12v.36c.08-.04.15-.08.23-.12v.36c.08-.04.15-.08.23-.12v.36c.08-.04.15-.08.23-.12v.36c.08-.04.15-.08.23-.12v.36c.08-.04.15-.08.23-.12v.36c.08-.04.15-.08.23-.12v.36c.08-.04.15-.08.23-.12v.36c.08-.04.15-.08.23-.12v.36c.08-.04.15-.08.23-.12v.36c.08-.04.15-.08.23-.12v.36c.08-.04.15-.08.23-.12v.36c.08-.04.15-.08.23-.12v.36c.08-.04.15-.08.23-.12v.36c.08-.04.15-.08.23-.12v.36c.08-.04.15-.08.23-.12v.36c.08-.04.15-.08.23-.12v.36c.08-.04.15-.08.23-.12v.36c.08-.04.15-.08.23-.12v.36c.08-.04.15-.08.23-.12v.36c.08-.04.15-.08.23-.12v.36c.08-.04.15-.08.23-.12v.36c.08-.04.15-.08.23-.12v.36c.08-.04.15-.08.23-.12v.36a810.099 810.099 0 0 0 40.86-22.97v-11.58l-.24.03v-.27l-.24.03v-.27l-.24.03v-.27l-.24.03v-.27l-.24.03v-.27l-.24.03v-.27l-.24.03v-.27l-.24.03v-.27l-.24.03v-.27l-.24.03v-.27l-.24.03v-.27l-.24.03v-.27l-.24.03v-.27l-.24.03v-.27l-.24.03v-.27l-.23.03v-.95c-.03-9.95-.06-19.89-.1-29.84 0-2.47-.42-4.85 3.88-7.8v-11.58c-.08.02-.16.04-.24.07v-.3c-.08.02-.16.04-.24.07v-.3c-.08.02-.16.04-.24.07v-.3c-.08.02-.16.04-.24.07v-.3c-.08.02-.16.04-.24.07v-.3c-.08.02-.16.04-.24.07v-.3c-.08.02-.16.04-.24.07v-.3c-.08.02-.16.04-.24.07v-.3c-.08.02-.16.04-.24.07v-.3c-.08.02-.16.04-.24.07v-.3c-.08.02-.16.04-.24.07v-.3c-.08.02-.16.04-.24.07v-.3c-.08.02-.16.04-.24.07v-.3c-.08.02-.16.04-.24.07v-.3c-.08.02-.16.04-.24.07v-.3c-.08.02-.16.04-.24.07v-.3c-.08.02-.16.04-.24.07v-.3c-.08.02-.16.04-.24.07v-.3c-.08.02-.16.04-.24.07v-.3c-.08.02-.16.04-.24.07v-.3c-.08.02-.16.04-.24.07v-.3c-.08.02-.16.04-.24.07v-.3c-.08.02-.16.04-.24.07v-.3c-.08.02-.16.04-.24.07v-.3c-.08.02-.16.04-.24.07v-.3c-.08.02-.16.04-.24.07v-.3c-.08.02-.16.04-.24.07v-.3c-.08.02-.16.04-.24.07v-.3c-.08.02-.16.04-.24.07v-.3c-.08.02-.16.04-.24.07l.36-.59 28.48-7.64v-30.73c.07.08.16.15.23.23l.24.24.24.24.24.24.24.24.24.24.24.24.24.24.24.24a477698313033.563 477698313033.563 0 0 0 .72.72l.24.24c.07.08.16.16.24.24l.24.24.24.24.24.24c.07.08.16.16.24.24l.24.24.24.24.24.24a424636721970.189 424636721970.189 0 0 0 .96.96l.24.24.24.24.24.24.24.24.24.24.24.24.24.24.24.24.24.24.24.24.24.24.24.24.24.24.24.24c.07.08.16.16.24.24l.24.24.24.24.24.24.24.24.24.24.24.24.24.24.24.24.24.24.24.24.24.24.24.24.24.24.24.24.24.24.24.24.24.24.24.24.24.24.24.24.24.24.24.24.24.24.24.24.24.24.24.24.24.24.24.24.24.24.24.24.24.24.24.24.24.24c1.11 1.19 2.46 2.28 4.11 3.23 6.71 3.81 16.39 1.87 24.86-.4 11.99-3.22 25.96-8.84 35.2-19.68V76.74l-.24.06v-.3l-.24.06v-.3l-.24.06v-.3l-.24.06v-.3l-.24.06v-.3l-.24.06v-.3l-.24.06v-.3l-.24.06v-.3l-.24.06v-.3l-.24.06v-.3l-.24.06v-.3l-.24.06v-.3l-.24.06v-.3l-.24.06v-.3l-.24.06v-.3l-.24.06v-.3l-.24.06v-.3l-.24.06v-.3l-.24.06v-.3l-.24.06v-.3l-.24.06v-.3l-.24.06v-.3l-.24.06v-.3l-.24.06v-.3l-.24.06v-.3l-.24.06v-.3l-.24.06v-.3l-.24.06 6.65-1.79-.52-.08zm-390.49 65.69-.06-.29-.18.05-.06-.29-.18.05-.06-.29-.18.05-.06-.29-.18.05-.06-.29-.18.05-.06-.29-.18.05-.06-.29-.18.05-.03-.12 6.16-1.65c.65-8.09 2.62-13.47 9.66-20.69 2.07-2.11 4.51-4 7.38-5.69V92.73l.22-.06v.3l.24-.06v.3l.24-.06v.3l.24-.06v.3l.24-.06v.3l.24-.06v.3l.24-.06v.3l.24-.06v.3l.24-.06v.3l.24-.06v.3l.24-.06v.3l.24-.06v.3l.24-.06v.3l.24-.06v.3l.24-.06v.3l.24-.06v.3l.24-.06v.3l.24-.06v.3l.24-.06v.3l.24-.06v.3l.24-.06v.3l.24-.06v.3l.24-.06v.3l.24-.06v.3l.24-.06v.3l3.62-.97v.23l.24-.06v.3l.24-.06v.3l.24-.06v.3l.24-.06v.3l.24-.06v.3l.24-.06v.3l.24-.06v.04c1.8-.6 3.7-1.18 5.71-1.72 6.76-1.81 12.69-2.7 18.15-2.7 6.05 0 11.52 1.07 16.74 3.28l.12.05v22.51l-27.79 7.46v-2.02c0-4.3-.3-8.5-3.91-8.5-.5 0-1.06.08-1.67.25-3.38.91-5.57 3.9-5.57 7.61 0 2.05.29 3.63 1.68 4.65 1.51 1.21 5.26 1.47 8.13 1.49h1.88c7.64 0 15.43.28 20.63 2.35 3.81 1.56 6.15 3.84 7.37 7.19 1.45 3.43 2.21 7.74 2.21 12.46v.44c0 21.64-11.51 34.81-36.23 41.45-6.77 1.82-12.98 2.74-18.45 2.74-6.16 0-11.51-1.17-15.9-3.47l-.11-.06V169.3l5.55-1.49-3.6-16.9c-1.99-2.95-3.07-7.02-3.32-12.44l-.07.02-.06-.29-.18.05-.06-.29-.18.05-.06-.29-.18.05-.06-.29-.18.05-.06-.29-.18.05-.06-.29-.18.05-.06-.29-.18.05-.06-.29-.18.05-.06-.29-.18.05-.06-.29-.18.05-.06-.29-.18.05-.06-.29-.18.05-.06-.29-.18.05-.06-.29-.18.05-.06-.29-.18.05-.06-.29-.18.05-.06-.29-.18.05-.06-.29-.18.05v-.03zm53.14 134.81c-.06 21.63-14.3 34.21-44.81 39.61-6.4 1.11-12.13 1.67-17.03 1.67-9.89 0-16.83-2.19-21.21-6.68-3.74-3.83-5.55-9.44-5.37-16.66l.91-37.86c.04-1.79.22-3.49.48-5.12l-.05-.05.06-.02c3.39-20.66 23.79-29.03 43.72-34.44 9.14-2.46 16.45-3.66 22.34-3.66 7.09 0 12.24 1.71 15.73 5.22 3.68 3.69 5.45 9.27 5.42 17.05l-.2 40.95.01-.01zm48.8 16.22c-9.83 3.19-17.76 4.74-24.24 4.74-6.48 0-11.77-1.73-15.17-5.14-3.62-3.63-5.44-9.3-5.41-16.86l.07-40.99c0-2.1.16-4.08.43-5.97l-.04-.04h.04c3.09-21.74 22.65-30.31 42.11-35.63.32-2.32.47-4.7.47-7.12v-.44c0-4.4-.66-8.73-2.2-12.39-.71-1.93-1.77-3.41-3.12-4.59-.02-.02-.05-.04-.07-.06l-.24-.24-.24-.24-.24-.24-.24-.24-.24-.24-.24-.24-.24-.24-.24-.24-.24-.24-.24-.24-.24-.24-.24-.24-.24-.24-.24-.24-.24-.24-.24-.24-.24-.24-.24-.24-.24-.24-.24-.24-.24-.24-.24-.24-.24-.24-.24-.24-.24-.24-.24-.24-.24-.24-.24-.24-.24-.24-.24-.24-.24-.24-.24-.24-.24-.24-.24-.24-.24-.24-.24-.24-.24-.24-.24-.24-.24-.24-.24-.24-.24-.24-.24-.24-.24-.24-.24-.24-.24-.24-.24-.24-.24-.24-.24-.24-.24-.24-.24-.24-.24-.24s-.01-.02-.02-.02l12.97-3.48v.26l.24-.06v.3l.24-.06v.3l.24-.06v.3l.24-.06v.3l.24-.06v.3l.24-.06v.3l.24-.06v.3l.24-.06v.3l.24-.06v.3l.24-.06v.3l.24-.06v.3l.24-.06v.3l.24-.06v.3l.24-.06v.3l.24-.06v.3l.24-.06v.3l.24-.06v.3l.24-.06v.3l.24-.06v.3l.24-.06v.3l.24-.06v.3l.24-.06v.3l.24-.06v.3l.24-.06v.3l.24-.06v.3l.24-.06v.3l.24-.06v.3l.24-.06v.3l.24-.06v.3l.24-.06v.3l.24-.06v.3l.24-.06v.3l.24-.06v.3l.24-.06v.3l.24-.06v.3l.24-.06v.3l.24-.06v.3l.24-.06v.3l.24-.06v.3l.24-.06v.3l1.55-.42c.23-1.29.22-2.62.21-3.97v-48.86c-3.98 1.27-4.77 3.84-4.77 7.83v15.99l-21.19 5.69V88.08l81.69-21.92v42.98l-21.19 5.69v-16.1c0-3.87-.87-5.38-3.11-5.38-.48 0-1.04.07-1.66.21v48.97c-.03 3.21-.05 6.25 3.06 7.36l.13.05v17.01l-35.71 9.58v.09l.24-.06v.3l.24-.06v.3l.24-.06v.3l.24-.06v.3l.24-.06v.3l.24-.06v.3l.24-.06v.3l.24-.06v.3l.24-.06v.3l.24-.06v.3l.24-.06v.3l.24-.06v.3l.24-.06v.3l.24-.06v.3l.24-.06v.3l.24-.06v.3l.24-.06v.3l.24-.06v.3l.24-.06v.3l.24-.06v.3l.24-.06v.3l.24-.06v.3l.24-.06v.3l.24-.06v.3l.24-.06v.3l.24-.06v.24c5.12-1 9.55-1.49 13.38-1.49 14.03 0 21 6.77 21.3 20.69l.8 38.73c.44 20.39-13.5 34.52-43.88 44.48l-.03-.04zm157.64-123.51v.59l.1 29.84v.57c-.02 1.33-.03 2.58.66 3.27.37.38.94.56 1.72.56.35 0 .74-.04 1.18-.11l.23-.04v11.93l-.1.06a802.856 802.856 0 0 1-40.87 22.98l-.29.15-.31-14 .07-.06c3.82-3.46 3.74-5.88 3.66-8.45l-.02-.67-.41-19.78c-4.67 15-9.39 30.96-14.44 48.79l-.02.08-.08.04c-3.72 1.87-7.51 3.75-11.26 5.57l-.18.09-.09-.18c-5.78-12.02-11.69-24.89-17.57-38.24l.59 22.6v.75c.06 2.89.1 5.62 3.96 5.72h.19l.4 15.3-.12.06a828.514 828.514 0 0 1-36.06 15.7l-.27.11-.37-16.41.07-.06c3.92-3.43 3.83-6.32 3.73-9.38l-.02-.8-.9-38.35c-.08-.08-.15-.16-.23-.23l-.24-.24-.24-.24a955396626067.21 955396626067.21 0 0 1-.48-.48l-.24-.24a955396626067.21 955396626067.21 0 0 0-.48-.48l-.24-.24a955396626067.21 955396626067.21 0 0 1-.48-.48l-.24-.24-.24-.24-.24-.24-.24-.24-.24-.24-.24-.24-.24-.24-.24-.24-.24-.24c-.02-.02-.04-.05-.07-.07l4.48-1.2h.02c-.36-1.65-1.29-2.95-3.73-3.4l-.16-.03-.37-16.34.15-.04c4.15-1.12 8.29-2.25 12.44-3.38-.33-1.48-.27-3.22-.27-4.94v-32.37l.18-.05v.3l.24-.06v.3l.24-.06v.3l.24-.06v.3l.24-.06v.3l.24-.06v.3l.24-.06v.3l.24-.06v.3l.24-.06v.3l.24-.06v.3l.24-.06v.3l.24-.06v.3l.24-.06v.3l.24-.06v.3l.24-.06v.3l.24-.06v.3l.24-.06v.3l.24-.06v.3l.24-.06v.3l.24-.06v.3l.24-.06v.3l.24-.06v.3l4.85-1.3c.23-1.29.22-2.62.21-3.98V89.32c.03-3.21.05-6.25-3.06-7.36l-.13-.05V64.9l36.15-9.7v17.07l-.07.06c-3.17 2.83-3.15 5.88-3.13 9.11v44.02c-.03 3.21-.05 6.25 3.06 7.36l.13.05v17.01l-35.71 9.58v.09l.24-.06v.3l.24-.06v.3l.24-.06v.3l.24-.06v.3l.24-.06v.3l.24-.06v.3l.24-.06v.3l.24-.06v.3l.24-.06v.3l.24-.06v.3l.24-.06v.3l.24-.06v.3l.24-.06v.3l.24-.06v.3l.24-.06v.3l.24-.06v.3l.24-.06v.3l.24-.06v.3l.24-.06v.3l.24-.06v.3l.24-.06v.3l.24-.06v.3l.24-.06v.3l.24-.06v.3l.24-.06v.3l.24-.06v.3l.24-.06v.3l.24-.06v.3l.24-.06v.3l.24-.06v.3l.24-.06v.1c6.28-1.71 12.56-3.41 18.83-5.12l.17-.05.07.16c4.23 10.06 8.5 19.91 12.7 29.3 1.28-4.2 2.56-8.33 3.83-12.39-.03-.07-.06-.13-.08-.2l-.12.03c-.03-.07-.06-.15-.09-.22l.46-.12c2.51-8.03 5-15.75 7.41-23.06l.03-.1.1-.03c14.78-4.04 29.56-8.08 44.33-12.14l.51.66v11.15l-.09.06c-3.87 2.65-3.84 4.78-3.8 7.04l-.1-.1z"/><path fill="#231F20" d="m243.88 154.56.24.24.24.24.24.24.24.24.24.24.24.24.24.24.24.24.24.24.24.24.24.24.24.24.24.24.24.24.24.24.24.24.24.24.24.24.24.24.24.24.24.24.24.24.24.24.24.24.24.24.24.24.24.24.24.24.24.24.24.24.24.24.24.24.24.24.24.24.24.24.24.24.24.24.24.24.24.24.24.24.24.24.24.24.24.24.15.15 13.11-3.52v1.79c-.01 4.69-.02 8.4.85 9.91.7 1.13 1.98 1.78 3.52 1.78.5 0 1.02-.07 1.53-.21 3.83-1.03 5.57-5.18 5.57-8.6 0-7.17-3.26-8.53-9.28-8.53-1 0-2.06.03-3.16.07l-1.55.04c-1.31.03-2.58.04-3.8.04-6.52 0-13.14-.44-17.58-3.54l.17.17.24.24-.09-.11zm.62 75.4c-.7 0-1.49.11-2.34.32-6.39 1.59-7.08 6.64-7.08 8.74l-.76 42.94c-.09 2.55.7 3.92 1.38 4.62.82.85 2 1.28 3.5 1.28.6 0 1.25-.07 1.95-.2 6.47-1.27 7.15-6.45 7.14-8.62l.63-43.47c.08-2.49-.67-3.79-1.31-4.46-.74-.76-1.78-1.15-3.11-1.15zM125.63 361.62c1.48.03 2.01.34 2.1.91.12.57-.26 1.42-.65 2.56 2.18.21 4.37.4 6.56.58.94-2.81 1.88-5.61 2.82-8.42-5.82-.47-11.61-1.05-17.38-1.73l-1.59 4.32c.74.44.55 1.22.08 2.5-1.33 3.65-2.67 7.3-4 10.95-.33.91-.58 1.83-1.71 2.29l-1.59 4.32c3.14.37 6.29.71 9.45 1.02.51-1.44 1.01-2.89 1.52-4.33-.73-.66-.32-1.56 0-2.48.36-1.03.73-2.07 1.09-3.1 1.62.16 3.25.32 4.87.46.54-1.59 1.09-3.17 1.63-4.76-1.61-.15-3.22-.3-4.83-.46.54-1.55 1.09-3.1 1.63-4.64v.01zm21.09-4.14c-5.31-.32-9.45.88-11.47 6.94-1.14 3.43-2.28 6.87-3.43 10.3-2.02 6.04 1.28 7.88 6.85 8.21 5.57.34 9.87-1.03 11.68-7.09l3.09-10.32c1.81-6.06-1.41-7.72-6.72-8.04zm-.78 7.26c-1.16 3.69-2.32 7.39-3.47 11.08-.05.17-.51 1.92-2.12 1.82-1.6-.1-.96-1.84-.91-2.01 1.18-3.69 2.36-7.39 3.53-11.08.05-.17.52-1.89 2.08-1.79 1.56.09.94 1.8.89 1.97v.01zm27.97-4.88c-1.39-1.01-3.76-1.01-5.63-1.04-3.52-.06-7.02-.16-10.52-.3l-1.29 4.35c.74.61.39 1.52.12 2.43l-3.24 11.01c-.27.92-.45 1.83-1.56 2.37l-1.29 4.35c3.2.12 6.41.22 9.62.28.4-1.45.81-2.9 1.21-4.35-.78-.59-.44-1.51-.18-2.42.26-.93.52-1.87.79-2.8h.32c2.11.1 2.05 1.07 1.51 3.02-1.22 4.09-1.33 5.24-1.37 6.59 2.84.05 5.69.07 8.54.07.38-1.45.75-2.9 1.13-4.35-.88-.37-.56-1.57-.35-2.41.12-.47.24-.93.37-1.4.65-2.49.1-3.52-2.19-4.11 0-.02.01-.04.02-.06 3.1-.69 4.53-3.05 5.23-5.73.58-2.23.44-4.32-1.25-5.5h.01zm-6.9 6.46c-.47 1.72-1.23 2.57-2.91 2.53-.26 0-.52-.01-.78-.02.47-1.67.94-3.34 1.4-5.01.26 0 .52.01.77.02 1.66.03 1.94.9 1.51 2.47l.01.01zm8.72 3.65c1.83 0 3.67-.02 5.51-.04l1.02-4.12c.28-1.12.69-1.72 1.79-1.76l-3.09 12.56c-.23.92-.36 1.83-1.45 2.42l-1.08 4.35c3.24-.04 6.48-.11 9.72-.21.33-1.45.67-2.9 1-4.35-.82-.54-.52-1.46-.3-2.38.97-4.18 1.94-8.37 2.92-12.55 1.09 0 1.22.59.96 1.7-.32 1.37-.63 2.75-.95 4.12 1.84-.06 3.69-.13 5.54-.2.81-3.69 1.62-7.38 2.43-11.06-7.08.3-14.14.45-21.17.47-.95 3.69-1.9 7.38-2.86 11.07l.01-.02zm44.06-3.93c2.53-.21 5.06-.43 7.59-.67l1.14-6.78c-2.23-1.38-5.19-2.02-8.11-1.9-2.9.12-5.75.91-7.7 2.39-2.11 1.6-2.84 3.76-3.28 5.96-.57 2.84-1.14 5.67-1.7 8.51-.54 2.68-1.15 5.26.69 7.09 1.31 1.32 4.32 1.79 7.57 1.44 3.28-.35 6.8-1.53 9.15-3.36.46-2.72.91-5.43 1.37-8.15-2.56.24-5.11.47-7.66.68-.17.92-.33 1.84-.5 2.77-.18 1-.28 2.69-1.96 2.83-1.68.13-1.15-1.6-.96-2.6.59-3.15 1.17-6.3 1.76-9.44.19-1 .3-2.69 1.93-2.82 1.63-.13 1.12 1.6.94 2.59-.09.48-.18.97-.26 1.45l-.01.01zm20.8-11.32c-5.48.63-9.49 2.5-10.49 8.54-.56 3.43-1.12 6.85-1.69 10.28-1 6.03 2.69 7.17 8.44 6.5 5.74-.67 9.9-2.71 10.68-8.72.45-3.41.89-6.83 1.34-10.24.78-6.01-2.8-7-8.28-6.36zm.48 6.95c-.53 3.67-1.06 7.35-1.6 11.02-.02.17-.19 1.89-1.84 2.09-1.65.19-1.3-1.55-1.28-1.73.55-3.68 1.1-7.35 1.66-11.03.03-.17.19-1.87 1.8-2.05 1.61-.19 1.28 1.53 1.25 1.7h.01zm20.19 6.87c-.16 1.53-.26 2.68-2.31 3l-.78.12c.46-4.14.93-8.28 1.39-12.42.1-.91.12-1.8 1.12-2.51l.48-4.3c-3.16.48-6.31.94-9.47 1.36-.18 1.44-.37 2.87-.55 4.31.87.44.67 1.36.55 2.27l-1.38 10.91c-.11.91-.14 1.8-1.17 2.5-.18 1.44-.37 2.87-.55 4.31a631.5 631.5 0 0 0 18.99-2.88l1.11-11.73c-2.34.39-4.68.77-7.01 1.13l-.42 3.93zm20.45-3.54c-.11 1.52-.16 2.66-2.22 3.05-.26.05-.52.1-.79.15.31-4.11.63-8.23.94-12.34.07-.9.05-1.78 1.03-2.52.11-1.42.21-2.85.32-4.27-3.17.59-6.33 1.16-9.49 1.7l-.39 4.28c.89.4.72 1.32.64 2.22-.33 3.62-.66 7.23-.98 10.85-.08.9-.07 1.79-1.09 2.52l-.39 4.28c6.34-1.08 12.69-2.26 19.04-3.55l.69-11.65c-2.34.47-4.69.93-7.03 1.38-.09 1.3-.19 2.6-.28 3.9zm9.85-13.8c.91.37.78 1.28.73 2.17-.19 3.59-.39 7.18-.58 10.77-.05.9 0 1.77-1.01 2.53l-.24 4.25c3.31-.68 6.62-1.39 9.93-2.13.05-1.41.11-2.83.16-4.24-.95-.34-.82-1.26-.79-2.15.14-3.58.28-7.16.43-10.74.04-.89-.02-1.77.95-2.53.05-1.41.11-2.83.16-4.24-3.17.7-6.34 1.38-9.51 2.04l-.24 4.25.01.02zm24.27-9.7c-.02 1.4-.03 2.81-.05 4.21.94.32.84 1.23.83 2.12-.01 1.39-.03 2.79-.04 4.18h-.06c-1.45-3.19-2.87-6.41-4.26-9.64-2.83.68-5.66 1.34-8.49 1.99-.05 1.41-.09 2.82-.14 4.23.93.34.81 1.25.78 2.15-.11 3.57-.23 7.15-.34 10.72-.03.89.03 1.76-.95 2.54-.05 1.41-.09 2.82-.14 4.23 2.71-.61 5.42-1.25 8.13-1.9.03-1.41.05-2.81.08-4.22-.96-.32-.85-1.23-.83-2.12l.09-4.14h.06c1.52 3.17 3.06 6.34 4.64 9.5 2.64-.65 5.28-1.32 7.92-2l-.03-17.15c0-.88-.09-1.74.85-2.54 0-1.4-.01-2.8-.02-4.2-2.67.7-5.35 1.38-8.02 2.04h-.01zm30.18 7.87c-.05-1.09-.28-2.16-.74-3.04-.4-.88-1.12-1.36-2.07-1.66-1.65-.51-4.23-.4-6.15-.33-.66.02-1.8 0-2.25-.31-.42-.27-.49-.72-.5-1.19-.02-.88.5-1.71 1.5-2 1.53-.43 1.61 1.01 1.64 2.05 0 .15 0 .29.01.44 2.46-.7 4.93-1.42 7.39-2.15l-.24-5.52c-2.93-.99-5.95-.74-9.35.21-2.34.66-4.76 1.6-6.42 3.23-2.03 2.01-2.47 3.4-2.57 5.97v.52c.04 5.1 2.77 5.47 7.67 5.22 2.23-.12 3.89-.4 3.97 2.01.03.85-.43 1.95-1.52 2.26-.61.17-1.19.03-1.47-.36-.28-.42-.28-1.47-.31-2.87-2.62.73-5.24 1.44-7.86 2.14l.06 6.34c2.67 1.2 6.2.82 9.54-.12 7.81-2.21 9.89-6.25 9.69-10.74v-.11l-.02.01zm6.15-.18c-1.9.59-3.38 2.25-3.3 4 .08 1.72 1.54 2.38 3.41 1.89-.46 1.22-1.2 2.45-2.02 3.58.52.26 1.05.51 1.57.76 2.05-2.07 4.34-5.36 4.19-7.83-.12-1.87-1.67-3.07-3.85-2.4zm27.16-13.07c.09.87.19 1.73.28 2.6.1.94.49 2.47-1.21 3.06-1.69.6-1.64-1.09-1.74-2.03-.3-2.96-.6-5.92-.91-8.87-.1-.94-.46-2.47 1.18-3.05 1.65-.58 1.61 1.1 1.72 2.03l.15 1.36c2.55-.9 5.1-1.82 7.64-2.76l-.78-6.33c-2.7-.59-5.94-.31-8.93.63-2.95.93-5.67 2.45-7.25 4.31-1.72 2.02-1.84 4.14-1.66 6.22.23 2.68.46 5.35.7 8.03.22 2.53.33 4.99 2.75 6.09 1.73.8 4.97.35 8.22-.88 3.28-1.24 6.57-3.3 8.48-5.59-.31-2.54-.62-5.07-.94-7.61-2.57.95-5.14 1.87-7.71 2.79h.01zm28.11-17.61c-.93-5.55-4.93-5.4-10.41-3.27-5.48 2.13-9.08 4.93-8.38 10.57l1.23 9.59c.71 5.63 4.85 5.58 10.6 3.35s9.46-5.24 8.53-10.78c-.52-3.15-1.05-6.3-1.57-9.46zm-7.68 15.36c-1.66.64-1.8-1-1.82-1.16l-1.47-10.25c-.02-.16-.34-1.71 1.27-2.33 1.61-.63 1.76.99 1.78 1.15l1.53 10.23c.02.16.36 1.73-1.3 2.38l.01-.02zm21.97-15.92c.23 1.2.47 2.4.7 3.6.27 1.4.51 2.45-1.53 3.32l-.78.33c-.72-3.8-1.43-7.6-2.15-11.4-.16-.83-.4-1.63.44-2.54l-.75-3.94c-3.14 1.33-6.27 2.64-9.42 3.93.23 1.33.45 2.65.68 3.98 1.03.14 1.08 1.01 1.23 1.85.58 3.35 1.15 6.71 1.73 10.06.14.84.38 1.64-.5 2.55.23 1.33.45 2.65.68 3.98 6.3-2.57 12.59-5.24 18.86-8.01l-2.24-10.72c-2.31 1.02-4.63 2.03-6.95 3.02v-.01zm26.65-17.52c-1.37-5.36-5.44-4.9-10.87-2.39-5.43 2.51-8.89 5.52-7.73 10.98l1.98 9.28c1.15 5.45 5.37 5.09 11.06 2.46s9.25-5.85 7.88-11.2c-.77-3.04-1.55-6.08-2.32-9.12v-.01zm-6.66 15.61c-1.64.76-1.91-.84-1.94-1-.76-3.3-1.52-6.6-2.28-9.91-.04-.15-.47-1.64 1.12-2.38 1.6-.74 1.87.83 1.91.98l2.34 9.88c.04.15.5 1.66-1.14 2.42l-.01.01zm30.7-16.97c-.12-.4-.25-.81-.37-1.21-.65-2.15-1.74-2.61-4.34-1.86v-.05c2.72-2.12 2.91-4.57 2.2-6.89-.59-1.93-1.83-3.37-4.13-3.36-1.91-.02-4.27 1.21-6.16 2.16-3.53 1.78-7.08 3.52-10.62 5.24.33 1.28.66 2.56.99 3.83 1.06.06 1.18.9 1.39 1.71.85 3.23 1.69 6.47 2.54 9.7.21.81.51 1.57-.31 2.53.33 1.28.66 2.56.99 3.83 3.24-1.57 6.48-3.16 9.72-4.78-.36-1.27-.71-2.53-1.07-3.8-1.09-.03-1.22-.87-1.45-1.67-.23-.82-.46-1.63-.68-2.45.11-.05.22-.11.32-.16 2.16-1.02 2.6-.28 3.09 1.42.93 3.61 1.42 4.5 2.08 5.51 2.85-1.44 5.7-2.9 8.55-4.38-.38-1.25-.77-2.5-1.15-3.76-1.07.18-1.39-.86-1.61-1.57l.02.01zm-11.7-1.73c-.26.13-.52.26-.79.39-.41-1.46-.81-2.92-1.22-4.38l.78-.39c1.67-.84 2.41-.35 2.8 1.02.43 1.5.12 2.51-1.57 3.35v.01zm33.22-9.86c-2.99-4.32-5.95-8.67-8.87-13.04-3.58 1.98-7.18 3.92-10.78 5.83.52 5.55 1.01 11.11 1.46 16.68.02.94.27 2.07-.43 3.01l1.16 3.75c2.92-1.53 5.84-3.08 8.76-4.65-.41-1.24-.82-2.48-1.22-3.72-.73.22-1.21 0-1.41-.6-.06-.2-.08-.45-.08-.68l3.78-2.04c.12.16.25.33.32.55.19.56.03 1.11-.53 1.64.41 1.24.83 2.47 1.24 3.71 3.33-1.8 6.64-3.64 9.96-5.5-.44-1.22-.88-2.44-1.32-3.67-.96.28-1.66-.72-2.04-1.29v.02zm-12.26 2.25c-.27-2.29-.55-4.58-.84-6.86l.06-.03c1.11 1.84 2.22 3.68 3.33 5.51-.85.46-1.7.92-2.56 1.38h.01zm30.73-23.4c-.79-1.93-1.75-3.64-4.24-3.76-2.16-.09-4.52 1.28-6.57 2.48-3.46 2.03-6.93 4.02-10.41 5.98.44 1.22.88 2.44 1.33 3.66 1-.18 1.27.38 1.56 1.09 1.22 3.34 2.44 6.69 3.66 10.03.22.71.37 1.39-.4 2.2l1.32 3.66c3.71-2.09 7.42-4.22 11.11-6.39 2.37-1.39 4.56-2.83 5.78-5.26 1.31-2.57.79-4.17-.02-6.15-1.04-2.52-2.07-5.03-3.11-7.55l-.01.01zm-5.95 15.61c-.2.12-.41.24-.61.36-1.49-3.88-2.98-7.77-4.48-11.66.2-.12.4-.23.6-.35 1.64-.96 2.35-.76 2.93.71 1 2.56 2 5.11 3 7.67.58 1.47.25 2.28-1.44 3.26v.01zm25.97-28.53c-2.28-4.85-6.43-3.74-11.67-.46-5.24 3.28-8.35 6.7-6.29 11.69 1.18 2.82 2.36 5.64 3.54 8.47 2.06 4.98 6.39 3.93 11.89.5 5.5-3.44 8.69-7.09 6.41-11.93-1.29-2.75-2.58-5.51-3.86-8.26l-.02-.01zm-4.44 15.9c-1.58.99-2.12-.48-2.18-.62-1.32-3-2.63-6.01-3.95-9.01-.06-.14-.75-1.48.79-2.44s2.08.47 2.14.61l4.01 8.97c.06.14.78 1.5-.8 2.49h-.01z"/></svg>